<svg width="16" height="16" viewBox="0 0 16 16" version="1.1" xmlns="http://www.w3.org/2000/svg" xmlns:xlink="http://www.w3.org/1999/xlink">
<title>Group</title>
<desc>Created using Figma</desc>
<g id="Canvas" transform="translate(1664 -838)">
<g id="Group">
<g id="Line Copy 3">
<use xlink:href="#path0_stroke" transform="translate(-1663.42 839.075)" fill="#F7F7F7"/>
</g>
<g id="Line Copy 3">
<use xlink:href="#path1_stroke" transform="translate(-1663.42 839.075)" fill="#F7F7F7"/>
</g>
</g>
</g>
<defs>
<path id="path0_stroke" d="M -0.353553 13.7886C -0.548816 13.9838 -0.548816 14.3004 -0.353553 14.4957C -0.158291 14.691 0.158291 14.691 0.353553 14.4957L -0.353553 13.7886ZM 14.4957 0.353553C 14.691 0.158291 14.691 -0.158291 14.4957 -0.353553C 14.3004 -0.548816 13.9838 -0.548816 13.7886 -0.353553L 14.4957 0.353553ZM 0.353553 14.4957L 14.4957 0.353553L 13.7886 -0.353553L -0.353553 13.7886L 0.353553 14.4957Z"/>
<path id="path1_stroke" d="M 0.353553 -0.353553C 0.158291 -0.548816 -0.158291 -0.548816 -0.353553 -0.353553C -0.548816 -0.158291 -0.548816 0.158291 -0.353553 0.353553L 0.353553 -0.353553ZM 13.7886 14.4957C 13.9838 14.691 14.3004 14.691 14.4957 14.4957C 14.691 14.3004 14.691 13.9838 14.4957 13.7886L 13.7886 14.4957ZM -0.353553 0.353553L 13.7886 14.4957L 14.4957 13.7886L 0.353553 -0.353553L -0.353553 0.353553Z"/>
</defs>
</svg>
