<?xml version="1.0" encoding="UTF-8"?>
<svg width="62px" height="86px" viewBox="0 0 62 86" version="1.1" xmlns="http://www.w3.org/2000/svg" xmlns:xlink="http://www.w3.org/1999/xlink">
    <!-- Generator: Sketch 48.2 (47327) - http://www.bohemiancoding.com/sketch -->
    <title>androidwatch</title>
    <desc>Created with Sketch.</desc>
    <defs>
        <circle id="path-1" cx="50" cy="20" r="3"></circle>
        <circle id="path-2" cx="50" cy="65" r="3"></circle>
        <circle id="path-3" cx="10" cy="20" r="3"></circle>
        <circle id="path-4" cx="10" cy="65" r="3"></circle>
    </defs>
    <g id="Draft-3-Copy-11" stroke="none" stroke-width="1" fill="none" fill-rule="evenodd" transform="translate(-373.000000, -4224.000000)">
        <g id="androidwatch" transform="translate(374.000000, 4225.000000)">
            <circle id="Oval-3" stroke="#3F3F3F" stroke-linecap="round" stroke-linejoin="round" cx="30" cy="43" r="30"></circle>
            <path d="M11,19.3456069 C12.3586429,10.3460068 13.1750386,5.05923319 13.4491869,3.4852862 C13.8604094,1.1243657 15.3300041,7.96807241e-16 17.5242908,0 C18.9871486,0 23.1157558,0 29.9101125,0" id="Path-50" stroke="#3F3F3F" stroke-linecap="round" stroke-linejoin="round"></path>
            <path d="M11,84.3456069 C12.3586429,75.3460068 13.1750386,70.0592332 13.4491869,68.4852862 C13.8604094,66.1243657 15.3300041,65 17.5242908,65 C18.9871486,65 23.1157558,65 29.9101125,65" id="Path-50-Copy-2" stroke="#3F3F3F" stroke-linecap="round" stroke-linejoin="round" transform="translate(20.455056, 74.672803) scale(1, -1) translate(-20.455056, -74.672803) "></path>
            <path d="M29,19.3456069 C30.3586429,10.3460068 31.1750386,5.05923319 31.4491869,3.4852862 C31.8604094,1.1243657 33.3300041,7.96807241e-16 35.5242908,0 C36.9871486,0 41.6052724,0 49.3786623,0" id="Path-50-Copy" stroke="#3F3F3F" stroke-linecap="round" stroke-linejoin="round" transform="translate(39.189331, 9.672803) scale(-1, 1) translate(-39.189331, -9.672803) "></path>
            <path d="M29,84.3456069 C30.3586429,75.3460068 31.1750386,70.0592332 31.4491869,68.4852862 C31.8604094,66.1243657 33.3300041,65 35.5242908,65 C36.9871486,65 41.6052724,65 49.3786623,65" id="Path-50-Copy-3" stroke="#3F3F3F" stroke-linecap="round" stroke-linejoin="round" transform="translate(39.189331, 74.672803) scale(-1, -1) translate(-39.189331, -74.672803) "></path>
            <g id="Oval-Copy-597" transform="translate(50.000000, 20.000000) rotate(-90.000000) translate(-50.000000, -20.000000) ">
                <use fill="#C2C2C2" fill-rule="evenodd" xlink:href="#path-1"></use>
                <circle stroke="#151515" stroke-width="1.5" cx="50" cy="20" r="2.25"></circle>
                <use stroke="#151515" stroke-width="1" xlink:href="#path-1"></use>
            </g>
            <g id="Oval-Copy-599" transform="translate(50.000000, 65.000000) rotate(-90.000000) translate(-50.000000, -65.000000) ">
                <use fill="#C2C2C2" fill-rule="evenodd" xlink:href="#path-2"></use>
                <circle stroke="#151515" stroke-width="1.5" cx="50" cy="65" r="2.25"></circle>
                <use stroke="#151515" stroke-width="1" xlink:href="#path-2"></use>
            </g>
            <g id="Oval-Copy-598" transform="translate(10.000000, 20.000000) rotate(-90.000000) translate(-10.000000, -20.000000) ">
                <use fill="#C2C2C2" fill-rule="evenodd" xlink:href="#path-3"></use>
                <circle stroke="#151515" stroke-width="1.5" cx="10" cy="20" r="2.25"></circle>
                <use stroke="#151515" stroke-width="1" xlink:href="#path-3"></use>
            </g>
            <g id="Oval-Copy-600" transform="translate(10.000000, 65.000000) rotate(-90.000000) translate(-10.000000, -65.000000) ">
                <use fill="#C2C2C2" fill-rule="evenodd" xlink:href="#path-4"></use>
                <circle stroke="#151515" stroke-width="1.5" cx="10" cy="65" r="2.25"></circle>
                <use stroke="#151515" stroke-width="1" xlink:href="#path-4"></use>
            </g>
        </g>
    </g>
</svg>