<?xml version="1.0" encoding="UTF-8"?>
<svg width="150px" height="175px" viewBox="0 0 150 175" version="1.1" xmlns="http://www.w3.org/2000/svg" xmlns:xlink="http://www.w3.org/1999/xlink">
    <!-- Generator: Sketch 48.2 (47327) - http://www.bohemiancoding.com/sketch -->
    <title>color-section-7</title>
    <desc>Created with Sketch.</desc>
    <defs>
        <rect id="path-1" x="0" y="0" width="150" height="175" rx="4"></rect>
        <ellipse id="path-3" cx="118.756757" cy="107.036145" rx="6.60810811" ry="6.61445783"></ellipse>
        <ellipse id="path-4" cx="153.189189" cy="35.2771084" rx="6.60810811" ry="6.61445783"></ellipse>
        <ellipse id="path-5" cx="16.6216216" cy="132.289157" rx="6.60810811" ry="6.61445783"></ellipse>
        <ellipse id="path-6" cx="32.0405405" cy="52.9156627" rx="6.60810811" ry="6.61445783"></ellipse>
    </defs>
    <g id="Draft-3-Copy-11" stroke="none" stroke-width="1" fill="none" fill-rule="evenodd" transform="translate(-1118.000000, -6459.000000)">
        <g id="color-section-7" transform="translate(1118.000000, 6459.000000)">
            <mask id="mask-2" fill="white">
                <use xlink:href="#path-1"></use>
            </mask>
            <use id="Mask" fill="#FFD1A4" xlink:href="#path-1"></use>
            <g id="brain-copy" mask="url(#mask-2)">
                <g transform="translate(-92.000000, 30.000000)">
                    <path d="" id="Path-10" stroke="#0F0F0F" stroke-width="5" stroke-linecap="round" stroke-linejoin="round"></path>
                    <g id="Group-12" stroke="none" stroke-width="1" fill-rule="evenodd" transform="translate(0.000000, 2.204819)" stroke-linecap="round" stroke-linejoin="round">
                        <path d="M102.365854,132.638391 C102.387336,148.706745 108.785224,158.06306 121.559518,160.707333 C140.720959,164.673744 152.47226,142.014526 142.423653,129.331472" id="Path-9" stroke="#0F0F0F" stroke-width="5"></path>
                        <path d="M144.592146,132.586357 C156.308082,127.384105 162.110186,119.904279 161.998459,110.146877 C161.886731,100.389475 159.08148,94.197276 153.582703,91.5702795" id="Path-16" stroke="#0F0F0F" stroke-width="5"></path>
                        <path d="M80.5,8.97989816 C83.6201525,2.99329939 88.6269993,5.04706704e-16 95.5205404,0 C105.860852,0 116.224493,3.63117279 123.329731,10.6425518 C127.196264,14.458008 129.484727,18.2061122 130.195122,21.8868645" id="Path-18" stroke="#0F0F0F" stroke-width="5"></path>
                        <path d="M110.317073,43.7737291 C111.241846,52.3894246 114.598121,58.6021171 120.385897,62.4118065 C126.173673,66.2214959 132.756423,67.9532439 140.134146,67.6070507" id="Path-19" stroke="#0F0F0F" stroke-width="5"></path>
                        <path d="M80.5,9.94857479 L80.5,171.133087 C84.6886335,176.647503 91.0341443,179.141012 99.5365326,178.613616 C112.290115,177.822522 119.085336,166.436077 120.256098,160.520449" id="Path-8" stroke="#0F0F0F" stroke-width="5"></path>
                        <path d="M120.256098,105.454893 C141.549679,104.514978 154.545811,96.1679763 159.244495,80.4138869 C166.292521,56.7827528 158.868808,35.9926674 147.721447,28.3041316 C142.561275,24.745068 135.749408,22.2597091 130.285039,22.112055" id="Path-17" stroke="#0F0F0F" stroke-width="5"></path>
                    </g>
                    <g id="Oval-Copy-165" stroke="none" transform="translate(118.756757, 107.036145) rotate(-90.000000) translate(-118.756757, -107.036145) ">
                        <use fill="#0F0F0F" fill-rule="evenodd" xlink:href="#path-3"></use>
                        <ellipse stroke="#FFD1A4" stroke-width="3.3" cx="118.756757" cy="107.036145" rx="4.95810811" ry="4.96445783"></ellipse>
                        <use stroke="#FFD1A4" stroke-width="2.2" xlink:href="#path-3"></use>
                    </g>
                    <g id="Oval-Copy-178" stroke="none" transform="translate(153.189189, 35.277108) rotate(-90.000000) translate(-153.189189, -35.277108) ">
                        <use fill="#0F0F0F" fill-rule="evenodd" xlink:href="#path-4"></use>
                        <ellipse stroke="#FFD1A4" stroke-width="3.3" cx="153.189189" cy="35.2771084" rx="4.95810811" ry="4.96445783"></ellipse>
                        <use stroke="#FFD1A4" stroke-width="2.2" xlink:href="#path-4"></use>
                    </g>
                </g>
            </g>
            <g id="brain-copy-2" mask="url(#mask-2)">
                <g transform="translate(82.000000, -39.000000)">
                    <g id="Group-12" stroke-width="1" fill-rule="evenodd" transform="translate(0.000000, 2.204819)" stroke-linecap="round" stroke-linejoin="round">
                        <path d="M30.804878,21.8868645 C14.6158335,25.1927953 5.0722852,34.7852553 2.17423307,50.6642446 C-0.723819054,66.5432338 1.1948989,78.9378664 7.93038692,87.8481423" id="Path-20" stroke="#0F0F0F" stroke-width="5"></path>
                        <path d="M34.7804878,51.7325889 C48.6680897,51.592939 56.6193092,46.2870324 58.6341463,35.8148692" id="Path-22" stroke="#0F0F0F" stroke-width="5"></path>
                        <path d="M18.5408306,129.450811 C14.3591467,138.643536 13.7782696,146.001663 16.7981995,151.525193 C21.3280942,159.810487 30.1684593,165.620093 40.7439024,165.115895" id="Path-24" stroke="#0F0F0F" stroke-width="5"></path>
                        <path d="M52.6707317,86.0024882 C42.5038871,76.9012648 30.6663201,75.192607 17.1580309,80.8765149 C-3.10440301,89.4023768 -2.81938157,117.831719 9.70293861,125.254782 C12.7011672,127.032091 15.6545899,128.390988 18.5632067,129.331472" id="Path-21" stroke="#0F0F0F" stroke-width="5"></path>
                        <path d="M34.7804878,107.444608 C43.6896585,108.836466 49.9545598,112.549755 53.5751917,118.584472 C57.1958236,124.61919 58.873024,131.517715 58.6067931,139.280047" id="Path-23" stroke="#0F0F0F" stroke-width="5"></path>
                        <path d="M80.5,169.096194 C76.0938649,175.416525 70.0589018,178.731051 62.3951109,179.039772 C50.8994246,179.502854 42.7371064,175.337221 40.7439024,165.146341" id="Path-25" stroke="#0F0F0F" stroke-width="5"></path>
                    </g>
                    <g id="Oval-Copy-312" transform="translate(16.621622, 132.289157) rotate(-90.000000) translate(-16.621622, -132.289157) ">
                        <use fill="#0F0F0F" fill-rule="evenodd" xlink:href="#path-5"></use>
                        <ellipse stroke="#FFD1A4" stroke-width="3.3" cx="16.6216216" cy="132.289157" rx="4.95810811" ry="4.96445783"></ellipse>
                        <use stroke="#FFD1A4" stroke-width="2.2" xlink:href="#path-5"></use>
                    </g>
                    <g id="Oval-Copy-311" transform="translate(32.040541, 52.915663) rotate(-90.000000) translate(-32.040541, -52.915663) ">
                        <use fill="#0F0F0F" fill-rule="evenodd" xlink:href="#path-6"></use>
                        <ellipse stroke="#FFD1A4" stroke-width="3.3" cx="32.0405405" cy="52.9156627" rx="4.95810811" ry="4.96445783"></ellipse>
                        <use stroke="#FFD1A4" stroke-width="2.2" xlink:href="#path-6"></use>
                    </g>
                </g>
            </g>
        </g>
    </g>
</svg>