<?xml version="1.0" encoding="UTF-8"?>
<svg width="151px" height="175px" viewBox="0 0 151 175" version="1.1" xmlns="http://www.w3.org/2000/svg" xmlns:xlink="http://www.w3.org/1999/xlink">
    <!-- Generator: Sketch 48.2 (47327) - http://www.bohemiancoding.com/sketch -->
    <title>color-section-4</title>
    <desc>Created with Sketch.</desc>
    <defs>
        <rect id="path-1" x="0.5" y="0" width="150" height="175" rx="4"></rect>
        <ellipse id="path-3" cx="50.530303" cy="15.4337349" rx="6.59090909" ry="6.61445783"></ellipse>
        <ellipse id="path-4" cx="106.454545" cy="6.61445783" rx="6.59090909" ry="6.61445783"></ellipse>
    </defs>
    <g id="Draft-3-Copy-11" stroke="none" stroke-width="1" fill="none" fill-rule="evenodd" transform="translate(-644.000000, -6459.000000)">
        <g id="color-section-4" transform="translate(644.000000, 6459.000000)">
            <mask id="mask-2" fill="white">
                <use xlink:href="#path-1"></use>
            </mask>
            <use id="Mask" fill="#C06C86" xlink:href="#path-1"></use>
            <g id="live-streaming-torso" mask="url(#mask-2)">
                <g transform="translate(3.000000, 22.000000)">
                    <g id="Group-6" stroke-width="1" fill-rule="evenodd" transform="translate(7.590909, 2.204819)" stroke-linecap="round" stroke-linejoin="round">
                        <path d="M0.0112385547,173.577863 C0.0112385547,165.401251 0.873265103,159.558701 5.48793144,154.692169 C10.1025978,149.825637 15.6517402,146.577175 22.0125629,144.149454 C28.3733855,141.721734 51.3767236,134.650536 51.3767236,124.063456" id="Path-256" stroke="#0F0F0F" stroke-width="5"></path>
                        <path d="M66.070133,36.7323488 C37.7747611,36.7323488 21.3058742,36.7323488 16.6634723,36.7323488 C9.69986932,36.7323488 5.27880888,41.3325039 5.27880888,47.9170186 C5.27880888,54.5015333 5.27880888,103.04407 5.27880888,110.055485 C5.27880888,117.066899 7.89543964,122.181271 16.6634723,122.181271 C22.5088273,122.181271 38.9899245,122.181271 66.1067637,122.181271" id="Path-258" stroke="#0F0F0F" stroke-width="5"></path>
                        <path d="M66.0280691,47.5806824 C35.842036,47.5806824 20.1741451,47.5806824 19.0243964,47.5806824 C17.2997732,47.5806824 15.8800128,49.0663784 15.8800128,50.6116559 C15.8800128,52.1569335 15.8800128,106.609198 15.8800128,108.185417 C15.8800128,109.761636 17.0046231,111.512378 19.3005265,111.512378 C20.8311287,111.512378 36.4133131,111.512378 66.0470798,111.512378" id="Path-259" stroke="#0F0F0F" stroke-width="5"></path>
                        <path d="M42.7092762,135.128419 C46.0001629,139.369893 50.2580488,145.589481 65.914785,145.589481" id="Path-257" stroke="#0F0F0F" stroke-width="5"></path>
                        <path d="M80.4414582,173.577863 C80.4414582,165.401251 81.3034848,159.558701 85.9181511,154.692169 C90.5328174,149.825637 96.0819598,146.577175 102.442783,144.149454 C108.803605,141.721734 131.806943,134.650536 131.806943,124.063456" id="Path-256" stroke="#0F0F0F" stroke-width="5" transform="translate(106.124201, 148.820660) scale(-1, 1) translate(-106.124201, -148.820660) "></path>
                        <path d="M126.502742,36.7323488 C98.2073704,36.7323488 81.7384834,36.7323488 77.0960815,36.7323488 C70.1324785,36.7323488 65.7114181,41.3325039 65.7114181,47.9170186 C65.7114181,54.5015333 65.7114181,103.04407 65.7114181,110.055485 C65.7114181,117.066899 68.3280489,122.181271 77.0960815,122.181271 C82.9414366,122.181271 99.4225337,122.181271 126.539373,122.181271" id="Path-258" stroke="#0F0F0F" stroke-width="5" transform="translate(96.125396, 79.456810) scale(-1, 1) translate(-96.125396, -79.456810) "></path>
                        <path d="M115.919158,47.5806824 C85.7331252,47.5806824 70.0652343,47.5806824 68.9154856,47.5806824 C67.1908624,47.5806824 65.7711021,49.0663784 65.7711021,50.6116559 C65.7711021,52.1569335 65.7711021,106.609198 65.7711021,108.185417 C65.7711021,109.761636 66.8957123,111.512378 69.1916157,111.512378 C70.7222179,111.512378 86.3044024,111.512378 115.938169,111.512378" id="Path-259" stroke="#0F0F0F" stroke-width="5" transform="translate(90.854636, 79.546530) scale(-1, 1) translate(-90.854636, -79.546530) "></path>
                        <path d="M65.9033968,135.128419 C69.1942835,139.369893 73.4521693,145.589481 89.1089056,145.589481" id="Path-257" stroke="#0F0F0F" stroke-width="5" transform="translate(77.506151, 140.358950) scale(-1, 1) translate(-77.506151, -140.358950) "></path>
                        <path d="M44.7453211,15.0979874 L66.0301505,36.6293761" id="Path-260" stroke="#0F0F0F" stroke-width="5"></path>
                        <path d="M98.8636364,3.9686747 L66.0301505,36.6293761" id="Path-260" stroke="#0F0F0F" stroke-width="5"></path>
                        <path d="M23.7272727,66.6741385 C27.2378854,66.6741385 27.4935347,60.853012 33.1002534,60.853012 C38.706972,60.853012 38.7435281,66.692636 43.5600223,66.692636 C48.3765165,66.692636 48.5973889,60.853012 54.2033716,60.853012 C59.8093543,60.853012 59.3617727,66.692636 64.7112484,66.692636 C70.0607241,66.692636 70.0742406,61.2799614 75.1242022,61.2799614 C80.1741638,61.2799614 80.2282299,66.692636 85.7485055,66.692636 C91.268781,66.692636 90.8039965,61.2799614 96.1540866,61.2799614 C101.504177,61.2799614 101.163806,66.692636 105.551457,66.692636" id="Path-261" stroke="#0F0F0F" stroke-width="5"></path>
                        <path d="M23.7272727,82.5488373 C27.2378854,82.5488373 27.4935347,76.7277108 33.1002534,76.7277108 C38.706972,76.7277108 38.7435281,82.5673348 43.5600223,82.5673348 C48.3765165,82.5673348 48.5973889,76.7277108 54.2033716,76.7277108 C59.8093543,76.7277108 59.3617727,82.5673348 64.7112484,82.5673348 C70.0607241,82.5673348 70.0742406,77.1546602 75.1242022,77.1546602 C80.1741638,77.1546602 80.2282299,82.5673348 85.7485055,82.5673348 C91.268781,82.5673348 90.8039965,77.1546602 96.1540866,77.1546602 C101.504177,77.1546602 101.163806,82.5673348 105.551457,82.5673348" id="Path-261-Copy" stroke="#0F0F0F" stroke-width="5"></path>
                        <path d="M23.7272727,98.4235361 C27.2378854,98.4235361 27.4935347,92.6024096 33.1002534,92.6024096 C38.706972,92.6024096 38.7435281,98.4420336 43.5600223,98.4420336 C48.3765165,98.4420336 48.5973889,92.6024096 54.2033716,92.6024096 C59.8093543,92.6024096 59.3617727,98.4420336 64.7112484,98.4420336 C70.0607241,98.4420336 70.0742406,93.029359 75.1242022,93.029359 C80.1741638,93.029359 80.2282299,98.4420336 85.7485055,98.4420336 C91.268781,98.4420336 90.8039965,93.029359 96.1540866,93.029359 C101.504177,93.029359 101.163806,98.4420336 105.551457,98.4420336" id="Path-261-Copy-2" stroke="#0F0F0F" stroke-width="5"></path>
                    </g>
                    <g id="Oval-Copy-492" transform="translate(50.530303, 15.433735) rotate(-90.000000) translate(-50.530303, -15.433735) ">
                        <use fill="#0F0F0F" fill-rule="evenodd" xlink:href="#path-3"></use>
                        <ellipse stroke="#C06C86" stroke-width="3.3" cx="50.530303" cy="15.4337349" rx="4.94090909" ry="4.96445783"></ellipse>
                        <use stroke="#C06C86" stroke-width="2.2" xlink:href="#path-3"></use>
                    </g>
                    <g id="Oval-Copy-493" transform="translate(106.454545, 6.614458) rotate(-90.000000) translate(-106.454545, -6.614458) ">
                        <use fill="#0F0F0F" fill-rule="evenodd" xlink:href="#path-4"></use>
                        <ellipse stroke="#C06C86" stroke-width="3.3" cx="106.454545" cy="6.61445783" rx="4.94090909" ry="4.96445783"></ellipse>
                        <use stroke="#C06C86" stroke-width="2.2" xlink:href="#path-4"></use>
                    </g>
                </g>
            </g>
        </g>
    </g>
</svg>