<?xml version="1.0" encoding="UTF-8"?>
<svg width="70px" height="31px" viewBox="0 0 70 31" version="1.1" xmlns="http://www.w3.org/2000/svg" xmlns:xlink="http://www.w3.org/1999/xlink">
    <!-- Generator: Sketch 48.2 (47327) - http://www.bohemiancoding.com/sketch -->
    <title>EPS</title>
    <desc>Created with Sketch.</desc>
    <defs></defs>
    <g id="Draft-3-Copy-11" stroke="none" stroke-width="1" fill="none" fill-rule="evenodd" transform="translate(-524.000000, -3663.000000)" opacity="0.900000036">
        <path d="M528.7,3689.8 L542.78,3689.8 L542.78,3693 L524.9,3693 L524.9,3664.6 L542.5,3664.6 L542.5,3667.8 L528.7,3667.8 L528.7,3676.84 L541.82,3676.84 L541.82,3680.04 L528.7,3680.04 L528.7,3689.8 Z M564.84,3665.64 C566.293341,3666.33334 567.413329,3667.31333 568.2,3668.58 C568.986671,3669.84667 569.38,3671.31999 569.38,3673 C569.38,3674.68001 568.986671,3676.15333 568.2,3677.42 C567.413329,3678.68667 566.293341,3679.66666 564.84,3680.36 C563.386659,3681.05334 561.686676,3681.4 559.74,3681.4 L553.46,3681.4 L553.46,3693 L549.66,3693 L549.66,3664.6 L559.74,3664.6 C561.686676,3664.6 563.386659,3664.94666 564.84,3665.64 Z M563.74,3676.78 C564.833339,3675.83333 565.38,3674.57334 565.38,3673 C565.38,3671.42666 564.833339,3670.16667 563.74,3669.22 C562.646661,3668.27333 561.180009,3667.8 559.34,3667.8 L553.46,3667.8 L553.46,3678.2 L559.34,3678.2 C561.180009,3678.2 562.646661,3677.72667 563.74,3676.78 Z M574.74,3691.18 C572.793324,3689.51332 571.700001,3687.30668 571.46,3684.56 L575.3,3684 C575.593335,3685.92001 576.359994,3687.49333 577.6,3688.72 C578.840006,3689.94667 580.633322,3690.56 582.98,3690.56 C584.740009,3690.56 586.233327,3690.16 587.46,3689.36 C588.686673,3688.56 589.3,3687.33334 589.3,3685.68 C589.3,3684.10666 588.860004,3682.95334 587.98,3682.22 C587.099996,3681.48666 585.740009,3680.93334 583.9,3680.56 L579.78,3679.72 C575.03331,3678.73333 572.66,3676.12002 572.66,3671.88 C572.66,3670.30666 573.066663,3668.92001 573.88,3667.72 C574.693337,3666.51999 575.839993,3665.58667 577.32,3664.92 C578.800007,3664.25333 580.53999,3663.92 582.54,3663.92 C585.500015,3663.92 587.926657,3664.59999 589.82,3665.96 C591.713343,3667.32001 592.793332,3669.33332 593.06,3672 L589.26,3672.8 C588.753331,3668.87998 586.486687,3666.92 582.46,3666.92 C580.699991,3666.92 579.280005,3667.33333 578.2,3668.16 C577.119995,3668.98667 576.58,3670.10666 576.58,3671.52 C576.58,3672.88001 576.95333,3673.94666 577.7,3674.72 C578.44667,3675.49334 579.619992,3676.05333 581.22,3676.4 L585.38,3677.28 C587.860012,3677.78667 589.78666,3678.65333 591.16,3679.88 C592.53334,3681.10667 593.22,3682.91999 593.22,3685.32 C593.22,3686.84001 592.840004,3688.23333 592.08,3689.5 C591.319996,3690.76667 590.160008,3691.78 588.6,3692.54 C587.039992,3693.3 585.126678,3693.68 582.86,3693.68 C579.393316,3693.68 576.686676,3692.84667 574.74,3691.18 Z" id="EPS" fill="#FFFFFF"></path>
    </g>
</svg>