<?xml version="1.0" encoding="UTF-8"?>
<svg width="45px" height="97px" viewBox="0 0 45 97" version="1.1" xmlns="http://www.w3.org/2000/svg" xmlns:xlink="http://www.w3.org/1999/xlink">
    <!-- Generator: Sketch 48.2 (47327) - http://www.bohemiancoding.com/sketch -->
    <title>iphone</title>
    <desc>Created with Sketch.</desc>
    <defs>
        <circle id="path-1" cx="21" cy="3" r="3"></circle>
        <circle id="path-2" cx="9" cy="92" r="3"></circle>
        <circle id="path-3" cx="33" cy="92" r="3"></circle>
    </defs>
    <g id="Draft-3-Copy-11" stroke="none" stroke-width="1" fill="none" fill-rule="evenodd" transform="translate(-698.000000, -4219.000000)">
        <g id="iphone" transform="translate(699.000000, 4220.000000)">
            <path d="M0,9.44289934 C0,5.69974827 2.30713679,3 5.70091293,3 C9.09468907,3 33.8124521,3 37.1406585,3 C40.468865,3 43,5.88132746 43,9.44289934 C43,13.0044712 43,82.7981412 43,86.53002 C43,90.2618987 40.1808672,92 37.7407737,92 C35.3006802,92 8.41547711,92 5.28986788,92 C2.16425865,92 9.3446459e-17,89.2107992 0,86.0521343 C0,82.8934695 3.1646424e-16,13.1860504 0,9.44289934 Z" id="Path-303-Copy" stroke="#3F3F3F" stroke-linecap="round" stroke-linejoin="round"></path>
            <path d="M21.5165217,87.675072 C14.6769369,87.675072 9.84948929,87.675072 7.03417886,87.675072 C4.21886844,87.675072 2.87708703,86.3332906 3.00883462,83.6497277 L3.00883462,44.4876692 C3.00883462,23.3778533 3.00883462,11.7398485 3.00883462,9.57365451 C3.00883462,7.40746057 4.20005279,6.2162424 6.58248913,6 L11.7643361,6 C11.8076238,7.67231984 12.6437837,8.50847976 14.2728158,8.50847976 C15.901848,8.50847976 18.3308796,8.50847976 21.5599108,8.50847976" id="Path-51" stroke="#3F3F3F" stroke-linecap="round" stroke-linejoin="round"></path>
            <path d="M39.5165217,87.675072 C32.6769369,87.675072 27.8494893,87.675072 25.0341789,87.675072 C22.2188684,87.675072 20.877087,86.3332906 21.0088346,83.6497277 L21.0088346,44.4876692 C21.0088346,23.3778533 21.0088346,11.7398485 21.0088346,9.57365451 C21.0088346,7.40746057 22.2000528,6.2162424 24.5824891,6 L29.7643361,6 C29.8076238,7.67231984 30.6437837,8.50847976 32.2728158,8.50847976 C33.901848,8.50847976 36.3308796,8.50847976 39.5599108,8.50847976" id="Path-51-Copy" stroke="#3F3F3F" stroke-linecap="round" stroke-linejoin="round" transform="translate(30.279955, 46.837536) scale(-1, 1) translate(-30.279955, -46.837536) "></path>
            <g id="Oval-Copy-607" transform="translate(21.000000, 3.000000) rotate(-90.000000) translate(-21.000000, -3.000000) ">
                <use fill="#C2C2C2" fill-rule="evenodd" xlink:href="#path-1"></use>
                <circle stroke="#151515" stroke-width="1.5" cx="21" cy="3" r="2.25"></circle>
                <use stroke="#151515" stroke-width="1" xlink:href="#path-1"></use>
            </g>
            <g id="Oval-Copy-612" transform="translate(9.000000, 92.000000) rotate(-90.000000) translate(-9.000000, -92.000000) ">
                <use fill="#C2C2C2" fill-rule="evenodd" xlink:href="#path-2"></use>
                <circle stroke="#151515" stroke-width="1.5" cx="9" cy="92" r="2.25"></circle>
                <use stroke="#151515" stroke-width="1" xlink:href="#path-2"></use>
            </g>
            <g id="Oval-Copy-614" transform="translate(33.000000, 92.000000) rotate(-90.000000) translate(-33.000000, -92.000000) ">
                <use fill="#C2C2C2" fill-rule="evenodd" xlink:href="#path-3"></use>
                <circle stroke="#151515" stroke-width="1.5" cx="33" cy="92" r="2.25"></circle>
                <use stroke="#151515" stroke-width="1" xlink:href="#path-3"></use>
            </g>
        </g>
    </g>
</svg>