<?xml version="1.0" encoding="UTF-8"?>
<svg width="78px" height="31px" viewBox="0 0 78 31" version="1.1" xmlns="http://www.w3.org/2000/svg" xmlns:xlink="http://www.w3.org/1999/xlink">
    <!-- Generator: Sketch 48.2 (47327) - http://www.bohemiancoding.com/sketch -->
    <title>PNG</title>
    <desc>Created with Sketch.</desc>
    <defs></defs>
    <g id="Draft-3-Copy-11" stroke="none" stroke-width="1" fill="none" fill-rule="evenodd" transform="translate(-363.000000, -3663.000000)" opacity="0.900000036">
        <path d="M378.2,3665.64 C379.653341,3666.33334 380.773329,3667.31333 381.56,3668.58 C382.346671,3669.84667 382.74,3671.31999 382.74,3673 C382.74,3674.68001 382.346671,3676.15333 381.56,3677.42 C380.773329,3678.68667 379.653341,3679.66666 378.2,3680.36 C376.746659,3681.05334 375.046676,3681.4 373.1,3681.4 L366.82,3681.4 L366.82,3693 L363.02,3693 L363.02,3664.6 L373.1,3664.6 C375.046676,3664.6 376.746659,3664.94666 378.2,3665.64 Z M377.1,3676.78 C378.193339,3675.83333 378.74,3674.57334 378.74,3673 C378.74,3671.42666 378.193339,3670.16667 377.1,3669.22 C376.006661,3668.27333 374.540009,3667.8 372.7,3667.8 L366.82,3667.8 L366.82,3678.2 L372.7,3678.2 C374.540009,3678.2 376.006661,3677.72667 377.1,3676.78 Z M387.82,3664.6 L392.42,3664.6 L404.46,3685.28 C405.260004,3686.66667 405.846665,3687.87999 406.22,3688.92 L406.3,3688.92 C406.22,3687.90666 406.18,3686.65334 406.18,3685.16 L406.18,3664.6 L409.58,3664.6 L409.58,3693 L404.98,3693 L392.94,3672.32 C392.086662,3670.82666 391.500002,3669.61334 391.18,3668.68 L391.1,3668.68 C391.18,3669.66667 391.22,3670.91999 391.22,3672.44 L391.22,3693 L387.82,3693 L387.82,3664.6 Z M421.48,3691.76 C419.599991,3690.47999 418.160005,3688.71334 417.16,3686.46 C416.159995,3684.20666 415.66,3681.65335 415.66,3678.8 C415.66,3675.89332 416.173328,3673.31334 417.2,3671.06 C418.226672,3668.80666 419.71999,3667.05334 421.68,3665.8 C423.64001,3664.54666 425.99332,3663.92 428.74,3663.92 C431.140012,3663.92 433.119992,3664.38666 434.68,3665.32 C436.240008,3666.25334 437.399996,3667.36666 438.16,3668.66 C438.920004,3669.95334 439.393332,3671.23999 439.58,3672.52 L435.82,3673.04 C435.553332,3671.49333 434.853339,3670.12001 433.72,3668.92 C432.586661,3667.71999 430.886678,3667.12 428.62,3667.12 C426.726657,3667.12 425.09334,3667.61333 423.72,3668.6 C422.34666,3669.58667 421.30667,3670.95999 420.6,3672.72 C419.89333,3674.48001 419.54,3676.51999 419.54,3678.84 C419.54,3682.25335 420.319992,3685.03999 421.88,3687.2 C423.440008,3689.36001 425.699985,3690.44 428.66,3690.44 C430.793344,3690.44 432.459994,3689.95334 433.66,3688.98 C434.860006,3688.00666 435.666665,3686.87334 436.08,3685.58 C436.493335,3684.28666 436.7,3683.04001 436.7,3681.84 L436.7,3681.36 L428.38,3681.36 L428.38,3678.16 L440.1,3678.16 L440.1,3693 L437.34,3693 L436.82,3688.44 C436.179997,3690.01334 435.086674,3691.28 433.54,3692.24 C431.993326,3693.2 430.18001,3693.68 428.1,3693.68 C425.566654,3693.68 423.360009,3693.04001 421.48,3691.76 Z" id="PNG" fill="#FFFFFF"></path>
    </g>
</svg>