<?xml version="1.0" encoding="UTF-8"?>
<svg width="99px" height="87px" viewBox="0 0 99 87" version="1.1" xmlns="http://www.w3.org/2000/svg" xmlns:xlink="http://www.w3.org/1999/xlink">
    <!-- Generator: Sketch 47.1 (45422) - http://www.bohemiancoding.com/sketch -->
    <title>bio-hazard</title>
    <desc>Created with Sketch.</desc>
    <defs>
        <circle id="path-1" cx="6.72947037" cy="68.5542165" r="3"></circle>
        <circle id="path-2" cx="22.4412141" cy="94.9140192" r="3"></circle>
        <circle id="path-3" cx="82.7285391" cy="94.540061" r="3"></circle>
        <circle id="path-4" cx="98.2557932" cy="67.7691352" r="3"></circle>
        <circle id="path-5" cx="68.2112432" cy="16.3627228" r="3"></circle>
        <circle id="path-6" cx="36.9722453" cy="15.7738458" r="3"></circle>
    </defs>
    <g id="Version-2" stroke="none" stroke-width="1" fill="none" fill-rule="evenodd">
        <g id="full-preview-3" transform="translate(-767.000000, -536.000000)">
            <g id="bio-hazard" transform="translate(764.000000, 524.000000)">
                <path d="M29,50 C16.2974508,50 6,60.2974508 6,73 C6,85.7025492 16.2974508,96 29,96 L29,96 C41.7025492,96 52,85.7025492 52,73" id="Oval-13-Copy-2" stroke="#3F3F3F" stroke-linecap="round" stroke-linejoin="round" transform="translate(29.000000, 73.000000) rotate(195.000000) translate(-29.000000, -73.000000) "></path>
                <path d="M52,10 C39.2974508,10 29,20.2974508 29,33 C29,45.7025492 39.2974508,56 52,56 L52,56 C64.7025492,56 75,45.7025492 75,33" id="Oval-13-Copy-3" stroke="#3F3F3F" stroke-linecap="round" stroke-linejoin="round" transform="translate(52.000000, 33.000000) rotate(315.000000) translate(-52.000000, -33.000000) "></path>
                <path d="M76,50 C63.2974508,50 53,60.2974508 53,73 C53,85.7025492 63.2974508,96 76,96 L76,96 C88.7025492,96 99,85.7025492 99,73" id="Oval-13-Copy-4" stroke="#3F3F3F" stroke-linecap="round" stroke-linejoin="round" transform="translate(76.000000, 73.000000) rotate(435.000000) translate(-76.000000, -73.000000) "></path>
                <g id="Oval-Copy-547" transform="translate(6.729470, 68.554216) rotate(195.000000) translate(-6.729470, -68.554216) ">
                    <use fill="#C2C2C2" fill-rule="evenodd" xlink:href="#path-1"></use>
                    <circle stroke="#151515" stroke-width="1.5" cx="6.72947037" cy="68.5542165" r="2.25"></circle>
                    <use stroke="#151515" stroke-width="1" xlink:href="#path-1"></use>
                </g>
                <g id="Oval-Copy-548" transform="translate(22.441214, 94.914019) rotate(195.000000) translate(-22.441214, -94.914019) ">
                    <use fill="#C2C2C2" fill-rule="evenodd" xlink:href="#path-2"></use>
                    <circle stroke="#151515" stroke-width="1.5" cx="22.4412141" cy="94.9140192" r="2.25"></circle>
                    <use stroke="#151515" stroke-width="1" xlink:href="#path-2"></use>
                </g>
                <g id="Oval-Copy-549" transform="translate(82.728539, 94.540061) rotate(195.000000) translate(-82.728539, -94.540061) ">
                    <use fill="#C2C2C2" fill-rule="evenodd" xlink:href="#path-3"></use>
                    <circle stroke="#151515" stroke-width="1.5" cx="82.7285391" cy="94.540061" r="2.25"></circle>
                    <use stroke="#151515" stroke-width="1" xlink:href="#path-3"></use>
                </g>
                <g id="Oval-Copy-550" transform="translate(98.255793, 67.769135) rotate(195.000000) translate(-98.255793, -67.769135) ">
                    <use fill="#C2C2C2" fill-rule="evenodd" xlink:href="#path-4"></use>
                    <circle stroke="#151515" stroke-width="1.5" cx="98.2557932" cy="67.7691352" r="2.25"></circle>
                    <use stroke="#151515" stroke-width="1" xlink:href="#path-4"></use>
                </g>
                <g id="Oval-Copy-558" transform="translate(68.211243, 16.362723) rotate(195.000000) translate(-68.211243, -16.362723) ">
                    <use fill="#C2C2C2" fill-rule="evenodd" xlink:href="#path-5"></use>
                    <circle stroke="#151515" stroke-width="1.5" cx="68.2112432" cy="16.3627228" r="2.25"></circle>
                    <use stroke="#151515" stroke-width="1" xlink:href="#path-5"></use>
                </g>
                <g id="Oval-Copy-559" transform="translate(36.972245, 15.773846) rotate(195.000000) translate(-36.972245, -15.773846) ">
                    <use fill="#C2C2C2" fill-rule="evenodd" xlink:href="#path-6"></use>
                    <circle stroke="#151515" stroke-width="1.5" cx="36.9722453" cy="15.7738458" r="2.25"></circle>
                    <use stroke="#151515" stroke-width="1" xlink:href="#path-6"></use>
                </g>
            </g>
        </g>
    </g>
</svg>