<?xml version="1.0" encoding="UTF-8"?>
<svg width="78px" height="78px" viewBox="0 0 78 78" version="1.1" xmlns="http://www.w3.org/2000/svg" xmlns:xlink="http://www.w3.org/1999/xlink">
    <!-- Generator: Sketch 47.1 (45422) - http://www.bohemiancoding.com/sketch -->
    <title>calendar</title>
    <desc>Created with Sketch.</desc>
    <defs>
        <circle id="path-1" cx="43" cy="37" r="3"></circle>
        <circle id="path-2" cx="22" cy="37" r="3"></circle>
        <circle id="path-3" cx="55" cy="61" r="3"></circle>
        <circle id="path-4" cx="35" cy="61" r="3"></circle>
    </defs>
    <g id="Version-2" stroke="none" stroke-width="1" fill="none" fill-rule="evenodd">
        <g id="full-preview-7" transform="translate(-400.000000, -1213.000000)">
            <g id="calendar" transform="translate(401.000000, 1214.000000)">
                <path d="M75.9261234,75.6292335 C56.7434744,75.6292335 45.9677029,75.6292335 43.598809,75.6292335 C40.0454681,75.6292335 38.0767867,73.5355466 38.0767867,69.7137162 C38.0767867,65.8918858 38.0767867,16.6164916 38.0767867,12.8218089 C38.0767867,9.02712617 40.692588,6.72147694 44.089082,6.72147694 C44.9439025,6.72147694 47.0084697,6.72147694 50.2827837,6.72147694 M59.2864682,6.72147694 C62.2016584,6.72147694 67.8885518,6.72147694 76.3471485,6.72147694" id="Path-449" stroke="#3F3F3F" stroke-linecap="round" stroke-linejoin="round" transform="translate(57.211968, 41.175355) scale(-1, 1) translate(-57.211968, -41.175355) "></path>
                <path d="M0.727022419,21.2940352 L76.123776,21.2940352" id="Path-450" stroke="#3F3F3F" stroke-linecap="round" stroke-linejoin="round"></path>
                <polygon id="Path-451" stroke="#3F3F3F" stroke-linecap="round" stroke-linejoin="round" points="12.8000031 13.7996095 12.8000031 0.0827159569 21.6597361 0.0827159569 21.6597361 13.8736254"></polygon>
                <rect id="Rectangle-12" stroke="#3F3F3F" stroke-linecap="round" stroke-linejoin="round" x="8" y="29" width="61" height="39"></rect>
                <rect id="Rectangle" stroke="#3F3F3F" stroke-linecap="round" stroke-linejoin="round" x="22" y="37" width="13" height="24"></rect>
                <polyline id="Rectangle" stroke="#3F3F3F" stroke-linecap="round" stroke-linejoin="round" points="42 37 55 37 55 61"></polyline>
                <g id="Oval-Copy-584" transform="translate(43.000000, 37.000000) rotate(-90.000000) translate(-43.000000, -37.000000) ">
                    <use fill="#C2C2C2" fill-rule="evenodd" xlink:href="#path-1"></use>
                    <circle stroke="#151515" stroke-width="1.5" cx="43" cy="37" r="2.25"></circle>
                    <use stroke="#151515" stroke-width="1" xlink:href="#path-1"></use>
                </g>
                <g id="Oval-Copy-584" transform="translate(22.000000, 37.000000) rotate(-90.000000) translate(-22.000000, -37.000000) ">
                    <use fill="#C2C2C2" fill-rule="evenodd" xlink:href="#path-2"></use>
                    <circle stroke="#151515" stroke-width="1.5" cx="22" cy="37" r="2.25"></circle>
                    <use stroke="#151515" stroke-width="1" xlink:href="#path-2"></use>
                </g>
                <g id="Oval-Copy-584" transform="translate(55.000000, 61.000000) rotate(-90.000000) translate(-55.000000, -61.000000) ">
                    <use fill="#C2C2C2" fill-rule="evenodd" xlink:href="#path-3"></use>
                    <circle stroke="#151515" stroke-width="1.5" cx="55" cy="61" r="2.25"></circle>
                    <use stroke="#151515" stroke-width="1" xlink:href="#path-3"></use>
                </g>
                <g id="Oval-Copy-584" transform="translate(35.000000, 61.000000) rotate(-90.000000) translate(-35.000000, -61.000000) ">
                    <use fill="#C2C2C2" fill-rule="evenodd" xlink:href="#path-4"></use>
                    <circle stroke="#151515" stroke-width="1.5" cx="35" cy="61" r="2.25"></circle>
                    <use stroke="#151515" stroke-width="1" xlink:href="#path-4"></use>
                </g>
                <path d="M38.3471485,75.6292335 C19.1644995,75.6292335 8.38872805,75.6292335 6.01983411,75.6292335 C2.46649321,75.6292335 0.497811808,73.5355466 0.497811808,69.7137162 C0.497811808,65.8918858 0.497811808,16.6164916 0.497811808,12.8218089 C0.497811808,9.02712617 3.1136131,6.72147694 6.51010712,6.72147694 C7.37058842,6.72147694 9.46172758,6.72147694 12.7835246,6.72147694 M21.9520223,6.72147694 C24.8561061,6.72147694 30.4949759,6.72147694 38.8686316,6.72147694" id="Path-449" stroke="#3F3F3F" stroke-linecap="round" stroke-linejoin="round"></path>
                <polygon id="Path-451" stroke="#3F3F3F" stroke-linecap="round" stroke-linejoin="round" points="55.1385634 13.7996095 55.1385634 0.0827159569 63.9982964 0.0827159569 63.9982964 13.8736254"></polygon>
            </g>
        </g>
    </g>
</svg>