<?xml version="1.0" encoding="UTF-8"?>
<svg width="84px" height="84px" viewBox="0 0 84 84" version="1.1" xmlns="http://www.w3.org/2000/svg" xmlns:xlink="http://www.w3.org/1999/xlink">
    <!-- Generator: Sketch 47.1 (45422) - http://www.bohemiancoding.com/sketch -->
    <title>contract</title>
    <desc>Created with Sketch.</desc>
    <defs>
        <circle id="path-1" cx="56" cy="66" r="3"></circle>
        <circle id="path-2" cx="66" cy="56" r="3"></circle>
        <circle id="path-3" cx="22" cy="79" r="3"></circle>
        <circle id="path-4" cx="3" cy="61" r="3"></circle>
        <circle id="path-5" cx="60" cy="3" r="3"></circle>
        <circle id="path-6" cx="79" cy="22" r="3"></circle>
    </defs>
    <g id="Version-2" stroke="none" stroke-width="1" fill="none" fill-rule="evenodd">
        <g id="full-preview-1" transform="translate(-958.000000, -1456.000000)">
            <g id="contract" transform="translate(959.000000, 1457.000000)">
                <path d="M48.072622,33.9284451 C51.9757927,37.8347048 51.9757927,44.1640455 48.072622,48.0703052 C44.1661181,51.9765649 37.8363818,51.9765649 33.9298779,48.0703052 C30.023374,44.1640455 30.023374,37.8347048 33.9298779,33.9284451 C37.8363818,30.0221853 44.1661181,30.0255183 48.072622,33.9284451 Z" id="Stroke-1" stroke="#3F3F3F" stroke-linecap="round" stroke-linejoin="round"></path>
                <path d="M41,30.5319631 L60.2747387,3 C66.1270035,3 78.9966899,15.8707542 79,21.7219997 L51.4566202,41" id="Stroke-3" stroke="#3F3F3F" stroke-linecap="round" stroke-linejoin="round"></path>
                <path d="M30.5343611,41 L3,60.2747387 C3,66.1236934 15.8718753,79 21.7236303,79 L41,51.4566202" id="Stroke-5" stroke="#3F3F3F" stroke-linecap="round" stroke-linejoin="round"></path>
                <polyline id="Stroke-7" stroke="#3F3F3F" stroke-linecap="round" stroke-linejoin="round" points="51.400554 42 65.4077679 56.2611584 56.3201124 55.9877725 56.0072138 65.6573472 42 51.4028363"></polyline>
                <g id="Oval-Copy-153" transform="translate(56.000000, 66.000000) rotate(-90.000000) translate(-56.000000, -66.000000) ">
                    <use fill="#C2C2C2" fill-rule="evenodd" xlink:href="#path-1"></use>
                    <circle stroke="#151515" stroke-width="1.5" cx="56" cy="66" r="2.25"></circle>
                    <use stroke="#151515" stroke-width="1" xlink:href="#path-1"></use>
                </g>
                <g id="Oval-Copy-158" transform="translate(66.000000, 56.000000) rotate(-90.000000) translate(-66.000000, -56.000000) ">
                    <use fill="#C2C2C2" fill-rule="evenodd" xlink:href="#path-2"></use>
                    <circle stroke="#151515" stroke-width="1.5" cx="66" cy="56" r="2.25"></circle>
                    <use stroke="#151515" stroke-width="1" xlink:href="#path-2"></use>
                </g>
                <g id="Oval-Copy-154" transform="translate(22.000000, 79.000000) rotate(-90.000000) translate(-22.000000, -79.000000) ">
                    <use fill="#C2C2C2" fill-rule="evenodd" xlink:href="#path-3"></use>
                    <circle stroke="#151515" stroke-width="1.5" cx="22" cy="79" r="2.25"></circle>
                    <use stroke="#151515" stroke-width="1" xlink:href="#path-3"></use>
                </g>
                <g id="Oval-Copy-155" transform="translate(3.000000, 61.000000) rotate(-90.000000) translate(-3.000000, -61.000000) ">
                    <use fill="#C2C2C2" fill-rule="evenodd" xlink:href="#path-4"></use>
                    <circle stroke="#151515" stroke-width="1.5" cx="3" cy="61" r="2.25"></circle>
                    <use stroke="#151515" stroke-width="1" xlink:href="#path-4"></use>
                </g>
                <g id="Oval-Copy-156" transform="translate(60.000000, 3.000000) rotate(-90.000000) translate(-60.000000, -3.000000) ">
                    <use fill="#C2C2C2" fill-rule="evenodd" xlink:href="#path-5"></use>
                    <circle stroke="#151515" stroke-width="1.5" cx="60" cy="3" r="2.25"></circle>
                    <use stroke="#151515" stroke-width="1" xlink:href="#path-5"></use>
                </g>
                <g id="Oval-Copy-157" transform="translate(79.000000, 22.000000) rotate(-90.000000) translate(-79.000000, -22.000000) ">
                    <use fill="#C2C2C2" fill-rule="evenodd" xlink:href="#path-6"></use>
                    <circle stroke="#151515" stroke-width="1.5" cx="79" cy="22" r="2.25"></circle>
                    <use stroke="#151515" stroke-width="1" xlink:href="#path-6"></use>
                </g>
            </g>
        </g>
    </g>
</svg>