<?xml version="1.0" encoding="UTF-8"?>
<svg width="82px" height="59px" viewBox="0 0 82 59" version="1.1" xmlns="http://www.w3.org/2000/svg" xmlns:xlink="http://www.w3.org/1999/xlink">
    <!-- Generator: Sketch 47.1 (45422) - http://www.bohemiancoding.com/sketch -->
    <title>crown</title>
    <desc>Created with Sketch.</desc>
    <defs>
        <circle id="path-1" cx="40" cy="3" r="3"></circle>
        <circle id="path-2" cx="40" cy="54" r="3"></circle>
        <circle id="path-3" cx="77" cy="10" r="3"></circle>
        <circle id="path-4" cx="3" cy="10" r="3"></circle>
    </defs>
    <g id="Version-2" stroke="none" stroke-width="1" fill="none" fill-rule="evenodd">
        <g id="full-preview-1" transform="translate(-394.000000, -1636.000000)">
            <g id="crown" transform="translate(395.000000, 1637.000000)">
                <polygon id="Stroke-1" stroke="#3F3F3F" stroke-linecap="round" stroke-linejoin="round" points="76.5908195 10.4314173 60.5660625 25.7698931 39.6757653 3 18.7854682 25.7698931 3 10.3134583 11.1889965 42.8929745 68.1625341 42.8929745"></polygon>
                <path d="M70.4691273,54.4153876 L9.69735377,54.4153876 C2.10088208,54.4153876 2.10088208,43 9.69735377,43 L70.4691273,43 C78.0086254,43 78.0124237,54.4153876 70.4691273,54.4153876 Z" id="Stroke-8" stroke="#3F3F3F" stroke-linecap="round" stroke-linejoin="round"></path>
                <g id="Oval-Copy-151" transform="translate(40.000000, 3.000000) rotate(-90.000000) translate(-40.000000, -3.000000) ">
                    <use fill="#C2C2C2" fill-rule="evenodd" xlink:href="#path-1"></use>
                    <circle stroke="#151515" stroke-width="1.5" cx="40" cy="3" r="2.25"></circle>
                    <use stroke="#151515" stroke-width="1" xlink:href="#path-1"></use>
                </g>
                <g id="Oval-Copy-165" transform="translate(40.000000, 54.000000) rotate(-90.000000) translate(-40.000000, -54.000000) ">
                    <use fill="#C2C2C2" fill-rule="evenodd" xlink:href="#path-2"></use>
                    <circle stroke="#151515" stroke-width="1.5" cx="40" cy="54" r="2.25"></circle>
                    <use stroke="#151515" stroke-width="1" xlink:href="#path-2"></use>
                </g>
                <g id="Oval-Copy-160" transform="translate(77.000000, 10.000000) rotate(-90.000000) translate(-77.000000, -10.000000) ">
                    <use fill="#C2C2C2" fill-rule="evenodd" xlink:href="#path-3"></use>
                    <circle stroke="#151515" stroke-width="1.5" cx="77" cy="10" r="2.25"></circle>
                    <use stroke="#151515" stroke-width="1" xlink:href="#path-3"></use>
                </g>
                <g id="Oval-Copy-161" transform="translate(3.000000, 10.000000) rotate(-90.000000) translate(-3.000000, -10.000000) ">
                    <use fill="#C2C2C2" fill-rule="evenodd" xlink:href="#path-4"></use>
                    <circle stroke="#151515" stroke-width="1.5" cx="3" cy="10" r="2.25"></circle>
                    <use stroke="#151515" stroke-width="1" xlink:href="#path-4"></use>
                </g>
            </g>
        </g>
    </g>
</svg>