<?xml version="1.0" encoding="UTF-8"?>
<svg width="73px" height="84px" viewBox="0 0 73 84" version="1.1" xmlns="http://www.w3.org/2000/svg" xmlns:xlink="http://www.w3.org/1999/xlink">
    <!-- Generator: Sketch 47.1 (45422) - http://www.bohemiancoding.com/sketch -->
    <title>disabled-wheelchair</title>
    <desc>Created with Sketch.</desc>
    <defs>
        <circle id="path-1" cx="48" cy="33" r="3"></circle>
        <circle id="path-2" cx="25.5" cy="19" r="3"></circle>
        <circle id="path-3" cx="51" cy="64" r="3"></circle>
        <circle id="path-4" cx="16" cy="33" r="3"></circle>
    </defs>
    <g id="Version-2" stroke="none" stroke-width="1" fill="none" fill-rule="evenodd">
        <g id="full-preview-8" transform="translate(-781.000000, -1212.000000)">
            <g id="disabled-wheelchair" transform="translate(782.000000, 1212.000000)">
                <path d="M25.6610725,33.1460986 L47.7504588,33.1460986" id="Path-595" stroke="#3F3F3F" stroke-linecap="round" stroke-linejoin="round"></path>
                <path d="M15.5981523,33.1642346 C6.41643428,37.1767508 0,46.3390561 0,57 C0,71.3594035 11.6405965,83 26,83 L26,83 C37.8631653,83 47.8706349,75.0548226 50.9915225,64.1953542" id="Oval-6" stroke="#3F3F3F" stroke-linecap="round" stroke-linejoin="round"></path>
                <circle id="Oval-42" stroke="#3F3F3F" stroke-linecap="round" stroke-linejoin="round" cx="25.5" cy="9.5" r="9"></circle>
                <path d="M25.5155,18.6594186 C25.5155,37.531115 25.5155,47.3840136 25.5155,48.2181143 C25.5155,49.4692655 26.3015205,50.9923138 28.2896994,50.9923138 C30.2778783,50.9923138 50.6030531,50.9923138 51.7388779,50.9923138 C52.8747027,50.9923138 53.6932878,52.0565976 54.2911252,52.8940746 C54.6896836,53.4523926 59.0313159,59.3172539 67.3160223,70.4886586 L71.955499,67.3360679" id="Path-594" stroke="#3F3F3F" stroke-linecap="round" stroke-linejoin="round"></path>
                <g id="Oval-Copy-510" transform="translate(48.000000, 33.000000) rotate(-90.000000) translate(-48.000000, -33.000000) ">
                    <use fill="#C2C2C2" fill-rule="evenodd" xlink:href="#path-1"></use>
                    <circle stroke="#151515" stroke-width="1.5" cx="48" cy="33" r="2.25"></circle>
                    <use stroke="#151515" stroke-width="1" xlink:href="#path-1"></use>
                </g>
                <g id="Oval-Copy-510" transform="translate(25.500000, 19.000000) rotate(-90.000000) translate(-25.500000, -19.000000) ">
                    <use fill="#C2C2C2" fill-rule="evenodd" xlink:href="#path-2"></use>
                    <circle stroke="#151515" stroke-width="1.5" cx="25.5" cy="19" r="2.25"></circle>
                    <use stroke="#151515" stroke-width="1" xlink:href="#path-2"></use>
                </g>
                <g id="Oval-Copy-510" transform="translate(51.000000, 64.000000) rotate(-90.000000) translate(-51.000000, -64.000000) ">
                    <use fill="#C2C2C2" fill-rule="evenodd" xlink:href="#path-3"></use>
                    <circle stroke="#151515" stroke-width="1.5" cx="51" cy="64" r="2.25"></circle>
                    <use stroke="#151515" stroke-width="1" xlink:href="#path-3"></use>
                </g>
                <g id="Oval-Copy-510" transform="translate(16.000000, 33.000000) rotate(-90.000000) translate(-16.000000, -33.000000) ">
                    <use fill="#C2C2C2" fill-rule="evenodd" xlink:href="#path-4"></use>
                    <circle stroke="#151515" stroke-width="1.5" cx="16" cy="33" r="2.25"></circle>
                    <use stroke="#151515" stroke-width="1" xlink:href="#path-4"></use>
                </g>
            </g>
        </g>
    </g>
</svg>