<?xml version="1.0" encoding="UTF-8"?>
<svg width="92px" height="92px" viewBox="0 0 92 92" version="1.1" xmlns="http://www.w3.org/2000/svg" xmlns:xlink="http://www.w3.org/1999/xlink">
    <!-- Generator: Sketch 47.1 (45422) - http://www.bohemiancoding.com/sketch -->
    <title>einstein-ingenuity</title>
    <desc>Created with Sketch.</desc>
    <defs>
        <circle id="path-1" cx="45" cy="87" r="3"></circle>
        <circle id="path-2" cx="81" cy="34" r="3"></circle>
        <circle id="path-3" cx="9" cy="34" r="3"></circle>
        <circle id="path-4" cx="45" cy="3" r="3"></circle>
    </defs>
    <g id="Version-2" stroke="none" stroke-width="1" fill="none" fill-rule="evenodd">
        <g id="full-preview-3" transform="translate(-394.000000, -1047.000000)">
            <g id="einstein-ingenuity" transform="translate(395.000000, 1048.000000)">
                <path d="M44,87 C46.5164086,87 52.5914254,86.370193 58.8774341,80.7939989 C65.1634428,75.2178048 67.181309,58.0577871 68.481894,56.590906 C69.7824789,55.1240249 74.6503305,50.1607363 72.4260295,45.6996031 C70.2017284,41.23847 68.4103481,40.8150404 68.481894,39.6572807 C68.5534398,38.499521 69.0146143,25.280245 65.9139906,19.7458601 C62.8133669,14.2114753 56.786609,9 44.8152122,9" id="Path-13-Copy-4" stroke="#3F3F3F" stroke-linecap="round" stroke-linejoin="round"></path>
                <path d="M17,87 C19.5164086,87 25.5914254,86.370193 31.8774341,80.7939989 C38.1634428,75.2178048 40.181309,58.0577871 41.481894,56.590906 C42.7824789,55.1240249 47.6503305,50.1607363 45.4260295,45.6996031 C43.2017284,41.23847 41.4103481,40.8150404 41.481894,39.6572807 C41.5534398,38.499521 42.0146143,25.280245 38.9139906,19.7458601 C35.8133669,14.2114753 29.786609,9 17.8152122,9" id="Path-13-Copy-5" stroke="#3F3F3F" stroke-linecap="round" stroke-linejoin="round" transform="translate(31.500000, 48.000000) scale(-1, 1) translate(-31.500000, -48.000000) "></path>
                <path d="M27,39 C27.0232276,38.0050438 26.9006649,35.6534257 30.0366385,33.853837 C32.1272876,32.6541112 34.7817414,32.0361655 38,32" id="Path-14-Copy-4" stroke="#3F3F3F" stroke-linecap="round" stroke-linejoin="round"></path>
                <path d="M50,39 C50.0232276,38.0050438 49.9006649,35.6534257 53.0366385,33.853837 C55.1272876,32.6541112 57.7817414,32.0361655 61,32" id="Path-14-Copy-5" stroke="#3F3F3F" stroke-linecap="round" stroke-linejoin="round" transform="translate(55.500000, 35.500000) scale(-1, 1) translate(-55.500000, -35.500000) "></path>
                <path d="M66.7977816,62.4039355 C67.5384944,65.0294039 68.9767496,67.228092 71.1125474,69 C72.2651965,64.0213509 74.3148807,62.1151114 80.9015445,64.0213509 C83.0051861,64.6301636 84.6049337,65.3281909 85.7007871,66.1154328 C86.8924012,66.9714674 92.0967599,52.7504124 83.2531941,46.757141 C85.6173242,46.4600954 87.8662595,46.3496239 90,46.4257264 C88.8557173,38.4036262 81.1961555,34.471907 80.9015445,34.3369939 C81.0939067,32.6441673 82.3950474,27.0553232 88.6395533,24.5340921 C85.7040189,18.9459388 82.9375359,16.1698216 73.8919053,14.1369495 C74.5748894,10.5023724 78.7170055,7.96062733 82.0892141,8.36530711 C79.7520194,2.84426979 59.4970629,-1.74865896 45,2.94316141" id="Path-15-Copy-4" stroke="#3F3F3F" stroke-linecap="round" stroke-linejoin="round"></path>
                <path d="M21.7977816,62.4039355 C22.5384944,65.0294039 23.9767496,67.228092 26.1125474,69 C27.2651965,64.0213509 29.3148807,62.1151114 35.9015445,64.0213509 C38.0051861,64.6301636 39.6049337,65.3281909 40.7007871,66.1154328 C41.8924012,66.9714674 47.0967599,52.7504124 38.2531941,46.757141 C40.6173242,46.4600954 42.8662595,46.3496239 45,46.4257264 C43.8557173,38.4036262 36.1961555,34.471907 35.9015445,34.3369939 C36.0939067,32.6441673 37.3950474,27.0553232 43.6395533,24.5340921 C40.7040189,18.9459388 37.9375359,16.1698216 28.8919053,14.1369495 C29.5748894,10.5023724 33.7170055,7.96062733 37.0892141,8.36530711 C34.7520194,2.84426979 14.4970629,-1.74865896 0,2.94316141" id="Path-15-Copy-5" stroke="#3F3F3F" stroke-linecap="round" stroke-linejoin="round" transform="translate(22.500000, 35.000000) scale(-1, 1) translate(-22.500000, -35.000000) "></path>
                <path d="M45,69.994522 C55.7195481,70.0427411 61.3862147,69.7726304 62,69.1841899 C62,69.1841899 60.2517868,66.4442279 58.5570914,64.4808733 C56.862396,62.5175187 54.4933147,59 45,59" id="Path-17" stroke="#3F3F3F" stroke-linecap="round" stroke-linejoin="round"></path>
                <path d="M28,69.994522 C38.7195481,70.0427411 44.3862147,69.7726304 45,69.1841899 C45,69.1841899 43.2517868,66.4442279 41.5570914,64.4808733 C39.862396,62.5175187 37.4933147,59 28,59" id="Path-17-Copy" stroke="#3F3F3F" stroke-linecap="round" stroke-linejoin="round" transform="translate(36.500000, 64.500000) scale(-1, 1) translate(-36.500000, -64.500000) "></path>
                <g id="Oval-Copy-464" transform="translate(45.000000, 87.000000) rotate(-90.000000) translate(-45.000000, -87.000000) ">
                    <use fill="#C2C2C2" fill-rule="evenodd" xlink:href="#path-1"></use>
                    <circle stroke="#151515" stroke-width="1.5" cx="45" cy="87" r="2.25"></circle>
                    <use stroke="#151515" stroke-width="1" xlink:href="#path-1"></use>
                </g>
                <g id="Oval-Copy-466" transform="translate(81.000000, 34.000000) rotate(-90.000000) translate(-81.000000, -34.000000) ">
                    <use fill="#C2C2C2" fill-rule="evenodd" xlink:href="#path-2"></use>
                    <circle stroke="#151515" stroke-width="1.5" cx="81" cy="34" r="2.25"></circle>
                    <use stroke="#151515" stroke-width="1" xlink:href="#path-2"></use>
                </g>
                <g id="Oval-Copy-467" transform="translate(9.000000, 34.000000) rotate(-90.000000) translate(-9.000000, -34.000000) ">
                    <use fill="#C2C2C2" fill-rule="evenodd" xlink:href="#path-3"></use>
                    <circle stroke="#151515" stroke-width="1.5" cx="9" cy="34" r="2.25"></circle>
                    <use stroke="#151515" stroke-width="1" xlink:href="#path-3"></use>
                </g>
                <g id="Oval-Copy-463" transform="translate(45.000000, 3.000000) rotate(-90.000000) translate(-45.000000, -3.000000) ">
                    <use fill="#C2C2C2" fill-rule="evenodd" xlink:href="#path-4"></use>
                    <circle stroke="#151515" stroke-width="1.5" cx="45" cy="3" r="2.25"></circle>
                    <use stroke="#151515" stroke-width="1" xlink:href="#path-4"></use>
                </g>
            </g>
        </g>
    </g>
</svg>