<?xml version="1.0" encoding="UTF-8"?>
<svg width="102px" height="69px" viewBox="0 0 102 69" version="1.1" xmlns="http://www.w3.org/2000/svg" xmlns:xlink="http://www.w3.org/1999/xlink">
    <!-- Generator: Sketch 47.1 (45422) - http://www.bohemiancoding.com/sketch -->
    <title>fish-tuna-sushi</title>
    <desc>Created with Sketch.</desc>
    <defs>
        <circle id="path-1" cx="59" cy="13" r="3"></circle>
        <circle id="path-2" cx="81" cy="30" r="3"></circle>
        <circle id="path-3" cx="46" cy="62" r="3"></circle>
        <circle id="path-4" cx="17" cy="30" r="3"></circle>
        <circle id="path-5" cx="17" cy="46" r="3"></circle>
    </defs>
    <g id="Version-2" stroke="none" stroke-width="1" fill="none" fill-rule="evenodd">
        <g id="full-preview-5" transform="translate(-956.000000, -213.000000)">
            <g id="fish-tuna-sushi" transform="translate(957.000000, 214.000000)">
                <path d="M0,57.4562894 C3.78493842,49.8085074 5.67740763,43.4923388 5.67740763,38.5077836 C5.67740763,33.5232285 3.78493842,27.1334271 0,19.3383796 C7.32809162,19.9924203 13.1915345,23.7396422 17.5903286,30.5800454 C22.1209229,26.9721943 25.6080231,24.4650383 28.0516293,23.0585776 L23.0423124,15.8395353 L42.7455347,0 C50.3429835,3.56534153 56.0411459,7.79565477 59.8400218,12.6909397 C76.342317,13.5666377 89.7289764,19.0693546 100,29.1990904 C97.3752064,45.8719659 89.3376661,56.194665 75.887379,60.1671878 C56.8643655,65.7856074 46.0391765,61.7143857 45.8951052,61.5199043 C41.0987896,64.836261 34.2279083,66.6629595 25.2824615,67 L29.6364132,54.2220674 C25.1224833,51.4218988 21.1071218,48.5942508 17.5903286,45.7391233 C14.5640746,52.0885405 8.70063173,55.9942626 0,57.4562894 Z" id="Path-64" stroke="#3F3F3F" stroke-linecap="round" stroke-linejoin="round"></path>
                <circle id="Oval-3" stroke="#3F3F3F" stroke-linecap="round" stroke-linejoin="round" cx="81" cy="30" r="4"></circle>
                <g id="Oval-Copy-184" transform="translate(59.000000, 13.000000) rotate(-90.000000) translate(-59.000000, -13.000000) ">
                    <use fill="#C2C2C2" fill-rule="evenodd" xlink:href="#path-1"></use>
                    <circle stroke="#151515" stroke-width="1.5" cx="59" cy="13" r="2.25"></circle>
                    <use stroke="#151515" stroke-width="1" xlink:href="#path-1"></use>
                </g>
                <g id="Oval-Copy-193" transform="translate(81.000000, 30.000000) rotate(-90.000000) translate(-81.000000, -30.000000) ">
                    <use fill="#C2C2C2" fill-rule="evenodd" xlink:href="#path-2"></use>
                    <circle stroke="#151515" stroke-width="1.5" cx="81" cy="30" r="2.25"></circle>
                    <use stroke="#151515" stroke-width="1" xlink:href="#path-2"></use>
                </g>
                <g id="Oval-Copy-192" transform="translate(46.000000, 62.000000) rotate(-90.000000) translate(-46.000000, -62.000000) ">
                    <use fill="#C2C2C2" fill-rule="evenodd" xlink:href="#path-3"></use>
                    <circle stroke="#151515" stroke-width="1.5" cx="46" cy="62" r="2.25"></circle>
                    <use stroke="#151515" stroke-width="1" xlink:href="#path-3"></use>
                </g>
                <g id="Oval-Copy-189" transform="translate(17.000000, 30.000000) rotate(-90.000000) translate(-17.000000, -30.000000) ">
                    <use fill="#C2C2C2" fill-rule="evenodd" xlink:href="#path-4"></use>
                    <circle stroke="#151515" stroke-width="1.5" cx="17" cy="30" r="2.25"></circle>
                    <use stroke="#151515" stroke-width="1" xlink:href="#path-4"></use>
                </g>
                <g id="Oval-Copy-190" transform="translate(17.000000, 46.000000) rotate(-90.000000) translate(-17.000000, -46.000000) ">
                    <use fill="#C2C2C2" fill-rule="evenodd" xlink:href="#path-5"></use>
                    <circle stroke="#151515" stroke-width="1.5" cx="17" cy="46" r="2.25"></circle>
                    <use stroke="#151515" stroke-width="1" xlink:href="#path-5"></use>
                </g>
            </g>
        </g>
    </g>
</svg>