<?xml version="1.0" encoding="UTF-8"?>
<svg width="78px" height="73px" viewBox="0 0 78 73" version="1.1" xmlns="http://www.w3.org/2000/svg" xmlns:xlink="http://www.w3.org/1999/xlink">
    <!-- Generator: Sketch 47.1 (45422) - http://www.bohemiancoding.com/sketch -->
    <title>hospital-bed</title>
    <desc>Created with Sketch.</desc>
    <defs>
        <circle id="path-1" cx="26.5" cy="27" r="3"></circle>
        <circle id="path-2" cx="6" cy="50" r="3"></circle>
        <circle id="path-3" cx="71" cy="50" r="3"></circle>
    </defs>
    <g id="Version-2" stroke="none" stroke-width="1" fill="none" fill-rule="evenodd">
        <g id="full-preview-7" transform="translate(-590.000000, -378.000000)">
            <g id="hospital-bed" transform="translate(591.000000, 378.000000)">
                <polygon id="Path-370-Copy" stroke="#3F3F3F" stroke-linecap="round" stroke-linejoin="round" points="70.615003 42.6338502 70.615003 72.3625764 76.3307852 72.3625764 76.3307852 42.6125018"></polygon>
                <path d="M70.6803496,49.9175021 L6.08750025,49.9175021" id="Path-371-Copy" stroke="#3F3F3F" stroke-linecap="round" stroke-linejoin="round"></path>
                <path d="M31.7466144,49.5970979 C31.7466144,20.5828426 31.7466144,5.40139199 31.7466144,4.05274608 C31.7466144,2.02977723 30.9296929,0.943555357 29.312896,0.943555357 C27.6960992,0.943555357 26.8300487,2.47917733 26.8300487,4.27223196 C26.8300487,5.46760171 26.8300487,13.0476223 26.8300487,27.0122938" id="Path-372" stroke="#3F3F3F" stroke-linecap="round" stroke-linejoin="round"></path>
                <polygon id="Path-374" stroke="#3F3F3F" stroke-linecap="round" stroke-linejoin="round" points="19.4922393 18.5658727 19.4922393 5.97210084 12.2930779 5.97210084 12.2930779 18.6134449"></polygon>
                <path d="M15.874636,19.0038666 C15.874636,23.1067691 15.874636,25.7941381 15.874636,27.0659736 C15.874636,28.9737269 18.0799875,29.7573115 21.1516099,31.4577488 C24.2232323,33.1581861 27.1090719,34.1397106 27.1090719,35.7984963 C27.1090719,36.9043534 27.1090719,40.2044346 27.1090719,45.6987401" id="Path-376" stroke="#3F3F3F" stroke-linecap="round" stroke-linejoin="round"></path>
                <polygon id="Path-370" stroke="#3F3F3F" stroke-linecap="round" stroke-linejoin="round" points="0 32.9008392 0 72.3625764 5.7157823 72.3625764 5.7157823 32.8725014"></polygon>
                <path d="M70.4783683,66.0925026 L6.08750025,66.0925026" id="Path-371" stroke="#3F3F3F" stroke-linecap="round" stroke-linejoin="round"></path>
                <path d="M34.6780913,10.7993572 L8.97841708,10.7993572" id="Path-373" stroke="#3F3F3F" stroke-linecap="round" stroke-linejoin="round"></path>
                <path d="M23.0996832,49.9414139 C25.2228329,49.9414139 27.1162055,48.2352088 27.1162055,45.4389355 C27.1162055,42.6426622 25.2594299,41.0046844 23.0996832,41.0046844 C21.6598521,41.0046844 15.9515983,41.0046844 5.97492178,41.0046844" id="Path-375" stroke="#3F3F3F" stroke-linecap="round" stroke-linejoin="round"></path>
                <g id="Oval-Copy-567" transform="translate(26.500000, 27.000000) rotate(-90.000000) translate(-26.500000, -27.000000) ">
                    <use fill="#C2C2C2" fill-rule="evenodd" xlink:href="#path-1"></use>
                    <circle stroke="#151515" stroke-width="1.5" cx="26.5" cy="27" r="2.25"></circle>
                    <use stroke="#151515" stroke-width="1" xlink:href="#path-1"></use>
                </g>
                <g id="Oval-Copy-568" transform="translate(6.000000, 50.000000) rotate(-90.000000) translate(-6.000000, -50.000000) ">
                    <use fill="#C2C2C2" fill-rule="evenodd" xlink:href="#path-2"></use>
                    <circle stroke="#151515" stroke-width="1.5" cx="6" cy="50" r="2.25"></circle>
                    <use stroke="#151515" stroke-width="1" xlink:href="#path-2"></use>
                </g>
                <g id="Oval-Copy-569" transform="translate(71.000000, 50.000000) rotate(-90.000000) translate(-71.000000, -50.000000) ">
                    <use fill="#C2C2C2" fill-rule="evenodd" xlink:href="#path-3"></use>
                    <circle stroke="#151515" stroke-width="1.5" cx="71" cy="50" r="2.25"></circle>
                    <use stroke="#151515" stroke-width="1" xlink:href="#path-3"></use>
                </g>
            </g>
        </g>
    </g>
</svg>