<?xml version="1.0" encoding="UTF-8"?>
<svg width="91px" height="64px" viewBox="0 0 91 64" version="1.1" xmlns="http://www.w3.org/2000/svg" xmlns:xlink="http://www.w3.org/1999/xlink">
    <!-- Generator: Sketch 47.1 (45422) - http://www.bohemiancoding.com/sketch -->
    <title>house-with-garage</title>
    <desc>Created with Sketch.</desc>
    <defs>
        <circle id="path-1" cx="86" cy="59" r="3"></circle>
        <circle id="path-2" cx="67" cy="32" r="3"></circle>
        <circle id="path-3" cx="33.5" cy="59" r="3"></circle>
        <circle id="path-4" cx="5" cy="3" r="3"></circle>
    </defs>
    <g id="Version-2" stroke="none" stroke-width="1" fill="none" fill-rule="evenodd">
        <g id="full-preview-8" transform="translate(-394.000000, -1390.000000)">
            <g id="house-with-garage" transform="translate(395.000000, 1391.000000)">
                <polyline id="Path-466" stroke="#3F3F3F" stroke-linecap="round" stroke-linejoin="round" points="2.97712358 58.9447362 85.6710717 58.9447362 85.6710717 22.9743291 50.3657512 22.9743291"></polyline>
                <path d="M2.99265734,58.9396059 L2.99265734,26.5328924" id="Path-468" stroke="#3F3F3F" stroke-linecap="round" stroke-linejoin="round"></path>
                <path d="M47.9926573,58.9396059 L47.9926573,26.5328924" id="Path-468" stroke="#3F3F3F" stroke-linecap="round" stroke-linejoin="round"></path>
                <polygon id="Path-470" stroke="#3F3F3F" stroke-linecap="round" stroke-linejoin="round" points="19.9477355 34.4563598 10.4895839 34.4563598 10.4895839 46.0569397 19.943564 46.0569397"></polygon>
                <polyline id="Path-471" stroke="#3F3F3F" stroke-linecap="round" stroke-linejoin="round" points="0.227624544 17.4965951 5.38424014 2.96050059 45.5007069 2.96050059 50.5221456 17.4965951"></polyline>
                <polyline id="Path-473" stroke="#3F3F3F" stroke-linecap="round" stroke-linejoin="round" points="55.3636773 58.7869318 55.3636773 31.4982121 78.4746498 31.4982121 78.4746498 58.7709142"></polyline>
                <path d="M78.4703108,45.0637044 L55.5032469,45.0637044" id="Path-474" stroke="#3F3F3F" stroke-linecap="round" stroke-linejoin="round"></path>
                <path d="M78.4703108,52.0637044 L55.5032469,52.0637044" id="Path-474" stroke="#3F3F3F" stroke-linecap="round" stroke-linejoin="round"></path>
                <polygon id="Path-467" stroke="#3F3F3F" stroke-linecap="round" stroke-linejoin="round" points="50.5908015 26.4163152 50.5908015 17.6858107 0.218512321 17.6858107 0.218512321 26.4164259"></polygon>
                <polyline id="Path-469" stroke="#3F3F3F" stroke-linecap="round" stroke-linejoin="round" points="26.7784524 58.7332578 26.7784524 34.546719 40.1717746 34.546719 40.1717746 58.7474546"></polyline>
                <polyline id="Path-472" stroke="#3F3F3F" stroke-linecap="round" stroke-linejoin="round" points="85.7574566 23.0928598 85.7574566 12.699704 49.0656889 12.699704"></polyline>
                <path d="M78.4703108,38.0637044 L55.5032469,38.0637044" id="Path-474" stroke="#3F3F3F" stroke-linecap="round" stroke-linejoin="round"></path>
                <g id="Oval-Copy-584" transform="translate(86.000000, 59.000000) rotate(-90.000000) translate(-86.000000, -59.000000) ">
                    <use fill="#C2C2C2" fill-rule="evenodd" xlink:href="#path-1"></use>
                    <circle stroke="#151515" stroke-width="1.5" cx="86" cy="59" r="2.25"></circle>
                    <use stroke="#151515" stroke-width="1" xlink:href="#path-1"></use>
                </g>
                <g id="Oval-Copy-589" transform="translate(67.000000, 32.000000) rotate(-90.000000) translate(-67.000000, -32.000000) ">
                    <use fill="#C2C2C2" fill-rule="evenodd" xlink:href="#path-2"></use>
                    <circle stroke="#151515" stroke-width="1.5" cx="67" cy="32" r="2.25"></circle>
                    <use stroke="#151515" stroke-width="1" xlink:href="#path-2"></use>
                </g>
                <g id="Oval-Copy-590" transform="translate(33.500000, 59.000000) rotate(-90.000000) translate(-33.500000, -59.000000) ">
                    <use fill="#C2C2C2" fill-rule="evenodd" xlink:href="#path-3"></use>
                    <circle stroke="#151515" stroke-width="1.5" cx="33.5" cy="59" r="2.25"></circle>
                    <use stroke="#151515" stroke-width="1" xlink:href="#path-3"></use>
                </g>
                <g id="Oval-Copy-591" transform="translate(5.000000, 3.000000) rotate(-90.000000) translate(-5.000000, -3.000000) ">
                    <use fill="#C2C2C2" fill-rule="evenodd" xlink:href="#path-4"></use>
                    <circle stroke="#151515" stroke-width="1.5" cx="5" cy="3" r="2.25"></circle>
                    <use stroke="#151515" stroke-width="1" xlink:href="#path-4"></use>
                </g>
            </g>
        </g>
    </g>
</svg>