<?xml version="1.0" encoding="UTF-8"?>
<svg width="73px" height="80px" viewBox="0 0 73 80" version="1.1" xmlns="http://www.w3.org/2000/svg" xmlns:xlink="http://www.w3.org/1999/xlink">
    <!-- Generator: Sketch 47.1 (45422) - http://www.bohemiancoding.com/sketch -->
    <title>medication-pills-2</title>
    <desc>Created with Sketch.</desc>
    <defs>
        <circle id="path-1" cx="3" cy="40" r="3"></circle>
        <circle id="path-2" cx="3" cy="66.5" r="3"></circle>
        <circle id="path-3" cx="53" cy="75" r="3"></circle>
        <circle id="path-4" cx="53" cy="3" r="3"></circle>
    </defs>
    <g id="Version-2" stroke="none" stroke-width="1" fill="none" fill-rule="evenodd">
        <g id="full-preview-7" transform="translate(-399.000000, -380.000000)">
            <g id="medication-pills-2" transform="translate(400.000000, 381.000000)">
                <path d="M9.22945645,28.59375 C6.50766517,31.7864089 4.81252478,33.8283018 4.14403527,34.7194289 C3.14130101,36.0561195 3,36.6562687 3,37.1854657 C3,37.7146627 3,68.2914244 3,71.0885253 C3,73.8856261 4.11304368,75.0181361 6.32009725,75.0181361 C7.79146631,75.0181361 12.6146556,75.0181361 20.7896651,75.0181361" id="Path-355" stroke="#3F3F3F" stroke-linecap="round" stroke-linejoin="round"></path>
                <path d="M26.5732064,28.59375 C23.8514152,31.7864089 22.1562748,33.8283018 21.4877853,34.7194289 C20.485051,36.0561195 20.34375,36.6562687 20.34375,37.1854657 C20.34375,37.7146627 20.34375,68.2914244 20.34375,71.0885253 C20.34375,73.8856261 21.4567937,75.0181361 23.6638473,75.0181361 C25.1352163,75.0181361 29.9584056,75.0181361 38.1334151,75.0181361" id="Path-355-Copy" stroke="#3F3F3F" stroke-linecap="round" stroke-linejoin="round" transform="translate(29.238583, 51.805943) scale(-1, 1) translate(-29.238583, -51.805943) "></path>
                <path d="M8.98825451,24.1011772 C7.99756815,24.1011772 7.26406009,24.1011772 6.78773032,24.1011772 C6.07323567,24.1011772 5.29153598,23.7292854 5.29153598,22.4014372 C5.29153598,21.0735889 5.29153598,19.1265824 5.29153598,18.1631246 C5.29153598,17.1996668 5.73529685,16.6448741 6.78773032,16.6448741 C7.84016379,16.6448741 33.028377,16.6448741 34.119194,16.6448741 C35.210011,16.6448741 35.6427445,17.1100677 35.6427445,18.1684246 C35.6427445,19.2267814 35.6427445,22.2355278 35.6427445,22.9094335 C35.6427445,23.5833392 35.0577298,24.0720457 34.4801323,24.0720457 C34.0950672,24.0720457 33.2338827,24.0720457 31.8965788,24.0720457" id="Path-357" stroke="#3F3F3F" stroke-linecap="round" stroke-linejoin="round"></path>
                <path d="M15.71875,17.03125 L15.71875,24.0532444" id="Path-358-Copy" stroke="#3F3F3F" stroke-linecap="round" stroke-linejoin="round"></path>
                <path d="M20.34375,17.03125 L20.34375,24.0532444" id="Path-358-Copy-2" stroke="#3F3F3F" stroke-linecap="round" stroke-linejoin="round"></path>
                <path d="M24.96875,17.03125 L24.96875,24.0532444" id="Path-358-Copy-3" stroke="#3F3F3F" stroke-linecap="round" stroke-linejoin="round"></path>
                <path d="M29.59375,17.03125 L29.59375,24.0532444" id="Path-358-Copy-4" stroke="#3F3F3F" stroke-linecap="round" stroke-linejoin="round"></path>
                <path d="M35.6289346,18.7656824 C35.6289346,11.7467079 35.6289346,7.58488694 35.6289346,6.28021965 C35.6289346,4.32321872 36.9444311,2.94561963 38.9635346,2.94561963 C40.9826382,2.94561963 64.8831642,2.94561963 67.0263344,2.94561963 C69.1695047,2.94561963 70.5223939,4.3172097 70.5223939,6.44167916 C70.5223939,8.56614862 70.5223939,68.6000838 70.5223939,71.3262715 C70.5223939,74.0524591 69.5471096,75.0366448 66.8120206,75.0366448 C64.9886279,75.0366448 54.1469215,75.0366448 34.2869014,75.0366448" id="Path-359" stroke="#3F3F3F" stroke-linecap="round" stroke-linejoin="round"></path>
                <circle id="Oval-2" stroke="#3F3F3F" stroke-linecap="round" stroke-linejoin="round" cx="45.78125" cy="64.4375" r="3.46875"></circle>
                <circle id="Oval-2-Copy-5" stroke="#3F3F3F" stroke-linecap="round" stroke-linejoin="round" cx="59.65625" cy="64.4375" r="3.46875"></circle>
                <circle id="Oval-2-Copy" stroke="#3F3F3F" stroke-linecap="round" stroke-linejoin="round" cx="45.78125" cy="51.71875" r="3.46875"></circle>
                <circle id="Oval-2-Copy-6" stroke="#3F3F3F" stroke-linecap="round" stroke-linejoin="round" cx="59.65625" cy="51.71875" r="3.46875"></circle>
                <circle id="Oval-2-Copy-2" stroke="#3F3F3F" stroke-linecap="round" stroke-linejoin="round" cx="45.78125" cy="39" r="3.46875"></circle>
                <circle id="Oval-2-Copy-7" stroke="#3F3F3F" stroke-linecap="round" stroke-linejoin="round" cx="59.65625" cy="39" r="3.46875"></circle>
                <circle id="Oval-2-Copy-3" stroke="#3F3F3F" stroke-linecap="round" stroke-linejoin="round" cx="45.78125" cy="26.28125" r="3.46875"></circle>
                <circle id="Oval-2-Copy-8" stroke="#3F3F3F" stroke-linecap="round" stroke-linejoin="round" cx="59.65625" cy="26.28125" r="3.46875"></circle>
                <circle id="Oval-2-Copy-4" stroke="#3F3F3F" stroke-linecap="round" stroke-linejoin="round" cx="45.78125" cy="13.5625" r="3.46875"></circle>
                <circle id="Oval-2-Copy-9" stroke="#3F3F3F" stroke-linecap="round" stroke-linejoin="round" cx="59.65625" cy="13.5625" r="3.46875"></circle>
                <path d="M3,40.15625 L37.931604,40.15625" id="Path-360" stroke="#3F3F3F" stroke-linecap="round" stroke-linejoin="round"></path>
                <path d="M3,66.75 L37.931604,66.75" id="Path-360-Copy" stroke="#3F3F3F" stroke-linecap="round" stroke-linejoin="round"></path>
                <path d="M17.453125,51.140625 L12.25,51.140625 L12.25,56.921875 L17.453125,56.921875 L17.453125,62.125 L23.234375,62.125 L23.234375,56.921875 L28.4375,56.921875 L28.4375,51.140625 L23.234375,51.140625 L23.234375,45.9375 L17.453125,45.9375 L17.453125,51.140625 Z" id="Combined-Shape" stroke="#3F3F3F" stroke-linecap="round" stroke-linejoin="round"></path>
                <polygon id="Path-356" stroke="#3F3F3F" stroke-linecap="round" stroke-linejoin="round" points="8.90927907 24.0426332 8.90927907 29.0889004 31.9891191 29.0889004 31.9891191 24.0994145"></polygon>
                <path d="M11.09375,17.03125 L11.09375,24.0532444" id="Path-358" stroke="#3F3F3F" stroke-linecap="round" stroke-linejoin="round"></path>
                <g id="Oval-Copy-545" transform="translate(3.000000, 40.000000) rotate(-90.000000) translate(-3.000000, -40.000000) ">
                    <use fill="#C2C2C2" fill-rule="evenodd" xlink:href="#path-1"></use>
                    <circle stroke="#151515" stroke-width="1.5" cx="3" cy="40" r="2.25"></circle>
                    <use stroke="#151515" stroke-width="1" xlink:href="#path-1"></use>
                </g>
                <g id="Oval-Copy-558" transform="translate(3.000000, 66.500000) rotate(-90.000000) translate(-3.000000, -66.500000) ">
                    <use fill="#C2C2C2" fill-rule="evenodd" xlink:href="#path-2"></use>
                    <circle stroke="#151515" stroke-width="1.5" cx="3" cy="66.5" r="2.25"></circle>
                    <use stroke="#151515" stroke-width="1" xlink:href="#path-2"></use>
                </g>
                <g id="Oval-Copy-559" transform="translate(53.000000, 75.000000) rotate(-90.000000) translate(-53.000000, -75.000000) ">
                    <use fill="#C2C2C2" fill-rule="evenodd" xlink:href="#path-3"></use>
                    <circle stroke="#151515" stroke-width="1.5" cx="53" cy="75" r="2.25"></circle>
                    <use stroke="#151515" stroke-width="1" xlink:href="#path-3"></use>
                </g>
                <g id="Oval-Copy-559" transform="translate(53.000000, 3.000000) rotate(-90.000000) translate(-53.000000, -3.000000) ">
                    <use fill="#C2C2C2" fill-rule="evenodd" xlink:href="#path-4"></use>
                    <circle stroke="#151515" stroke-width="1.5" cx="53" cy="3" r="2.25"></circle>
                    <use stroke="#151515" stroke-width="1" xlink:href="#path-4"></use>
                </g>
            </g>
        </g>
    </g>
</svg>