<?xml version="1.0" encoding="UTF-8"?>
<svg width="92px" height="76px" viewBox="0 0 92 76" version="1.1" xmlns="http://www.w3.org/2000/svg" xmlns:xlink="http://www.w3.org/1999/xlink">
    <!-- Generator: Sketch 47.1 (45422) - http://www.bohemiancoding.com/sketch -->
    <title>morula</title>
    <desc>Created with Sketch.</desc>
    <defs>
        <circle id="path-1" cx="48" cy="27" r="3"></circle>
        <circle id="path-2" cx="23" cy="10" r="3"></circle>
        <circle id="path-3" cx="52" cy="59" r="3"></circle>
        <circle id="path-4" cx="3" cy="46" r="3"></circle>
        <circle id="path-5" cx="86" cy="25" r="3"></circle>
    </defs>
    <g id="Version-2" stroke="none" stroke-width="1" fill="none" fill-rule="evenodd">
        <g id="full-preview-6" transform="translate(-582.000000, -60.000000)">
            <g id="morula" transform="translate(583.000000, 61.000000)">
                <path d="M11.0461081,32.464514 C6.41397051,34.5282869 1.14688222,39.9235371 2.1165186,44.4406951 C3.08615499,48.9578531 7.69485724,56.5076881 14.4808472,57.089177 C19.0048406,57.4768363 22.1744677,57.6706659 23.9897285,57.6706659 C23.3110807,62.5706008 23.9050196,66.1332578 25.7715453,68.3586368 C28.5713337,71.6967052 38.3358065,74.1332462 43.4124828,73.7670693 C48.4891591,73.4008925 56.0053058,72.2313235 60.2273253,64.8653093 C68.60472,65.9133075 78.7170608,66.6991231 81.66332,62.0845621 C84.6095792,57.470001 84.3898731,50.9835437 82.7904124,47.972105 C89.6569614,45.6937524 91.8532903,37.9879261 87.7403916,27.997156 C85.4905334,22.5319556 81.367956,19.9741213 75.3726595,20.323653 C75.7186465,11.1242467 72.4027066,4.89188291 65.4248399,1.62656158 C54.9580399,-3.27142041 42.8888498,4.09825554 40.6053708,7.86841273 C35.9651773,1.85945008 23.075751,-1.44639482 14.4808472,5.1506479 C5.88594344,11.7476906 6.45278526,21.1613659 7.71756021,26.013942 C8.56074351,29.2489927 9.67025947,31.3991834 11.0461081,32.464514 Z" id="Path-71-Copy" stroke="#3F3F3F" stroke-linecap="round" stroke-linejoin="round"></path>
                <path d="M15.7503602,17.6738171 C15.4251952,21.3604859 17.2641355,26.4291063 22.6557239,26.2906915 C28.0473123,26.1522766 31.0067539,21.8848512 31.5201339,18.7262094 C32.0335139,15.5675676 29.9924439,9.23490462 24.3848111,9.14409275 C18.7771783,9.05328089 16.0755253,13.9871482 15.7503602,17.6738171 Z" id="Path-93-Copy" stroke="#3F3F3F" stroke-linecap="round" stroke-linejoin="round"></path>
                <path d="M44.5806907,26.2900404 C40.0012826,26.4409053 36.1439753,29.2926909 36.2897137,34.7282205 C36.4354521,40.1637502 39.3890349,41.0967689 44.5806907,41.1524278 C49.7723466,41.2080866 53.9203983,37.482603 53.7731952,33.7212341 C53.6259921,29.9598651 49.1600988,26.1391755 44.5806907,26.2900404 Z" id="Path-94-Copy" stroke="#3F3F3F" stroke-linecap="round" stroke-linejoin="round"></path>
                <path d="M48.8579066,14.3821078 C48.7978536,18.7535274 52.2853223,22.5822729 57.1291101,22.6035112 C61.9728979,22.6247494 67.125739,19.4470664 66.7207473,15.2089352 C66.3157557,10.970804 63.6789734,6.47634889 57.8001579,6.88280523 C51.9213424,7.28926157 48.9179596,10.0106882 48.8579066,14.3821078 Z" id="Path-95-Copy" stroke="#3F3F3F" stroke-linecap="round" stroke-linejoin="round"></path>
                <path d="M64.8628159,34.3177281 C64.9580219,38.8129156 69.1631972,41.7730895 73.7360141,42.0338074 C78.3088311,42.2945254 82.9014215,38.925698 82.57113,34.3177281 C82.2408384,29.7097582 80.0415801,26.3233544 72.9238338,26.2860044 C65.8060876,26.2486543 64.7676099,29.8225407 64.8628159,34.3177281 Z" id="Path-96-Copy" stroke="#3F3F3F" stroke-linecap="round" stroke-linejoin="round"></path>
                <path d="M67.6841461,46.9627374 C64.5862897,46.0568158 61.1881682,44.1600195 59.7073489,48.1711211 C58.2265296,52.1822227 59.4437016,59.5987693 65.9477354,59.5284633 C72.4517692,59.4581574 76.4299148,58.4653975 76.2951617,52.6866042 C76.1604086,46.9078109 70.7820026,47.868659 67.6841461,46.9627374 Z" id="Path-97-Copy" stroke="#3F3F3F" stroke-linecap="round" stroke-linejoin="round"></path>
                <path d="M43.6167745,67.3457457 C39.0124664,67.0945484 34.6915791,64.3335747 35.1807915,59.8369225 C35.6700038,55.3402704 37.3470939,52.1069285 43.624098,52.6261673 C49.9011022,53.1454062 52.8722614,55.8882588 52.1875106,60.1812227 C51.5027599,64.4741866 48.2210826,67.596943 43.6167745,67.3457457 Z" id="Path-98-Copy" stroke="#3F3F3F" stroke-linecap="round" stroke-linejoin="round"></path>
                <path d="M20.5007329,51.6070071 C16.4508166,51.1954243 12.0178792,47.4194083 12.2983707,45.0041055 C12.5788622,42.5888028 13.6810546,36.2583369 19.8071939,36.5835019 C25.9333331,36.908667 29.2069545,40.9296658 29.1381132,44.0906825 C29.069272,47.2516992 24.5506492,52.0185899 20.5007329,51.6070071 Z" id="Path-99-Copy" stroke="#3F3F3F" stroke-linecap="round" stroke-linejoin="round"></path>
                <g id="Oval-Copy-484" transform="translate(48.000000, 27.000000) rotate(-90.000000) translate(-48.000000, -27.000000) ">
                    <use fill="#C2C2C2" fill-rule="evenodd" xlink:href="#path-1"></use>
                    <circle stroke="#151515" stroke-width="1.5" cx="48" cy="27" r="2.25"></circle>
                    <use stroke="#151515" stroke-width="1" xlink:href="#path-1"></use>
                </g>
                <g id="Oval-Copy-485" transform="translate(23.000000, 10.000000) rotate(-90.000000) translate(-23.000000, -10.000000) ">
                    <use fill="#C2C2C2" fill-rule="evenodd" xlink:href="#path-2"></use>
                    <circle stroke="#151515" stroke-width="1.5" cx="23" cy="10" r="2.25"></circle>
                    <use stroke="#151515" stroke-width="1" xlink:href="#path-2"></use>
                </g>
                <g id="Oval-Copy-486" transform="translate(52.000000, 59.000000) rotate(-90.000000) translate(-52.000000, -59.000000) ">
                    <use fill="#C2C2C2" fill-rule="evenodd" xlink:href="#path-3"></use>
                    <circle stroke="#151515" stroke-width="1.5" cx="52" cy="59" r="2.25"></circle>
                    <use stroke="#151515" stroke-width="1" xlink:href="#path-3"></use>
                </g>
                <g id="Oval-Copy-487" transform="translate(3.000000, 46.000000) rotate(-90.000000) translate(-3.000000, -46.000000) ">
                    <use fill="#C2C2C2" fill-rule="evenodd" xlink:href="#path-4"></use>
                    <circle stroke="#151515" stroke-width="1.5" cx="3" cy="46" r="2.25"></circle>
                    <use stroke="#151515" stroke-width="1" xlink:href="#path-4"></use>
                </g>
                <g id="Oval-Copy-488" transform="translate(86.000000, 25.000000) rotate(-90.000000) translate(-86.000000, -25.000000) ">
                    <use fill="#C2C2C2" fill-rule="evenodd" xlink:href="#path-5"></use>
                    <circle stroke="#151515" stroke-width="1.5" cx="86" cy="25" r="2.25"></circle>
                    <use stroke="#151515" stroke-width="1" xlink:href="#path-5"></use>
                </g>
            </g>
        </g>
    </g>
</svg>