<?xml version="1.0" encoding="UTF-8"?>
<svg width="80px" height="80px" viewBox="0 0 80 80" version="1.1" xmlns="http://www.w3.org/2000/svg" xmlns:xlink="http://www.w3.org/1999/xlink">
    <!-- Generator: Sketch 47.1 (45422) - http://www.bohemiancoding.com/sketch -->
    <title>navigation-compass</title>
    <desc>Created with Sketch.</desc>
    <defs>
        <circle id="path-1" cx="36" cy="62" r="3"></circle>
        <circle id="path-2" cx="15" cy="42" r="3"></circle>
        <circle id="path-3" cx="35" cy="42" r="3"></circle>
        <circle id="path-4" cx="57.5" cy="19" r="3"></circle>
        <circle id="path-5" cx="14" cy="9" r="3"></circle>
        <circle id="path-6" cx="69" cy="64" r="3"></circle>
    </defs>
    <g id="Version-2" stroke="none" stroke-width="1" fill="none" fill-rule="evenodd">
        <g id="full-preview-1" transform="translate(-965.000000, -947.000000)">
            <g id="navigation-compass" transform="translate(966.000000, 948.000000)">
                <polygon id="Stroke-1" stroke="#3F3F3F" stroke-linecap="round" stroke-linejoin="round" points="35.16 62 35.16 41.84 15 41.84 57 20"></polygon>
                <path d="M78,39 C78,60.5415652 60.5381739,78 39,78 C17.4584348,78 0,60.5415652 0,39 C0,17.4652174 17.4584348,0 39,0 C60.5381739,0 78,17.4652174 78,39 Z" id="Stroke-2" stroke="#3F3F3F" stroke-linecap="round" stroke-linejoin="round"></path>
                <g id="Oval-Copy-301" transform="translate(36.000000, 62.000000) rotate(-90.000000) translate(-36.000000, -62.000000) ">
                    <use fill="#C2C2C2" fill-rule="evenodd" xlink:href="#path-1"></use>
                    <circle stroke="#151515" stroke-width="1.5" cx="36" cy="62" r="2.25"></circle>
                    <use stroke="#151515" stroke-width="1" xlink:href="#path-1"></use>
                </g>
                <g id="Oval-Copy-302" transform="translate(15.000000, 42.000000) rotate(-90.000000) translate(-15.000000, -42.000000) ">
                    <use fill="#C2C2C2" fill-rule="evenodd" xlink:href="#path-2"></use>
                    <circle stroke="#151515" stroke-width="1.5" cx="15" cy="42" r="2.25"></circle>
                    <use stroke="#151515" stroke-width="1" xlink:href="#path-2"></use>
                </g>
                <g id="Oval-Copy-303" transform="translate(35.000000, 42.000000) rotate(-90.000000) translate(-35.000000, -42.000000) ">
                    <use fill="#C2C2C2" fill-rule="evenodd" xlink:href="#path-3"></use>
                    <circle stroke="#151515" stroke-width="1.5" cx="35" cy="42" r="2.25"></circle>
                    <use stroke="#151515" stroke-width="1" xlink:href="#path-3"></use>
                </g>
                <g id="Oval-Copy-304" transform="translate(57.500000, 19.000000) rotate(-90.000000) translate(-57.500000, -19.000000) ">
                    <use fill="#C2C2C2" fill-rule="evenodd" xlink:href="#path-4"></use>
                    <circle stroke="#151515" stroke-width="1.5" cx="57.5" cy="19" r="2.25"></circle>
                    <use stroke="#151515" stroke-width="1" xlink:href="#path-4"></use>
                </g>
                <g id="Oval-Copy-305" transform="translate(14.000000, 9.000000) rotate(-90.000000) translate(-14.000000, -9.000000) ">
                    <use fill="#C2C2C2" fill-rule="evenodd" xlink:href="#path-5"></use>
                    <circle stroke="#151515" stroke-width="1.5" cx="14" cy="9" r="2.25"></circle>
                    <use stroke="#151515" stroke-width="1" xlink:href="#path-5"></use>
                </g>
                <g id="Oval-Copy-306" transform="translate(69.000000, 64.000000) rotate(-90.000000) translate(-69.000000, -64.000000) ">
                    <use fill="#C2C2C2" fill-rule="evenodd" xlink:href="#path-6"></use>
                    <circle stroke="#151515" stroke-width="1.5" cx="69" cy="64" r="2.25"></circle>
                    <use stroke="#151515" stroke-width="1" xlink:href="#path-6"></use>
                </g>
            </g>
        </g>
    </g>
</svg>