<?xml version="1.0" encoding="UTF-8"?>
<svg width="78px" height="79px" viewBox="0 0 78 79" version="1.1" xmlns="http://www.w3.org/2000/svg" xmlns:xlink="http://www.w3.org/1999/xlink">
    <!-- Generator: Sketch 47.1 (45422) - http://www.bohemiancoding.com/sketch -->
    <title>needle-medical</title>
    <desc>Created with Sketch.</desc>
    <defs>
        <circle id="path-1" cx="47" cy="27" r="3"></circle>
        <circle id="path-2" cx="57" cy="37" r="3"></circle>
        <circle id="path-3" cx="77" cy="7" r="3"></circle>
        <circle id="path-4" cx="8" cy="77" r="3"></circle>
    </defs>
    <g id="Version-2" stroke="none" stroke-width="1" fill="none" fill-rule="evenodd">
        <g id="full-preview-7" transform="translate(-778.000000, -49.000000)">
            <g id="needle-medical" transform="translate(774.000000, 47.000000)">
                <g id="Group-4" transform="translate(42.000000, 42.000000) rotate(-315.000000) translate(-42.000000, -42.000000) translate(32.000000, -7.000000)" stroke="#3F3F3F" stroke-linecap="round" stroke-linejoin="round">
                    <path d="M13.2246133,51.4245733 C14.2249855,51.3595389 16.3087552,51.2716527 17.2327986,48.9797108 C17.6600055,47.9200926 17.2327986,16.005288 17.2327986,11.3894403" id="Path-317"></path>
                    <path d="M3,51.4245733 C4.00037224,51.3595389 6.08414191,51.2716527 7.00818534,48.9797108 C7.43539218,47.9200926 7.00818534,16.005288 7.00818534,11.3894403" id="Path-317" transform="translate(5.099028, 31.407007) scale(-1, 1) translate(-5.099028, -31.407007) "></path>
                    <g id="Group-3" transform="translate(5.000000, 50.500000)">
                        <path d="M10,2.5 C10,1.3954305 7.76142375,0.5 5,0.5 C2.23857625,0.5 0,1.3954305 0,2.5" id="Oval-26-Copy"></path>
                        <path d="M8.5916672,10 C8.5916672,9.44771525 6.68274039,9 5.02588614,9 C3.36903189,9 1.3813001,9.44771525 1.3813001,10" id="Oval-26-Copy-2"></path>
                        <path d="M9.99338026,2.49833845 C9.99338026,2.90067344 8.61433574,3.75413076 8.61433574,4.2495098 C8.61433574,4.74488884 8.61433574,9.70746898 8.61433574,10.1240871 C8.61433574,10.5407052 8.20542088,10.8716246 8.20542088,11.6207669 C8.20542088,12.3699092 8.20542088,14.5188022 8.20542088,14.9604541 C8.20542088,15.402106 7.93628814,15.7068663 7.8008391,15.87698 C7.66539006,16.0470937 6.84017804,16.8596275 6.84017804,17.7820932 C6.84017804,18.7045589 6.84017804,20.7795669 6.84017804,21.1160521 C6.84017804,21.4525374 6.65722555,22.0800323 6.166624,22.5642145 C5.67602246,23.0483967 5.08090674,23.3088632 5.08090674,23.9918859" id="Path-315"></path>
                        <path d="M5.08195172,2.49833845 C5.08195172,2.90067344 3.70290721,3.75413076 3.70290721,4.2495098 C3.70290721,4.74488884 3.70290721,9.70746898 3.70290721,10.1240871 C3.70290721,10.5407052 3.29399234,10.8716246 3.29399234,11.6207669 C3.29399234,12.3699092 3.29399234,14.5188022 3.29399234,14.9604541 C3.29399234,15.402106 3.0248596,15.7068663 2.88941056,15.87698 C2.75396153,16.0470937 1.9287495,16.8596275 1.9287495,17.7820932 C1.9287495,18.7045589 1.9287495,20.7795669 1.9287495,21.1160521 C1.9287495,21.4525374 1.74579701,22.0800323 1.25519547,22.5642145 C0.764593921,23.0483967 1.76315619e-17,23.3088632 0,23.9918859" id="Path-315" transform="translate(2.540976, 13.245112) scale(-1, 1) translate(-2.540976, -13.245112) "></path>
                        <path d="M9.99338026,2.49833845 C9.99338026,2.90067344 8.61433574,3.75413076 8.61433574,4.2495098 C8.61433574,4.74488884 8.61433574,9.70746898 8.61433574,10.1240871 C8.61433574,10.5407052 8.20542088,10.8716246 8.20542088,11.6207669 C8.20542088,12.3699092 8.20542088,14.5188022 8.20542088,14.9604541 C8.20542088,15.402106 7.93628814,15.7068663 7.8008391,15.87698 C7.66539006,16.0470937 6.84017804,16.8596275 6.84017804,17.7820932 C6.84017804,18.7045589 6.84017804,20.7795669 6.84017804,21.1160521 C6.84017804,21.4525374 6.65722555,22.0800323 6.166624,22.5642145 C5.67602246,23.0483967 5.13069565,23.3088632 5.13069565,23.9918859" id="Path-315"></path>
                        <path d="M5.14028352,23.5817408 L5.14028352,46.6996908" id="Path-319"></path>
                    </g>
                    <path d="M5.75,7 L5.75,10.4379432" id="Path-320-Copy"></path>
                    <path d="M18.75,5.27500153 C18.75,4.23946762 14.9724026,3.40000153 10.3125,3.40000153 C5.65259742,3.40000153 1.875,4.23946762 1.875,5.27500153" id="Oval-26-Copy-5"></path>
                    <path d="M18.75,7 C18.75,5.96446609 14.9724026,5.125 10.3125,5.125 C5.65259742,5.125 1.875,5.96446609 1.875,7" id="Oval-26-Copy-5" transform="translate(10.312500, 6.062500) scale(1, -1) translate(-10.312500, -6.062500) "></path>
                    <g id="Group-2" transform="translate(0.000000, 0.500000)">
                        <path d="M18.75,1.875 C18.75,0.839466094 14.9724026,0 10.3125,0 C5.65259742,0 1.875,0.839466094 1.875,1.875" id="Oval-26-Copy-3"></path>
                        <path d="M18.7481379,1.75 L18.7481379,4.75" id="Path-321"></path>
                        <path d="M1.87313786,1.75 L1.87313786,4.75" id="Path-321"></path>
                    </g>
                    <path d="M14.75,7 L14.75,10.4379432" id="Path-320"></path>
                    <path d="M17.239995,11.5 C17.239995,10.6715729 14.0791254,10 10.1799951,10 C6.28086476,10 3.11999512,10.6715729 3.11999512,11.5" id="Oval-26-Copy-3"></path>
                    <path d="M3.06625429,34.6774187 C3.56142654,34.1028552 7.02697754,31.2374039 10.3178678,34.2616377 C12.5117946,36.2777936 14.8867662,36.2732648 17.4427826,34.2480512" id="Path-318"></path>
                </g>
                <g id="Oval-Copy-525" transform="translate(47.000000, 27.000000) rotate(-90.000000) translate(-47.000000, -27.000000) ">
                    <use fill="#C2C2C2" fill-rule="evenodd" xlink:href="#path-1"></use>
                    <circle stroke="#151515" stroke-width="1.5" cx="47" cy="27" r="2.25"></circle>
                    <use stroke="#151515" stroke-width="1" xlink:href="#path-1"></use>
                </g>
                <g id="Oval-Copy-527" transform="translate(57.000000, 37.000000) rotate(-90.000000) translate(-57.000000, -37.000000) ">
                    <use fill="#C2C2C2" fill-rule="evenodd" xlink:href="#path-2"></use>
                    <circle stroke="#151515" stroke-width="1.5" cx="57" cy="37" r="2.25"></circle>
                    <use stroke="#151515" stroke-width="1" xlink:href="#path-2"></use>
                </g>
                <g id="Oval-Copy-526" transform="translate(77.000000, 7.000000) rotate(-90.000000) translate(-77.000000, -7.000000) ">
                    <use fill="#C2C2C2" fill-rule="evenodd" xlink:href="#path-3"></use>
                    <circle stroke="#151515" stroke-width="1.5" cx="77" cy="7" r="2.25"></circle>
                    <use stroke="#151515" stroke-width="1" xlink:href="#path-3"></use>
                </g>
                <g id="Oval-Copy-528" transform="translate(8.000000, 77.000000) rotate(-90.000000) translate(-8.000000, -77.000000) ">
                    <use fill="#C2C2C2" fill-rule="evenodd" xlink:href="#path-4"></use>
                    <circle stroke="#151515" stroke-width="1.5" cx="8" cy="77" r="2.25"></circle>
                    <use stroke="#151515" stroke-width="1" xlink:href="#path-4"></use>
                </g>
            </g>
        </g>
    </g>
</svg>