<?xml version="1.0" encoding="UTF-8"?>
<svg width="97px" height="82px" viewBox="0 0 97 82" version="1.1" xmlns="http://www.w3.org/2000/svg" xmlns:xlink="http://www.w3.org/1999/xlink">
    <!-- Generator: Sketch 47.1 (45422) - http://www.bohemiancoding.com/sketch -->
    <title>organic-cells-1</title>
    <desc>Created with Sketch.</desc>
    <defs>
        <circle id="path-1" cx="3" cy="33" r="3"></circle>
        <circle id="path-2" cx="45" cy="29" r="3"></circle>
        <circle id="path-3" cx="68" cy="10" r="3"></circle>
        <circle id="path-4" cx="68" cy="55" r="3"></circle>
        <circle id="path-5" cx="40" cy="77" r="3"></circle>
    </defs>
    <g id="Version-2" stroke="none" stroke-width="1" fill="none" fill-rule="evenodd">
        <g id="full-preview-5" transform="translate(-388.000000, -1378.000000)">
            <g id="organic-cells-1" transform="translate(389.000000, 1379.000000)">
                <path d="M49.2677794,40.4531161 C48.6405197,35.4360288 48.6493131,29.5647185 54.6478499,26.5057165 C60.6463867,23.4467146 66.310043,25.6146736 68.9150758,28.0035524 C71.5201086,30.3924312 75.8464415,36.168746 73.1432162,41.9310692 C70.4399909,47.6933924 65.800496,49.9224726 61.4189707,49.9990581 C57.0374453,50.0756436 49.895039,45.4702034 49.2677794,40.4531161 Z" id="Path-44" stroke="#3F3F3F" stroke-linecap="round" stroke-linejoin="round"></path>
                <path d="M40.7561555,44.154576 C38.7102002,45.4843956 34.5032908,50.3758836 36.5447529,53.5008195 C38.586215,56.6257554 41.8161023,59.7035603 46.7849299,58.8580566 C51.7537575,58.0125529 54.2762667,53.8698492 53.9759857,51.577288 C53.6757048,49.2847268 49.6745907,43.7316664 46.7849299,43.2733669 C43.8952691,42.8150674 42.8021107,42.8247564 40.7561555,44.154576 Z" id="Path-45" stroke="#3F3F3F" stroke-linecap="round" stroke-linejoin="round"></path>
                <path d="M41.131091,22.1731709 C43.154724,23.7871602 48.1950288,26.0712172 53.0402375,24.4368346 C57.8854462,22.802452 61.4503376,16.3630038 60.9538183,12.3940664 C60.457299,8.42512889 57.3811231,2.14057325 52.422271,0.75819437 C47.4634188,-0.624184515 43.9073068,-0.750914718 38.2558639,5.96772828 C32.604421,12.6863713 39.1074579,20.5591817 41.131091,22.1731709 Z" id="Path-47" stroke="#3F3F3F" stroke-linecap="round" stroke-linejoin="round"></path>
                <path d="M77.4435853,25.6681626 C74.4388082,28.1936176 74.6761181,31.2473043 75.6721306,34.2912269 C76.668143,37.3351496 77.5878421,40.4615779 81.8668062,40.9331785 C86.1457702,41.404779 90.2371511,39.3084512 92.3045046,36.9030932 C94.3718582,34.4977352 97.1014148,30.1273751 92.4320218,25.6676744 C87.7626288,21.2079738 80.4483623,23.1427076 77.4435853,25.6681626 Z" id="Path-50" stroke="#3F3F3F" stroke-linecap="round" stroke-linejoin="round"></path>
                <path d="M63.6897343,53.0359524 C66.985721,53.159615 70.4384546,55.4309996 72.4532263,58.8275676 C74.4679979,62.2241356 75.1695361,68.9600838 70.4384546,73.0179781 C65.7073732,77.0758725 60.9805928,79.4015122 56.6041036,77.0758725 C52.2276143,74.7502327 48.2969936,69.4785197 49.1065342,65.5179762 C49.9160748,61.5574327 52.2581991,57.6305328 55.2110629,55.3078257 C58.1639268,52.9851187 60.3937476,52.9122897 63.6897343,53.0359524 Z" id="Path-52" stroke="#3F3F3F" stroke-linecap="round" stroke-linejoin="round"></path>
                <path d="M33.404894,55.2710259 C34.1140687,52.1500134 35.152956,48.6462994 30.027291,45.4950993 C24.901626,42.3438991 20.8772791,42.3000783 17.6850175,44.6746771 C14.4927559,47.0492759 10.2011272,51.6884346 12.8002963,55.9293112 C15.3994655,60.1701879 18.1136318,62.7137401 22.849403,62.9888371 C27.5851743,63.2639342 32.6957193,58.3920385 33.404894,55.2710259 Z" id="Path-54" stroke="#3F3F3F" stroke-linecap="round" stroke-linejoin="round"></path>
                <path d="M24.7470435,23.9999963 C27.3785126,24.002366 31.2919067,22.8639686 32.6523266,20.9464183 C34.0127465,19.0288681 34.8388339,14.3250404 32.6523266,11.516962 C30.4658193,8.70888352 24.9801638,8.12925821 22.038971,10.3942045 C19.0977782,12.6591508 17.582733,15.7615444 18.1000424,18.7440317 C18.6173519,21.7265191 22.1155744,23.9976266 24.7470435,23.9999963 Z" id="Path-56" stroke="#3F3F3F" stroke-linecap="round" stroke-linejoin="round"></path>
                <path d="M49.1289099,12.3175208 C50.7919149,11.5721747 52.4605022,10.5451443 51.8834998,8.91226865 C51.3064975,7.27939303 47.8125123,8.19598531 46.6412534,8.91226865 C45.4699944,9.62855198 44.333244,11.2565093 45.4699944,12.3175208 C46.6067449,13.3785322 47.4659049,13.0628668 49.1289099,12.3175208 Z" id="Path-58" stroke="#3F3F3F" stroke-linecap="round" stroke-linejoin="round"></path>
                <path d="M59.7953455,36.9985789 C59.0915321,35.274229 58.3380678,32.7836034 60.0057218,32.1306631 C61.6733758,31.4777227 64.1252059,33.4319553 64.6677821,34.4551858 C65.2103583,35.4784163 65.1279482,37.2426859 64.1252059,38.4535851 C63.1224637,39.6644843 60.499159,38.7229287 59.7953455,36.9985789 Z" id="Path-60" stroke="#3F3F3F" stroke-linecap="round" stroke-linejoin="round"></path>
                <path d="M61.8042891,66.7891529 C64.3949404,66.137177 65.2174722,64.7440535 64.9528556,63.1336048 C64.6882391,61.5231561 62.3413867,62.006047 60.3470478,62.3222895 C58.352709,62.6385319 57.4450558,64.3142757 58.352709,65.3921312 C59.2603621,66.4699868 59.2136379,67.4411288 61.8042891,66.7891529 Z" id="Path-62" stroke="#3F3F3F" stroke-linecap="round" stroke-linejoin="round"></path>
                <path d="M45.9148144,54.8926512 C47.0813504,54.5427429 48.0187375,53.5689418 47.9997155,52.4432937 C47.9806935,51.3176456 46.1983751,50.5314524 45.1251797,51.3176456 C44.0519842,52.1038387 43.8944997,52.8377657 44.0519842,53.7703041 C44.2094688,54.7028425 44.7482784,55.2425594 45.9148144,54.8926512 Z" id="Path-64" stroke="#3F3F3F" stroke-linecap="round" stroke-linejoin="round"></path>
                <path d="M19.2021298,33.5110294 C20.5196451,32.9945486 21.4203759,31.823227 20.799248,30.8798204 C20.17812,29.9364137 18.4809735,29.5995166 17.3125479,30.6372165 C16.1441224,31.6749165 15.9478764,32.4970212 16.010275,33.4110501 C16.0726736,34.3250789 17.8846144,34.0275102 19.2021298,33.5110294 Z" id="Path-66" stroke="#3F3F3F" stroke-linecap="round" stroke-linejoin="round"></path>
                <path d="M37.3628264,67.022261 C36.5600687,66.2226231 35.3534472,65.6049155 34.4253599,66.3051335 C33.4972726,67.0053515 34.2870652,67.9828452 34.9085271,68.6467993 C35.529989,69.3107535 36.5043186,70.6076949 37.3783846,69.6721694 C38.2524505,68.736644 38.1655841,67.821899 37.3628264,67.022261 Z" id="Path-68" stroke="#3F3F3F" stroke-linecap="round" stroke-linejoin="round"></path>
                <path d="M45.0062188,39.1246634 C46.3631831,36.3034431 46.5390948,30.6732515 44.2071869,27.741789 C41.875279,24.8103264 36.7503542,22.8029385 32.5375816,24.8088565 C28.324809,26.8147746 26.8235684,30.6458134 27.0162564,33.4195072 C27.2089444,36.1932009 27.9279293,42.3961619 33.3385308,42.9013162 C38.7491324,43.4064704 43.6492545,41.9458838 45.0062188,39.1246634 Z" id="Path-46" stroke="#3F3F3F" stroke-linecap="round" stroke-linejoin="round"></path>
                <path d="M63.0245817,16.0252296 C62.7374482,19.2834254 65.0247658,23.3574091 66.8041156,23.9437257 C68.5834653,24.5300424 73.295086,25.9945949 75.8500372,23.9437257 C78.4049885,21.8928566 79.8996423,17.2018278 78.4049885,14.2573586 C76.9103347,11.3128893 73.8123161,8.75549805 70.3364904,9.01867145 C66.8606648,9.28184486 63.3117151,12.7670339 63.0245817,16.0252296 Z" id="Path-49" stroke="#3F3F3F" stroke-linecap="round" stroke-linejoin="round"></path>
                <path d="M76.1969219,43.5524155 C79.4738115,42.4491797 85.248613,42.8745296 86.7402831,45.9619063 C88.2319531,49.0492831 89.0856887,54.0633612 85.248613,57.0016921 C81.4115373,59.9400231 76.875724,59.7147214 73.52607,55.8147728 C70.176416,51.9148242 72.9200323,44.6556513 76.1969219,43.5524155 Z" id="Path-51" stroke="#3F3F3F" stroke-linecap="round" stroke-linejoin="round"></path>
                <path d="M44.3985232,63.4837042 C41.2482577,60.43045 38.5386187,59.6997652 35.0942838,60.1007026 C31.6499489,60.5016399 28.2371214,62.8434898 28.0452125,66.8118304 C27.8533037,70.780171 28.1125239,75.0693603 32.0542943,76.833287 C35.9960646,78.5972136 41.8468988,78.6239098 44.9126672,75.0693603 C47.9784356,71.5148108 47.5487888,66.5369584 44.3985232,63.4837042 Z" id="Path-53" stroke="#3F3F3F" stroke-linecap="round" stroke-linejoin="round"></path>
                <path d="M21.9757951,38.6708185 C23.6142627,36.1524166 25.7532378,30.32485 21.5595989,26.1331768 C17.3659601,21.9415036 13.5982644,22.5429493 9.2662184,24.5356324 C4.93417243,26.5283155 2.15335859,30.44378 3.23332415,34.3475942 C4.31328971,38.2514084 6.75783269,41.1848515 10.203878,41.8338692 C13.6499234,42.4828868 20.3373274,41.1892204 21.9757951,38.6708185 Z" id="Path-55" stroke="#3F3F3F" stroke-linecap="round" stroke-linejoin="round"></path>
                <path d="M25.5847354,17.5674496 C26.3888041,18.2003567 29.5377271,18.1254613 29.9427599,17.4295927 C30.3477928,16.7337241 28.5389843,16.0337403 26.5488797,16.0008193 C24.5587751,15.9678982 24.7806667,16.9345424 25.5847354,17.5674496 Z" id="Path-57" stroke="#3F3F3F" stroke-linecap="round" stroke-linejoin="round"></path>
                <path d="M69.1235901,19.4754632 C68.7085228,17.1610815 69.3764761,16.7384188 70.5652491,17.1279589 C71.754022,17.5174991 72.378086,19.1717618 71.754022,20.0949953 C71.129958,21.0182288 69.5386575,21.7898449 69.1235901,19.4754632 Z" id="Path-59" stroke="#3F3F3F" stroke-linecap="round" stroke-linejoin="round"></path>
                <path d="M83.0059249,32.9093972 C82.8951753,30.1722589 84.3609787,28.2432328 85.3973143,29.2886078 C86.4336498,30.3339827 85.9295137,32.1509681 85.3973143,33.6369011 C84.8651149,35.1228342 84.8405596,36.1641533 83.8678674,35.9786018 C82.8951753,35.7930503 83.1166745,35.6465356 83.0059249,32.9093972 Z" id="Path-61" stroke="#3F3F3F" stroke-linecap="round" stroke-linejoin="round"></path>
                <path d="M79.3110065,50.9884687 C80.1370483,50.9106241 82.1571472,50.3915142 81.9902511,49.1805494 C81.823355,47.9695846 79.9621825,47.7238055 78.5721632,48.2897096 C77.1821439,48.8556138 76.8183479,49.0545986 77.0775994,49.9047667 C77.3368509,50.7549349 78.4849647,51.0663133 79.3110065,50.9884687 Z" id="Path-63" stroke="#3F3F3F" stroke-linecap="round" stroke-linejoin="round"></path>
                <path d="M35.6038519,35.9163225 C36.825641,35.5839622 38.2535477,34.1142921 37.9615478,33.2223827 C37.6695479,32.3304733 37.1262292,31.527345 34.9466261,32.3304733 C32.7670231,33.1336015 32.7864596,34.1684714 33.2533882,34.8486718 C33.7203169,35.5288723 34.3820628,36.2486828 35.6038519,35.9163225 Z" id="Path-65" stroke="#3F3F3F" stroke-linecap="round" stroke-linejoin="round"></path>
                <path d="M22.1761048,51.9658975 C21.7886348,50.4969963 22.0045532,49 23.1852031,49 C24.365853,49 25.9462972,49.8311443 25.9186912,51.0284604 C25.8910851,52.2257765 26.3584155,53.5200204 25.3192464,53.9072634 C24.2800772,54.2945064 22.5635749,53.4347988 22.1761048,51.9658975 Z" id="Path-67" stroke="#3F3F3F" stroke-linecap="round" stroke-linejoin="round"></path>
                <g id="Oval-Copy-462" transform="translate(3.000000, 33.000000) rotate(-90.000000) translate(-3.000000, -33.000000) ">
                    <use fill="#C2C2C2" fill-rule="evenodd" xlink:href="#path-1"></use>
                    <circle stroke="#151515" stroke-width="1.5" cx="3" cy="33" r="2.25"></circle>
                    <use stroke="#151515" stroke-width="1" xlink:href="#path-1"></use>
                </g>
                <g id="Oval-Copy-463" transform="translate(45.000000, 29.000000) rotate(-90.000000) translate(-45.000000, -29.000000) ">
                    <use fill="#C2C2C2" fill-rule="evenodd" xlink:href="#path-2"></use>
                    <circle stroke="#151515" stroke-width="1.5" cx="45" cy="29" r="2.25"></circle>
                    <use stroke="#151515" stroke-width="1" xlink:href="#path-2"></use>
                </g>
                <g id="Oval-Copy-464" transform="translate(68.000000, 10.000000) rotate(-90.000000) translate(-68.000000, -10.000000) ">
                    <use fill="#C2C2C2" fill-rule="evenodd" xlink:href="#path-3"></use>
                    <circle stroke="#151515" stroke-width="1.5" cx="68" cy="10" r="2.25"></circle>
                    <use stroke="#151515" stroke-width="1" xlink:href="#path-3"></use>
                </g>
                <g id="Oval-Copy-465" transform="translate(68.000000, 55.000000) rotate(-90.000000) translate(-68.000000, -55.000000) ">
                    <use fill="#C2C2C2" fill-rule="evenodd" xlink:href="#path-4"></use>
                    <circle stroke="#151515" stroke-width="1.5" cx="68" cy="55" r="2.25"></circle>
                    <use stroke="#151515" stroke-width="1" xlink:href="#path-4"></use>
                </g>
                <g id="Oval-Copy-466" transform="translate(40.000000, 77.000000) rotate(-90.000000) translate(-40.000000, -77.000000) ">
                    <use fill="#C2C2C2" fill-rule="evenodd" xlink:href="#path-5"></use>
                    <circle stroke="#151515" stroke-width="1.5" cx="40" cy="77" r="2.25"></circle>
                    <use stroke="#151515" stroke-width="1" xlink:href="#path-5"></use>
                </g>
            </g>
        </g>
    </g>
</svg>