<?xml version="1.0" encoding="UTF-8"?>
<svg width="78px" height="84px" viewBox="0 0 78 84" version="1.1" xmlns="http://www.w3.org/2000/svg" xmlns:xlink="http://www.w3.org/1999/xlink">
    <!-- Generator: Sketch 47.1 (45422) - http://www.bohemiancoding.com/sketch -->
    <title>outside-pool</title>
    <desc>Created with Sketch.</desc>
    <defs>
        <circle id="path-1" cx="13" cy="78" r="3"></circle>
        <circle id="path-2" cx="67" cy="78" r="3"></circle>
        <circle id="path-3" cx="5" cy="8" r="3"></circle>
        <circle id="path-4" cx="21" cy="3" r="3"></circle>
    </defs>
    <g id="Version-2" stroke="none" stroke-width="1" fill="none" fill-rule="evenodd">
        <g id="full-preview-8" transform="translate(-778.000000, -213.000000)">
            <g id="outside-pool" transform="translate(777.000000, 214.000000)">
                <ellipse id="Oval-4" stroke="#3F3F3F" stroke-linecap="round" stroke-linejoin="round" cx="40" cy="30" rx="38" ry="13"></ellipse>
                <path d="M2,69 C2,76.1797017 19.0131795,82 40,82 L40,82 C60.9868205,82 78,76.1797017 78,69" id="Oval-4-Copy" stroke="#3F3F3F" stroke-linecap="round" stroke-linejoin="round"></path>
                <path d="M77.9969092,69.0737042 L77.9969092,29.9693979" id="Path-581" stroke="#3F3F3F" stroke-linecap="round" stroke-linejoin="round"></path>
                <path d="M66.9969092,78.0737042 L66.9969092,38.9693979" id="Path-581" stroke="#3F3F3F" stroke-linecap="round" stroke-linejoin="round"></path>
                <path d="M53.9969092,81.0737042 L53.9969092,41.9693979" id="Path-581" stroke="#3F3F3F" stroke-linecap="round" stroke-linejoin="round"></path>
                <path d="M39.9969092,82.0737042 L39.9969092,42.9693979" id="Path-581" stroke="#3F3F3F" stroke-linecap="round" stroke-linejoin="round"></path>
                <path d="M25.9969092,81.0737042 L25.9969092,41.9693979" id="Path-581" stroke="#3F3F3F" stroke-linecap="round" stroke-linejoin="round"></path>
                <path d="M12.9969092,78.0737042 L12.9969092,38.9693979" id="Path-581" stroke="#3F3F3F" stroke-linecap="round" stroke-linejoin="round"></path>
                <path d="M13.5289007,20.3789361 C13.5289007,18.2530476 13.5289007,16.3409673 13.5289007,14.6426954 C13.5289007,12.0952875 11.177572,8.25927488 6.21935866,8.25927488" id="Path-582" stroke="#3F3F3F" stroke-linecap="round" stroke-linejoin="round"></path>
                <path d="M28.5289007,17.6255612 C28.5289007,14.0019226 28.5289007,11.3409673 28.5289007,9.64269538 C28.5289007,7.09528747 26.177572,3.25927488 21.2193587,3.25927488" id="Path-582" stroke="#3F3F3F" stroke-linecap="round" stroke-linejoin="round"></path>
                <path d="M13.3391049,13.4519261 L28.1228569,8.67014257" id="Path-583" stroke="#3F3F3F" stroke-linecap="round" stroke-linejoin="round"></path>
                <path d="M1.96385094,69.0737042 L1.96385094,29.9693979" id="Path-581" stroke="#3F3F3F" stroke-linecap="round" stroke-linejoin="round"></path>
                <g id="Oval-Copy-493" transform="translate(13.000000, 78.000000) rotate(-90.000000) translate(-13.000000, -78.000000) ">
                    <use fill="#C2C2C2" fill-rule="evenodd" xlink:href="#path-1"></use>
                    <circle stroke="#151515" stroke-width="1.5" cx="13" cy="78" r="2.25"></circle>
                    <use stroke="#151515" stroke-width="1" xlink:href="#path-1"></use>
                </g>
                <g id="Oval-Copy-503" transform="translate(67.000000, 78.000000) rotate(-90.000000) translate(-67.000000, -78.000000) ">
                    <use fill="#C2C2C2" fill-rule="evenodd" xlink:href="#path-2"></use>
                    <circle stroke="#151515" stroke-width="1.5" cx="67" cy="78" r="2.25"></circle>
                    <use stroke="#151515" stroke-width="1" xlink:href="#path-2"></use>
                </g>
                <g id="Oval-Copy-494" transform="translate(5.000000, 8.000000) rotate(-90.000000) translate(-5.000000, -8.000000) ">
                    <use fill="#C2C2C2" fill-rule="evenodd" xlink:href="#path-3"></use>
                    <circle stroke="#151515" stroke-width="1.5" cx="5" cy="8" r="2.25"></circle>
                    <use stroke="#151515" stroke-width="1" xlink:href="#path-3"></use>
                </g>
                <g id="Oval-Copy-502" transform="translate(21.000000, 3.000000) rotate(-90.000000) translate(-21.000000, -3.000000) ">
                    <use fill="#C2C2C2" fill-rule="evenodd" xlink:href="#path-4"></use>
                    <circle stroke="#151515" stroke-width="1.5" cx="21" cy="3" r="2.25"></circle>
                    <use stroke="#151515" stroke-width="1" xlink:href="#path-4"></use>
                </g>
            </g>
        </g>
    </g>
</svg>