<?xml version="1.0" encoding="UTF-8"?>
<svg width="77px" height="77px" viewBox="0 0 77 77" version="1.1" xmlns="http://www.w3.org/2000/svg" xmlns:xlink="http://www.w3.org/1999/xlink">
    <!-- Generator: Sketch 47.1 (45422) - http://www.bohemiancoding.com/sketch -->
    <title>quality-seal</title>
    <desc>Created with Sketch.</desc>
    <defs>
        <circle id="path-1" cx="28" cy="44" r="3"></circle>
        <circle id="path-2" cx="49" cy="44" r="3"></circle>
        <circle id="path-3" cx="38" cy="13" r="3"></circle>
        <circle id="path-4" cx="23" cy="24" r="3"></circle>
        <circle id="path-5" cx="53" cy="24" r="3"></circle>
        <circle id="path-6" cx="62" cy="64" r="3"></circle>
        <circle id="path-7" cx="12" cy="64" r="3"></circle>
    </defs>
    <g id="Version-2" stroke="none" stroke-width="1" fill="none" fill-rule="evenodd">
        <g id="full-preview-2" transform="translate(-777.000000, -885.000000)">
            <g id="quality-seal" transform="translate(778.000000, 886.000000)">
                <polyline id="Stroke-1" stroke="#3F3F3F" stroke-linecap="round" stroke-linejoin="round" points="12.0273441 44.4396177 0 65.0807888 12.7269721 62.9411578 17.1445442 75 27.32867 57.2557372"></polyline>
                <polyline id="Stroke-3" stroke="#3F3F3F" stroke-linecap="round" stroke-linejoin="round" points="62.8690926 45 75 65.9862999 62.260397 63.8262871 57.8407372 76 47 57.8041314"></polyline>
                <path d="M67,29.5 C67,45.7938333 53.7905556,59 37.5,59 C21.2094444,59 8,45.7938333 8,29.5 C8,13.2094444 21.2094444,0 37.5,0 C53.7905556,0 67,13.2094444 67,29.5 Z" id="Stroke-5" stroke="#3F3F3F" stroke-linecap="round" stroke-linejoin="round"></path>
                <polygon id="Stroke-7" stroke="#3F3F3F" stroke-linecap="round" stroke-linejoin="round" points="38 14 43 24 53 24 44.6666667 32.3333333 48 44 38 37.7466667 28 44 31.3333333 32.3333333 23 24 33 24"></polygon>
                <g id="Oval-Copy-146">
                    <use fill="#C2C2C2" fill-rule="evenodd" xlink:href="#path-1"></use>
                    <circle stroke="#151515" stroke-width="1.5" cx="28" cy="44" r="2.25"></circle>
                    <use stroke="#151515" stroke-width="1" xlink:href="#path-1"></use>
                </g>
                <g id="Oval-Copy-153">
                    <use fill="#C2C2C2" fill-rule="evenodd" xlink:href="#path-2"></use>
                    <circle stroke="#151515" stroke-width="1.5" cx="49" cy="44" r="2.25"></circle>
                    <use stroke="#151515" stroke-width="1" xlink:href="#path-2"></use>
                </g>
                <g id="Oval-Copy-154">
                    <use fill="#C2C2C2" fill-rule="evenodd" xlink:href="#path-3"></use>
                    <circle stroke="#151515" stroke-width="1.5" cx="38" cy="13" r="2.25"></circle>
                    <use stroke="#151515" stroke-width="1" xlink:href="#path-3"></use>
                </g>
                <g id="Oval-Copy-147">
                    <use fill="#C2C2C2" fill-rule="evenodd" xlink:href="#path-4"></use>
                    <circle stroke="#151515" stroke-width="1.5" cx="23" cy="24" r="2.25"></circle>
                    <use stroke="#151515" stroke-width="1" xlink:href="#path-4"></use>
                </g>
                <g id="Oval-Copy-152">
                    <use fill="#C2C2C2" fill-rule="evenodd" xlink:href="#path-5"></use>
                    <circle stroke="#151515" stroke-width="1.5" cx="53" cy="24" r="2.25"></circle>
                    <use stroke="#151515" stroke-width="1" xlink:href="#path-5"></use>
                </g>
                <g id="Oval-Copy-148" transform="translate(62.000000, 64.000000) rotate(-90.000000) translate(-62.000000, -64.000000) ">
                    <use fill="#C2C2C2" fill-rule="evenodd" xlink:href="#path-6"></use>
                    <circle stroke="#151515" stroke-width="1.5" cx="62" cy="64" r="2.25"></circle>
                    <use stroke="#151515" stroke-width="1" xlink:href="#path-6"></use>
                </g>
                <g id="Oval-Copy-176" transform="translate(12.000000, 64.000000) rotate(-90.000000) translate(-12.000000, -64.000000) ">
                    <use fill="#C2C2C2" fill-rule="evenodd" xlink:href="#path-7"></use>
                    <circle stroke="#151515" stroke-width="1.5" cx="12" cy="64" r="2.25"></circle>
                    <use stroke="#151515" stroke-width="1" xlink:href="#path-7"></use>
                </g>
            </g>
        </g>
    </g>
</svg>