<?xml version="1.0" encoding="UTF-8"?>
<svg width="44px" height="87px" viewBox="0 0 44 87" version="1.1" xmlns="http://www.w3.org/2000/svg" xmlns:xlink="http://www.w3.org/1999/xlink">
    <!-- Generator: Sketch 47.1 (45422) - http://www.bohemiancoding.com/sketch -->
    <title>real-estate-app</title>
    <desc>Created with Sketch.</desc>
    <defs>
        <circle id="path-1" cx="12" cy="52.5" r="3"></circle>
        <circle id="path-2" cx="22.5" cy="18" r="3"></circle>
        <circle id="path-3" cx="33" cy="62.5" r="3"></circle>
    </defs>
    <g id="Version-2" stroke="none" stroke-width="1" fill="none" fill-rule="evenodd">
        <g id="full-preview-7" transform="translate(-794.000000, -1378.000000)">
            <g id="real-estate-app" transform="translate(794.000000, 1379.000000)">
                <polyline id="Path-430" stroke="#3F3F3F" stroke-linecap="round" stroke-linejoin="round" points="8.05403312 28.8604624 22.3191953 18 36.814061 28.7968602"></polyline>
                <polyline id="Path-431" stroke="#3F3F3F" stroke-linecap="round" stroke-linejoin="round" points="17.5 43.0793457 17.5 32.69836 27.84947 32.69836 27.84947 43.0290447"></polyline>
                <polyline id="Path-429" stroke="#3F3F3F" stroke-linecap="round" stroke-linejoin="round" points="11.4353171 26.5314868 11.4353171 43.1207954 33.5060474 43.1207954 33.5060474 26.3269961"></polyline>
                <circle id="Oval-2" stroke="#3F3F3F" stroke-linecap="round" stroke-linejoin="round" cx="22" cy="79.5" r="3"></circle>
                <path d="M0.5,6.15333083 C0.5,2.57841127 2.80713679,4.48600652e-16 6.20091293,0 C9.59468907,0 34.3124521,6.75276714e-17 37.6406585,0 C40.968865,0 43.5,2.7518296 43.5,6.15333083 C43.5,9.55483206 43.5,76.2117079 43.5,79.7758618 C43.5,83.3400156 40.6808672,85 38.2407737,85 C35.8006802,85 8.91547711,85 5.78986788,85 C2.66425865,85 0.5,82.3361565 0.5,79.3194541 C0.5,76.3027518 0.5,9.72825039 0.5,6.15333083 Z" id="Path-303" stroke="#3F3F3F" stroke-linecap="round" stroke-linejoin="round"></path>
                <path d="M3.5,11.0746652 C3.5,9.89507667 4.22395659,8 6.35697242,8 C8.48998825,8 35.7257063,8 37.7952676,8 C39.8648289,8 40.5,9.49391058 40.5,10.8703121 C40.5,12.2467136 40.5,69.0213392 40.5,70.9777609 C40.5,72.9341827 39.1149506,74 37.9208905,74 C36.7268304,74 7.77438818,74 6.22105965,74 C4.66773112,74 3.5,73.3025602 3.5,71.0903483 C3.5,68.8781363 3.5,12.2542538 3.5,11.0746652 Z" id="Path-304" stroke="#3F3F3F" stroke-linecap="round" stroke-linejoin="round"></path>
                <path d="M11.5,52.5 L33.5227155,52.5" id="Line-3" stroke="#3F3F3F" stroke-linecap="round" stroke-linejoin="round"></path>
                <path d="M11.5,62.5 L33.5227155,62.5" id="Line-3-Copy" stroke="#3F3F3F" stroke-linecap="round" stroke-linejoin="round"></path>
                <g id="Oval-Copy-596" transform="translate(12.000000, 52.500000) rotate(-90.000000) translate(-12.000000, -52.500000) ">
                    <use fill="#C2C2C2" fill-rule="evenodd" xlink:href="#path-1"></use>
                    <circle stroke="#151515" stroke-width="1.5" cx="12" cy="52.5" r="2.25"></circle>
                    <use stroke="#151515" stroke-width="1" xlink:href="#path-1"></use>
                </g>
                <g id="Oval-Copy-596" transform="translate(22.500000, 18.000000) rotate(-90.000000) translate(-22.500000, -18.000000) ">
                    <use fill="#C2C2C2" fill-rule="evenodd" xlink:href="#path-2"></use>
                    <circle stroke="#151515" stroke-width="1.5" cx="22.5" cy="18" r="2.25"></circle>
                    <use stroke="#151515" stroke-width="1" xlink:href="#path-2"></use>
                </g>
                <g id="Oval-Copy-596" transform="translate(33.000000, 62.500000) rotate(-90.000000) translate(-33.000000, -62.500000) ">
                    <use fill="#C2C2C2" fill-rule="evenodd" xlink:href="#path-3"></use>
                    <circle stroke="#151515" stroke-width="1.5" cx="33" cy="62.5" r="2.25"></circle>
                    <use stroke="#151515" stroke-width="1" xlink:href="#path-3"></use>
                </g>
            </g>
        </g>
    </g>
</svg>