<?xml version="1.0" encoding="UTF-8"?>
<svg width="47px" height="78px" viewBox="0 0 47 78" version="1.1" xmlns="http://www.w3.org/2000/svg" xmlns:xlink="http://www.w3.org/1999/xlink">
    <!-- Generator: Sketch 47.1 (45422) - http://www.bohemiancoding.com/sketch -->
    <title>shower</title>
    <desc>Created with Sketch.</desc>
    <defs>
        <circle id="path-1" cx="23" cy="45" r="3"></circle>
        <circle id="path-2" cx="23" cy="56" r="3"></circle>
        <circle id="path-3" cx="36" cy="50" r="3"></circle>
        <circle id="path-4" cx="37" cy="61" r="3"></circle>
        <circle id="path-5" cx="38" cy="73" r="3"></circle>
        <circle id="path-6" cx="11" cy="50" r="3"></circle>
        <circle id="path-7" cx="10" cy="61" r="3"></circle>
        <circle id="path-8" cx="9" cy="73" r="3"></circle>
        <circle id="path-9" cx="23" cy="67" r="3"></circle>
    </defs>
    <g id="Version-2" stroke="none" stroke-width="1" fill="none" fill-rule="evenodd">
        <g id="full-preview-7" transform="translate(-605.000000, -1378.000000)">
            <g id="shower" transform="translate(606.000000, 1379.000000)">
                <polygon id="Path-475" stroke="#3F3F3F" stroke-linecap="round" stroke-linejoin="round" points="0.321600306 35.361487 45.1756336 35.361487 45.1756336 27.5133238 0.330880386 27.5133238"></polygon>
                <path d="M23.003654,27.0619339 C23.003654,20.5867613 28.2905768,13 37.258594,13 C39.8052517,13 41.3481717,13 41.8873539,13" id="Path-476-Copy" stroke="#3F3F3F" stroke-linecap="round" stroke-linejoin="round" transform="translate(32.445504, 20.030967) scale(-1, 1) translate(-32.445504, -20.030967) "></path>
                <polyline id="Path-477" stroke="#3F3F3F" stroke-linecap="round" stroke-linejoin="round" points="18.7704016 12.8781651 18.7704016 0.422210823 26.9938269 0.422210823 26.9938269 12.8876675"></polyline>
                <g id="Oval-Copy-584" transform="translate(23.000000, 45.000000) rotate(-90.000000) translate(-23.000000, -45.000000) ">
                    <use fill="#C2C2C2" fill-rule="evenodd" xlink:href="#path-1"></use>
                    <circle stroke="#151515" stroke-width="1.5" cx="23" cy="45" r="2.25"></circle>
                    <use stroke="#151515" stroke-width="1" xlink:href="#path-1"></use>
                </g>
                <g id="Oval-Copy-592" transform="translate(23.000000, 56.000000) rotate(-90.000000) translate(-23.000000, -56.000000) ">
                    <use fill="#C2C2C2" fill-rule="evenodd" xlink:href="#path-2"></use>
                    <circle stroke="#151515" stroke-width="1.5" cx="23" cy="56" r="2.25"></circle>
                    <use stroke="#151515" stroke-width="1" xlink:href="#path-2"></use>
                </g>
                <g id="Oval-Copy-594" transform="translate(36.000000, 50.000000) rotate(-90.000000) translate(-36.000000, -50.000000) ">
                    <use fill="#C2C2C2" fill-rule="evenodd" xlink:href="#path-3"></use>
                    <circle stroke="#151515" stroke-width="1.5" cx="36" cy="50" r="2.25"></circle>
                    <use stroke="#151515" stroke-width="1" xlink:href="#path-3"></use>
                </g>
                <g id="Oval-Copy-595" transform="translate(37.000000, 61.000000) rotate(-90.000000) translate(-37.000000, -61.000000) ">
                    <use fill="#C2C2C2" fill-rule="evenodd" xlink:href="#path-4"></use>
                    <circle stroke="#151515" stroke-width="1.5" cx="37" cy="61" r="2.25"></circle>
                    <use stroke="#151515" stroke-width="1" xlink:href="#path-4"></use>
                </g>
                <g id="Oval-Copy-596" transform="translate(38.000000, 73.000000) rotate(-90.000000) translate(-38.000000, -73.000000) ">
                    <use fill="#C2C2C2" fill-rule="evenodd" xlink:href="#path-5"></use>
                    <circle stroke="#151515" stroke-width="1.5" cx="38" cy="73" r="2.25"></circle>
                    <use stroke="#151515" stroke-width="1" xlink:href="#path-5"></use>
                </g>
                <g id="Oval-Copy-597" transform="translate(11.000000, 50.000000) scale(-1, 1) rotate(-90.000000) translate(-11.000000, -50.000000) ">
                    <use fill="#C2C2C2" fill-rule="evenodd" xlink:href="#path-6"></use>
                    <circle stroke="#151515" stroke-width="1.5" cx="11" cy="50" r="2.25"></circle>
                    <use stroke="#151515" stroke-width="1" xlink:href="#path-6"></use>
                </g>
                <g id="Oval-Copy-598" transform="translate(10.000000, 61.000000) scale(-1, 1) rotate(-90.000000) translate(-10.000000, -61.000000) ">
                    <use fill="#C2C2C2" fill-rule="evenodd" xlink:href="#path-7"></use>
                    <circle stroke="#151515" stroke-width="1.5" cx="10" cy="61" r="2.25"></circle>
                    <use stroke="#151515" stroke-width="1" xlink:href="#path-7"></use>
                </g>
                <g id="Oval-Copy-599" transform="translate(9.000000, 73.000000) scale(-1, 1) rotate(-90.000000) translate(-9.000000, -73.000000) ">
                    <use fill="#C2C2C2" fill-rule="evenodd" xlink:href="#path-8"></use>
                    <circle stroke="#151515" stroke-width="1.5" cx="9" cy="73" r="2.25"></circle>
                    <use stroke="#151515" stroke-width="1" xlink:href="#path-8"></use>
                </g>
                <g id="Oval-Copy-593" transform="translate(23.000000, 67.000000) rotate(-90.000000) translate(-23.000000, -67.000000) ">
                    <use fill="#C2C2C2" fill-rule="evenodd" xlink:href="#path-9"></use>
                    <circle stroke="#151515" stroke-width="1.5" cx="23" cy="67" r="2.25"></circle>
                    <use stroke="#151515" stroke-width="1" xlink:href="#path-9"></use>
                </g>
                <path d="M4,27.0619339 C4,20.5867613 9.28692279,13 18.25494,13 C20.8015977,13 22.390246,13 23.0208849,13" id="Path-476" stroke="#3F3F3F" stroke-linecap="round" stroke-linejoin="round"></path>
            </g>
        </g>
    </g>
</svg>