<?xml version="1.0" encoding="UTF-8"?>
<svg width="79px" height="58px" viewBox="0 0 79 58" version="1.1" xmlns="http://www.w3.org/2000/svg" xmlns:xlink="http://www.w3.org/1999/xlink">
    <!-- Generator: Sketch 47.1 (45422) - http://www.bohemiancoding.com/sketch -->
    <title>smoking</title>
    <desc>Created with Sketch.</desc>
    <defs>
        <circle id="path-1" cx="67.25" cy="46.75" r="3"></circle>
        <circle id="path-2" cx="73.25" cy="52.75" r="3"></circle>
        <circle id="path-3" cx="73.25" cy="46.75" r="3"></circle>
        <circle id="path-4" cx="68.25" cy="12.75" r="3"></circle>
        <circle id="path-5" cx="61.25" cy="3.75" r="3"></circle>
        <circle id="path-6" cx="67.25" cy="52.75" r="3"></circle>
        <circle id="path-7" cx="3.75" cy="49.75" r="3"></circle>
    </defs>
    <g id="Version-2" stroke="none" stroke-width="1" fill="none" fill-rule="evenodd">
        <g id="full-preview-7" transform="translate(-585.000000, -1215.000000)">
            <g id="smoking" transform="translate(585.000000, 1215.000000)">
                <path d="M62.1703465,42.0495873 L62.1703465,57.5041571" id="Path-591" stroke="#3F3F3F" stroke-linecap="round" stroke-linejoin="round"></path>
                <path d="M26.1703465,42.0495873 L26.1703465,57.5041571" id="Path-591" stroke="#3F3F3F" stroke-linecap="round" stroke-linejoin="round"></path>
                <path d="M73.2863877,35.6154548 C75.8329402,32.2059574 78.3557873,24.8037141 69.0754219,13.3556586" id="Path-593" stroke="#3F3F3F" stroke-linecap="round" stroke-linejoin="round"></path>
                <path d="M6.30076976,42.009715 C4.70734199,42.009715 3.74676193,42.7652451 3.74676193,44.4277759 C3.74676193,46.0903068 3.74676193,52.5188203 3.74676193,54.7175664 C3.74676193,56.9163124 4.84454744,57.4014197 6.252532,57.4014197 C7.66051656,57.4014197 73.932487,57.4014197 75.5696714,57.4014197 C77.2068559,57.4014197 77.9096062,56.0861314 77.9096062,55.0539127 C77.9096062,54.0216941 77.9096062,46.2722674 77.9096062,44.6709318 C77.9096062,43.0695962 76.6244259,42.0217989 75.1679537,42.0217989 C73.7114814,42.0217989 7.89419753,42.009715 6.30076976,42.009715 Z" id="Path-590" stroke="#3F3F3F" stroke-linecap="round" stroke-linejoin="round"></path>
                <path d="M65.7877665,35.6378128 C67.0137296,33.1233671 69.5298315,28.9871391 64.5618035,21.2595555 C59.5937754,13.531972 57.6134372,9.01772836 60.6694431,4.74735241" id="Path-592" stroke="#3F3F3F" stroke-linecap="round" stroke-linejoin="round"></path>
                <g id="Oval-Copy-508" transform="translate(67.250000, 46.750000) rotate(-90.000000) translate(-67.250000, -46.750000) ">
                    <use fill="#C2C2C2" fill-rule="evenodd" xlink:href="#path-1"></use>
                    <circle stroke="#151515" stroke-width="1.5" cx="67.25" cy="46.75" r="2.25"></circle>
                    <use stroke="#151515" stroke-width="1" xlink:href="#path-1"></use>
                </g>
                <g id="Oval-Copy-509" transform="translate(73.250000, 52.750000) rotate(-90.000000) translate(-73.250000, -52.750000) ">
                    <use fill="#C2C2C2" fill-rule="evenodd" xlink:href="#path-2"></use>
                    <circle stroke="#151515" stroke-width="1.5" cx="73.25" cy="52.75" r="2.25"></circle>
                    <use stroke="#151515" stroke-width="1" xlink:href="#path-2"></use>
                </g>
                <g id="Oval-Copy-510" transform="translate(73.250000, 46.750000) rotate(-90.000000) translate(-73.250000, -46.750000) ">
                    <use fill="#C2C2C2" fill-rule="evenodd" xlink:href="#path-3"></use>
                    <circle stroke="#151515" stroke-width="1.5" cx="73.25" cy="46.75" r="2.25"></circle>
                    <use stroke="#151515" stroke-width="1" xlink:href="#path-3"></use>
                </g>
                <g id="Oval-Copy-510" transform="translate(68.250000, 12.750000) rotate(-90.000000) translate(-68.250000, -12.750000) ">
                    <use fill="#C2C2C2" fill-rule="evenodd" xlink:href="#path-4"></use>
                    <circle stroke="#151515" stroke-width="1.5" cx="68.25" cy="12.75" r="2.25"></circle>
                    <use stroke="#151515" stroke-width="1" xlink:href="#path-4"></use>
                </g>
                <g id="Oval-Copy-510" transform="translate(61.250000, 3.750000) rotate(-90.000000) translate(-61.250000, -3.750000) ">
                    <use fill="#C2C2C2" fill-rule="evenodd" xlink:href="#path-5"></use>
                    <circle stroke="#151515" stroke-width="1.5" cx="61.25" cy="3.75" r="2.25"></circle>
                    <use stroke="#151515" stroke-width="1" xlink:href="#path-5"></use>
                </g>
                <g id="Oval-Copy-511" transform="translate(67.250000, 52.750000) rotate(-90.000000) translate(-67.250000, -52.750000) ">
                    <use fill="#C2C2C2" fill-rule="evenodd" xlink:href="#path-6"></use>
                    <circle stroke="#151515" stroke-width="1.5" cx="67.25" cy="52.75" r="2.25"></circle>
                    <use stroke="#151515" stroke-width="1" xlink:href="#path-6"></use>
                </g>
                <g id="Oval-Copy-511" transform="translate(3.750000, 49.750000) rotate(-90.000000) translate(-3.750000, -49.750000) ">
                    <use fill="#C2C2C2" fill-rule="evenodd" xlink:href="#path-7"></use>
                    <circle stroke="#151515" stroke-width="1.5" cx="3.75" cy="49.75" r="2.25"></circle>
                    <use stroke="#151515" stroke-width="1" xlink:href="#path-7"></use>
                </g>
            </g>
        </g>
    </g>
</svg>