<?xml version="1.0" encoding="UTF-8"?>
<svg width="94px" height="91px" viewBox="0 0 94 91" version="1.1" xmlns="http://www.w3.org/2000/svg" xmlns:xlink="http://www.w3.org/1999/xlink">
    <!-- Generator: Sketch 47.1 (45422) - http://www.bohemiancoding.com/sketch -->
    <title>steak-in-petri-dish-in-hand</title>
    <desc>Created with Sketch.</desc>
    <defs>
        <circle id="path-1" cx="97" cy="58" r="3"></circle>
        <circle id="path-2" cx="76" cy="95" r="3"></circle>
        <circle id="path-3" cx="31" cy="79" r="3"></circle>
        <circle id="path-4" cx="46" cy="17" r="3"></circle>
        <circle id="path-5" cx="63" cy="43" r="3"></circle>
        <circle id="path-6" cx="53" cy="31" r="3"></circle>
        <circle id="path-7" cx="16" cy="51" r="3"></circle>
    </defs>
    <g id="Version-2" stroke="none" stroke-width="1" fill="none" fill-rule="evenodd">
        <g id="full-preview-5" transform="translate(-399.000000, -873.000000)">
            <g id="steak-in-petri-dish-in-hand" transform="translate(392.000000, 865.000000)">
                <path d="M57.9068635,53.6998209 C56.9931993,51.425825 55.0181271,48.728354 56.585472,46.7750425 C58.152817,44.821731 58.3188857,41.6615582 60.2166501,42.0294862 C62.1144144,42.3974143 62.8010226,42.1491702 63.3261433,43.627468" id="Path-7" stroke="#3F3F3F" stroke-linecap="round" stroke-linejoin="round"></path>
                <path d="M53.0461877,38.0542352 C51.9961116,40.1480775 49.2802162,40.8810801 47.4740012,40.1480775 C45.6677861,39.415075 44.2664577,37.5841461 44.8569612,35.8967679 C45.4474647,34.2093897 46.5085832,30.7673275 47.4740012,29.6983216 C48.4394192,28.6293157 48.6166228,26.2520528 50.4906695,24.1282384 C52.3647162,22.0044239 59.5806373,13.4912881 60.2326625,12.5195602 C60.8846877,11.5478323 65.7349141,9.57545598 67.8766066,8.65315578 C70.0182992,7.73085558 77.9220017,4.83723073 80.5569198,4.27249275" id="Path-2" stroke="#3F3F3F" stroke-linecap="round" stroke-linejoin="round" transform="translate(62.638448, 22.348556) rotate(-285.000000) translate(-62.638448, -22.348556) "></path>
                <path d="M63.1438054,64.4157384 C60.4902479,67.5447703 57.2189581,72.9012269 55.5073783,76.7139937 C53.7957985,80.5267604 53.1216757,94.9050561 52.58917,96.2084456 C52.0566642,97.5118351 46.5182201,101.204131 44.1363623,105.245664 C41.7545045,109.287197 38.7574776,112.842361 36.7043508,111.142957 C34.6512239,109.443552 35.9187286,104.136437 36.7043508,102.853553" id="Path-5" stroke="#3F3F3F" stroke-linecap="round" stroke-linejoin="round" transform="translate(49.367468, 87.996840) rotate(-285.000000) translate(-49.367468, -87.996840) "></path>
                <circle id="Oval-2" stroke="#3F3F3F" stroke-linecap="round" stroke-linejoin="round" transform="translate(39.744750, 48.681410) rotate(-285.000000) translate(-39.744750, -48.681410) " cx="39.7447502" cy="48.6814098" r="32"></circle>
                <path d="M101.945536,91.7484621 C96.000575,77.8951562 84.8598253,66.7996913 70.9751948,60.9139758" id="Oval-2" stroke="#3F3F3F" stroke-linecap="round" stroke-linejoin="round" transform="translate(86.460365, 76.331219) rotate(-285.000000) translate(-86.460365, -76.331219) "></path>
                <path d="M78.3300029,49.4363259 C86.7402018,46.6561202 95.1775172,44.5707102 103.641949,43.1800957" id="Path-9" stroke="#3F3F3F" stroke-linecap="round" stroke-linejoin="round" transform="translate(90.985976, 46.308211) rotate(-285.000000) translate(-90.985976, -46.308211) "></path>
                <g id="Oval-Copy-492" transform="translate(97.000000, 58.000000) rotate(-360.000000) translate(-97.000000, -58.000000) ">
                    <use fill="#C2C2C2" fill-rule="evenodd" xlink:href="#path-1"></use>
                    <circle stroke="#151515" stroke-width="1.5" cx="97" cy="58" r="2.25"></circle>
                    <use stroke="#151515" stroke-width="1" xlink:href="#path-1"></use>
                </g>
                <g id="Oval-Copy-493" transform="translate(76.000000, 95.000000) rotate(-360.000000) translate(-76.000000, -95.000000) ">
                    <use fill="#C2C2C2" fill-rule="evenodd" xlink:href="#path-2"></use>
                    <circle stroke="#151515" stroke-width="1.5" cx="76" cy="95" r="2.25"></circle>
                    <use stroke="#151515" stroke-width="1" xlink:href="#path-2"></use>
                </g>
                <g id="Oval-Copy-494" transform="translate(31.000000, 79.000000) rotate(-360.000000) translate(-31.000000, -79.000000) ">
                    <use fill="#C2C2C2" fill-rule="evenodd" xlink:href="#path-3"></use>
                    <circle stroke="#151515" stroke-width="1.5" cx="31" cy="79" r="2.25"></circle>
                    <use stroke="#151515" stroke-width="1" xlink:href="#path-3"></use>
                </g>
                <g id="Oval-Copy-495" transform="translate(46.000000, 17.000000) rotate(-360.000000) translate(-46.000000, -17.000000) ">
                    <use fill="#C2C2C2" fill-rule="evenodd" xlink:href="#path-4"></use>
                    <circle stroke="#151515" stroke-width="1.5" cx="46" cy="17" r="2.25"></circle>
                    <use stroke="#151515" stroke-width="1" xlink:href="#path-4"></use>
                </g>
                <path d="M24.0550765,57.7779777 C24.8763521,59.0199356 26.1210673,60.6943926 28.4545143,61.1434354 C30.7879613,61.5924782 38.4543825,61.5444227 40.3391805,62.1266028 C42.2239786,62.7087828 49.5161975,64.2993397 51.2028653,65.0835891 C52.8895331,65.8678384 58.4308789,67.390251 61.1282869,63.754186 C63.8256949,60.118121 64.7596252,57.0524191 64.6402743,51.7978304 C64.5209235,46.5432418 63.4944274,43.1458785 61.1282869,41.5182952 C58.7621464,39.890712 59.1115332,39.5007538 58.7621464,38.2828237 C58.4127596,37.0648935 55.545188,32.4405404 53.5713691,31.2903606 C51.5975503,30.1401808 51.1091178,32.8029258 50.3414121,32.4405404 C49.5737065,32.078155 47.7052782,32.0620682 46.4408167,31.2903606 C45.1763553,30.518653 43.4087157,31.993372 42.3725572,33.1799097 C41.3363988,34.3664474 38.2645612,35.0702222 37.6889277,34.9855541 C37.1132942,34.9008861 33.4427507,37.5666074 30.6117194,40.4987693 C27.780688,43.4309312 24.9150101,41.3024053 21.4759468,41.5182952 C18.0368836,41.7341852 14.4689101,43.7233983 13.3879992,46.0650077 C12.3070884,48.4066171 13.5946302,48.8605807 15.8887956,51.7978304 C18.1829611,54.7350802 20.2183696,56.7555065 21.887336,56.9789925 C23.5563023,57.2024786 23.2338008,56.5360198 24.0550765,57.7779777 Z" id="Path-6" stroke="#3F3F3F" stroke-linecap="round" stroke-linejoin="round"></path>
                <path d="M52.2026718,31 C53.5180504,32.8634053 57.1787199,36.7067504 55.6254049,39.350106 C54.0720899,41.9934616 53.1275026,41.7489397 50.3092023,41.9934616 C47.4909019,42.2379834 43.7188518,42.4512958 40.6019141,42.6654672 C37.4849764,42.8796385 32.8092836,42.8942411 31.7389994,42.6654672 C30.6687153,42.4366932 28.419916,43.5152808 26.7955924,43.5098406 C25.1712687,43.5044004 22.7034305,43.1430578 23.0292688,44.5197101 C23.355107,45.8963624 27.0071868,47.0608475 28.9424598,47.1178263 C30.8777328,47.174805 31.6236103,46.2410981 33.0349079,46.0317942 C34.4462055,45.8224904 37.8663618,45.2275063 40.1518107,44.9935785 C42.4372596,44.7596507 47.6632698,43.6197895 49.7199447,43.5098406 C51.7766196,43.3998917 50.9605924,45.9473283 52.2026718,47.1178263 C53.4447511,48.2883243 54.1748807,48.8151629 55.6254049,50.592098 C56.5924211,51.7767214 57.4281093,52.9140056 58.1324696,54.0039508" id="Path-8" stroke="#3F3F3F" stroke-linecap="round" stroke-linejoin="round"></path>
                <g id="Oval-Copy-496" transform="translate(63.000000, 43.000000) rotate(-360.000000) translate(-63.000000, -43.000000) ">
                    <use fill="#C2C2C2" fill-rule="evenodd" xlink:href="#path-5"></use>
                    <circle stroke="#151515" stroke-width="1.5" cx="63" cy="43" r="2.25"></circle>
                    <use stroke="#151515" stroke-width="1" xlink:href="#path-5"></use>
                </g>
                <g id="Oval-Copy-497" transform="translate(53.000000, 31.000000) rotate(-360.000000) translate(-53.000000, -31.000000) ">
                    <use fill="#C2C2C2" fill-rule="evenodd" xlink:href="#path-6"></use>
                    <circle stroke="#151515" stroke-width="1.5" cx="53" cy="31" r="2.25"></circle>
                    <use stroke="#151515" stroke-width="1" xlink:href="#path-6"></use>
                </g>
                <g id="Oval-Copy-498" transform="translate(16.000000, 51.000000) rotate(-360.000000) translate(-16.000000, -51.000000) ">
                    <use fill="#C2C2C2" fill-rule="evenodd" xlink:href="#path-7"></use>
                    <circle stroke="#151515" stroke-width="1.5" cx="16" cy="51" r="2.25"></circle>
                    <use stroke="#151515" stroke-width="1" xlink:href="#path-7"></use>
                </g>
            </g>
        </g>
    </g>
</svg>