<?xml version="1.0" encoding="UTF-8"?>
<svg width="88px" height="75px" viewBox="0 0 88 75" version="1.1" xmlns="http://www.w3.org/2000/svg" xmlns:xlink="http://www.w3.org/1999/xlink">
    <!-- Generator: Sketch 47.1 (45422) - http://www.bohemiancoding.com/sketch -->
    <title>stomach</title>
    <desc>Created with Sketch.</desc>
    <defs>
        <circle id="path-1" cx="33" cy="3" r="3"></circle>
        <circle id="path-2" cx="23" cy="7" r="3"></circle>
        <circle id="path-3" cx="11.5" cy="70" r="3"></circle>
        <circle id="path-4" cx="64" cy="43" r="3"></circle>
        <circle id="path-5" cx="43" cy="64" r="3"></circle>
        <circle id="path-6" cx="3" cy="70" r="3"></circle>
    </defs>
    <g id="Version-2" stroke="none" stroke-width="1" fill="none" fill-rule="evenodd">
        <g id="full-preview-6" transform="translate(-776.000000, -723.000000)">
            <g id="stomach" transform="translate(777.000000, 724.000000)">
                <g id="Group-2" transform="translate(3.000000, 3.000000)" stroke="#3F3F3F" stroke-linecap="round" stroke-linejoin="round">
                    <path d="M19.9200386,4.8282882 C21.2149257,9.0475646 25.6157545,18.8050253 40.314232,22.2198852 C41.1493387,25.5887619 42.7540812,28.2757879 45.1284597,30.2809634 C43.2867569,34.0006579 43.8684806,37.771191 45.0396032,40.4880333 C41.2030005,40.8493899 39.2629043,44.488816 39.0372208,46.9082105 C34.8978274,44.6748374 27.1927461,47.0741214 25.3258294,50.1633043 C20.0345562,46.8998311 10.3229025,45.9200071 4.75399396,51.6375093 C-0.814914617,57.3550115 -0.626658805,64.276904 0.985525982,67.7587985" id="Path-213"></path>
                    <path d="M8.48077215,67.5289974 C7.8419557,64.40615 7.34606868,58.3355553 13.6496705,57.7597014 C19.9532723,57.1838474 23.6675994,59.4330328 27.0896334,62.0829722 C30.5116675,64.7329115 36.1070562,67.3217267 42.3881386,67.5289974 C48.669221,67.736268 64.2660178,69.4867654 75.5303041,54.1575119 C87.8734046,37.3601303 82.0641771,17.6940064 76.3887999,10.2584126 C70.7134227,2.82281882 60.905751,-2.9313374 48.2634117,3.22683576 C45.7337338,4.46767107 43.1887273,7.10017756 41.513098,10.2184291 C37.0248379,10.0704443 32.5025689,6.94943526 29.869634,0.943181818" id="Path-214"></path>
                    <path d="M27.5489362,55.4345717 C32.0834199,59.6823816 34.534248,61.6838958 49.1589915,61.6838958 C63.7837351,61.6838958 71.0521612,49.5025875 73.4046933,42.8113422 C63.0543188,39.8298802 55.9674552,39.6324819 51.0356507,42.8113422 C46.6339623,45.6485091 45.3703525,49.6850234 44.690221,51.1105479 C44.0100895,52.5360725 41.9379337,52.4711807 40.1513564,52.3077192 C36.6901456,51.9910383 31.4301213,50.9425277 27.5489362,55.4345717 Z" id="Path-215"></path>
                    <circle id="Oval-18" cx="70.1085106" cy="26.1963733" r="3.70851064"></circle>
                </g>
                <g id="Oval-Copy-540" transform="translate(33.000000, 3.000000) rotate(-90.000000) translate(-33.000000, -3.000000) ">
                    <use fill="#C2C2C2" fill-rule="evenodd" xlink:href="#path-1"></use>
                    <circle stroke="#151515" stroke-width="1.5" cx="33" cy="3" r="2.25"></circle>
                    <use stroke="#151515" stroke-width="1" xlink:href="#path-1"></use>
                </g>
                <g id="Oval-Copy-541" transform="translate(23.000000, 7.000000) rotate(-90.000000) translate(-23.000000, -7.000000) ">
                    <use fill="#C2C2C2" fill-rule="evenodd" xlink:href="#path-2"></use>
                    <circle stroke="#151515" stroke-width="1.5" cx="23" cy="7" r="2.25"></circle>
                    <use stroke="#151515" stroke-width="1" xlink:href="#path-2"></use>
                </g>
                <g id="Oval-Copy-542" transform="translate(11.500000, 70.000000) rotate(-90.000000) translate(-11.500000, -70.000000) ">
                    <use fill="#C2C2C2" fill-rule="evenodd" xlink:href="#path-3"></use>
                    <circle stroke="#151515" stroke-width="1.5" cx="11.5" cy="70" r="2.25"></circle>
                    <use stroke="#151515" stroke-width="1" xlink:href="#path-3"></use>
                </g>
                <g id="Oval-Copy-544" transform="translate(64.000000, 43.000000) rotate(-90.000000) translate(-64.000000, -43.000000) ">
                    <use fill="#C2C2C2" fill-rule="evenodd" xlink:href="#path-4"></use>
                    <circle stroke="#151515" stroke-width="1.5" cx="64" cy="43" r="2.25"></circle>
                    <use stroke="#151515" stroke-width="1" xlink:href="#path-4"></use>
                </g>
                <g id="Oval-Copy-545" transform="translate(43.000000, 64.000000) rotate(-90.000000) translate(-43.000000, -64.000000) ">
                    <use fill="#C2C2C2" fill-rule="evenodd" xlink:href="#path-5"></use>
                    <circle stroke="#151515" stroke-width="1.5" cx="43" cy="64" r="2.25"></circle>
                    <use stroke="#151515" stroke-width="1" xlink:href="#path-5"></use>
                </g>
                <g id="Oval-Copy-543" transform="translate(3.000000, 70.000000) rotate(-90.000000) translate(-3.000000, -70.000000) ">
                    <use fill="#C2C2C2" fill-rule="evenodd" xlink:href="#path-6"></use>
                    <circle stroke="#151515" stroke-width="1.5" cx="3" cy="70" r="2.25"></circle>
                    <use stroke="#151515" stroke-width="1" xlink:href="#path-6"></use>
                </g>
            </g>
        </g>
    </g>
</svg>