<?xml version="1.0" encoding="UTF-8"?>
<svg width="64px" height="91px" viewBox="0 0 64 91" version="1.1" xmlns="http://www.w3.org/2000/svg" xmlns:xlink="http://www.w3.org/1999/xlink">
    <!-- Generator: Sketch 47.1 (45422) - http://www.bohemiancoding.com/sketch -->
    <title>surgical-instruments</title>
    <desc>Created with Sketch.</desc>
    <defs>
        <circle id="path-1" cx="8" cy="87" r="3"></circle>
        <circle id="path-2" cx="3" cy="4" r="3"></circle>
        <circle id="path-3" cx="40" cy="71.5" r="3"></circle>
    </defs>
    <g id="Version-2" stroke="none" stroke-width="1" fill="none" fill-rule="evenodd">
        <g id="full-preview-7" transform="translate(-411.000000, -209.000000)">
            <g id="surgical-instruments" transform="translate(412.000000, 209.000000)">
                <polygon id="Path-350" stroke="#3F3F3F" stroke-linecap="round" stroke-linejoin="round" points="0.501824728 37.7393737 0.501824728 87.1453277 8.31119676 87.1453277 8.31119676 37.803912"></polygon>
                <path d="M2.78313253,37.1931053 L2.78313253,2.78313253 C8.65309076,6.32530614 11.5448033,12.8385541 11.4582703,22.3228764 C11.4428166,24.0166569 9.60888414,25.9981876 5.956473,28.2674685 L5.956473,37.078866" id="Path-351" stroke="#3F3F3F" stroke-linecap="round" stroke-linejoin="round"></path>
                <path d="M48.5645929,73.5537167 C46.1988057,77.4014243 49.352107,85.2284842 53.4352187,85.2284842 C57.5183305,85.2284842 59.8977606,81.6386988 58.9551652,75.711017 C58.0125699,69.7833352 50.93038,69.7060091 48.5645929,73.5537167 Z" id="Path-352" stroke="#3F3F3F" stroke-linecap="round" stroke-linejoin="round"></path>
                <path d="M39.6601848,0 C40.7226846,3.70088589 41.5158721,20.9955044 42.0395362,31.6674851 C42.5632003,42.3394657 44.6475791,63.6380017 45.102237,66.4021651 C45.5568949,69.1663285 47.3397999,70.1740148 49.7422925,69.1663285 C52.144785,68.1586422 57.4957632,67.0981441 60.3460986,72.3940988 C63.1964339,77.6900536 61.1227186,84.9898783 57.5584543,86.6989914 C54.6052917,88.1150729 49.6124108,88.8785797 46.8242665,82.9332792 C44.0361223,76.9879788 46.7790313,72.3145859 42.3998291,71.7483435 C41.2082047,71.5942634 40.5324888,71.5030733 39.4645248,71.4747734" id="Path-353" stroke="#3F3F3F" stroke-linecap="round" stroke-linejoin="round"></path>
                <path d="M20.8392851,73.5537167 C18.473498,77.4014243 21.6267993,85.2284842 25.709911,85.2284842 C29.7930228,85.2284842 32.1724529,81.6386988 31.2298575,75.711017 C30.2872621,69.7833352 23.2050723,69.7060091 20.8392851,73.5537167 Z" id="Path-352" stroke="#3F3F3F" stroke-linecap="round" stroke-linejoin="round" transform="translate(25.730720, 78.073412) scale(-1, 1) translate(-25.730720, -78.073412) "></path>
                <path d="M17.5668978,0 C18.6293976,3.70088589 19.5553315,20.9955044 20.0789956,31.6674851 C20.6026597,42.3394657 22.6870386,63.6380017 23.1416965,66.4021651 C23.5963544,69.1663285 25.3792593,70.1740148 27.7817519,69.1663285 C30.1842445,68.1586422 35.5352226,67.0981441 38.385558,72.3940988 C41.2358934,77.6900536 39.162178,84.9898783 35.5979137,86.6989914 C32.6447511,88.1150729 27.6518702,88.8785797 24.863726,82.9332792 C22.0755817,76.9879788 24.8184907,72.3145859 20.4392885,71.7483435 C19.2476642,71.5942634 18.5719482,71.5030733 17.5039842,71.4747734" id="Path-353" stroke="#3F3F3F" stroke-linecap="round" stroke-linejoin="round" transform="translate(28.613103, 43.849418) scale(-1, 1) translate(-28.613103, -43.849418) "></path>
                <g id="Oval-Copy-556" transform="translate(8.000000, 87.000000) rotate(-90.000000) translate(-8.000000, -87.000000) ">
                    <use fill="#C2C2C2" fill-rule="evenodd" xlink:href="#path-1"></use>
                    <circle stroke="#151515" stroke-width="1.5" cx="8" cy="87" r="2.25"></circle>
                    <use stroke="#151515" stroke-width="1" xlink:href="#path-1"></use>
                </g>
                <g id="Oval-Copy-557" transform="translate(3.000000, 4.000000) rotate(-90.000000) translate(-3.000000, -4.000000) ">
                    <use fill="#C2C2C2" fill-rule="evenodd" xlink:href="#path-2"></use>
                    <circle stroke="#151515" stroke-width="1.5" cx="3" cy="4" r="2.25"></circle>
                    <use stroke="#151515" stroke-width="1" xlink:href="#path-2"></use>
                </g>
                <g id="Oval-Copy-545" transform="translate(40.000000, 71.500000) rotate(-90.000000) translate(-40.000000, -71.500000) ">
                    <use fill="#C2C2C2" fill-rule="evenodd" xlink:href="#path-3"></use>
                    <circle stroke="#151515" stroke-width="1.5" cx="40" cy="71.5" r="2.25"></circle>
                    <use stroke="#151515" stroke-width="1" xlink:href="#path-3"></use>
                </g>
                <path d="M39.5,67.8804207 C40.8353082,67.8804207 43.2827067,67.4216244 42.9391548,65.0273037 C42.5956028,62.6329831 41.4933006,48.6080663 41.2359231,46.4078797 C40.9785457,44.2076932 40.5222942,40 39.5,40" id="Path-354" stroke="#3F3F3F" stroke-linecap="round" stroke-linejoin="round"></path>
                <path d="M36.25,67.8804207 C37.5853082,67.8804207 40.0327067,67.4216244 39.6891548,65.0273037 C39.3456028,62.6329831 38.2433006,48.6080663 37.9859231,46.4078797 C37.7285457,44.2076932 37.2722942,40 36.25,40" id="Path-354-Copy" stroke="#3F3F3F" stroke-linecap="round" stroke-linejoin="round" transform="translate(37.985923, 53.940210) scale(-1, 1) translate(-37.985923, -53.940210) "></path>
            </g>
        </g>
    </g>
</svg>