<?xml version="1.0" encoding="UTF-8"?>
<svg width="51px" height="79px" viewBox="0 0 51 79" version="1.1" xmlns="http://www.w3.org/2000/svg" xmlns:xlink="http://www.w3.org/1999/xlink">
    <!-- Generator: Sketch 47.1 (45422) - http://www.bohemiancoding.com/sketch -->
    <title>video-chat-mobile-user</title>
    <desc>Created with Sketch.</desc>
    <defs>
        <circle id="path-1" cx="46" cy="74" r="3"></circle>
        <circle id="path-2" cx="3" cy="74" r="3"></circle>
        <circle id="path-3" cx="46" cy="3" r="3"></circle>
        <circle id="path-4" cx="21" cy="35" r="3"></circle>
        <circle id="path-5" cx="29" cy="35" r="3"></circle>
        <circle id="path-6" cx="3" cy="3" r="3"></circle>
        <circle id="path-7" cx="24.5" cy="64" r="3"></circle>
    </defs>
    <g id="Version-2" stroke="none" stroke-width="1" fill="none" fill-rule="evenodd">
        <g id="full-preview-3" transform="translate(-791.000000, -1385.000000)">
            <g id="video-chat-mobile-user" transform="translate(792.000000, 1386.000000)">
                <rect id="Rectangle-15" stroke="#3F3F3F" stroke-linecap="round" stroke-linejoin="round" x="3" y="3" width="43" height="71"></rect>
                <g id="Oval-Copy-65" transform="translate(46.000000, 74.000000) rotate(-90.000000) translate(-46.000000, -74.000000) ">
                    <use fill="#C2C2C2" fill-rule="evenodd" xlink:href="#path-1"></use>
                    <circle stroke="#151515" stroke-width="1.5" cx="46" cy="74" r="2.25"></circle>
                    <use stroke="#151515" stroke-width="1" xlink:href="#path-1"></use>
                </g>
                <g id="Oval-Copy-66" transform="translate(3.000000, 74.000000) rotate(-90.000000) translate(-3.000000, -74.000000) ">
                    <use fill="#C2C2C2" fill-rule="evenodd" xlink:href="#path-2"></use>
                    <circle stroke="#151515" stroke-width="1.5" cx="3" cy="74" r="2.25"></circle>
                    <use stroke="#151515" stroke-width="1" xlink:href="#path-2"></use>
                </g>
                <g id="Oval-Copy-67" transform="translate(46.000000, 3.000000) rotate(-90.000000) translate(-46.000000, -3.000000) ">
                    <use fill="#C2C2C2" fill-rule="evenodd" xlink:href="#path-3"></use>
                    <circle stroke="#151515" stroke-width="1.5" cx="46" cy="3" r="2.25"></circle>
                    <use stroke="#151515" stroke-width="1" xlink:href="#path-3"></use>
                </g>
                <g id="Oval-Copy-70" transform="translate(21.000000, 35.000000) rotate(-90.000000) translate(-21.000000, -35.000000) ">
                    <use fill="#C2C2C2" fill-rule="evenodd" xlink:href="#path-4"></use>
                    <circle stroke="#151515" stroke-width="1.5" cx="21" cy="35" r="2.25"></circle>
                    <use stroke="#151515" stroke-width="1" xlink:href="#path-4"></use>
                </g>
                <g id="Oval-Copy-71" transform="translate(29.000000, 35.000000) rotate(-90.000000) translate(-29.000000, -35.000000) ">
                    <use fill="#C2C2C2" fill-rule="evenodd" xlink:href="#path-5"></use>
                    <circle stroke="#151515" stroke-width="1.5" cx="29" cy="35" r="2.25"></circle>
                    <use stroke="#151515" stroke-width="1" xlink:href="#path-5"></use>
                </g>
                <g id="Oval-Copy-68" transform="translate(3.000000, 3.000000) rotate(-90.000000) translate(-3.000000, -3.000000) ">
                    <use fill="#C2C2C2" fill-rule="evenodd" xlink:href="#path-6"></use>
                    <circle stroke="#151515" stroke-width="1.5" cx="3" cy="3" r="2.25"></circle>
                    <use stroke="#151515" stroke-width="1" xlink:href="#path-6"></use>
                </g>
                <g id="Oval-Copy-69" transform="translate(24.500000, 64.000000) rotate(-90.000000) translate(-24.500000, -64.000000) ">
                    <use fill="#C2C2C2" fill-rule="evenodd" xlink:href="#path-7"></use>
                    <circle stroke="#151515" stroke-width="1.5" cx="24.5" cy="64" r="2.25"></circle>
                    <use stroke="#151515" stroke-width="1" xlink:href="#path-7"></use>
                </g>
                <circle id="Oval-8" stroke="#3F3F3F" stroke-linecap="round" stroke-linejoin="round" cx="24.5" cy="64" r="4"></circle>
                <circle id="Oval-8-Copy-2" stroke="#3F3F3F" stroke-linecap="round" stroke-linejoin="round" cx="25" cy="37" r="11"></circle>
                <path d="M46,60 C46,53.372583 36.3741221,48 24.5,48 C12.6258779,48 3,53.372583 3,60" id="Oval-8-Copy" stroke="#3F3F3F" stroke-linecap="round" stroke-linejoin="round"></path>
                <path d="M32,42.2077763 C29.7860455,41.4420544 27.802831,41 25.0067967,41 C22.7176888,41 19.9247351,41.5176161 18,42.0452403" id="Oval-8-Copy" stroke="#3F3F3F" stroke-linecap="round" stroke-linejoin="round" transform="translate(25.000000, 41.603888) scale(1, -1) translate(-25.000000, -41.603888) "></path>
            </g>
        </g>
    </g>
</svg>