<?xml version="1.0" encoding="UTF-8"?>
<svg width="53px" height="86px" viewBox="0 0 53 86" version="1.1" xmlns="http://www.w3.org/2000/svg" xmlns:xlink="http://www.w3.org/1999/xlink">
    <!-- Generator: Sketch 47.1 (45422) - http://www.bohemiancoding.com/sketch -->
    <title>water-drop</title>
    <desc>Created with Sketch.</desc>
    <defs>
        <circle id="path-1" cx="18" cy="37" r="3"></circle>
        <circle id="path-2" cx="16" cy="67" r="3"></circle>
        <circle id="path-3" cx="26" cy="3" r="3"></circle>
        <circle id="path-4" cx="26" cy="81" r="3"></circle>
    </defs>
    <g id="Version-2" stroke="none" stroke-width="1" fill="none" fill-rule="evenodd">
        <g id="full-preview-1" transform="translate(-979.000000, -774.000000)">
            <g id="water-drop" transform="translate(980.000000, 775.000000)">
                <path d="M51,55.5652174 C51,69.6153913 39.5828,81 25.5,81 C11.4104,81 0,69.6153913 0,55.5652174 C0,41.5150435 25.5,3 25.5,3 C25.5,3 51,41.5150435 51,55.5652174 Z" id="Stroke-1" stroke="#3F3F3F" stroke-linecap="round" stroke-linejoin="round"></path>
                <path d="M16.2183436,66.7658738 C12.7991306,64.0041669 11.0435842,60.296879 11.0435842,55.8225117 C11.0435842,51.2945191 13.4367474,45.2656963 17.615738,36.8260427" id="Stroke-3" stroke="#3F3F3F" stroke-linecap="round" stroke-linejoin="round"></path>
                <g id="Oval-Copy-269" transform="translate(18.000000, 37.000000) rotate(-90.000000) translate(-18.000000, -37.000000) ">
                    <use fill="#C2C2C2" fill-rule="evenodd" xlink:href="#path-1"></use>
                    <circle stroke="#151515" stroke-width="1.5" cx="18" cy="37" r="2.25"></circle>
                    <use stroke="#151515" stroke-width="1" xlink:href="#path-1"></use>
                </g>
                <g id="Oval-Copy-270" transform="translate(16.000000, 67.000000) rotate(-90.000000) translate(-16.000000, -67.000000) ">
                    <use fill="#C2C2C2" fill-rule="evenodd" xlink:href="#path-2"></use>
                    <circle stroke="#151515" stroke-width="1.5" cx="16" cy="67" r="2.25"></circle>
                    <use stroke="#151515" stroke-width="1" xlink:href="#path-2"></use>
                </g>
                <g id="Oval-Copy-271" transform="translate(26.000000, 3.000000) rotate(-90.000000) translate(-26.000000, -3.000000) ">
                    <use fill="#C2C2C2" fill-rule="evenodd" xlink:href="#path-3"></use>
                    <circle stroke="#151515" stroke-width="1.5" cx="26" cy="3" r="2.25"></circle>
                    <use stroke="#151515" stroke-width="1" xlink:href="#path-3"></use>
                </g>
                <g id="Oval-Copy-272" transform="translate(26.000000, 81.000000) rotate(-90.000000) translate(-26.000000, -81.000000) ">
                    <use fill="#C2C2C2" fill-rule="evenodd" xlink:href="#path-4"></use>
                    <circle stroke="#151515" stroke-width="1.5" cx="26" cy="81" r="2.25"></circle>
                    <use stroke="#151515" stroke-width="1" xlink:href="#path-4"></use>
                </g>
            </g>
        </g>
    </g>
</svg>