<?xml version="1.0" encoding="UTF-8"?>
<svg width="89px" height="89px" viewBox="0 0 89 89" version="1.1" xmlns="http://www.w3.org/2000/svg" xmlns:xlink="http://www.w3.org/1999/xlink">
    <!-- Generator: Sketch 47.1 (45422) - http://www.bohemiancoding.com/sketch -->
    <title>ad-blocker</title>
    <desc>Created with Sketch.</desc>
    <defs>
        <circle id="path-1" cx="17" cy="41" r="3"></circle>
        <circle id="path-2" cx="98" cy="74" r="3"></circle>
        <circle id="path-3" cx="75" cy="17" r="3"></circle>
        <circle id="path-4" cx="41" cy="98" r="3"></circle>
    </defs>
    <g id="Version-2" stroke="none" stroke-width="1" fill="none" fill-rule="evenodd">
        <g id="full-preview-6" transform="translate(-962.000000, -1214.000000)">
            <g id="ad-blocker" transform="translate(949.000000, 1201.000000)">
                <polygon id="Polygon" stroke="#3F3F3F" stroke-linecap="round" stroke-linejoin="round" transform="translate(57.616613, 57.616613) rotate(22.500000) translate(-57.616613, -57.616613) " points="57.6166125 13.8316127 88.5772828 26.6559422 101.401612 57.6166125 88.5772828 88.5772828 57.6166125 101.401612 26.6559422 88.5772828 13.8316127 57.6166125 26.6559422 26.6559422"></polygon>
                <path d="M29.0528831,60.9447862 C32.5938292,64.5756657 39.1145206,73.1502135 42.2881825,78.5943609 C45.4618445,84.0385083 50.3283353,88.1354174 58.3515535,88.1354174 C66.3747716,88.1354174 71.8609418,84.1733576 73.1297794,78.5943609 C74.398617,73.0153642 75.190542,57.3013986 78.1763887,46.6702356 C79.3030373,42.658782 76.9453005,42.0191572 76.2629258,41.9964295 C75.5805512,41.9737017 74.0585465,42.4829257 72.8588035,47.1648489 C71.6590606,51.8467721 69.9364853,57.543856 69.396971,57.6060869 C68.8574567,57.6683177 68.6398991,57.6385414 69.396971,48.1572819 C69.9267791,41.5221822 70.1545638,38.7019833 70.3986168,36.0612314 C70.6426699,33.4204796 68.9218521,32.0319203 67.3996318,32.0319203 C65.8774116,32.0319203 64.6257601,32.8874589 64.3557324,36.040127 C64.0857047,39.1927952 61.9227774,53.6790507 61.9060022,55.079515 C61.8892269,56.4799794 61.3848866,56.4204542 60.9059797,56.19967 C60.4270729,55.9788859 60.3166808,54.3159698 60.4270729,53.1487358 C60.537465,51.9815019 60.2475468,36.6493028 60.537465,31.0892585 C60.7232537,27.5262066 57.9979432,26.9799493 57.0024022,27.0062979 C56.0068612,27.0326464 53.7992863,27.4680567 53.7647652,30.8616085 C53.7302441,34.2551604 53.4382839,50.8349047 53.2198896,52.9430613 C53.0014954,55.0512178 52.8819903,55.079515 52.2320839,55.079515 C51.5821776,55.079515 51.4531778,54.1379821 51.3513148,53.1954099 C51.2494518,52.2528376 50.4217579,37.9173233 49.9923151,34.4037267 C49.5628723,30.8901302 46.716718,30.7467472 45.7097515,31.0892585 C44.702785,31.4317697 43.1193255,32.0568126 43.4488783,36.413512 C43.7784311,40.7702115 44.2779012,58.0728484 44.3190277,60.9447862 C44.3601541,63.816724 42.7789499,64.0786346 41.4417987,63.2485294 C40.1046475,62.4184242 37.3932542,60.1438678 35.6814664,58.601883 C33.6078547,56.7339658 30.3029763,56.6150884 29.0528831,57.5684253 C27.3650731,58.8555708 27.9646628,59.8289271 29.0528831,60.9447862 Z" id="Path-211" stroke="#3F3F3F" stroke-linecap="round" stroke-linejoin="round"></path>
                <g id="Oval-Copy-535" transform="translate(17.000000, 41.000000) rotate(-90.000000) translate(-17.000000, -41.000000) ">
                    <use fill="#C2C2C2" fill-rule="evenodd" xlink:href="#path-1"></use>
                    <circle stroke="#151515" stroke-width="1.5" cx="17" cy="41" r="2.25"></circle>
                    <use stroke="#151515" stroke-width="1" xlink:href="#path-1"></use>
                </g>
                <g id="Oval-Copy-538" transform="translate(98.000000, 74.000000) rotate(-90.000000) translate(-98.000000, -74.000000) ">
                    <use fill="#C2C2C2" fill-rule="evenodd" xlink:href="#path-2"></use>
                    <circle stroke="#151515" stroke-width="1.5" cx="98" cy="74" r="2.25"></circle>
                    <use stroke="#151515" stroke-width="1" xlink:href="#path-2"></use>
                </g>
                <g id="Oval-Copy-536" transform="translate(75.000000, 17.000000) rotate(-90.000000) translate(-75.000000, -17.000000) ">
                    <use fill="#C2C2C2" fill-rule="evenodd" xlink:href="#path-3"></use>
                    <circle stroke="#151515" stroke-width="1.5" cx="75" cy="17" r="2.25"></circle>
                    <use stroke="#151515" stroke-width="1" xlink:href="#path-3"></use>
                </g>
                <g id="Oval-Copy-537" transform="translate(41.000000, 98.000000) rotate(-90.000000) translate(-41.000000, -98.000000) ">
                    <use fill="#C2C2C2" fill-rule="evenodd" xlink:href="#path-4"></use>
                    <circle stroke="#151515" stroke-width="1.5" cx="41" cy="98" r="2.25"></circle>
                    <use stroke="#151515" stroke-width="1" xlink:href="#path-4"></use>
                </g>
            </g>
        </g>
    </g>
</svg>