<?xml version="1.0" encoding="UTF-8"?>
<svg width="67px" height="86px" viewBox="0 0 67 86" version="1.1" xmlns="http://www.w3.org/2000/svg" xmlns:xlink="http://www.w3.org/1999/xlink">
    <!-- Generator: Sketch 47.1 (45422) - http://www.bohemiancoding.com/sketch -->
    <title>anchor</title>
    <desc>Created with Sketch.</desc>
    <defs>
        <circle id="path-1" cx="33" cy="82" r="3"></circle>
        <circle id="path-2" cx="62" cy="50" r="3"></circle>
        <circle id="path-3" cx="3" cy="50" r="3"></circle>
        <circle id="path-4" cx="33" cy="15" r="3"></circle>
        <circle id="path-5" cx="48" cy="31" r="3"></circle>
        <circle id="path-6" cx="19" cy="31" r="3"></circle>
    </defs>
    <g id="Version-2" stroke="none" stroke-width="1" fill="none" fill-rule="evenodd">
        <g id="full-preview-1" transform="translate(-594.000000, -942.000000)">
            <g id="anchor" transform="translate(595.000000, 942.000000)">
                <path d="M40.107362,7.6500706 C40.107362,11.5733344 36.9268175,14.7574326 33,14.7574326 C29.0767362,14.7574326 25.892638,11.5733344 25.892638,7.6500706 C25.892638,3.7232531 29.0767362,0.5427086 33,0.5427086 C36.9268175,0.5427086 40.107362,3.7232531 40.107362,7.6500706 Z" id="Stroke-1" stroke="#3F3F3F" stroke-linecap="round" stroke-linejoin="round"></path>
                <path d="M55.0588235,58.2941176 L62,51 C62,68.1192941 48.7944118,82 32.5,82 C16.2090588,82 3,68.1192941 3,51 L9.94117647,58.2941176" id="Stroke-3" stroke="#3F3F3F" stroke-linecap="round" stroke-linejoin="round"></path>
                <path d="M33,15 L33,82.5018518" id="Stroke-5" stroke="#3F3F3F" stroke-linecap="round" stroke-linejoin="round"></path>
                <path d="M18,31 L50,31" id="Stroke-7" stroke="#3F3F3F" stroke-linecap="round" stroke-linejoin="round"></path>
                <g id="Oval-Copy-288" transform="translate(33.000000, 82.000000) rotate(-90.000000) translate(-33.000000, -82.000000) ">
                    <use fill="#C2C2C2" fill-rule="evenodd" xlink:href="#path-1"></use>
                    <circle stroke="#151515" stroke-width="1.5" cx="33" cy="82" r="2.25"></circle>
                    <use stroke="#151515" stroke-width="1" xlink:href="#path-1"></use>
                </g>
                <g id="Oval-Copy-289" transform="translate(62.000000, 50.000000) rotate(-90.000000) translate(-62.000000, -50.000000) ">
                    <use fill="#C2C2C2" fill-rule="evenodd" xlink:href="#path-2"></use>
                    <circle stroke="#151515" stroke-width="1.5" cx="62" cy="50" r="2.25"></circle>
                    <use stroke="#151515" stroke-width="1" xlink:href="#path-2"></use>
                </g>
                <g id="Oval-Copy-290" transform="translate(3.000000, 50.000000) rotate(-90.000000) translate(-3.000000, -50.000000) ">
                    <use fill="#C2C2C2" fill-rule="evenodd" xlink:href="#path-3"></use>
                    <circle stroke="#151515" stroke-width="1.5" cx="3" cy="50" r="2.25"></circle>
                    <use stroke="#151515" stroke-width="1" xlink:href="#path-3"></use>
                </g>
                <g id="Oval-Copy-291" transform="translate(33.000000, 15.000000) rotate(-90.000000) translate(-33.000000, -15.000000) ">
                    <use fill="#C2C2C2" fill-rule="evenodd" xlink:href="#path-4"></use>
                    <circle stroke="#151515" stroke-width="1.5" cx="33" cy="15" r="2.25"></circle>
                    <use stroke="#151515" stroke-width="1" xlink:href="#path-4"></use>
                </g>
                <g id="Oval-Copy-286" transform="translate(48.000000, 31.000000) rotate(-90.000000) translate(-48.000000, -31.000000) ">
                    <use fill="#C2C2C2" fill-rule="evenodd" xlink:href="#path-5"></use>
                    <circle stroke="#151515" stroke-width="1.5" cx="48" cy="31" r="2.25"></circle>
                    <use stroke="#151515" stroke-width="1" xlink:href="#path-5"></use>
                </g>
                <g id="Oval-Copy-287" transform="translate(19.000000, 31.000000) rotate(-90.000000) translate(-19.000000, -31.000000) ">
                    <use fill="#C2C2C2" fill-rule="evenodd" xlink:href="#path-6"></use>
                    <circle stroke="#151515" stroke-width="1.5" cx="19" cy="31" r="2.25"></circle>
                    <use stroke="#151515" stroke-width="1" xlink:href="#path-6"></use>
                </g>
            </g>
        </g>
    </g>
</svg>