<?xml version="1.0" encoding="UTF-8"?>
<svg width="49px" height="96px" viewBox="0 0 49 96" version="1.1" xmlns="http://www.w3.org/2000/svg" xmlns:xlink="http://www.w3.org/1999/xlink">
    <!-- Generator: Sketch 47.1 (45422) - http://www.bohemiancoding.com/sketch -->
    <title>attachment-clip</title>
    <desc>Created with Sketch.</desc>
    <defs>
        <circle id="path-1" cx="44" cy="54" r="3"></circle>
        <circle id="path-2" cx="12" cy="68" r="3"></circle>
        <circle id="path-3" cx="21.5" cy="3" r="3"></circle>
    </defs>
    <g id="Version-2" stroke="none" stroke-width="1" fill="none" fill-rule="evenodd">
        <g id="full-preview-2" transform="translate(-605.000000, -1377.000000)">
            <g id="attachment-clip" transform="translate(606.000000, 1378.000000)">
                <path d="M12,68.2826087 L12,38.6086957 C12,32.0566957 15.372,26.7391304 22,26.7391304 C28.628,26.7391304 32,32.0566957 32,38.6086957 L32,76.1956522 C32,86.0315652 25.944,94 16,94 C6.06,94 0,86.0315652 0,76.1956522 L0,26.7391304 C0,13.6272174 8.748,3 22,3 C35.256,3 44,13.6272174 44,26.7391304 L44,54.4987457" id="Page-1" stroke="#3F3F3F" stroke-linecap="round" stroke-linejoin="round"></path>
                <g id="Oval-Copy-184" transform="translate(44.000000, 54.000000) rotate(-90.000000) translate(-44.000000, -54.000000) ">
                    <use fill="#C2C2C2" fill-rule="evenodd" xlink:href="#path-1"></use>
                    <circle stroke="#151515" stroke-width="1.5" cx="44" cy="54" r="2.25"></circle>
                    <use stroke="#151515" stroke-width="1" xlink:href="#path-1"></use>
                </g>
                <g id="Oval-Copy-185" transform="translate(12.000000, 68.000000) rotate(-90.000000) translate(-12.000000, -68.000000) ">
                    <use fill="#C2C2C2" fill-rule="evenodd" xlink:href="#path-2"></use>
                    <circle stroke="#151515" stroke-width="1.5" cx="12" cy="68" r="2.25"></circle>
                    <use stroke="#151515" stroke-width="1" xlink:href="#path-2"></use>
                </g>
                <g id="Oval-Copy-186" transform="translate(21.500000, 3.000000) rotate(-90.000000) translate(-21.500000, -3.000000) ">
                    <use fill="#C2C2C2" fill-rule="evenodd" xlink:href="#path-3"></use>
                    <circle stroke="#151515" stroke-width="1.5" cx="21.5" cy="3" r="2.25"></circle>
                    <use stroke="#151515" stroke-width="1" xlink:href="#path-3"></use>
                </g>
            </g>
        </g>
    </g>
</svg>