<?xml version="1.0" encoding="UTF-8"?>
<svg width="85px" height="81px" viewBox="0 0 85 81" version="1.1" xmlns="http://www.w3.org/2000/svg" xmlns:xlink="http://www.w3.org/1999/xlink">
    <!-- Generator: Sketch 47.1 (45422) - http://www.bohemiancoding.com/sketch -->
    <title>auction</title>
    <desc>Created with Sketch.</desc>
    <defs>
        <circle id="path-1" cx="48" cy="10" r="3"></circle>
        <circle id="path-2" cx="20" cy="38" r="3"></circle>
        <circle id="path-3" cx="20" cy="60" r="3"></circle>
        <circle id="path-4" cx="79.5" cy="69.5" r="3"></circle>
    </defs>
    <g id="Version-2" stroke="none" stroke-width="1" fill="none" fill-rule="evenodd">
        <g id="full-preview-7" transform="translate(-399.000000, -1041.000000)">
            <g id="auction" transform="translate(400.000000, 1040.000000)">
                <g id="Group-2" transform="translate(52.311829, 41.956060) rotate(-45.000000) translate(-52.311829, -41.956060) translate(32.311829, 3.109906)" stroke="#3F3F3F" stroke-linecap="round" stroke-linejoin="round">
                    <path d="M14.5042921,31.8525022 C14.5042921,60.1239872 14.5042921,74.6942737 14.5042921,75.5633618 C14.5042921,76.866994 15.2700801,77.6683456 16.6092759,77.6683456 C17.502073,77.6683456 18.6617254,77.6683456 20.0882329,77.6683456" id="Path-424"></path>
                    <path d="M19.8889074,31.8525022 C19.8889074,60.1239872 19.8889074,74.6942737 19.8889074,75.5633618 C19.8889074,76.866994 20.6546955,77.6683456 21.9938912,77.6683456 C22.8866884,77.6683456 24.0463407,77.6683456 25.4728483,77.6683456" id="Path-424" transform="translate(22.680878, 54.760424) scale(-1, 1) translate(-22.680878, -54.760424) "></path>
                    <path d="M14.5007665,38.8555045 L25.4952954,38.8555045" id="Path-425"></path>
                    <path d="M16.2735822,31.8899754 L16.2735822,21.9712097" id="Path-426"></path>
                    <path d="M23.4615385,31.8899754 L23.4615385,21.9712097" id="Path-426"></path>
                    <path d="M10.2443578,21.7967818 L29.5085296,21.7967818" id="Path-427"></path>
                    <path d="M10.2443578,3.61538462 L29.5085296,3.61538462" id="Path-427"></path>
                    <path d="M0.491093089,0.0506073316 C1.44729215,0.0506073316 2.45372774,0.0506073316 3.51039988,0.0506073316 C5.09540808,0.0506073316 5.49485275,1.18424641 5.49659787,1.97989305 C5.49855479,2.87210639 5.49659787,22.3604729 5.49659787,23.4434437 C5.49659787,24.5264145 4.86421992,25.4296417 3.51039988,25.4296417 C2.60785318,25.4296417 1.59441155,25.4296417 0.470074985,25.4296417" id="Path-428" transform="translate(2.983771, 12.740125) scale(-1, 1) translate(-2.983771, -12.740125) "></path>
                    <path d="M5.1064777,0.0506073316 C6.06267676,0.0506073316 7.06911236,0.0506073316 8.12578449,0.0506073316 C9.7107927,0.0506073316 10.1102374,1.18424641 10.1119825,1.97989305 C10.1139394,2.87210639 10.1119825,22.3604729 10.1119825,23.4434437 C10.1119825,24.5264145 9.47960453,25.4296417 8.12578449,25.4296417 C7.2232378,25.4296417 6.20979617,25.4296417 5.0854596,25.4296417" id="Path-428"></path>
                    <path d="M29.7218623,0.0506073316 C30.6780614,0.0506073316 31.684497,0.0506073316 32.7411691,0.0506073316 C34.3261773,0.0506073316 34.725622,1.18424641 34.7273671,1.97989305 C34.729324,2.87210639 34.7273671,22.3604729 34.7273671,23.4434437 C34.7273671,24.5264145 34.0949891,25.4296417 32.7411691,25.4296417 C31.8386224,25.4296417 30.8251808,25.4296417 29.7008442,25.4296417" id="Path-428" transform="translate(32.214541, 12.740125) scale(-1, 1) translate(-32.214541, -12.740125) "></path>
                    <path d="M34.3372469,0.0506073316 C35.293446,0.0506073316 36.2998816,0.0506073316 37.3565537,0.0506073316 C38.9415619,0.0506073316 39.3410066,1.18424641 39.3427517,1.97989305 C39.3447086,2.87210639 39.3427517,22.3604729 39.3427517,23.4434437 C39.3427517,24.5264145 38.7103738,25.4296417 37.3565537,25.4296417 C36.454007,25.4296417 35.4405654,25.4296417 34.3162288,25.4296417" id="Path-428"></path>
                    <path d="M14.5007665,31.9324276 L25.4952954,31.9324276" id="Path-425"></path>
                </g>
                <g id="Group-3" transform="translate(0.000000, 59.000000)" stroke="#3F3F3F" stroke-linecap="round" stroke-linejoin="round">
                    <rect id="Rectangle-11" x="0" y="11.6666667" width="40" height="10"></rect>
                    <path d="M20.2093294,11.1987048 C20.2093294,8.46670466 20.2093294,6.36643091 20.2093294,4.89788351 C20.2093294,2.6950624 21.9169377,0.764186506 24.5435779,0.764186506 C26.2946714,0.764186506 30.3912978,0.764186506 36.8334571,0.764186506" id="Path-423" transform="translate(28.521393, 5.981446) scale(-1, 1) translate(-28.521393, -5.981446) "></path>
                    <path d="M3.54266277,11.1987048 C3.54266277,8.46670466 3.54266277,6.36643091 3.54266277,4.89788351 C3.54266277,2.6950624 5.250271,0.764186506 7.87691125,0.764186506 C9.62800476,0.764186506 13.8889124,0.764186506 20.6596342,0.764186506" id="Path-423"></path>
                </g>
                <g id="Oval-Copy-582" transform="translate(48.000000, 10.000000) rotate(-90.000000) translate(-48.000000, -10.000000) ">
                    <use fill="#C2C2C2" fill-rule="evenodd" xlink:href="#path-1"></use>
                    <circle stroke="#151515" stroke-width="1.5" cx="48" cy="10" r="2.25"></circle>
                    <use stroke="#151515" stroke-width="1" xlink:href="#path-1"></use>
                </g>
                <g id="Oval-Copy-584" transform="translate(20.000000, 38.000000) rotate(-90.000000) translate(-20.000000, -38.000000) ">
                    <use fill="#C2C2C2" fill-rule="evenodd" xlink:href="#path-2"></use>
                    <circle stroke="#151515" stroke-width="1.5" cx="20" cy="38" r="2.25"></circle>
                    <use stroke="#151515" stroke-width="1" xlink:href="#path-2"></use>
                </g>
                <g id="Oval-Copy-584" transform="translate(20.000000, 60.000000) rotate(-90.000000) translate(-20.000000, -60.000000) ">
                    <use fill="#C2C2C2" fill-rule="evenodd" xlink:href="#path-3"></use>
                    <circle stroke="#151515" stroke-width="1.5" cx="20" cy="60" r="2.25"></circle>
                    <use stroke="#151515" stroke-width="1" xlink:href="#path-3"></use>
                </g>
                <g id="Oval-Copy-582" transform="translate(79.500000, 69.500000) rotate(-90.000000) translate(-79.500000, -69.500000) ">
                    <use fill="#C2C2C2" fill-rule="evenodd" xlink:href="#path-4"></use>
                    <circle stroke="#151515" stroke-width="1.5" cx="79.5" cy="69.5" r="2.25"></circle>
                    <use stroke="#151515" stroke-width="1" xlink:href="#path-4"></use>
                </g>
            </g>
        </g>
    </g>
</svg>