<?xml version="1.0" encoding="UTF-8"?>
<svg width="96px" height="28px" viewBox="0 0 96 28" version="1.1" xmlns="http://www.w3.org/2000/svg" xmlns:xlink="http://www.w3.org/1999/xlink">
    <!-- Generator: Sketch 47.1 (45422) - http://www.bohemiancoding.com/sketch -->
    <title>autonomous-car</title>
    <desc>Created with Sketch.</desc>
    <defs>
        <circle id="path-1" cx="91" cy="22" r="3"></circle>
        <circle id="path-2" cx="91" cy="7" r="3"></circle>
        <circle id="path-3" cx="6" cy="7" r="3"></circle>
        <circle id="path-4" cx="52" cy="8" r="3"></circle>
    </defs>
    <g id="Version-2" stroke="none" stroke-width="1" fill="none" fill-rule="evenodd">
        <g id="full-preview-6" transform="translate(-770.000000, -1578.000000)">
            <g id="autonomous-car" transform="translate(771.000000, 1579.000000)">
                <path d="M9.8929766,21.8047214 C7.96410115,21.8047214 1.99568883,20.8292896 1.16180222,20.174581 C0.327915606,19.5198723 0.599011563,19.2688575 0.484114078,18.4764789 C0.369216593,17.6841003 0.011274699,15.6946142 0.484114078,14.3011458 C1.56487501,13.5031775 2.15623477,12.3438516 1.9025287,11.6202044 C1.64882264,10.8965573 0.636793168,9.04753589 1.9025287,7.12388286 C5.69404219,7.15762753 9.17069264,6.41798952 10.5754704,5.94353334 C11.9802481,5.46907716 21.7765106,1.09508174 25.3948443,0.574382879 C29.013178,0.0536840171 38.3393077,-0.284880421 45.5483742,0.812470207 C48.3902683,1.24505801 52.4621241,3.4059661 58.8029958,7.64982586 C64.9648333,7.38674249 70.7454812,8.68434967 75.8970098,9.8672875 C81.0485384,11.0502253 82.4109003,12.5953639 82.8654385,13.9482043 C83.1265638,14.7253906 82.937043,15.2374425 83.1265638,15.8124676 C83.3160846,16.3874927 83.3160846,16.8071888 83.3160846,17.5603875 C83.3160846,18.3135862 83.3160846,18.6670779 83.3160846,18.9772096 C83.3160846,19.2873414 82.6911619,19.3367882 82.6911619,19.6345959 C82.6911619,19.9324036 82.9209615,20.3297811 83.1265638,20.4525713 C83.332166,20.5753616 83.2643083,21.3281845 82.107044,21.9996232 C80.9497797,22.671062 78.3217377,23.0973711 77.4038919,23.0973711 C78.7569397,18.6463863 76.8818434,16.2046999 75.9918963,15.1480116 C75.1019492,14.0913232 71.2504456,11.57993 67.008614,14.6711919 C64.2813998,16.6586667 63.5586811,19.7858117 64.0648966,23.2290377 C64.0850285,23.3659728 38.1327191,23.2138008 23.8044958,23.2290377 C24.6279341,19.5176317 24.1037807,16.2363043 20.4631811,13.9482043 C16.8225815,11.6601043 12.5216484,13.6154218 10.6568635,17.108381 C10.0338378,18.2753807 9.66054226,20.1079214 9.8929766,21.8047214 Z" id="Path-279" stroke="#3F3F3F" stroke-linecap="round" stroke-linejoin="round"></path>
                <path d="M24.2819119,7.04847854 C24.2880066,7.4939854 23.9666728,7.86184692 23.6072348,7.86184692 C23.2477969,7.86184692 20.8424217,7.86184692 20.4533055,7.86184692 C20.0641893,7.86184692 19.7809597,7.62445137 19.5613528,7.38765043 C19.3417458,7.15084949 18.8074448,6.25101582 18.7397095,6.00058855 C18.6719742,5.75016127 18.5455218,4.90775641 19.3761337,4.43722665 C20.2067456,3.96669689 22.2392498,3.27566824 22.9326073,3.02469591 C23.6259649,2.77372358 23.9965021,3.0477368 24.1472837,3.70953077 C24.4077248,4.85263036 24.2758172,6.60297169 24.2819119,7.04847854 Z" id="Path-281" stroke="#3F3F3F" stroke-linecap="round" stroke-linejoin="round"></path>
                <path d="M27.007756,7.94051414 C26.4752389,7.94051414 25.8254196,7.4990144 25.8254196,6.90840986 C25.8254196,6.31780531 25.7209335,4.07328258 25.7269262,3.54497809 C25.7329188,3.0166736 25.9514437,2.53464916 26.5447776,2.38999436 C27.1381115,2.24533956 34.8536464,1.84157585 35.8715107,1.78147113 C36.889375,1.72136641 37.6744743,2.71537866 37.718559,3.47751603 C37.7626438,4.2396534 37.8294523,5.83951887 37.8483796,6.56516621 C37.867307,7.29081354 37.5420422,8.22715374 36.4573686,8.22715374 C35.3726949,8.22715374 27.5402732,7.94051414 27.007756,7.94051414 Z" id="Path-282" stroke="#3F3F3F" stroke-linecap="round" stroke-linejoin="round"></path>
                <circle id="Oval-24" stroke="#3F3F3F" stroke-linecap="round" stroke-linejoin="round" cx="16.9464286" cy="20.4285714" r="2.78571429"></circle>
                <circle id="Oval-24" stroke="#3F3F3F" stroke-linecap="round" stroke-linejoin="round" cx="16.9464286" cy="20.4285714" r="5.10714286"></circle>
                <circle id="Oval-24" stroke="#3F3F3F" stroke-linecap="round" stroke-linejoin="round" cx="71.0357143" cy="20.4285714" r="2.78571429"></circle>
                <circle id="Oval-24" stroke="#3F3F3F" stroke-linecap="round" stroke-linejoin="round" cx="71.1071429" cy="20.1071429" r="5.10714286"></circle>
                <path d="M91.5469998,21.6016921 C93.0904783,19.4639347 94,16.8381824 94,14 C94,11.2153438 93.1244608,8.63518066 91.6336484,6.51977677" id="Oval-24-Copy" stroke="#3F3F3F" stroke-linecap="round" stroke-linejoin="round"></path>
                <path d="M24.2666667,19.9952381 L63.8560891,19.9952381" id="Path-280" stroke="#3F3F3F" stroke-linecap="round" stroke-linejoin="round"></path>
                <path d="M43.1381345,8.4986271 C42.5888155,8.4986271 41.7415754,8.60695161 41.2958712,7.48706229 C40.850167,6.36717297 40.1348002,4.45914532 39.8753613,3.60891855 C39.6159224,2.75869178 39.4200078,1.80628616 41.2958712,1.95642416 C43.1717346,2.10656216 46.0330294,2.75174201 47.5885717,3.39485416 C49.1441139,4.03796631 53.0882517,6.26183514 54.4757933,7.09276338 C52.6949867,7.09862186 53.3629112,8.60626238 53.5639951,8.97764428 C52.5026497,8.8305391 43.6874535,8.4986271 43.1381345,8.4986271 Z" id="Path-283" stroke="#3F3F3F" stroke-linecap="round" stroke-linejoin="round"></path>
                <path d="M83.4764991,18.6665093 L91.5243211,21.6055172" id="Path-287" stroke="#3F3F3F" stroke-linecap="round" stroke-linejoin="round"></path>
                <path d="M77.5141108,10.3299218 L91.4185892,6.65712729" id="Path-286" stroke="#3F3F3F" stroke-linecap="round" stroke-linejoin="round"></path>
                <g id="Oval-Copy-522" transform="translate(91.000000, 22.000000) rotate(-90.000000) translate(-91.000000, -22.000000) ">
                    <use fill="#C2C2C2" fill-rule="evenodd" xlink:href="#path-1"></use>
                    <circle stroke="#151515" stroke-width="1.5" cx="91" cy="22" r="2.25"></circle>
                    <use stroke="#151515" stroke-width="1" xlink:href="#path-1"></use>
                </g>
                <g id="Oval-Copy-524" transform="translate(91.000000, 7.000000) rotate(-90.000000) translate(-91.000000, -7.000000) ">
                    <use fill="#C2C2C2" fill-rule="evenodd" xlink:href="#path-2"></use>
                    <circle stroke="#151515" stroke-width="1.5" cx="91" cy="7" r="2.25"></circle>
                    <use stroke="#151515" stroke-width="1" xlink:href="#path-2"></use>
                </g>
                <g id="Oval-Copy-525" transform="translate(6.000000, 7.000000) rotate(-90.000000) translate(-6.000000, -7.000000) ">
                    <use fill="#C2C2C2" fill-rule="evenodd" xlink:href="#path-3"></use>
                    <circle stroke="#151515" stroke-width="1.5" cx="6" cy="7" r="2.25"></circle>
                    <use stroke="#151515" stroke-width="1" xlink:href="#path-3"></use>
                </g>
                <g id="Oval-Copy-526" transform="translate(52.000000, 8.000000) rotate(-90.000000) translate(-52.000000, -8.000000) ">
                    <use fill="#C2C2C2" fill-rule="evenodd" xlink:href="#path-4"></use>
                    <circle stroke="#151515" stroke-width="1.5" cx="52" cy="8" r="2.25"></circle>
                    <use stroke="#151515" stroke-width="1" xlink:href="#path-4"></use>
                </g>
            </g>
        </g>
    </g>
</svg>