<?xml version="1.0" encoding="UTF-8"?>
<svg width="79px" height="76px" viewBox="0 0 79 76" version="1.1" xmlns="http://www.w3.org/2000/svg" xmlns:xlink="http://www.w3.org/1999/xlink">
    <!-- Generator: Sketch 47.1 (45422) - http://www.bohemiancoding.com/sketch -->
    <title>bank</title>
    <desc>Created with Sketch.</desc>
    <defs>
        <circle id="path-1" cx="57.5" cy="19" r="3"></circle>
        <circle id="path-2" cx="20" cy="19" r="3"></circle>
        <circle id="path-3" cx="3" cy="71" r="3"></circle>
        <circle id="path-4" cx="74" cy="71" r="3"></circle>
    </defs>
    <g id="Version-2" stroke="none" stroke-width="1" fill="none" fill-rule="evenodd">
        <g id="full-preview-7" transform="translate(-967.000000, -1379.000000)">
            <g id="bank" transform="translate(968.000000, 1380.000000)">
                <path d="M65.7709174,71.0200195 L65.7709174,29.6900024" id="Path-479" stroke="#3F3F3F" stroke-linecap="round" stroke-linejoin="round"></path>
                <path d="M11.7709174,71.0200195 L11.7709174,29.6900024" id="Path-479" stroke="#3F3F3F" stroke-linecap="round" stroke-linejoin="round"></path>
                <polygon id="Path-478" stroke="#3F3F3F" stroke-linecap="round" stroke-linejoin="round" points="6.48780476 29.2163689 70.512869 29.2163689 70.512869 19.3270303 6.51951779 19.3270303"></polygon>
                <polyline id="Path-481" stroke="#3F3F3F" stroke-linecap="round" stroke-linejoin="round" points="23.2930775 71.1946253 23.2930775 38.0506273 54.1418104 38.0506273 54.1418104 71.2240861"></polyline>
                <path d="M38.5744681,3 L38.5744681,4.4893617" id="Path-57" stroke="#3F3F3F" stroke-linecap="round" stroke-linejoin="round"></path>
                <path d="M38.5744681,14.7659574 L38.5744681,16.2553191" id="Path-57-Copy" stroke="#3F3F3F" stroke-linecap="round" stroke-linejoin="round"></path>
                <path d="M41.8192131,7.26790865 C41.7291465,5.64380964 40.7584105,4.39087155 38.1996408,4.49546303 C35.6408711,4.60005452 35.0078036,6.66766461 35.6408711,7.89808005 C36.2739386,9.12849549 37.5990315,9.32811404 38.6160485,9.5298923 C39.6330656,9.73167056 41.8247407,10.0707444 41.9839017,11.8364585 C42.1430628,13.6021725 41.0999808,14.419467 39.8307569,14.660737 C38.561533,14.9020071 35.2760525,14.9947202 35,11.8364585" id="Path-56" stroke="#3F3F3F" stroke-linecap="round" stroke-linejoin="round"></path>
                <path d="M30.5,9.5 L26.5,9.5" id="Line-4" stroke="#3F3F3F" stroke-linecap="round" stroke-linejoin="round"></path>
                <path d="M50.5,9.5 L46.5,9.5" id="Line-4-Copy" stroke="#3F3F3F" stroke-linecap="round" stroke-linejoin="round"></path>
                <polyline id="Path-480" stroke="#3F3F3F" stroke-linecap="round" stroke-linejoin="round" points="19.7523947 19.2615549 19.7523947 0.0506432153 57.6011041 0.0506432153 57.6011041 19.265015"></polyline>
                <path d="M3.13217924,71.2163689 L74.0492926,71.2163689" id="Path-478" stroke="#3F3F3F" stroke-linecap="round" stroke-linejoin="round"></path>
                <path d="M38.8901438,71.1513298 L38.8901438,38.2204673" id="Path-482" stroke="#3F3F3F" stroke-linecap="round" stroke-linejoin="round"></path>
                <g id="Oval-Copy-596" transform="translate(57.500000, 19.000000) rotate(-90.000000) translate(-57.500000, -19.000000) ">
                    <use fill="#C2C2C2" fill-rule="evenodd" xlink:href="#path-1"></use>
                    <circle stroke="#151515" stroke-width="1.5" cx="57.5" cy="19" r="2.25"></circle>
                    <use stroke="#151515" stroke-width="1" xlink:href="#path-1"></use>
                </g>
                <g id="Oval-Copy-596" transform="translate(20.000000, 19.000000) rotate(-90.000000) translate(-20.000000, -19.000000) ">
                    <use fill="#C2C2C2" fill-rule="evenodd" xlink:href="#path-2"></use>
                    <circle stroke="#151515" stroke-width="1.5" cx="20" cy="19" r="2.25"></circle>
                    <use stroke="#151515" stroke-width="1" xlink:href="#path-2"></use>
                </g>
                <g id="Oval-Copy-596" transform="translate(3.000000, 71.000000) rotate(-90.000000) translate(-3.000000, -71.000000) ">
                    <use fill="#C2C2C2" fill-rule="evenodd" xlink:href="#path-3"></use>
                    <circle stroke="#151515" stroke-width="1.5" cx="3" cy="71" r="2.25"></circle>
                    <use stroke="#151515" stroke-width="1" xlink:href="#path-3"></use>
                </g>
                <g id="Oval-Copy-596" transform="translate(74.000000, 71.000000) rotate(-90.000000) translate(-74.000000, -71.000000) ">
                    <use fill="#C2C2C2" fill-rule="evenodd" xlink:href="#path-4"></use>
                    <circle stroke="#151515" stroke-width="1.5" cx="74" cy="71" r="2.25"></circle>
                    <use stroke="#151515" stroke-width="1" xlink:href="#path-4"></use>
                </g>
            </g>
        </g>
    </g>
</svg>