<?xml version="1.0" encoding="UTF-8"?>
<svg width="97px" height="59px" viewBox="0 0 97 59" version="1.1" xmlns="http://www.w3.org/2000/svg" xmlns:xlink="http://www.w3.org/1999/xlink">
    <!-- Generator: Sketch 47.1 (45422) - http://www.bohemiancoding.com/sketch -->
    <title>barbell-lifting-exercise</title>
    <desc>Created with Sketch.</desc>
    <defs>
        <circle id="path-1" cx="72" cy="32.5" r="3"></circle>
        <circle id="path-2" cx="10.5" cy="32.5" r="3"></circle>
        <circle id="path-3" cx="26.5" cy="24" r="3"></circle>
        <circle id="path-4" cx="87.5" cy="24" r="3"></circle>
    </defs>
    <g id="Version-2" stroke="none" stroke-width="1" fill="none" fill-rule="evenodd">
        <g id="full-preview-8" transform="translate(-957.000000, -1395.000000)">
            <g id="barbell-lifting-exercise" transform="translate(957.000000, 1396.000000)">
                <path d="M14.4679989,4.15132248 C16.8659599,4.15132248 18.5137257,5.97345103 18.5137257,8.23819503 C18.5137257,10.502939 18.5137257,46.1573886 18.5137257,48.3507392 C18.5137257,50.5440898 17.3881964,52.6754361 14.5960378,52.6754361 C11.8038792,52.6754361 10.8090909,50.8530731 10.8090909,48.3933701 C10.8090909,45.9336672 10.8090909,10.1249255 10.8090909,8.20473183 C10.8090909,6.28453811 12.0700379,4.15132248 14.4679989,4.15132248 Z" id="Path-605" stroke="#3F3F3F" stroke-linecap="round" stroke-linejoin="round"></path>
                <path d="M22.2672772,0.050133149 C24.6652382,0.050133149 26.313004,1.49661953 26.313004,4.21990485 C26.313004,6.94319017 26.313004,49.3405478 26.313004,52.4643239 C26.313004,55.5880999 24.4594997,57.0171929 22.3729496,57.0171929 C20.2863995,57.0171929 18.6083692,55.4629909 18.6083692,52.5052734 C18.6083692,49.5475559 18.6083692,6.48864053 18.6083692,4.17966638 C18.6083692,1.87069223 19.8693163,0.050133149 22.2672772,0.050133149 Z" id="Path-605" stroke="#3F3F3F" stroke-linecap="round" stroke-linejoin="round"></path>
                <path d="M83.2179096,4.15132248 C85.6158706,4.15132248 87.2636364,5.97345103 87.2636364,8.23819503 C87.2636364,10.502939 87.2636364,46.1573886 87.2636364,48.3507392 C87.2636364,50.5440898 86.1381071,52.6754361 83.3459484,52.6754361 C80.5537898,52.6754361 79.5590016,50.8530731 79.5590016,48.3933701 C79.5590016,45.9336672 79.5590016,10.1249255 79.5590016,8.20473183 C79.5590016,6.28453811 80.8199486,4.15132248 83.2179096,4.15132248 Z" id="Path-605" stroke="#3F3F3F" stroke-linecap="round" stroke-linejoin="round"></path>
                <path d="M75.4186313,0.050133149 C77.8165922,0.050133149 79.464358,1.49661953 79.464358,4.21990485 C79.464358,6.94319017 79.464358,49.3405478 79.464358,52.4643239 C79.464358,55.5880999 77.6108537,57.0171929 75.5243036,57.0171929 C73.4377535,57.0171929 71.7597232,55.4629909 71.7597232,52.5052734 C71.7597232,49.5475559 71.7597232,6.48864053 71.7597232,4.17966638 C71.7597232,1.87069223 73.0206703,0.050133149 75.4186313,0.050133149 Z" id="Path-605" stroke="#3F3F3F" stroke-linecap="round" stroke-linejoin="round"></path>
                <path d="M96.2720646,23.896962 C84.7044155,23.896962 76.7810292,23.896962 72.5019059,23.896962 M56.7443319,23.896962 C54.4341165,23.896962 52.961693,23.896962 52.3270614,23.896962 C48.690805,23.896962 47.9577849,26.8530071 47.9577849,28.2662385 C47.9577849,29.6794698 48.6479151,32.71776 52.677139,32.71776 C53.3400727,32.71776 54.7226966,32.71776 56.8250107,32.71776 M72.4741726,32.71776 C76.6191606,32.71776 84.5221662,32.71776 96.1831892,32.71776" id="Path-606" stroke="#3F3F3F" stroke-linecap="round" stroke-linejoin="round" transform="translate(72.114925, 28.307361) scale(-1, 1) translate(-72.114925, -28.307361) "></path>
                <path d="M48.8175192,23.896962 C38.0332721,23.896962 30.5907123,23.896962 26.4898397,23.896962 M10.753696,23.896962 C7.59264593,23.896962 5.63225257,23.896962 4.87251591,23.896962 C1.23625954,23.896962 0.503239418,26.8530071 0.503239418,28.2662385 C0.503239418,29.6794698 1.19336962,32.71776 5.22259355,32.71776 C6.01708152,32.71776 7.84523486,32.71776 10.7070536,32.71776 M26.6121184,32.71776 C30.5481924,32.71776 37.9203675,32.71776 48.7286437,32.71776" id="Path-606" stroke="#3F3F3F" stroke-linecap="round" stroke-linejoin="round"></path>
                <g id="Oval-Copy-515" transform="translate(72.000000, 32.500000) rotate(-90.000000) translate(-72.000000, -32.500000) ">
                    <use fill="#C2C2C2" fill-rule="evenodd" xlink:href="#path-1"></use>
                    <circle stroke="#151515" stroke-width="1.5" cx="72" cy="32.5" r="2.25"></circle>
                    <use stroke="#151515" stroke-width="1" xlink:href="#path-1"></use>
                </g>
                <g id="Oval-Copy-515" transform="translate(10.500000, 32.500000) rotate(-90.000000) translate(-10.500000, -32.500000) ">
                    <use fill="#C2C2C2" fill-rule="evenodd" xlink:href="#path-2"></use>
                    <circle stroke="#151515" stroke-width="1.5" cx="10.5" cy="32.5" r="2.25"></circle>
                    <use stroke="#151515" stroke-width="1" xlink:href="#path-2"></use>
                </g>
                <g id="Oval-Copy-517" transform="translate(26.500000, 24.000000) rotate(-90.000000) translate(-26.500000, -24.000000) ">
                    <use fill="#C2C2C2" fill-rule="evenodd" xlink:href="#path-3"></use>
                    <circle stroke="#151515" stroke-width="1.5" cx="26.5" cy="24" r="2.25"></circle>
                    <use stroke="#151515" stroke-width="1" xlink:href="#path-3"></use>
                </g>
                <g id="Oval-Copy-517" transform="translate(87.500000, 24.000000) rotate(-90.000000) translate(-87.500000, -24.000000) ">
                    <use fill="#C2C2C2" fill-rule="evenodd" xlink:href="#path-4"></use>
                    <circle stroke="#151515" stroke-width="1.5" cx="87.5" cy="24" r="2.25"></circle>
                    <use stroke="#151515" stroke-width="1" xlink:href="#path-4"></use>
                </g>
            </g>
        </g>
    </g>
</svg>