<?xml version="1.0" encoding="UTF-8"?>
<svg width="84px" height="84px" viewBox="0 0 84 84" version="1.1" xmlns="http://www.w3.org/2000/svg" xmlns:xlink="http://www.w3.org/1999/xlink">
    <!-- Generator: Sketch 47.1 (45422) - http://www.bohemiancoding.com/sketch -->
    <title>basketball-dribbble</title>
    <desc>Created with Sketch.</desc>
    <defs>
        <circle id="path-1" cx="35" cy="3" r="3"></circle>
        <circle id="path-2" cx="3" cy="32" r="3"></circle>
        <circle id="path-3" cx="13" cy="67" r="3"></circle>
        <circle id="path-4" cx="40" cy="79" r="3"></circle>
        <circle id="path-5" cx="79" cy="41" r="3"></circle>
        <circle id="path-6" cx="68" cy="15" r="3"></circle>
    </defs>
    <g id="Version-2" stroke="none" stroke-width="1" fill="none" fill-rule="evenodd">
        <g id="full-preview-1" transform="translate(-586.000000, -778.000000)">
            <g id="basketball-dribbble" transform="translate(587.000000, 779.000000)">
                <path d="M78,41 C78,61.9892174 60.9892174,79 40,79 C19.0107826,79 2,61.9892174 2,41 C2,20.0107826 19.0107826,3 40,3 C60.9892174,3 78,20.0107826 78,41 Z" id="Stroke-1" stroke="#3F3F3F" stroke-linecap="round" stroke-linejoin="round"></path>
                <path d="M13,66 C17.4384438,52.2032609 31.1119204,21.9684783 67,15" id="Stroke-3" stroke="#3F3F3F" stroke-linecap="round" stroke-linejoin="round"></path>
                <path d="M11,17 C26.2100113,22.3537285 54.9925448,37.0845935 61,73" id="Stroke-5" stroke="#3F3F3F" stroke-linecap="round" stroke-linejoin="round"></path>
                <path d="M34.9636701,4 C34.9867891,4.45732185 35,4.9146437 35,5.37509789 C35,20.0814409 22.4298689,32 6.92692744,32 C5.59263082,32 4.28145319,31.9122944 3,31.7400157" id="Stroke-7" stroke="#3F3F3F" stroke-linecap="round" stroke-linejoin="round"></path>
                <path d="M39.1617152,79 C36.5244257,74.6973461 35,69.6283753 35,64.197809 C35,48.6259836 47.5312404,36 62.9862175,36 C68.511026,36 73.6637825,37.6122512 78,40.3955408" id="Stroke-9" stroke="#3F3F3F" stroke-linecap="round" stroke-linejoin="round"></path>
                <g id="Oval-Copy-249" transform="translate(35.000000, 3.000000) rotate(-90.000000) translate(-35.000000, -3.000000) ">
                    <use fill="#C2C2C2" fill-rule="evenodd" xlink:href="#path-1"></use>
                    <circle stroke="#151515" stroke-width="1.5" cx="35" cy="3" r="2.25"></circle>
                    <use stroke="#151515" stroke-width="1" xlink:href="#path-1"></use>
                </g>
                <g id="Oval-Copy-250" transform="translate(3.000000, 32.000000) rotate(-90.000000) translate(-3.000000, -32.000000) ">
                    <use fill="#C2C2C2" fill-rule="evenodd" xlink:href="#path-2"></use>
                    <circle stroke="#151515" stroke-width="1.5" cx="3" cy="32" r="2.25"></circle>
                    <use stroke="#151515" stroke-width="1" xlink:href="#path-2"></use>
                </g>
                <g id="Oval-Copy-251" transform="translate(13.000000, 67.000000) rotate(-90.000000) translate(-13.000000, -67.000000) ">
                    <use fill="#C2C2C2" fill-rule="evenodd" xlink:href="#path-3"></use>
                    <circle stroke="#151515" stroke-width="1.5" cx="13" cy="67" r="2.25"></circle>
                    <use stroke="#151515" stroke-width="1" xlink:href="#path-3"></use>
                </g>
                <g id="Oval-Copy-252" transform="translate(40.000000, 79.000000) rotate(-90.000000) translate(-40.000000, -79.000000) ">
                    <use fill="#C2C2C2" fill-rule="evenodd" xlink:href="#path-4"></use>
                    <circle stroke="#151515" stroke-width="1.5" cx="40" cy="79" r="2.25"></circle>
                    <use stroke="#151515" stroke-width="1" xlink:href="#path-4"></use>
                </g>
                <g id="Oval-Copy-254" transform="translate(79.000000, 41.000000) rotate(-90.000000) translate(-79.000000, -41.000000) ">
                    <use fill="#C2C2C2" fill-rule="evenodd" xlink:href="#path-5"></use>
                    <circle stroke="#151515" stroke-width="1.5" cx="79" cy="41" r="2.25"></circle>
                    <use stroke="#151515" stroke-width="1" xlink:href="#path-5"></use>
                </g>
                <g id="Oval-Copy-255" transform="translate(68.000000, 15.000000) rotate(-90.000000) translate(-68.000000, -15.000000) ">
                    <use fill="#C2C2C2" fill-rule="evenodd" xlink:href="#path-6"></use>
                    <circle stroke="#151515" stroke-width="1.5" cx="68" cy="15" r="2.25"></circle>
                    <use stroke="#151515" stroke-width="1" xlink:href="#path-6"></use>
                </g>
            </g>
        </g>
    </g>
</svg>