<?xml version="1.0" encoding="UTF-8"?>
<svg width="75px" height="79px" viewBox="0 0 75 79" version="1.1" xmlns="http://www.w3.org/2000/svg" xmlns:xlink="http://www.w3.org/1999/xlink">
    <!-- Generator: Sketch 47.1 (45422) - http://www.bohemiancoding.com/sketch -->
    <title>blood-circulation</title>
    <desc>Created with Sketch.</desc>
    <defs>
        <circle id="path-1" cx="37" cy="3" r="3"></circle>
        <circle id="path-2" cx="65" cy="39" r="3"></circle>
        <circle id="path-3" cx="10" cy="39" r="3"></circle>
        <circle id="path-4" cx="36.5" cy="31" r="3"></circle>
        <circle id="path-5" cx="25" cy="74" r="3"></circle>
        <circle id="path-6" cx="48" cy="74" r="3"></circle>
    </defs>
    <g id="Version-2" stroke="none" stroke-width="1" fill="none" fill-rule="evenodd">
        <g id="full-preview-6" transform="translate(-400.000000, -555.000000)">
            <g id="blood-circulation" transform="translate(401.000000, 556.000000)">
                <path d="M36,74.5114189 C48.9656236,74.5114189 66.2437496,71.8089084 70.2463035,68.3706886 C74.2488574,64.9324687 73.4294685,59.48929 73.4060383,55.8388591 C73.382608,52.1884282 70.2904862,40.3574975 56.5864755,34.3386044 C53.5330165,32.9975048 49.9273144,32.034189 45.7693689,31.4486569 C51.5315391,26.4065485 50.9313029,19.6252792 50.9732602,18.2483981 C51.0152174,16.8715169 51.1519994,3 36,3" id="Path-198" stroke="#3F3F3F" stroke-linecap="round" stroke-linejoin="round"></path>
                <path d="M-2.84217094e-14,74.5114189 C12.9656236,74.5114189 30.2437496,71.8089084 34.2463035,68.3706886 C38.2488574,64.9324687 37.4294685,59.48929 37.4060383,55.8388591 C37.382608,52.1884282 34.2904862,40.3574975 20.5864755,34.3386044 C17.5330165,32.9975048 13.9273144,32.034189 9.7693689,31.4486569 C15.5315391,26.4065485 14.9313029,19.6252792 14.9732602,18.2483981 C15.0152174,16.8715169 15.1519994,3 -2.84217094e-14,3" id="Path-198-Copy" stroke="#3F3F3F" stroke-linecap="round" stroke-linejoin="round" transform="translate(18.745184, 38.755709) scale(-1, 1) translate(-18.745184, -38.755709) "></path>
                <path d="M36.5,32 L36.5,74.4732823" id="Path-199" stroke="#3F3F3F" stroke-linecap="round" stroke-linejoin="round"></path>
                <path d="M36.453732,36 C36.453732,38.7397324 37.4020737,45.9105188 29.4302516,48.3572035 C21.4584295,50.8038883 14.5944078,49.3855248 8.4318532,59.3035555 C6.42982043,62.525632 5.66392371,65.9202533 6.13416304,69.4874194" id="Path-200" stroke="#3F3F3F" stroke-linecap="round" stroke-linejoin="round"></path>
                <path d="M67.1435226,36 C67.1435226,38.7397324 68.0918643,45.9105188 60.1200422,48.3572035 C52.1482201,50.8038883 45.2841984,49.3855248 39.1216438,59.3035555 C37.1196111,62.525632 36.1465216,66.3278246 36.6167609,69.8949907" id="Path-200-Copy" stroke="#3F3F3F" stroke-linecap="round" stroke-linejoin="round" transform="translate(51.839277, 52.947495) scale(-1, 1) translate(-51.839277, -52.947495) "></path>
                <path d="M36.7326643,59 C32.5851163,59 28.5503323,61.1741774 27.6759773,66.1874062 C27.093074,69.5295587 26.2010816,72.2259203 25,74.276491" id="Path-202" stroke="#3F3F3F" stroke-linecap="round" stroke-linejoin="round"></path>
                <path d="M37,55 C39.0210785,55 45.9087926,57.5610447 46.9939296,64.6391566 C47.7949608,69.8641083 47.9902668,71.9403765 49.0215719,74.3641072" id="Path-201" stroke="#3F3F3F" stroke-linecap="round" stroke-linejoin="round"></path>
                <g id="Oval-Copy-464" transform="translate(37.000000, 3.000000) rotate(-90.000000) translate(-37.000000, -3.000000) ">
                    <use fill="#C2C2C2" fill-rule="evenodd" xlink:href="#path-1"></use>
                    <circle stroke="#151515" stroke-width="1.5" cx="37" cy="3" r="2.25"></circle>
                    <use stroke="#151515" stroke-width="1" xlink:href="#path-1"></use>
                </g>
                <g id="Oval-Copy-470" transform="translate(65.000000, 39.000000) rotate(-90.000000) translate(-65.000000, -39.000000) ">
                    <use fill="#C2C2C2" fill-rule="evenodd" xlink:href="#path-2"></use>
                    <circle stroke="#151515" stroke-width="1.5" cx="65" cy="39" r="2.25"></circle>
                    <use stroke="#151515" stroke-width="1" xlink:href="#path-2"></use>
                </g>
                <g id="Oval-Copy-474" transform="translate(10.000000, 39.000000) rotate(-90.000000) translate(-10.000000, -39.000000) ">
                    <use fill="#C2C2C2" fill-rule="evenodd" xlink:href="#path-3"></use>
                    <circle stroke="#151515" stroke-width="1.5" cx="10" cy="39" r="2.25"></circle>
                    <use stroke="#151515" stroke-width="1" xlink:href="#path-3"></use>
                </g>
                <g id="Oval-Copy-473" transform="translate(36.500000, 31.000000) rotate(-90.000000) translate(-36.500000, -31.000000) ">
                    <use fill="#C2C2C2" fill-rule="evenodd" xlink:href="#path-4"></use>
                    <circle stroke="#151515" stroke-width="1.5" cx="36.5" cy="31" r="2.25"></circle>
                    <use stroke="#151515" stroke-width="1" xlink:href="#path-4"></use>
                </g>
                <g id="Oval-Copy-471" transform="translate(25.000000, 74.000000) rotate(-90.000000) translate(-25.000000, -74.000000) ">
                    <use fill="#C2C2C2" fill-rule="evenodd" xlink:href="#path-5"></use>
                    <circle stroke="#151515" stroke-width="1.5" cx="25" cy="74" r="2.25"></circle>
                    <use stroke="#151515" stroke-width="1" xlink:href="#path-5"></use>
                </g>
                <g id="Oval-Copy-472" transform="translate(48.000000, 74.000000) rotate(-90.000000) translate(-48.000000, -74.000000) ">
                    <use fill="#C2C2C2" fill-rule="evenodd" xlink:href="#path-6"></use>
                    <circle stroke="#151515" stroke-width="1.5" cx="48" cy="74" r="2.25"></circle>
                    <use stroke="#151515" stroke-width="1" xlink:href="#path-6"></use>
                </g>
            </g>
        </g>
    </g>
</svg>