<?xml version="1.0" encoding="UTF-8"?>
<svg width="49px" height="100px" viewBox="0 0 49 100" version="1.1" xmlns="http://www.w3.org/2000/svg" xmlns:xlink="http://www.w3.org/1999/xlink">
    <!-- Generator: Sketch 47.1 (45422) - http://www.bohemiancoding.com/sketch -->
    <title>bone-marrow</title>
    <desc>Created with Sketch.</desc>
    <defs>
        <circle id="path-1" cx="9" cy="3" r="3"></circle>
        <circle id="path-2" cx="30" cy="3" r="3"></circle>
        <circle id="path-3" cx="12" cy="95" r="3"></circle>
        <circle id="path-4" cx="33" cy="95" r="3"></circle>
    </defs>
    <g id="Version-2" stroke="none" stroke-width="1" fill="none" fill-rule="evenodd">
        <g id="full-preview-5" transform="translate(-983.000000, -1202.000000)">
            <g id="bone-marrow" transform="translate(983.000000, 1203.000000)">
                <path d="M9.48018881,3.26977319 C9.08875776,9.60838948 10.2078656,14.9626529 9.22222933,22.4088266 C8.23659311,29.8550003 5.72630085,32.7085968 3.15825647,36.6562752 C0.590212084,40.6039536 0.55556081,41.585098 1.94032837,45.8696638 C3.32509593,50.1542296 3.72679403,51.6897944 3.32509593,54.8591026 C2.92339783,58.0284107 4.11373325,58.763146 7.71874908,59.7269648 C11.3237649,60.6907835 15.870782,60.2499423 18.4388264,57.9507662 C21.0068708,55.65159 24.7671756,54.2777312 27.0965113,56.9452376 C29.4258469,59.6127439 32.630448,61.6205927 36.4850813,61.7450806 C40.3397146,61.8695685 45.5649984,59.6191608 46.6064616,53.9132511 C47.6479249,48.2073414 48.8478857,40.3889874 45.5649984,36.6562752 C42.282111,32.923563 37.1120127,28.9765263 35.5841482,22.4088266 C34.0562837,15.8411269 30.2818617,9.59234722 29.9090396,2.0447865" id="Path-34" stroke="#3F3F3F" stroke-linecap="round" stroke-linejoin="round"></path>
                <path d="M12.3503983,95.4614256 C12.2123744,91.8960416 11.8918118,87.8743109 6.49236186,82.1114634 C1.09291192,76.3486159 1.86618168,74.9101437 1.09291192,69.0246705 C0.319642149,63.1391973 1.77071282,61.6021766 4.31673573,61.9748131 C6.86275863,62.3474497 12.5796915,64.4253672 16.8841892,61.9748131 C21.1886869,59.5242591 21.7763384,58.0356728 23.7613067,58.6720385 C25.7462751,59.3084043 26.9294171,61.393601 30.4138905,63.2310266 C33.8983639,65.0684521 36.8584584,65.3067043 39.9523774,65.0684521 C43.0462964,64.8301999 45.8994435,64.7392106 43.8201261,70.3805523 C41.7408087,76.021894 34.2651211,84.7557548 33.1239742,95.4614256" id="Path-35" stroke="#3F3F3F" stroke-linecap="round" stroke-linejoin="round"></path>
                <g id="Oval-Copy-452" transform="translate(9.000000, 3.000000) rotate(-90.000000) translate(-9.000000, -3.000000) ">
                    <use fill="#C2C2C2" fill-rule="evenodd" xlink:href="#path-1"></use>
                    <circle stroke="#151515" stroke-width="1.5" cx="9" cy="3" r="2.25"></circle>
                    <use stroke="#151515" stroke-width="1" xlink:href="#path-1"></use>
                </g>
                <g id="Oval-Copy-453" transform="translate(30.000000, 3.000000) rotate(-90.000000) translate(-30.000000, -3.000000) ">
                    <use fill="#C2C2C2" fill-rule="evenodd" xlink:href="#path-2"></use>
                    <circle stroke="#151515" stroke-width="1.5" cx="30" cy="3" r="2.25"></circle>
                    <use stroke="#151515" stroke-width="1" xlink:href="#path-2"></use>
                </g>
                <g id="Oval-Copy-454" transform="translate(12.000000, 95.000000) rotate(-90.000000) translate(-12.000000, -95.000000) ">
                    <use fill="#C2C2C2" fill-rule="evenodd" xlink:href="#path-3"></use>
                    <circle stroke="#151515" stroke-width="1.5" cx="12" cy="95" r="2.25"></circle>
                    <use stroke="#151515" stroke-width="1" xlink:href="#path-3"></use>
                </g>
                <g id="Oval-Copy-455" transform="translate(33.000000, 95.000000) rotate(-90.000000) translate(-33.000000, -95.000000) ">
                    <use fill="#C2C2C2" fill-rule="evenodd" xlink:href="#path-4"></use>
                    <circle stroke="#151515" stroke-width="1.5" cx="33" cy="95" r="2.25"></circle>
                    <use stroke="#151515" stroke-width="1" xlink:href="#path-4"></use>
                </g>
            </g>
        </g>
    </g>
</svg>