<?xml version="1.0" encoding="UTF-8"?>
<svg width="40px" height="95px" viewBox="0 0 40 95" version="1.1" xmlns="http://www.w3.org/2000/svg" xmlns:xlink="http://www.w3.org/1999/xlink">
    <!-- Generator: Sketch 47.1 (45422) - http://www.bohemiancoding.com/sketch -->
    <title>bottle-milk-beer</title>
    <desc>Created with Sketch.</desc>
    <defs>
        <circle id="path-1" cx="3" cy="90" r="3"></circle>
        <circle id="path-2" cx="3" cy="43" r="3"></circle>
        <circle id="path-3" cx="35" cy="90" r="3"></circle>
        <circle id="path-4" cx="35" cy="43" r="3"></circle>
        <circle id="path-5" cx="27" cy="3.5" r="3"></circle>
        <circle id="path-6" cx="11" cy="3.5" r="3"></circle>
    </defs>
    <g id="Version-2" stroke="none" stroke-width="1" fill="none" fill-rule="evenodd">
        <g id="full-preview-4" transform="translate(-796.000000, -879.000000)">
            <g id="bottle-milk-beer" transform="translate(797.000000, 879.000000)">
                <path d="M27,18.826087 L27,3 L11,3 L11,18.826087 C11,22.7826087 3,32.673913 3,40.5869565 L3,91.0326087 C3,94.9891304 35,94.9891304 35,91.0326087 L35,40.5869565 C35,32.673913 27,22.7826087 27,18.826087 Z" id="Stroke-1" stroke="#3F3F3F" stroke-linecap="round" stroke-linejoin="round"></path>
                <g id="Oval-Copy-97" transform="translate(3.000000, 90.000000) rotate(-90.000000) translate(-3.000000, -90.000000) ">
                    <use fill="#C2C2C2" fill-rule="evenodd" xlink:href="#path-1"></use>
                    <circle stroke="#151515" stroke-width="1.5" cx="3" cy="90" r="2.25"></circle>
                    <use stroke="#151515" stroke-width="1" xlink:href="#path-1"></use>
                </g>
                <g id="Oval-Copy-106" transform="translate(3.000000, 43.000000) rotate(-90.000000) translate(-3.000000, -43.000000) ">
                    <use fill="#C2C2C2" fill-rule="evenodd" xlink:href="#path-2"></use>
                    <circle stroke="#151515" stroke-width="1.5" cx="3" cy="43" r="2.25"></circle>
                    <use stroke="#151515" stroke-width="1" xlink:href="#path-2"></use>
                </g>
                <g id="Oval-Copy-100" transform="translate(35.000000, 90.000000) rotate(-90.000000) translate(-35.000000, -90.000000) ">
                    <use fill="#C2C2C2" fill-rule="evenodd" xlink:href="#path-3"></use>
                    <circle stroke="#151515" stroke-width="1.5" cx="35" cy="90" r="2.25"></circle>
                    <use stroke="#151515" stroke-width="1" xlink:href="#path-3"></use>
                </g>
                <g id="Oval-Copy-107" transform="translate(35.000000, 43.000000) rotate(-90.000000) translate(-35.000000, -43.000000) ">
                    <use fill="#C2C2C2" fill-rule="evenodd" xlink:href="#path-4"></use>
                    <circle stroke="#151515" stroke-width="1.5" cx="35" cy="43" r="2.25"></circle>
                    <use stroke="#151515" stroke-width="1" xlink:href="#path-4"></use>
                </g>
                <g id="Oval-Copy-108" transform="translate(27.000000, 3.500000) rotate(-90.000000) translate(-27.000000, -3.500000) ">
                    <use fill="#C2C2C2" fill-rule="evenodd" xlink:href="#path-5"></use>
                    <circle stroke="#151515" stroke-width="1.5" cx="27" cy="3.5" r="2.25"></circle>
                    <use stroke="#151515" stroke-width="1" xlink:href="#path-5"></use>
                </g>
                <g id="Oval-Copy-109" transform="translate(11.000000, 3.500000) rotate(-90.000000) translate(-11.000000, -3.500000) ">
                    <use fill="#C2C2C2" fill-rule="evenodd" xlink:href="#path-6"></use>
                    <circle stroke="#151515" stroke-width="1.5" cx="11" cy="3.5" r="2.25"></circle>
                    <use stroke="#151515" stroke-width="1" xlink:href="#path-6"></use>
                </g>
            </g>
        </g>
    </g>
</svg>