<?xml version="1.0" encoding="UTF-8"?>
<svg width="91px" height="100px" viewBox="0 0 91 100" version="1.1" xmlns="http://www.w3.org/2000/svg" xmlns:xlink="http://www.w3.org/1999/xlink">
    <!-- Generator: Sketch 47.1 (45422) - http://www.bohemiancoding.com/sketch -->
    <title>broccoli-vegetable</title>
    <desc>Created with Sketch.</desc>
    <defs>
        <circle id="path-1" cx="44.2426407" cy="96.2426407" r="3"></circle>
        <circle id="path-2" cx="44.2426407" cy="4.24264069" r="3"></circle>
        <circle id="path-3" cx="64.2426407" cy="53.2426407" r="3"></circle>
        <circle id="path-4" cx="25.2426407" cy="53.2426407" r="3"></circle>
    </defs>
    <g id="Version-2" stroke="none" stroke-width="1" fill="none" fill-rule="evenodd">
        <g id="full-preview-5" transform="translate(-959.000000, -537.000000)">
            <g id="broccoli-vegetable" transform="translate(960.000000, 537.000000)">
                <path d="M45,96 C44.5158515,96 42.8626317,96 40.0403404,96 C37.2180492,96 35.7979076,94.0636576 35.7799156,90.1909729 C35.3603747,74.7491368 31.9028431,62.526727 25.4073206,53.5237437 C11.8029118,59.4825352 4.00951158,52.1220707 0.739669236,42.6783519 C-2.5301731,33.2346332 5.85880339,25.4701102 9.96098039,24.561743 C9.29548068,17.8510727 20.1072441,8.86459406 30.5148008,11.7229557 C33.6691263,6.88444306 38.3163793,4.31012449 44.4565597,4" id="Path-74" stroke="#3F3F3F" stroke-linecap="round" stroke-linejoin="round"></path>
                <path d="M89,96 C88.5158515,96 86.8626317,96 84.0403404,96 C81.2180492,96 79.7979076,94.0636576 79.7799156,90.1909729 C79.3603747,74.7491368 75.9028431,62.526727 69.4073206,53.5237437 C55.8029118,59.4825352 48.0095116,52.1220707 44.7396692,42.6783519 C41.4698269,33.2346332 49.8588034,25.4701102 53.9609804,24.561743 C53.2954807,17.8510727 64.1072441,8.86459406 74.5148008,11.7229557 C77.6691263,6.88444306 82.3163793,4.31012449 88.4565597,4" id="Path-74-Copy" stroke="#3F3F3F" stroke-linecap="round" stroke-linejoin="round" transform="translate(66.500000, 50.000000) scale(-1, 1) translate(-66.500000, -50.000000) "></path>
                <path d="M55,71 L54.9150855,55 C52.7301897,55.5750961 51.0918278,55.8308063 50,55.7671306 C51.2803449,58.2782895 52.9470115,63.3559126 55,71 Z" id="Path-75-Copy" stroke="#3F3F3F" stroke-linecap="round" stroke-linejoin="round" transform="translate(52.500000, 63.000000) scale(-1, 1) translate(-52.500000, -63.000000) "></path>
                <path d="M41,71 L40.9150855,55 C38.7301897,55.5750961 37.0918278,55.8308063 36,55.7671306 C37.2803449,58.2782895 38.9470115,63.3559126 41,71 Z" id="Path-75" stroke="#3F3F3F" stroke-linecap="round" stroke-linejoin="round"></path>
                <g id="Oval-Copy-443" transform="translate(44.242641, 96.242641) rotate(-405.000000) translate(-44.242641, -96.242641) ">
                    <use fill="#C2C2C2" fill-rule="evenodd" xlink:href="#path-1"></use>
                    <circle stroke="#151515" stroke-width="1.5" cx="44.2426407" cy="96.2426407" r="2.25"></circle>
                    <use stroke="#151515" stroke-width="1" xlink:href="#path-1"></use>
                </g>
                <g id="Oval-Copy-444" transform="translate(44.242641, 4.242641) rotate(-405.000000) translate(-44.242641, -4.242641) ">
                    <use fill="#C2C2C2" fill-rule="evenodd" xlink:href="#path-2"></use>
                    <circle stroke="#151515" stroke-width="1.5" cx="44.2426407" cy="4.24264069" r="2.25"></circle>
                    <use stroke="#151515" stroke-width="1" xlink:href="#path-2"></use>
                </g>
                <g id="Oval-Copy-439" transform="translate(64.242641, 53.242641) rotate(-405.000000) translate(-64.242641, -53.242641) ">
                    <use fill="#C2C2C2" fill-rule="evenodd" xlink:href="#path-3"></use>
                    <circle stroke="#151515" stroke-width="1.5" cx="64.2426407" cy="53.2426407" r="2.25"></circle>
                    <use stroke="#151515" stroke-width="1" xlink:href="#path-3"></use>
                </g>
                <g id="Oval-Copy-440" transform="translate(25.242641, 53.242641) rotate(-405.000000) translate(-25.242641, -53.242641) ">
                    <use fill="#C2C2C2" fill-rule="evenodd" xlink:href="#path-4"></use>
                    <circle stroke="#151515" stroke-width="1.5" cx="25.2426407" cy="53.2426407" r="2.25"></circle>
                    <use stroke="#151515" stroke-width="1" xlink:href="#path-4"></use>
                </g>
            </g>
        </g>
    </g>
</svg>