<?xml version="1.0" encoding="UTF-8"?>
<svg width="76px" height="67px" viewBox="0 0 76 67" version="1.1" xmlns="http://www.w3.org/2000/svg" xmlns:xlink="http://www.w3.org/1999/xlink">
    <!-- Generator: Sketch 47.1 (45422) - http://www.bohemiancoding.com/sketch -->
    <title>car-parking</title>
    <desc>Created with Sketch.</desc>
    <defs>
        <circle id="path-1" cx="37.7735198" cy="49.7229311" r="3"></circle>
        <circle id="path-2" cx="8.77351983" cy="49.7229311" r="3"></circle>
    </defs>
    <g id="Version-2" stroke="none" stroke-width="1" fill="none" fill-rule="evenodd">
        <g id="full-preview-8" transform="translate(-402.000000, -390.000000)">
            <g id="car-parking" transform="translate(403.000000, 391.000000)">
                <path d="M23.5318488,58.593726 L0,58.593726 C0,51.4585186 0,47.2113357 0,45.8521775 C0,43.8134401 0.698419949,42.0310921 3.82108539,42.0310921 C5.90286235,42.0310921 12.4868736,42.0310921 23.573119,42.0310921" id="Path-419" stroke="#3F3F3F" stroke-linecap="round" stroke-linejoin="round"></path>
                <path d="M46.5025696,58.593726 L22.9707207,58.593726 C22.9707207,51.4585186 22.9707207,47.2113357 22.9707207,45.8521775 C22.9707207,43.8134401 23.6691407,42.0310921 26.7918061,42.0310921 C28.8735831,42.0310921 35.4575943,42.0310921 46.5438397,42.0310921" id="Path-419" stroke="#3F3F3F" stroke-linecap="round" stroke-linejoin="round" transform="translate(34.757280, 50.312409) scale(-1, 1) translate(-34.757280, -50.312409) "></path>
                <polyline id="Path-420" stroke="#3F3F3F" stroke-linecap="round" stroke-linejoin="round" points="17.5091198 58.5421101 17.5091198 51.510422 29.3149991 51.510422 29.3149991 58.6014812"></polyline>
                <polyline id="Path-421" stroke="#3F3F3F" stroke-linecap="round" stroke-linejoin="round" points="3.7449857 41.9530004 9.55800893 27 23.5571647 27"></polyline>
                <polyline id="Path-421" stroke="#3F3F3F" stroke-linecap="round" stroke-linejoin="round" transform="translate(33.340264, 34.476500) scale(-1, 1) translate(-33.340264, -34.476500) " points="23.4341749 41.9530004 29.2471981 27 43.2463539 27"></polyline>
                <path d="M5.58979003,58.6615529 C5.58979003,60.5201156 5.58979003,61.871383 5.58979003,62.7153551 C5.58979003,63.9813133 6.39597596,65.2201988 8.09463369,65.2201988 C8.6034871,65.2201988 9.10155848,65.2201988 9.58884691,65.2201988" id="Path-422" stroke="#3F3F3F" stroke-linecap="round" stroke-linejoin="round"></path>
                <path d="M8.87132156,58.6615529 C8.87132156,60.5201156 8.87132156,61.871383 8.87132156,62.7153551 C8.87132156,63.9813133 9.67750749,65.2201988 11.3761652,65.2201988 C11.8850186,65.2201988 12.38309,65.2201988 12.8703784,65.2201988" id="Path-422" stroke="#3F3F3F" stroke-linecap="round" stroke-linejoin="round" transform="translate(10.870850, 61.940876) scale(-1, 1) translate(-10.870850, -61.940876) "></path>
                <path d="M33.4828081,58.6615529 C33.4828081,60.5201156 33.4828081,61.871383 33.4828081,62.7153551 C33.4828081,63.9813133 34.288994,65.2201988 35.9876517,65.2201988 C36.4965051,65.2201988 36.9945765,65.2201988 37.4818649,65.2201988" id="Path-422" stroke="#3F3F3F" stroke-linecap="round" stroke-linejoin="round"></path>
                <path d="M36.7643396,58.6615529 C36.7643396,60.5201156 36.7643396,61.871383 36.7643396,62.7153551 C36.7643396,63.9813133 37.5705255,65.2201988 39.2691832,65.2201988 C39.7780366,65.2201988 40.276108,65.2201988 40.7633965,65.2201988" id="Path-422" stroke="#3F3F3F" stroke-linecap="round" stroke-linejoin="round" transform="translate(38.763868, 61.940876) scale(-1, 1) translate(-38.763868, -61.940876) "></path>
                <g id="Oval-Copy-583" transform="translate(37.773520, 49.722931) rotate(-90.000000) translate(-37.773520, -49.722931) ">
                    <use fill="#C2C2C2" fill-rule="evenodd" xlink:href="#path-1"></use>
                    <circle stroke="#151515" stroke-width="1.5" cx="37.7735198" cy="49.7229311" r="2.25"></circle>
                    <use stroke="#151515" stroke-width="1" xlink:href="#path-1"></use>
                </g>
                <g id="Oval-Copy-583" transform="translate(8.773520, 49.722931) rotate(-90.000000) translate(-8.773520, -49.722931) ">
                    <use fill="#C2C2C2" fill-rule="evenodd" xlink:href="#path-2"></use>
                    <circle stroke="#151515" stroke-width="1.5" cx="8.77351983" cy="49.7229311" r="2.25"></circle>
                    <use stroke="#151515" stroke-width="1" xlink:href="#path-2"></use>
                </g>
                <path d="M54.228436,65.1051621 L68.0873577,65.1051621" id="Path-528" stroke="#3F3F3F" stroke-linecap="round" stroke-linejoin="round"></path>
                <circle id="Oval-34" stroke="#3F3F3F" stroke-linecap="round" stroke-linejoin="round" cx="61" cy="13" r="13"></circle>
                <polyline id="Path-530" stroke="#3F3F3F" stroke-linecap="round" stroke-linejoin="round" points="58.25 19.4246883 58.25 6.39617844 65.4386556 6.39617844 65.4386556 13.3477619 58.5585907 13.3477619"></polyline>
                <path d="M61.237696,65.2069669 L61.237696,26.605227" id="Path-529" stroke="#3F3F3F" stroke-linecap="round" stroke-linejoin="round"></path>
            </g>
        </g>
    </g>
</svg>