<?xml version="1.0" encoding="UTF-8"?>
<svg width="51px" height="98px" viewBox="0 0 51 98" version="1.1" xmlns="http://www.w3.org/2000/svg" xmlns:xlink="http://www.w3.org/1999/xlink">
    <!-- Generator: Sketch 47.1 (45422) - http://www.bohemiancoding.com/sketch -->
    <title>cardiac-muscle</title>
    <desc>Created with Sketch.</desc>
    <defs>
        <circle id="path-1" cx="21" cy="10" r="3"></circle>
        <circle id="path-2" cx="26" cy="90" r="3"></circle>
        <circle id="path-3" cx="38" cy="28" r="3"></circle>
        <circle id="path-4" cx="9" cy="38" r="3"></circle>
    </defs>
    <g id="Version-2" stroke="none" stroke-width="1" fill="none" fill-rule="evenodd">
        <g id="full-preview-6" transform="translate(-605.000000, -219.000000)">
            <g id="cardiac-muscle" transform="translate(606.000000, 220.000000)">
                <path d="M11.5128131,0.335582629 C12.6032951,0.827671549 12.9988807,2.98237893 13.1439718,4.93943451 C13.2890628,6.89649009 13.4319218,10.8161817 13.7851628,12.6008021 C14.1384038,14.3854225 14.8588368,21.3414241 14.1384038,24.1489367 C16.744463,18.0986383 16.902389,18.6890474 18.7930375,14.3435693 C20.683686,9.99809115 21.4995444,7.29325842 21.9699743,4.93943451 C22.4404043,2.5856106 23.9418234,0.511918521 25.9767206,0.335582629 C28.0116178,0.159246738 29.3793313,0.162631666 29.9133781,1.07168315 C30.4474249,1.98073463 30.0939593,2.74186255 29.3506465,4.93943451 C28.6073336,7.13700647 23.9912227,19.9736162 21.9699743,25.2820101 C19.948726,30.590404 15.7941759,41.530553 15.3169689,46.6352436 C14.8397619,51.7399342 12.4293384,56.0609084 11.9591551,63.7743946 C11.4889718,71.4878808 9.50317327,80.1029052 9.06855552,82.7859846 C8.63393777,85.469064 8.55236537,86.3059969 6.97051337,86.1363263 C5.38866137,85.9666557 1.39291889,84.9593997 0.407850576,83.8891698 C-0.577217737,82.8189399 0.408829444,81.9046764 1.39291889,80.1799096 C2.37700833,78.4551427 5.89604171,65.9726076 6.97051337,61.4541492 C8.04498503,56.9356908 9.40332865,43.1075374 9.06855552,30.8145766 C8.73378239,18.5216158 6.94049473,6.22245546 6.48695218,2.81142394 C6.03340963,-0.599607572 10.4223311,-0.15650629 11.5128131,0.335582629 Z" id="Path-180-Copy" stroke="#3F3F3F" stroke-linecap="round" stroke-linejoin="round"></path>
                <path d="M9.92639865,86.0421966 C9.43904606,87.9041268 8.69740435,90.6820358 8.64322747,92.3716978 C8.5890506,94.0613597 8.06337069,95.2003876 10.9327752,95.7595586 C13.8021798,96.3187297 15.1851677,95.9710126 15.3447433,93.4250277 C15.5043188,90.8790427 16.0707135,84.305253 17.5768307,79.8492867 C19.0829479,75.3933205 20.275496,66.4209726 20.2347812,63.2442374 C20.2076381,61.1264139 20.4492998,58.803375 20.9597664,56.2751206 C21.1633401,64.1746569 21.1633401,69.5748331 20.9597664,72.4756493 C20.6544058,76.8268736 20.9640349,82.2980817 19.6496709,86.4736415 C18.335307,90.6492014 18.2088943,92.1934066 18.335307,93.4250277 C18.4617197,94.6566487 18.3510676,95.6722189 22.0968242,95.7595586 C25.8425808,95.8468983 25.695154,94.7935685 25.8425808,93.4250277 C25.9900075,92.0564869 26.6979188,82.5482804 27.21342,79.8492867 C27.7289212,77.1502931 28.9172008,67.9123143 29.0245695,60.7714733 C29.1319382,53.6306322 29.761375,44.5430353 29.6654984,39.1759125 C29.5696217,33.8087897 29.3847636,25.2061579 31.4500519,19.2158368 C33.5153403,13.2255156 36.9931676,7.37572606 38.0034843,5.13937015 C39.013801,2.90301424 38.5856395,2.39112482 36.9931676,2.07985402 C35.4006957,1.76858322 35.051746,1.77175131 33.9550697,1.71911528 C32.8583934,1.66647925 32.2563755,2.00188131 31.5474793,4.84403324 C30.838583,7.68618516 27.6891058,15.1608232 26.5055784,19.2158368 C25.3220509,23.2708504 22.5093691,29.108308 20.9597664,33.4536586 C19.4101637,37.7990092 17.4868118,41.8967932 16.9645264,46.8200119 C16.442241,51.7432305 14.6952203,56.0802756 14.1924208,59.0929199 C13.6896213,62.1055643 13.4117747,66.0011764 13.0242601,69.4717591 C12.6367454,72.9423418 10.869462,81.061295 10.6845301,82.3822947 C10.4995982,83.7032944 10.4137512,84.1802664 9.92639865,86.0421966 Z" id="Path-181-Copy" stroke="#3F3F3F" stroke-linecap="round" stroke-linejoin="round"></path>
                <path d="M29.270462,83.0655263 C29.0795142,84.9192778 28.8746345,85.5318682 30.4919549,86.5345494 C32.1092753,87.5372307 33.5667895,87.8560236 34.5465243,88.0092736 C35.526259,88.1625236 36.4908327,87.5556699 36.3699536,85.5373999 C36.2490746,83.5191299 36.0991027,78.5495678 35.5455177,73.4402776 C34.9919327,68.3309875 34.9648886,59.5318139 36.0991027,56.3033194 C37.2333167,53.074825 38.7924513,44.46537 38.247881,38.7164454 C37.7033108,32.9675208 36.8710894,28.2388972 39.3218605,23.3828384 C41.7726315,18.5267796 43.7050569,16.2038535 44.5909568,13.2015463 C45.4768566,10.199239 47.8973055,6.82814834 48.768454,5.78776919 C49.6396025,4.74739004 49.5949387,4.05448687 47.8973055,2.89077014 C46.1996722,1.7270534 45.9681581,1.84301532 44.5909568,1.7270534 C43.2137554,1.61109149 42.9273335,2.27899933 41.9586623,3.97827162 C40.989991,5.67754391 38.5806057,10.8376442 36.3699536,14.5148252 C34.1593016,18.1920062 32.2539203,20.7812759 31.6146957,26.3449892 C30.975471,31.9087025 31.3499911,36.2242887 31.6146957,38.7164454 C31.8794002,41.2086022 31.4618554,49.9786829 31.3499911,53.803787 C31.2381268,57.6288911 30.6879117,63.8326356 30.7502364,68.883258 C30.8125612,73.9338803 29.4614099,81.2117747 29.270462,83.0655263 Z" id="Path-182-Copy" stroke="#3F3F3F" stroke-linecap="round" stroke-linejoin="round"></path>
                <path d="M38.4050109,16.3100631 C37.9460695,16.1276926 36.9924949,16.9629463 36.4708076,19.046436 C35.9491204,21.1299256 35.8451415,22.3201419 36.2385664,22.3985335 C36.6319913,22.4769251 37.6411408,20.6662579 38.0725392,19.8561025 C38.5039376,19.045947 38.8639523,16.4924336 38.4050109,16.3100631 Z" id="Path-183-Copy" stroke="#3F3F3F" stroke-linecap="round" stroke-linejoin="round"></path>
                <path d="M33.4305233,36.4508379 C33.4594636,37.5260374 33.6441235,40.3195876 35.0148964,40.1356622 C36.3856692,39.9517368 36.9760814,37.9478024 36.747203,36.4508379 C36.5183247,34.9538734 36.3462986,32.413441 35.0148964,32.5791501 C33.6834941,32.7448592 33.4015829,35.3756384 33.4305233,36.4508379 Z" id="Path-184-Copy" stroke="#3F3F3F" stroke-linecap="round" stroke-linejoin="round"></path>
                <path d="M32.5973842,50.591825 C32.5050086,51.9748445 32.5915018,53.8994814 34.0076372,53.9406583 C35.4237726,53.9818351 35.6303104,51.6807241 35.6538401,50.591825 C35.6773697,49.5029258 35.1784543,47.026214 34.0076372,47.1471302 C32.83682,47.2680463 32.6897598,49.2088054 32.5973842,50.591825 Z" id="Path-185-Copy" stroke="#3F3F3F" stroke-linecap="round" stroke-linejoin="round"></path>
                <path d="M24.0271129,40.3967045 C23.9598163,41.5563397 23.88103,43.5832393 25.6217139,43.6127841 C27.3623978,43.642329 27.2823805,41.7102191 27.3623978,40.3967045 C27.4424151,39.0831899 26.9656509,36.7470952 25.6657518,36.8611712 C24.3658528,36.9752471 24.0944095,39.2370693 24.0271129,40.3967045 Z" id="Path-186-Copy" stroke="#3F3F3F" stroke-linecap="round" stroke-linejoin="round"></path>
                <path d="M24.0675903,70.5486007 C24.03023,72.3865407 23.6822188,75.9940512 25.0284972,76.0560693 C26.3747756,76.1180874 26.0620699,71.9746433 26.1409001,70.5755001 C26.2197303,69.1763569 26.4784504,65.1903865 25.2621859,65.1433125 C24.0459213,65.0962385 24.1049506,68.7106607 24.0675903,70.5486007 Z" id="Path-187-Copy" stroke="#3F3F3F" stroke-linecap="round" stroke-linejoin="round"></path>
                <path d="M14.5813572,75.0659278 C14.6189043,76.2375468 14.2989133,78.1375048 15.5775696,78.0977161 C16.8562259,78.0579274 16.4508666,75.6427708 16.5382897,74.6835451 C16.6257128,73.7243194 16.3171167,71.8697541 15.5775696,72.00724 C14.8380225,72.1447259 14.5438101,73.8943088 14.5813572,75.0659278 Z" id="Path-188-Copy" stroke="#3F3F3F" stroke-linecap="round" stroke-linejoin="round"></path>
                <path d="M7.7327344,71.9050929 C7.70060455,72.5405916 7.61785148,74.7603538 8.45621661,74.7351356 C9.29458174,74.7099174 9.52229277,73.1897268 9.64277974,71.8036597 C9.76326671,70.4175925 9.31796931,69.3797234 8.74942026,69.4303466 C8.1808712,69.4809698 7.76486426,71.2695942 7.7327344,71.9050929 Z" id="Path-189-Copy" stroke="#3F3F3F" stroke-linecap="round" stroke-linejoin="round"></path>
                <path d="M9.49702879,58.3679556 C9.36925656,59.3794857 9.33301707,61.0352942 10.1966004,60.8537231 C11.0601837,60.6721521 11.365791,59.4515911 11.3915696,57.8835793 C11.4173482,56.3155675 10.9761231,55.662883 10.324933,55.7174291 C9.67374301,55.7719751 9.62480101,57.3564254 9.49702879,58.3679556 Z" id="Path-190-Copy" stroke="#3F3F3F" stroke-linecap="round" stroke-linejoin="round"></path>
                <path d="M11.1837271,46.1868862 C11.0542736,47.2322274 11.1883971,49.7798263 12.2335515,49.6892275 C13.2787059,49.5986288 13.7417868,47.3474839 13.7137666,46.1868862 C13.6857464,45.0262885 13.5410909,42.899927 12.4289103,42.8577099 C11.3167297,42.8154928 11.3131805,45.141545 11.1837271,46.1868862 Z" id="Path-191-Copy" stroke="#3F3F3F" stroke-linecap="round" stroke-linejoin="round"></path>
                <path d="M10.2966585,16.7242714 C10.3878176,17.8499372 10.4190134,20.5479113 11.6003461,20.6381364 C12.7816788,20.7283615 13.4870413,18.6666334 13.3841137,16.7242714 C13.281186,14.7819094 12.5130583,12.7246645 11.6003461,12.8638316 C10.687634,13.0029987 10.2054993,15.5986055 10.2966585,16.7242714 Z" id="Path-192-Copy" stroke="#3F3F3F" stroke-linecap="round" stroke-linejoin="round"></path>
                <g id="Oval-Copy-502" transform="translate(21.000000, 10.000000) rotate(-90.000000) translate(-21.000000, -10.000000) ">
                    <use fill="#C2C2C2" fill-rule="evenodd" xlink:href="#path-1"></use>
                    <circle stroke="#151515" stroke-width="1.5" cx="21" cy="10" r="2.25"></circle>
                    <use stroke="#151515" stroke-width="1" xlink:href="#path-1"></use>
                </g>
                <g id="Oval-Copy-503" transform="translate(26.000000, 90.000000) rotate(-90.000000) translate(-26.000000, -90.000000) ">
                    <use fill="#C2C2C2" fill-rule="evenodd" xlink:href="#path-2"></use>
                    <circle stroke="#151515" stroke-width="1.5" cx="26" cy="90" r="2.25"></circle>
                    <use stroke="#151515" stroke-width="1" xlink:href="#path-2"></use>
                </g>
                <g id="Oval-Copy-504" transform="translate(38.000000, 28.000000) rotate(-90.000000) translate(-38.000000, -28.000000) ">
                    <use fill="#C2C2C2" fill-rule="evenodd" xlink:href="#path-3"></use>
                    <circle stroke="#151515" stroke-width="1.5" cx="38" cy="28" r="2.25"></circle>
                    <use stroke="#151515" stroke-width="1" xlink:href="#path-3"></use>
                </g>
                <g id="Oval-Copy-505" transform="translate(9.000000, 38.000000) rotate(-90.000000) translate(-9.000000, -38.000000) ">
                    <use fill="#C2C2C2" fill-rule="evenodd" xlink:href="#path-4"></use>
                    <circle stroke="#151515" stroke-width="1.5" cx="9" cy="38" r="2.25"></circle>
                    <use stroke="#151515" stroke-width="1" xlink:href="#path-4"></use>
                </g>
            </g>
        </g>
    </g>
</svg>