<?xml version="1.0" encoding="UTF-8"?>
<svg width="82px" height="83px" viewBox="0 0 82 83" version="1.1" xmlns="http://www.w3.org/2000/svg" xmlns:xlink="http://www.w3.org/1999/xlink">
    <!-- Generator: Sketch 47.1 (45422) - http://www.bohemiancoding.com/sketch -->
    <title>carrot-vegetable</title>
    <desc>Created with Sketch.</desc>
    <defs>
        <circle id="path-1" cx="13.9705627" cy="80.8528137" r="3"></circle>
        <circle id="path-2" cx="67.0035713" cy="27.8198052" r="3"></circle>
        <circle id="path-3" cx="87.6812409" cy="26.9411255" r="3"></circle>
        <circle id="path-4" cx="67.1751442" cy="6.43502884" r="3"></circle>
        <circle id="path-5" cx="40.1335137" cy="29.2340187" r="3"></circle>
        <circle id="path-6" cx="64.1751442" cy="53.2756493" r="3"></circle>
    </defs>
    <g id="Version-2" stroke="none" stroke-width="1" fill="none" fill-rule="evenodd">
        <g id="full-preview-5" transform="translate(-400.000000, -541.000000)">
            <g id="carrot-vegetable" transform="translate(390.000000, 539.000000)">
                <path d="M24.4159992,84.7652416 C28.1298501,84.7652416 30.4804278,82.7403032 31.4677322,78.6904264 C36.8119279,50.9753813 40.326351,33.5785404 42.0110016,26.4999039 C44.5379775,15.8819492 34.5637088,9.76524164 30.7885277,9.76524164 C28.2717403,9.76524164 26.2050785,9.76524164 24.5885422,9.76524164" id="Path-70-Copy-5" stroke="#3F3F3F" stroke-linecap="round" stroke-linejoin="round" transform="translate(33.415999, 47.265242) scale(-1, 1) rotate(-45.000000) translate(-33.415999, -47.265242) "></path>
                <path d="M37.8510281,98.2002705 C41.564879,98.2002705 43.9154566,96.1753321 44.902761,92.1254553 C50.2469567,64.4104101 53.7613799,47.0135693 55.4460304,39.9349328 C57.9730063,29.3169781 47.9987376,23.2002705 44.2235565,23.2002705 C41.7067691,23.2002705 39.6401073,23.2002705 38.0235711,23.2002705" id="Path-70-Copy-6" stroke="#3F3F3F" stroke-linecap="round" stroke-linejoin="round" transform="translate(46.851028, 60.700270) rotate(-315.000000) translate(-46.851028, -60.700270) "></path>
                <path d="M70.4963947,25.3847763 L61.7174003,14.9264756 C60.7119004,13.317735 60.9861667,11.945324 62.5401993,10.8092426 C64.0942319,9.67316116 65.5241353,9.73211078 66.8299095,10.9860915 L73.5809236,18.8461477 L73.5809236,6.48998763 C73.8362424,4.41984675 75.0175651,3.38477631 77.1248917,3.38477631" id="Path-71-Copy-4" stroke="#3F3F3F" stroke-linecap="round" stroke-linejoin="round" transform="translate(69.124892, 14.384776) rotate(-315.000000) translate(-69.124892, -14.384776) "></path>
                <path d="M81.1029964,35.991378 L72.324002,25.5330773 C71.3185021,23.9243367 71.5927685,22.5519257 73.146801,21.4158443 C74.7008336,20.2797629 76.130737,20.3387125 77.4365113,21.5926932 L84.1875254,29.4527494 L84.1875254,17.0965893 C84.4428441,15.0264485 85.6241668,13.991378 87.7314934,13.991378" id="Path-71-Copy-5" stroke="#3F3F3F" stroke-linecap="round" stroke-linejoin="round" transform="translate(79.731493, 24.991378) scale(-1, 1) rotate(-45.000000) translate(-79.731493, -24.991378) "></path>
                <g id="Oval-Copy-447" transform="translate(13.970563, 80.852814) rotate(-315.000000) translate(-13.970563, -80.852814) ">
                    <use fill="#C2C2C2" fill-rule="evenodd" xlink:href="#path-1"></use>
                    <circle stroke="#151515" stroke-width="1.5" cx="13.9705627" cy="80.8528137" r="2.25"></circle>
                    <use stroke="#151515" stroke-width="1" xlink:href="#path-1"></use>
                </g>
                <g id="Oval-Copy-448" transform="translate(67.003571, 27.819805) rotate(-315.000000) translate(-67.003571, -27.819805) ">
                    <use fill="#C2C2C2" fill-rule="evenodd" xlink:href="#path-2"></use>
                    <circle stroke="#151515" stroke-width="1.5" cx="67.0035713" cy="27.8198052" r="2.25"></circle>
                    <use stroke="#151515" stroke-width="1" xlink:href="#path-2"></use>
                </g>
                <g id="Oval-Copy-450" transform="translate(87.681241, 26.941125) rotate(-315.000000) translate(-87.681241, -26.941125) ">
                    <use fill="#C2C2C2" fill-rule="evenodd" xlink:href="#path-3"></use>
                    <circle stroke="#151515" stroke-width="1.5" cx="87.6812409" cy="26.9411255" r="2.25"></circle>
                    <use stroke="#151515" stroke-width="1" xlink:href="#path-3"></use>
                </g>
                <g id="Oval-Copy-463" transform="translate(67.175144, 6.435029) rotate(-315.000000) translate(-67.175144, -6.435029) ">
                    <use fill="#C2C2C2" fill-rule="evenodd" xlink:href="#path-4"></use>
                    <circle stroke="#151515" stroke-width="1.5" cx="67.1751442" cy="6.43502884" r="2.25"></circle>
                    <use stroke="#151515" stroke-width="1" xlink:href="#path-4"></use>
                </g>
                <g id="Oval-Copy-467" transform="translate(40.133514, 29.234019) rotate(-315.000000) translate(-40.133514, -29.234019) ">
                    <use fill="#C2C2C2" fill-rule="evenodd" xlink:href="#path-5"></use>
                    <circle stroke="#151515" stroke-width="1.5" cx="40.1335137" cy="29.2340187" r="2.25"></circle>
                    <use stroke="#151515" stroke-width="1" xlink:href="#path-5"></use>
                </g>
                <g id="Oval-Copy-468" transform="translate(64.175144, 53.275649) rotate(-315.000000) translate(-64.175144, -53.275649) ">
                    <use fill="#C2C2C2" fill-rule="evenodd" xlink:href="#path-6"></use>
                    <circle stroke="#151515" stroke-width="1.5" cx="64.1751442" cy="53.2756493" r="2.25"></circle>
                    <use stroke="#151515" stroke-width="1" xlink:href="#path-6"></use>
                </g>
            </g>
        </g>
    </g>
</svg>