<?xml version="1.0" encoding="UTF-8"?>
<svg width="83px" height="76px" viewBox="0 0 83 76" version="1.1" xmlns="http://www.w3.org/2000/svg" xmlns:xlink="http://www.w3.org/1999/xlink">
    <!-- Generator: Sketch 47.1 (45422) - http://www.bohemiancoding.com/sketch -->
    <title>cheese-swiss</title>
    <desc>Created with Sketch.</desc>
    <defs>
        <circle id="path-1" cx="40.5" cy="42" r="3"></circle>
        <circle id="path-2" cx="3" cy="35" r="3"></circle>
        <circle id="path-3" cx="78" cy="64" r="3"></circle>
        <circle id="path-4" cx="44" cy="3" r="3"></circle>
    </defs>
    <g id="Version-2" stroke="none" stroke-width="1" fill="none" fill-rule="evenodd">
        <g id="full-preview-5" transform="translate(-776.000000, -206.000000)">
            <g id="cheese-swiss" transform="translate(777.000000, 207.000000)">
                <path d="M3,35 L43.7608696,3 C58.4347826,3 78,8.73837441 78,25.1518904" id="Stroke-1" stroke="#3F3F3F" stroke-linecap="round" stroke-linejoin="round"></path>
                <path d="M70,47 C70,49.2053333 68.208,51 66,51 C63.792,51 62,49.2053333 62,47 C62,44.792 63.792,43 66,43 C68.208,43 70,44.792 70,47 Z" id="Stroke-3" stroke="#3F3F3F" stroke-linecap="round" stroke-linejoin="round"></path>
                <path d="M23,44.5 C23,46.984 20.984,49 18.5,49 C16.0115,49 14,46.984 14,44.5 C14,42.0115 16.0115,40 18.5,40 C20.984,40 23,42.0115 23,44.5 Z" id="Stroke-5" stroke="#3F3F3F" stroke-linecap="round" stroke-linejoin="round"></path>
                <path d="M50,51.5 C50,56.744 45.74875,61 40.5,61 C35.26075,61 31,56.744 31,51.5 C31,46.25125 35.26075,42 40.5,42 C45.74875,42 50,46.25125 50,51.5 Z" id="Stroke-11" stroke="#3F3F3F" stroke-linecap="round" stroke-linejoin="round"></path>
                <path d="M3,34.8 L3,54.4 C6.60326087,54.4 9.52173913,57.3236667 9.52173913,60.9333333 C9.52173913,64.5397333 6.60326087,67.4666667 3,67.4666667 L3,74 L78,64.2 L78,25 L3,34.8 Z" id="Stroke-13" stroke="#3F3F3F" stroke-linecap="round" stroke-linejoin="round"></path>
                <g id="Oval-Copy-186" transform="translate(40.500000, 42.000000) rotate(-90.000000) translate(-40.500000, -42.000000) ">
                    <use fill="#C2C2C2" fill-rule="evenodd" xlink:href="#path-1"></use>
                    <circle stroke="#151515" stroke-width="1.5" cx="40.5" cy="42" r="2.25"></circle>
                    <use stroke="#151515" stroke-width="1" xlink:href="#path-1"></use>
                </g>
                <g id="Oval-Copy-180" transform="translate(3.000000, 35.000000) rotate(-90.000000) translate(-3.000000, -35.000000) ">
                    <use fill="#C2C2C2" fill-rule="evenodd" xlink:href="#path-2"></use>
                    <circle stroke="#151515" stroke-width="1.5" cx="3" cy="35" r="2.25"></circle>
                    <use stroke="#151515" stroke-width="1" xlink:href="#path-2"></use>
                </g>
                <g id="Oval-Copy-182" transform="translate(78.000000, 64.000000) rotate(-90.000000) translate(-78.000000, -64.000000) ">
                    <use fill="#C2C2C2" fill-rule="evenodd" xlink:href="#path-3"></use>
                    <circle stroke="#151515" stroke-width="1.5" cx="78" cy="64" r="2.25"></circle>
                    <use stroke="#151515" stroke-width="1" xlink:href="#path-3"></use>
                </g>
                <g id="Oval-Copy-183" transform="translate(44.000000, 3.000000) rotate(-90.000000) translate(-44.000000, -3.000000) ">
                    <use fill="#C2C2C2" fill-rule="evenodd" xlink:href="#path-4"></use>
                    <circle stroke="#151515" stroke-width="1.5" cx="44" cy="3" r="2.25"></circle>
                    <use stroke="#151515" stroke-width="1" xlink:href="#path-4"></use>
                </g>
            </g>
        </g>
    </g>
</svg>