<?xml version="1.0" encoding="UTF-8"?>
<svg width="94px" height="61px" viewBox="0 0 94 61" version="1.1" xmlns="http://www.w3.org/2000/svg" xmlns:xlink="http://www.w3.org/1999/xlink">
    <!-- Generator: Sketch 47.1 (45422) - http://www.bohemiancoding.com/sketch -->
    <title>cloud</title>
    <desc>Created with Sketch.</desc>
    <defs>
        <circle id="path-1" cx="73" cy="16" r="3"></circle>
        <circle id="path-2" cx="19" cy="26" r="3"></circle>
        <circle id="path-3" cx="19" cy="56" r="3"></circle>
        <circle id="path-4" cx="73" cy="56" r="3"></circle>
    </defs>
    <g id="Version-2" stroke="none" stroke-width="1" fill="none" fill-rule="evenodd">
        <g id="full-preview-1" transform="translate(-577.000000, -1131.000000)">
            <g id="cloud" transform="translate(577.000000, 1132.000000)">
                <path d="M93.1521739,35.9810595 C93.1521739,24.8193917 83.8816068,15.6370543 72.3636295,16.064047 C67.8607826,6.61833096 58.2089584,0.0657894737 47,0.0657894737 C32.0466957,0.0657894737 19.866535,11.6783934 18.9956635,26.3198519 C9.62877883,24.3804273 0.847826087,31.4677072 0.847826087,40.9692914 C0.847826087,56.1734224 16.9007561,55.9339873 16.9007561,55.9339873 L75.0926276,55.9339873 C75.0926276,55.9339873 93.1521739,53.5955042 93.1521739,35.9810595 Z" id="Page-1" stroke="#3F3F3F" stroke-linecap="round" stroke-linejoin="round"></path>
                <g id="Oval-Copy-111" transform="translate(73.000000, 16.000000) rotate(-90.000000) translate(-73.000000, -16.000000) ">
                    <use fill="#C2C2C2" fill-rule="evenodd" xlink:href="#path-1"></use>
                    <circle stroke="#151515" stroke-width="1.5" cx="73" cy="16" r="2.25"></circle>
                    <use stroke="#151515" stroke-width="1" xlink:href="#path-1"></use>
                </g>
                <g id="Oval-Copy-112" transform="translate(19.000000, 26.000000) rotate(-90.000000) translate(-19.000000, -26.000000) ">
                    <use fill="#C2C2C2" fill-rule="evenodd" xlink:href="#path-2"></use>
                    <circle stroke="#151515" stroke-width="1.5" cx="19" cy="26" r="2.25"></circle>
                    <use stroke="#151515" stroke-width="1" xlink:href="#path-2"></use>
                </g>
                <g id="Oval-Copy-113" transform="translate(19.000000, 56.000000) rotate(-90.000000) translate(-19.000000, -56.000000) ">
                    <use fill="#C2C2C2" fill-rule="evenodd" xlink:href="#path-3"></use>
                    <circle stroke="#151515" stroke-width="1.5" cx="19" cy="56" r="2.25"></circle>
                    <use stroke="#151515" stroke-width="1" xlink:href="#path-3"></use>
                </g>
                <g id="Oval-Copy-114" transform="translate(73.000000, 56.000000) rotate(-90.000000) translate(-73.000000, -56.000000) ">
                    <use fill="#C2C2C2" fill-rule="evenodd" xlink:href="#path-4"></use>
                    <circle stroke="#151515" stroke-width="1.5" cx="73" cy="56" r="2.25"></circle>
                    <use stroke="#151515" stroke-width="1" xlink:href="#path-4"></use>
                </g>
            </g>
        </g>
    </g>
</svg>