<?xml version="1.0" encoding="UTF-8"?>
<svg width="96px" height="81px" viewBox="0 0 96 81" version="1.1" xmlns="http://www.w3.org/2000/svg" xmlns:xlink="http://www.w3.org/1999/xlink">
    <!-- Generator: Sketch 47.1 (45422) - http://www.bohemiancoding.com/sketch -->
    <title>collecting-s9-cells-petri-dish</title>
    <desc>Created with Sketch.</desc>
    <defs>
        <circle id="path-1" cx="3" cy="53" r="3"></circle>
        <circle id="path-2" cx="91" cy="64" r="3"></circle>
        <circle id="path-3" cx="27" cy="76" r="3"></circle>
        <circle id="path-4" cx="67" cy="41" r="3"></circle>
        <circle id="path-5" cx="49.5" cy="3" r="3"></circle>
    </defs>
    <g id="Version-2" stroke="none" stroke-width="1" fill="none" fill-rule="evenodd">
        <g id="full-preview-5" transform="translate(-768.000000, -1540.000000)">
            <g id="collecting-s9-cells-petri-dish" transform="translate(769.000000, 1541.000000)">
                <ellipse id="Oval-11" stroke="#3F3F3F" stroke-linecap="round" stroke-linejoin="round" cx="46.9285714" cy="45.3571429" rx="43.9285714" ry="5.35714286"></ellipse>
                <path d="M90.8571429,71.3571429 C90.8571429,69.3532611 81.8351889,67.6063537 68.4745937,66.6875565 M59.6150161,66.2267903 C55.5984283,66.0792791 51.339418,66 46.9285714,66 C45.4894363,66 44.0664646,66.0084395 42.6628028,66.0249349 M16.9395233,67.4425463 C8.36172467,68.4202494 3,69.8123365 3,71.3571429" id="Oval-11-Copy-2" stroke="#3F3F3F" stroke-linecap="round" stroke-linejoin="round"></path>
                <path d="M3.07142857,71.0714286 C3.07142857,74.0300969 22.7389199,76.4285714 47,76.4285714 C71.2610801,76.4285714 90.9285714,74.0300969 90.9285714,71.0714286" id="Oval-11-Copy" stroke="#3F3F3F" stroke-linecap="round" stroke-linejoin="round"></path>
                <ellipse id="Oval-12-Copy" stroke="#3F3F3F" stroke-linecap="round" stroke-linejoin="round" cx="21.2857143" cy="67.3214286" rx="4.28571429" ry="3.75"></ellipse>
                <ellipse id="Oval-12-Copy-2" stroke="#3F3F3F" stroke-linecap="round" stroke-linejoin="round" cx="29.8571429" cy="66.25" rx="4.28571429" ry="3.75"></ellipse>
                <ellipse id="Oval-12-Copy-3" stroke="#3F3F3F" stroke-linecap="round" stroke-linejoin="round" cx="38.2857143" cy="66.75" rx="4.28571429" ry="3.75"></ellipse>
                <path d="M49.0002666,10.7449139 C51.7616903,10.7449139 54.3093087,8.12725804 54.3093087,5.71101226 C54.3093087,3.29476648 51.7616903,1.99491391 49.0002666,1.99491391 C46.2388428,1.99491391 43.5939095,3.33585373 43.5939095,5.75209952 C43.5939095,8.1683453 46.2388428,10.7449139 49.0002666,10.7449139 Z" id="Oval-12-Copy-9" stroke="#3F3F3F" stroke-linecap="round" stroke-linejoin="round" transform="translate(48.951609, 6.369914) rotate(6.000000) translate(-48.951609, -6.369914) "></path>
                <ellipse id="Oval-12-Copy-10" stroke="#3F3F3F" stroke-linecap="round" stroke-linejoin="round" cx="47.5" cy="14.9375" rx="4.5" ry="3.9375"></ellipse>
                <ellipse id="Oval-12-Copy-11" stroke="#3F3F3F" stroke-linecap="round" stroke-linejoin="round" cx="46" cy="22.5" rx="4" ry="3.5"></ellipse>
                <ellipse id="Oval-12-Copy-12" stroke="#3F3F3F" stroke-linecap="round" stroke-linejoin="round" cx="45.4285714" cy="29" rx="3.42857143" ry="3"></ellipse>
                <ellipse id="Oval-12-Copy-13" stroke="#3F3F3F" stroke-linecap="round" stroke-linejoin="round" cx="44.1428571" cy="34.5" rx="2.85714286" ry="2.5"></ellipse>
                <ellipse id="Oval-12-Copy-6" stroke="#3F3F3F" stroke-linecap="round" stroke-linejoin="round" cx="64.1428571" cy="66.25" rx="4.28571429" ry="3.75"></ellipse>
                <path d="M3.07142857,45.3571429 L3.07142857,70.8172688" id="Path-73" stroke="#3F3F3F" stroke-linecap="round" stroke-linejoin="round"></path>
                <path d="M90.9285714,45.3571429 L90.9285714,70.8172688" id="Path-73-Copy" stroke="#3F3F3F" stroke-linecap="round" stroke-linejoin="round"></path>
                <path d="M43.751679,4.76163718 L37.7981864,62.2854152" id="Path-74" stroke="#3F3F3F" stroke-linecap="round" stroke-linejoin="round"></path>
                <path d="M40.847878,63.2308196 L54.4338421,6.11833784" id="Path-75" stroke="#3F3F3F" stroke-linecap="round" stroke-linejoin="round"></path>
                <g id="Oval-Copy-485" transform="translate(3.000000, 53.000000) rotate(-90.000000) translate(-3.000000, -53.000000) ">
                    <use fill="#C2C2C2" fill-rule="evenodd" xlink:href="#path-1"></use>
                    <circle stroke="#151515" stroke-width="1.5" cx="3" cy="53" r="2.25"></circle>
                    <use stroke="#151515" stroke-width="1" xlink:href="#path-1"></use>
                </g>
                <g id="Oval-Copy-507" transform="translate(91.000000, 64.000000) rotate(-90.000000) translate(-91.000000, -64.000000) ">
                    <use fill="#C2C2C2" fill-rule="evenodd" xlink:href="#path-2"></use>
                    <circle stroke="#151515" stroke-width="1.5" cx="91" cy="64" r="2.25"></circle>
                    <use stroke="#151515" stroke-width="1" xlink:href="#path-2"></use>
                </g>
                <g id="Oval-Copy-508" transform="translate(27.000000, 76.000000) rotate(-90.000000) translate(-27.000000, -76.000000) ">
                    <use fill="#C2C2C2" fill-rule="evenodd" xlink:href="#path-3"></use>
                    <circle stroke="#151515" stroke-width="1.5" cx="27" cy="76" r="2.25"></circle>
                    <use stroke="#151515" stroke-width="1" xlink:href="#path-3"></use>
                </g>
                <g id="Oval-Copy-514" transform="translate(67.000000, 41.000000) rotate(-90.000000) translate(-67.000000, -41.000000) ">
                    <use fill="#C2C2C2" fill-rule="evenodd" xlink:href="#path-4"></use>
                    <circle stroke="#151515" stroke-width="1.5" cx="67" cy="41" r="2.25"></circle>
                    <use stroke="#151515" stroke-width="1" xlink:href="#path-4"></use>
                </g>
                <g id="Oval-Copy-509" transform="translate(49.500000, 3.000000) rotate(-90.000000) translate(-49.500000, -3.000000) ">
                    <use fill="#C2C2C2" fill-rule="evenodd" xlink:href="#path-5"></use>
                    <circle stroke="#151515" stroke-width="1.5" cx="49.5" cy="3" r="2.25"></circle>
                    <use stroke="#151515" stroke-width="1" xlink:href="#path-5"></use>
                </g>
            </g>
        </g>
    </g>
</svg>