<?xml version="1.0" encoding="UTF-8"?>
<svg width="56px" height="84px" viewBox="0 0 56 84" version="1.1" xmlns="http://www.w3.org/2000/svg" xmlns:xlink="http://www.w3.org/1999/xlink">
    <!-- Generator: Sketch 47.1 (45422) - http://www.bohemiancoding.com/sketch -->
    <title>consumer-packaged-goods-product</title>
    <desc>Created with Sketch.</desc>
    <defs>
        <circle id="path-1" cx="9" cy="13" r="3"></circle>
        <circle id="path-2" cx="27" cy="13" r="3"></circle>
        <circle id="path-3" cx="44" cy="32" r="3"></circle>
        <circle id="path-4" cx="6" cy="79" r="3"></circle>
        <circle id="path-5" cx="48" cy="79" r="3"></circle>
    </defs>
    <g id="Version-2" stroke="none" stroke-width="1" fill="none" fill-rule="evenodd">
        <g id="full-preview-2" transform="translate(-791.000000, -546.000000)">
            <g id="consumer-packaged-goods-product" transform="translate(792.000000, 547.000000)">
                <path d="M5.11492565,79 L48.3621258,79 C51.7033478,76.6367573 53.5608522,72.1873898 53.9346388,65.6518976 C54.4953187,55.8486592 51.2031213,54.5595249 53.3739589,46.0270483 C55.5447964,37.4945718 51.1756907,24.5879317 40.6051417,17.6880393 C36.9617492,15.3098265 32.6606361,13.7471467 27.7018024,13 L8.20431163,13 C5.96912342,14.161888 3.76268759,16.4718846 1.58500413,19.9299898 C3.21107852,27.331029 5.12570795,33.2862578 2.39573083,43.0782685 C-1.53513589,57.1776868 -0.628737617,69.1515973 5.11492565,79 Z" id="Path-34" stroke="#3F3F3F" stroke-linecap="round" stroke-linejoin="round"></path>
                <polyline id="Path-35" stroke="#3F3F3F" stroke-linecap="round" stroke-linejoin="round" points="9 13 10.2197007 0 25.227107 0 27 13"></polyline>
                <path d="M44.0937982,31.1498136 C40.178202,25.5481313 37.1593644,23.238022 35.0372854,24.2194857 C31.8541668,25.6916813 36.9005008,33.3648868 38.1131712,34.977008 C39.3258415,36.5891291 44.1565814,44.9333075 47.0443396,42.5869492 C48.9695118,41.0227104 47.985998,37.2103319 44.0937982,31.1498136 Z" id="Path-36" stroke="#3F3F3F" stroke-linecap="round" stroke-linejoin="round"></path>
                <g id="Oval-Copy-152" transform="translate(9.000000, 13.000000) rotate(-90.000000) translate(-9.000000, -13.000000) ">
                    <use fill="#C2C2C2" fill-rule="evenodd" xlink:href="#path-1"></use>
                    <circle stroke="#151515" stroke-width="1.5" cx="9" cy="13" r="2.25"></circle>
                    <use stroke="#151515" stroke-width="1" xlink:href="#path-1"></use>
                </g>
                <g id="Oval-Copy-153" transform="translate(27.000000, 13.000000) rotate(-90.000000) translate(-27.000000, -13.000000) ">
                    <use fill="#C2C2C2" fill-rule="evenodd" xlink:href="#path-2"></use>
                    <circle stroke="#151515" stroke-width="1.5" cx="27" cy="13" r="2.25"></circle>
                    <use stroke="#151515" stroke-width="1" xlink:href="#path-2"></use>
                </g>
                <g id="Oval-Copy-154" transform="translate(44.000000, 32.000000) rotate(-90.000000) translate(-44.000000, -32.000000) ">
                    <use fill="#C2C2C2" fill-rule="evenodd" xlink:href="#path-3"></use>
                    <circle stroke="#151515" stroke-width="1.5" cx="44" cy="32" r="2.25"></circle>
                    <use stroke="#151515" stroke-width="1" xlink:href="#path-3"></use>
                </g>
                <g id="Oval-Copy-155" transform="translate(6.000000, 79.000000) rotate(-90.000000) translate(-6.000000, -79.000000) ">
                    <use fill="#C2C2C2" fill-rule="evenodd" xlink:href="#path-4"></use>
                    <circle stroke="#151515" stroke-width="1.5" cx="6" cy="79" r="2.25"></circle>
                    <use stroke="#151515" stroke-width="1" xlink:href="#path-4"></use>
                </g>
                <g id="Oval-Copy-156" transform="translate(48.000000, 79.000000) rotate(-90.000000) translate(-48.000000, -79.000000) ">
                    <use fill="#C2C2C2" fill-rule="evenodd" xlink:href="#path-5"></use>
                    <circle stroke="#151515" stroke-width="1.5" cx="48" cy="79" r="2.25"></circle>
                    <use stroke="#151515" stroke-width="1" xlink:href="#path-5"></use>
                </g>
            </g>
        </g>
    </g>
</svg>