<?xml version="1.0" encoding="UTF-8"?>
<svg width="69px" height="87px" viewBox="0 0 69 87" version="1.1" xmlns="http://www.w3.org/2000/svg" xmlns:xlink="http://www.w3.org/1999/xlink">
    <!-- Generator: Sketch 47.1 (45422) - http://www.bohemiancoding.com/sketch -->
    <title>cup-cake</title>
    <desc>Created with Sketch.</desc>
    <defs>
        <circle id="path-1" cx="46" cy="3" r="3"></circle>
        <circle id="path-2" cx="54" cy="82" r="3"></circle>
        <circle id="path-3" cx="44" cy="56" r="3"></circle>
        <circle id="path-4" cx="22" cy="56" r="3"></circle>
        <circle id="path-5" cx="15" cy="82" r="3"></circle>
    </defs>
    <g id="Version-2" stroke="none" stroke-width="1" fill="none" fill-rule="evenodd">
        <g id="full-preview-1" transform="translate(-781.000000, -272.000000)">
            <g id="cup-cake" transform="translate(782.000000, 273.000000)">
                <g id="Group-18" transform="translate(0.000000, 3.000000)" stroke-linecap="round" stroke="#3F3F3F" stroke-linejoin="round">
                    <polyline id="Stroke-1" points="60.4861111 58.0952714 54.2497338 79.0972222 14.7335183 79.0972222 8.375 57.6944444"></polyline>
                    <path d="M43.7543113,25.2787324 C56.4497897,28.2167296 67,36.2518101 67,46.2444167 C67,53.3161075 61.8957413,58.625 54.6004206,58.625 C50.2605678,58.625 46.442061,56.3531766 44.0325973,53.2204518 C41.6231335,56.3531766 37.8046267,58.3038701 33.4647739,58.3038701 C29.1249211,58.3038701 25.3064143,56.1926117 22.8969506,53.0564705 C20.4874869,56.1926117 16.66898,58.2252957 12.3291272,58.2252957 C5.03732913,58.2252957 0,53.3331889 0,46.2546655 C0,36.1800683 10.2789695,28.209897 22.8159306,25.2821487 L23.2985279,25.125" id="Stroke-7"></path>
                    <path d="M43.7361111,20.9375 C43.7361111,26.8446667 38.9418889,31.6388889 33.0347222,31.6388889 C27.1275556,31.6388889 22.3333333,26.8446667 22.3333333,20.9375 C22.3333333,15.0267662 27.1275556,10.2361111 33.0347222,10.2361111 C38.9418889,10.2361111 43.7361111,15.0267662 43.7361111,20.9375 Z" id="Stroke-9"></path>
                    <path d="M32.5694444,10.2361111 C32.5694444,4.58236574 37.1552222,0 42.8055556,0" id="Stroke-11"></path>
                </g>
                <g id="Oval-Copy-157" transform="translate(46.000000, 3.000000) rotate(-90.000000) translate(-46.000000, -3.000000) ">
                    <use fill="#C2C2C2" fill-rule="evenodd" xlink:href="#path-1"></use>
                    <circle stroke="#151515" stroke-width="1.5" cx="46" cy="3" r="2.25"></circle>
                    <use stroke="#151515" stroke-width="1" xlink:href="#path-1"></use>
                </g>
                <g id="Oval-Copy-166" transform="translate(54.000000, 82.000000) rotate(-90.000000) translate(-54.000000, -82.000000) ">
                    <use fill="#C2C2C2" fill-rule="evenodd" xlink:href="#path-2"></use>
                    <circle stroke="#151515" stroke-width="1.5" cx="54" cy="82" r="2.25"></circle>
                    <use stroke="#151515" stroke-width="1" xlink:href="#path-2"></use>
                </g>
                <g id="Oval-Copy-168" transform="translate(44.000000, 56.000000) rotate(-90.000000) translate(-44.000000, -56.000000) ">
                    <use fill="#C2C2C2" fill-rule="evenodd" xlink:href="#path-3"></use>
                    <circle stroke="#151515" stroke-width="1.5" cx="44" cy="56" r="2.25"></circle>
                    <use stroke="#151515" stroke-width="1" xlink:href="#path-3"></use>
                </g>
                <g id="Oval-Copy-169" transform="translate(22.000000, 56.000000) rotate(-90.000000) translate(-22.000000, -56.000000) ">
                    <use fill="#C2C2C2" fill-rule="evenodd" xlink:href="#path-4"></use>
                    <circle stroke="#151515" stroke-width="1.5" cx="22" cy="56" r="2.25"></circle>
                    <use stroke="#151515" stroke-width="1" xlink:href="#path-4"></use>
                </g>
                <g id="Oval-Copy-167" transform="translate(15.000000, 82.000000) rotate(-90.000000) translate(-15.000000, -82.000000) ">
                    <use fill="#C2C2C2" fill-rule="evenodd" xlink:href="#path-5"></use>
                    <circle stroke="#151515" stroke-width="1.5" cx="15" cy="82" r="2.25"></circle>
                    <use stroke="#151515" stroke-width="1" xlink:href="#path-5"></use>
                </g>
            </g>
        </g>
    </g>
</svg>