<?xml version="1.0" encoding="UTF-8"?>
<svg width="95px" height="69px" viewBox="0 0 95 69" version="1.1" xmlns="http://www.w3.org/2000/svg" xmlns:xlink="http://www.w3.org/1999/xlink">
    <!-- Generator: Sketch 47.1 (45422) - http://www.bohemiancoding.com/sketch -->
    <title>cup</title>
    <desc>Created with Sketch.</desc>
    <defs>
        <circle id="path-1" cx="3" cy="64.5" r="3"></circle>
        <circle id="path-2" cx="79" cy="64.5" r="3"></circle>
        <circle id="path-3" cx="66" cy="3" r="3"></circle>
        <circle id="path-4" cx="72" cy="17" r="3"></circle>
        <circle id="path-5" cx="72" cy="43" r="3"></circle>
        <circle id="path-6" cx="10" cy="3" r="3"></circle>
    </defs>
    <g id="Version-2" stroke="none" stroke-width="1" fill="none" fill-rule="evenodd">
        <g id="full-preview-1" transform="translate(-955.000000, -1800.000000)">
            <g id="cup" transform="translate(956.000000, 1801.000000)">
                <g id="Group-5" transform="translate(2.000000, 3.000000)" stroke="#3F3F3F" stroke-linecap="round" stroke-linejoin="round">
                    <path d="M64,32.40625 L64,0 L8,0 L8,32.40625 C8,48.2014375 20.5290667,61 36,61 C51.4634667,61 64,48.2014375 64,32.40625 Z" id="Stroke-1"></path>
                    <path d="M70,40 L79.5454545,40 C86.5747273,40 91,33.8342857 91,27 C91,20.1582857 86.5747273,14 79.5454545,14 L70,14" id="Stroke-3"></path>
                    <path d="M0,61.6666667 L76.3610294,61.6666667" id="Stroke-5"></path>
                </g>
                <g id="Oval-Copy-206" transform="translate(3.000000, 64.500000) rotate(-90.000000) translate(-3.000000, -64.500000) ">
                    <use fill="#C2C2C2" fill-rule="evenodd" xlink:href="#path-1"></use>
                    <circle stroke="#151515" stroke-width="1.5" cx="3" cy="64.5" r="2.25"></circle>
                    <use stroke="#151515" stroke-width="1" xlink:href="#path-1"></use>
                </g>
                <g id="Oval-Copy-207" transform="translate(79.000000, 64.500000) rotate(-90.000000) translate(-79.000000, -64.500000) ">
                    <use fill="#C2C2C2" fill-rule="evenodd" xlink:href="#path-2"></use>
                    <circle stroke="#151515" stroke-width="1.5" cx="79" cy="64.5" r="2.25"></circle>
                    <use stroke="#151515" stroke-width="1" xlink:href="#path-2"></use>
                </g>
                <g id="Oval-Copy-208" transform="translate(66.000000, 3.000000) rotate(-90.000000) translate(-66.000000, -3.000000) ">
                    <use fill="#C2C2C2" fill-rule="evenodd" xlink:href="#path-3"></use>
                    <circle stroke="#151515" stroke-width="1.5" cx="66" cy="3" r="2.25"></circle>
                    <use stroke="#151515" stroke-width="1" xlink:href="#path-3"></use>
                </g>
                <g id="Oval-Copy-210" transform="translate(72.000000, 17.000000) rotate(-90.000000) translate(-72.000000, -17.000000) ">
                    <use fill="#C2C2C2" fill-rule="evenodd" xlink:href="#path-4"></use>
                    <circle stroke="#151515" stroke-width="1.5" cx="72" cy="17" r="2.25"></circle>
                    <use stroke="#151515" stroke-width="1" xlink:href="#path-4"></use>
                </g>
                <g id="Oval-Copy-211" transform="translate(72.000000, 43.000000) rotate(-90.000000) translate(-72.000000, -43.000000) ">
                    <use fill="#C2C2C2" fill-rule="evenodd" xlink:href="#path-5"></use>
                    <circle stroke="#151515" stroke-width="1.5" cx="72" cy="43" r="2.25"></circle>
                    <use stroke="#151515" stroke-width="1" xlink:href="#path-5"></use>
                </g>
                <g id="Oval-Copy-209" transform="translate(10.000000, 3.000000) rotate(-90.000000) translate(-10.000000, -3.000000) ">
                    <use fill="#C2C2C2" fill-rule="evenodd" xlink:href="#path-6"></use>
                    <circle stroke="#151515" stroke-width="1.5" cx="10" cy="3" r="2.25"></circle>
                    <use stroke="#151515" stroke-width="1" xlink:href="#path-6"></use>
                </g>
            </g>
        </g>
    </g>
</svg>