<?xml version="1.0" encoding="UTF-8"?>
<svg width="95px" height="20px" viewBox="0 0 95 20" version="1.1" xmlns="http://www.w3.org/2000/svg" xmlns:xlink="http://www.w3.org/1999/xlink">
    <!-- Generator: Sketch 47.1 (45422) - http://www.bohemiancoding.com/sketch -->
    <title>cyber-security-password</title>
    <desc>Created with Sketch.</desc>
    <defs>
        <circle id="path-1" cx="8" cy="9" r="3"></circle>
        <circle id="path-2" cx="31" cy="9" r="3"></circle>
        <circle id="path-3" cx="54" cy="9" r="3"></circle>
        <circle id="path-4" cx="75" cy="15.5" r="3"></circle>
        <circle id="path-5" cx="91" cy="16" r="3"></circle>
    </defs>
    <g id="Version-2" stroke="none" stroke-width="1" fill="none" fill-rule="evenodd">
        <g id="full-preview-2" transform="translate(-391.000000, -745.000000)">
            <g id="cyber-security-password" transform="translate(391.000000, 745.000000)">
                <polygon id="Star-2-Copy-4" stroke="#3F3F3F" stroke-linecap="round" stroke-linejoin="round" points="8 8.84458247 3.05572809 16 8 8.84458247 1.66533454e-16 6.11145618 8 8.84458247 8 0 8 8.84458247 16 6.11145618 8 8.84458247 12.9442719 16"></polygon>
                <polygon id="Star-2-Copy-5" stroke="#3F3F3F" stroke-linecap="round" stroke-linejoin="round" points="31 8.84458247 26.0557281 16 31 8.84458247 23 6.11145618 31 8.84458247 31 0 31 8.84458247 39 6.11145618 31 8.84458247 35.9442719 16"></polygon>
                <polygon id="Star-2-Copy-6" stroke="#3F3F3F" stroke-linecap="round" stroke-linejoin="round" points="54 8.84458247 49.0557281 16 54 8.84458247 46 6.11145618 54 8.84458247 54 0 54 8.84458247 62 6.11145618 54 8.84458247 58.9442719 16"></polygon>
                <g id="Oval-Copy-392" transform="translate(8.000000, 9.000000) rotate(-90.000000) translate(-8.000000, -9.000000) ">
                    <use fill="#C2C2C2" fill-rule="evenodd" xlink:href="#path-1"></use>
                    <circle stroke="#151515" stroke-width="1.5" cx="8" cy="9" r="2.25"></circle>
                    <use stroke="#151515" stroke-width="1" xlink:href="#path-1"></use>
                </g>
                <g id="Oval-Copy-393" transform="translate(31.000000, 9.000000) rotate(-90.000000) translate(-31.000000, -9.000000) ">
                    <use fill="#C2C2C2" fill-rule="evenodd" xlink:href="#path-2"></use>
                    <circle stroke="#151515" stroke-width="1.5" cx="31" cy="9" r="2.25"></circle>
                    <use stroke="#151515" stroke-width="1" xlink:href="#path-2"></use>
                </g>
                <g id="Oval-Copy-396" transform="translate(54.000000, 9.000000) rotate(-90.000000) translate(-54.000000, -9.000000) ">
                    <use fill="#C2C2C2" fill-rule="evenodd" xlink:href="#path-3"></use>
                    <circle stroke="#151515" stroke-width="1.5" cx="54" cy="9" r="2.25"></circle>
                    <use stroke="#151515" stroke-width="1" xlink:href="#path-3"></use>
                </g>
                <path d="M75.5,15.5 L88.5,15.5" id="Line-8" stroke="#3F3F3F" stroke-linecap="round" stroke-linejoin="round"></path>
                <g id="Oval-Copy-394" transform="translate(75.000000, 15.500000) rotate(-90.000000) translate(-75.000000, -15.500000) ">
                    <use fill="#C2C2C2" fill-rule="evenodd" xlink:href="#path-4"></use>
                    <circle stroke="#151515" stroke-width="1.5" cx="75" cy="15.5" r="2.25"></circle>
                    <use stroke="#151515" stroke-width="1" xlink:href="#path-4"></use>
                </g>
                <g id="Oval-Copy-395" transform="translate(91.000000, 16.000000) rotate(-90.000000) translate(-91.000000, -16.000000) ">
                    <use fill="#C2C2C2" fill-rule="evenodd" xlink:href="#path-5"></use>
                    <circle stroke="#151515" stroke-width="1.5" cx="91" cy="16" r="2.25"></circle>
                    <use stroke="#151515" stroke-width="1" xlink:href="#path-5"></use>
                </g>
            </g>
        </g>
    </g>
</svg>