<?xml version="1.0" encoding="UTF-8"?>
<svg width="106px" height="102px" viewBox="0 0 106 102" version="1.1" xmlns="http://www.w3.org/2000/svg" xmlns:xlink="http://www.w3.org/1999/xlink">
    <!-- Generator: Sketch 47.1 (45422) - http://www.bohemiancoding.com/sketch -->
    <title>digital-attack-cyber-earth</title>
    <desc>Created with Sketch.</desc>
    <defs>
        <circle id="path-1" cx="3" cy="3" r="3"></circle>
        <circle id="path-2" cx="20" cy="13" r="3"></circle>
        <circle id="path-3" cx="86" cy="13" r="3"></circle>
        <circle id="path-4" cx="90" cy="83" r="3"></circle>
        <circle id="path-5" cx="3" cy="51" r="3"></circle>
    </defs>
    <g id="Version-2" stroke="none" stroke-width="1" fill="none" fill-rule="evenodd">
        <g id="full-preview-3" transform="translate(-952.000000, -1377.000000)">
            <g id="digital-attack-cyber-earth" transform="translate(953.000000, 1378.000000)">
                <path d="M22.5873304,50.5615472 C21.6288446,53.0026071 22.0244489,53.489962 23.9206635,56.608788 C25.8168781,59.727614 27.2662063,65.2470912 26.9890391,70.8100384 C26.7118718,76.3729857 29.8254244,70.4408488 34.1789036,63.0380758 C38.5323827,55.6353028 34.062298,53.8230286 31.3358027,51.1193113 C28.6093074,48.4155941 22.6410544,49.1937699 20.1282344,46.2451507 C17.6154143,43.2965316 19.099541,40.7177143 23.9206635,38.3978808 C28.741786,36.0780473 36.1270107,28.3011866 31.3358027,28.1438372 C26.5445947,27.9864877 25.054363,27.0356559 22.1746321,24.4109196 C19.2949012,21.7861832 3.37732138,23.0896737 7.75766254,26.1356414 C12.1380037,29.1816091 13.2478936,29.1748743 12.1380037,36.8598967 C11.0281138,44.5449191 23.5458162,48.1204872 22.5873304,50.5615472 Z" id="Path-47" stroke="#3F3F3F" stroke-linecap="round" stroke-linejoin="round"></path>
                <path d="M56.3676048,61.1010469 C57.5876873,66.98107 59.9709306,69.3927359 63.1089449,63.9751321 C66.5625734,58.0126383 64.6842185,53.2616817 67.2042823,51.6607218 C69.724346,50.059762 67.4094545,40.8904033 72.3192446,43.3925985 C77.2290346,45.8947937 77.4585282,51.0265192 82.0646135,47.0710975 C86.6706988,43.1156757 84.4512217,51.1044037 87.608629,49.5498037 C90.7660362,47.9952037 95.5897662,41.8423254 93.4956375,39.1398557 C91.4015088,36.437386 97.3009899,31.1838887 96.9879307,28.7997565 C96.6748716,26.4156244 87.1147189,23.6309432 73.2671527,25.061917 C61.8701126,26.2396594 61.1581442,24.2209357 59.489909,24.0164757 M52.3717163,29.4901021 C51.7138519,30.2504165 51.1438533,30.8186865 50.6832409,30.9459081 C50.0216751,31.1286333 48.7555717,32.5206255 48.0305733,33.9264659 M48.3229851,40.1350605 C45.8353894,42.6224153 42.155011,46.6227983 48.6071973,50.9337995" id="Path-46" stroke="#3F3F3F" stroke-linecap="round" stroke-linejoin="round"></path>
                <path d="M100.545322,59.5661419 C99.4768678,58.5860969 96.6393625,59.0102168 94.2762628,59.8402968 C91.9131632,60.6703768 89.1732771,65.7563009 92.6482836,66.0286984 C96.1232901,66.3010959 95.468527,66.4996824 98.4078182,67.7357225 C101.347109,68.9717626 104.27152,65.5963773 103.979852,63.315854 C103.688185,61.0353308 101.613777,60.546187 100.545322,59.5661419 Z" id="Path-48" stroke="#3F3F3F" stroke-linecap="round" stroke-linejoin="round"></path>
                <g id="Group-11" transform="translate(52.000000, 34.000000)">
                    <g id="Oval-Copy-206" transform="translate(3.000000, 3.000000) rotate(-90.000000) translate(-3.000000, -3.000000) ">
                        <use fill="#C2C2C2" fill-rule="evenodd" xlink:href="#path-1"></use>
                        <circle stroke="#151515" stroke-width="1.5" cx="3" cy="3" r="2.25"></circle>
                        <use stroke="#151515" stroke-width="1" xlink:href="#path-1"></use>
                    </g>
                    <circle id="Oval-14-Copy-3" stroke="#3F3F3F" stroke-linecap="round" stroke-linejoin="round" cx="3" cy="3" r="3"></circle>
                </g>
                <path d="M86.6128424,12.9836155 C77.7341744,4.91652077 65.9412447,0 53,0 C39.9493621,0 28.0665348,4.99999143 19.1626274,13.1888649" id="Oval-15" stroke="#3F3F3F" stroke-linecap="round" stroke-linejoin="round"></path>
                <path d="M3,50 C3,77.6142375 25.3857625,100 53,100 L53,100 C67.7029192,100 80.9236068,93.6538122 90.0722989,83.5512004" id="Oval-15" stroke="#3F3F3F" stroke-linecap="round" stroke-linejoin="round"></path>
                <g id="Group-12" transform="translate(33.500000, 15.910000)" stroke-linecap="round" stroke="#3F3F3F" stroke-linejoin="round">
                    <polygon id="Path-20-Copy-2" transform="translate(21.500000, 6.970000) rotate(-180.000000) translate(-21.500000, -6.970000) " points="18.22 13.94 24.78 13.94 21.5 5.68434189e-14"></polygon>
                    <polygon id="Path-20-Copy-3" transform="translate(21.500000, 35.210000) scale(1, -1) rotate(-180.000000) translate(-21.500000, -35.210000) " points="18.22 42.18 24.78 42.18 21.5 28.24"></polygon>
                    <polygon id="Path-20-Copy-2" transform="translate(7.380000, 21.090000) rotate(-270.000000) translate(-7.380000, -21.090000) " points="4.1 28.06 10.66 28.06 7.38 14.12"></polygon>
                    <polygon id="Path-20-Copy-3" transform="translate(35.620000, 21.090000) scale(1, -1) rotate(-90.000000) translate(-35.620000, -21.090000) " points="32.34 28.06 38.9 28.06 35.62 14.12"></polygon>
                </g>
                <g id="Oval-Copy-207" transform="translate(20.000000, 13.000000) rotate(-90.000000) translate(-20.000000, -13.000000) ">
                    <use fill="#C2C2C2" fill-rule="evenodd" xlink:href="#path-2"></use>
                    <circle stroke="#151515" stroke-width="1.5" cx="20" cy="13" r="2.25"></circle>
                    <use stroke="#151515" stroke-width="1" xlink:href="#path-2"></use>
                </g>
                <g id="Oval-Copy-210" transform="translate(86.000000, 13.000000) rotate(-90.000000) translate(-86.000000, -13.000000) ">
                    <use fill="#C2C2C2" fill-rule="evenodd" xlink:href="#path-3"></use>
                    <circle stroke="#151515" stroke-width="1.5" cx="86" cy="13" r="2.25"></circle>
                    <use stroke="#151515" stroke-width="1" xlink:href="#path-3"></use>
                </g>
                <g id="Oval-Copy-208" transform="translate(90.000000, 83.000000) rotate(-90.000000) translate(-90.000000, -83.000000) ">
                    <use fill="#C2C2C2" fill-rule="evenodd" xlink:href="#path-4"></use>
                    <circle stroke="#151515" stroke-width="1.5" cx="90" cy="83" r="2.25"></circle>
                    <use stroke="#151515" stroke-width="1" xlink:href="#path-4"></use>
                </g>
                <g id="Oval-Copy-209" transform="translate(3.000000, 51.000000) rotate(-90.000000) translate(-3.000000, -51.000000) ">
                    <use fill="#C2C2C2" fill-rule="evenodd" xlink:href="#path-5"></use>
                    <circle stroke="#151515" stroke-width="1.5" cx="3" cy="51" r="2.25"></circle>
                    <use stroke="#151515" stroke-width="1" xlink:href="#path-5"></use>
                </g>
            </g>
        </g>
    </g>
</svg>