<?xml version="1.0" encoding="UTF-8"?>
<svg width="80px" height="64px" viewBox="0 0 80 64" version="1.1" xmlns="http://www.w3.org/2000/svg" xmlns:xlink="http://www.w3.org/1999/xlink">
    <!-- Generator: Sketch 47.1 (45422) - http://www.bohemiancoding.com/sketch -->
    <title>digital-strategy</title>
    <desc>Created with Sketch.</desc>
    <defs>
        <circle id="path-1" cx="39" cy="59" r="3"></circle>
        <circle id="path-2" cx="10" cy="33" r="3"></circle>
        <circle id="path-3" cx="68" cy="33" r="3"></circle>
        <circle id="path-4" cx="26.5" cy="39" r="3"></circle>
        <circle id="path-5" cx="50.5" cy="39" r="3"></circle>
    </defs>
    <g id="Version-2" stroke="none" stroke-width="1" fill="none" fill-rule="evenodd">
        <g id="full-preview-6" transform="translate(-963.000000, -1389.000000)">
            <g id="digital-strategy" transform="translate(964.000000, 1389.000000)">
                <path d="M39,63.483765 C60.2363863,63.483765 71.0928913,63.483765 71.5695149,63.483765 C72.2844502,63.483765 72.8372033,63.3119651 73.5258635,62.5916116 C74.2145238,61.8712581 76.5613321,59.6636447 76.9947051,59.2486142 C77.4280781,58.8335838 77.6268283,58.1853238 77.6268283,57.851558 C77.6268283,57.5177923 77.6268283,56.9488125 77.6268283,56.6318856 C77.6268283,56.3149587 77.3219696,56 76.7174764,56 C76.1129832,56 48.5889361,56 48.1889406,56 C47.7889451,56 47.4130439,56.4088118 47.1642448,56.6318856 C46.9154457,56.8549595 45.7083253,57.9262603 45.4827149,58.1381841 C45.2571045,58.350108 45.03594,58.454893 44.6548084,58.454893 C44.4007206,58.454893 42.5279621,58.454893 39.0365328,58.454893" id="Path-238-Copy" stroke="#3F3F3F" stroke-linecap="round" stroke-linejoin="round"></path>
                <path d="M72.5691932,55.9612406 C72.5691932,30.7119092 72.5691932,17.2090543 72.5691932,15.452676 C72.5691932,12.8181085 70.8980196,11 68.4681045,11 C66.8481611,11 60.208835,11 48.5501262,11" id="Path-239-Copy" stroke="#3F3F3F" stroke-linecap="round" stroke-linejoin="round"></path>
                <path d="M0,63.483765 C21.2363863,63.483765 32.0928913,63.483765 32.5695149,63.483765 C33.2844502,63.483765 33.8372033,63.3119651 34.5258635,62.5916116 C35.2145238,61.8712581 37.5613321,59.6636447 37.9947051,59.2486142 C38.4280781,58.8335838 38.6268283,58.1853238 38.6268283,57.851558 C38.6268283,57.5177923 38.6268283,56.9488125 38.6268283,56.6318856 C38.6268283,56.3149587 38.3219696,56 37.7174764,56 C37.1129832,56 9.5889361,56 9.18894058,56 C8.78894507,56 8.41304394,56.4088118 8.16424481,56.6318856 C7.91544569,56.8549595 6.70832533,57.9262603 6.48271491,58.1381841 C6.25710449,58.350108 6.03594002,58.454893 5.65480836,58.454893 C5.40072058,58.454893 3.52796207,58.454893 0.0365328212,58.454893" id="Path-238-Copy-2" stroke="#3F3F3F" stroke-linecap="round" stroke-linejoin="round" transform="translate(19.313414, 59.741882) scale(-1, 1) translate(-19.313414, -59.741882) "></path>
                <path d="M28.5325442,55.9612406 C28.5325442,30.7119092 28.5325442,17.2090543 28.5325442,15.452676 C28.5325442,12.8181085 26.8613707,11 24.4314556,11 C22.8115122,11 16.3343603,11 5,11" id="Path-239-Copy-2" stroke="#3F3F3F" stroke-linecap="round" stroke-linejoin="round" transform="translate(16.766272, 33.480620) scale(-1, 1) translate(-16.766272, -33.480620) "></path>
                <path d="M48.1674195,15 C59.9993606,15 66.2603648,15 66.950432,15 C67.9855328,15 68.2430188,15.713476 68.2430188,16.4064598 C68.2430188,17.0994436 68.2430188,49.300541 68.2430188,49.9281939 C68.2430188,50.5558467 67.8050323,51 67.1302048,51 C66.6803199,51 57.3035849,51 39,51" id="Path-240-Copy" stroke="#3F3F3F" stroke-linecap="round" stroke-linejoin="round"></path>
                <path d="M18.5823958,15 C30.5151756,15 36.8265991,15 37.5166663,15 C38.5517671,15 38.8092531,15.713476 38.8092531,16.4064598 C38.8092531,17.0994436 38.8092531,49.300541 38.8092531,49.9281939 C38.8092531,50.5558467 38.3712666,51 37.6964392,51 C37.2465542,51 28.0144078,51 10,51" id="Path-240-Copy-2" stroke="#3F3F3F" stroke-linecap="round" stroke-linejoin="round" transform="translate(24.404627, 33.000000) scale(-1, 1) translate(-24.404627, -33.000000) "></path>
                <g id="Oval-Copy-486" transform="translate(39.000000, 59.000000) rotate(-90.000000) translate(-39.000000, -59.000000) ">
                    <use fill="#C2C2C2" fill-rule="evenodd" xlink:href="#path-1"></use>
                    <circle stroke="#151515" stroke-width="1.5" cx="39" cy="59" r="2.25"></circle>
                    <use stroke="#151515" stroke-width="1" xlink:href="#path-1"></use>
                </g>
                <g id="Oval-Copy-502" transform="translate(10.000000, 33.000000) rotate(-360.000000) translate(-10.000000, -33.000000) ">
                    <use fill="#C2C2C2" fill-rule="evenodd" xlink:href="#path-2"></use>
                    <circle stroke="#151515" stroke-width="1.5" cx="10" cy="33" r="2.25"></circle>
                    <use stroke="#151515" stroke-width="1" xlink:href="#path-2"></use>
                </g>
                <g id="Oval-Copy-504" transform="translate(68.000000, 33.000000) rotate(-360.000000) translate(-68.000000, -33.000000) ">
                    <use fill="#C2C2C2" fill-rule="evenodd" xlink:href="#path-3"></use>
                    <circle stroke="#151515" stroke-width="1.5" cx="68" cy="33" r="2.25"></circle>
                    <use stroke="#151515" stroke-width="1" xlink:href="#path-3"></use>
                </g>
                <path d="M39.1499877,45.7556512 C36.0248686,45.7556512 26.6783779,44.2191971 26.6595519,42.8602095 C26.6776248,39.2082129 26.6595519,37.139108 26.6595519,36.3285851 C26.6595519,35.5180623 27.8577615,34.6032593 30.6211701,33.8730608 C29.755092,32.5964463 30.6530641,32.2572598 31.7213612,30.8066613 C32.7896584,29.3560628 33.5776784,27.0674993 33.621769,26.4888943 C33.6658596,25.9102892 33.0020006,25.5632969 33.0020006,24.9409062 C33.0020006,24.3185155 34.4402195,23.7146026 34.6997015,23.2581461 C34.9591834,22.8016896 35.5612433,18.4578406 34.3381895,14.2513399 C34.2531592,13.9588917 33.7249979,13.9131951 33.2605128,13.8579544 C32.7960278,13.8027136 31.0954906,13.3065721 30.7409114,13.1168855 C30.3863323,12.9271988 30.5182944,12.3720044 30.5795334,12.0221433 C30.6407723,11.6722823 30.894105,10.3607004 30.9752274,9.97189098 C31.0563497,9.58308155 31.4015408,9.3131392 32.0912491,9.10409877 C31.2821442,8.99514933 30.8521718,8.50340844 30.790644,8.12244646 C30.7291162,7.74148447 29.2986749,2.05191056 29.2344019,1.75528421 C29.170129,1.45865787 29.4019497,1.36899527 29.561626,1.29016321 C29.7213024,1.21133115 30.3794206,0.998449069 30.7409114,0.978977787 C31.1024022,0.959506504 32.3299808,1.07230974 32.4326637,1.08627698 C32.4352407,0.830421144 32.4982773,0.778419332 32.8341472,0.74138363 C33.1700171,0.704347928 35.6393983,0.574533185 36.279552,0.544980539 C36.9197057,0.515427892 37.0843871,0.921248085 37.1178169,1.39978405 C37.1401033,1.71880803 37.1512466,2.01015917 37.1512466,2.27383746 C37.4858607,2.27383746 37.7187297,2.27383746 37.8498536,2.27383746 C38.0465395,2.27383746 38.2265134,2.39691194 38.2265134,2.81911225 C38.2265134,3.10057912 38.2265134,4.22784035 38.2265134,6.20089594 C38.3554259,6.20089594 38.479451,6.20089594 38.5985889,6.20089594 C38.7772956,6.20089594 38.7772956,6.01440229 38.7772956,5.81608823 C38.7772956,5.61777417 38.7772956,1.2858149 38.7772956,1.08627698 C38.7772956,0.886739068 38.8141886,0.919461731 38.8618835,0.855561514 C38.9095785,0.791661298 39.0088663,0.660975841 39.0363968,0.616534191 C39.0639273,0.572092542 39.1470712,0.544980539 39.2260104,0.544980539 C39.3049496,0.544980539 42.7270508,0.585968018 42.921814,0.604141235 C43.1165771,0.622314453 43.3966217,0.843002319 43.2975769,1.21281433 C43.4381561,0.866088867 44.5736676,0.890987963 45.0158381,0.855561514 C45.4580087,0.820135065 46.7342152,1.06882377 47.0897274,1.15827689 C47.4452396,1.24773001 47.5171288,1.39157303 47.4706502,1.60059795 C47.6315196,1.54756242 47.8302255,1.5616436 47.7995909,1.79923934 C47.7689562,2.03683508 46.3611411,7.63535127 46.2012194,8.12244646 C46.0412976,8.60954164 45.5221608,9.07481074 44.7876168,9.10409877 C45.5185484,9.09912945 45.9695358,9.69542647 46.0516073,10.1890326 C46.1336788,10.6826388 46.4122024,12.0232619 46.4866026,12.4585413 C46.5610027,12.8938206 46.0877318,13.2679726 45.9124673,13.3599073 C45.7372028,13.451842 45.4131533,13.7431861 42.921814,13.979023 C42.7506097,13.9978425 42.6570358,14.0886148 42.6410922,14.2513399 C42.3679295,16.0456832 42.186014,18.1572041 42.0953458,20.5859027 C41.9593435,24.2289507 42.8256237,23.4517429 43.503169,24.2289507 C44.1807142,25.0061584 43.8207252,25.543712 43.5846253,25.984577 C43.3485253,26.425442 43.4598658,27.2013441 43.6883497,27.6592548 C43.9168335,28.1171654 44.6544374,30.1250669 45.7328086,31.4274973 C46.8111798,32.7299278 46.4387149,33.3226801 46.277398,33.6500286 C47.2039544,33.6633749 50.3467315,34.7703973 50.5674542,36.1218611 C50.7881768,37.4733249 50.6821155,37.4982196 50.247069,37.8653016 C50.5427378,37.9059973 50.5517309,38.5936033 50.5674542,38.9675615 C50.5831774,39.3415197 50.5659648,41.0126018 50.4602304,41.4575037 C50.5555974,41.7551019 50.6000577,42.0765916 50.5131973,42.3461778 C50.4263369,42.615764 49.8322371,43.7633578 48.6571298,44.2340786 C47.4820225,44.7047994 42.2751068,45.7556512 39.1499877,45.7556512 Z" id="Path-277" stroke="#3F3F3F" stroke-linecap="round" stroke-linejoin="round"></path>
                <g id="Oval-Copy-511" transform="translate(26.500000, 39.000000) rotate(-360.000000) translate(-26.500000, -39.000000) ">
                    <use fill="#C2C2C2" fill-rule="evenodd" xlink:href="#path-4"></use>
                    <circle stroke="#151515" stroke-width="1.5" cx="26.5" cy="39" r="2.25"></circle>
                    <use stroke="#151515" stroke-width="1" xlink:href="#path-4"></use>
                </g>
                <g id="Oval-Copy-512" transform="translate(50.500000, 39.000000) rotate(-360.000000) translate(-50.500000, -39.000000) ">
                    <use fill="#C2C2C2" fill-rule="evenodd" xlink:href="#path-5"></use>
                    <circle stroke="#151515" stroke-width="1.5" cx="50.5" cy="39" r="2.25"></circle>
                    <use stroke="#151515" stroke-width="1" xlink:href="#path-5"></use>
                </g>
            </g>
        </g>
    </g>
</svg>