<?xml version="1.0" encoding="UTF-8"?>
<svg width="96px" height="63px" viewBox="0 0 96 63" version="1.1" xmlns="http://www.w3.org/2000/svg" xmlns:xlink="http://www.w3.org/1999/xlink">
    <!-- Generator: Sketch 47.1 (45422) - http://www.bohemiancoding.com/sketch -->
    <title>dog-pet</title>
    <desc>Created with Sketch.</desc>
    <defs>
        <circle id="path-1" cx="3" cy="32.5" r="3"></circle>
        <circle id="path-2" cx="91" cy="9" r="3"></circle>
        <circle id="path-3" cx="51" cy="17" r="3"></circle>
        <circle id="path-4" cx="45" cy="42.5" r="3"></circle>
    </defs>
    <g id="Version-2" stroke="none" stroke-width="1" fill="none" fill-rule="evenodd">
        <g id="full-preview-8" transform="translate(-954.000000, -1560.000000)">
            <g id="dog-pet" transform="translate(955.000000, 1561.000000)">
                <path d="M3.95088575,32.5536905 C8.95301923,32.5536905 16.1781073,30.8999107 21.3233439,26.0939774 C26.4685805,21.2880441 29.7113876,17.0558183 37.5833535,17.0558183 C45.4553194,17.0558183 54.8179186,17.0558183 56.5393499,17.0558183 C58.2607812,17.0558183 60.8003757,14.484495 61.6622319,13.0379233 C62.5240882,11.5913517 67.0224469,5.67232225 68.5642049,3.20784069 C70.1059628,0.743359125 72.6073533,1.05424075e-16 74.4722263,0 C76.3370994,0 78.1812506,0.284025219 79.4512169,1.15445418 C80.7211832,2.02488313 82.3799953,3.79154014 83.9697775,3.79154014 C85.5595596,3.79154014 87.5641614,3.79154014 88.3719809,3.79154014 C89.1798003,3.79154014 90.6252469,4.31774873 90.6252469,6.22827638 C90.6252469,8.13880402 90.6252469,11.8247808 90.6252469,12.7653261 C90.6252469,13.7058714 89.8394212,14.938609 88.451964,14.938609 C87.0645069,14.938609 80.2681043,14.938609 78.7891095,14.938609 C77.3101147,14.938609 77.102415,15.8240164 76.2300785,17.0558183 C75.357742,18.2876201 73.6281026,20.9013401 71.5162516,23.7725754 C69.4044006,26.6438107 68.9971526,28.2830211 68.9971526,29.643897 C68.9971526,31.0047729 68.9971526,57.2791389 68.9971526,58.5247639 C68.9971526,59.770389 67.9281685,60.7644971 66.910319,60.7644971 C65.8924694,60.7644971 64.1583818,60.7644971 63.1781411,60.7644971 C62.1979004,60.7644971 61.1723206,59.7581399 61.1723206,58.5163741 C61.1723206,57.2746083 61.1723206,47.5518767 61.1723206,45.8725385 C61.1723206,44.1932002 60.2643709,42.3494228 57.6492049,42.3494228 C55.0340389,42.3494228 33.7507589,42.3494228 31.5945579,42.3494228 C29.438357,42.3494228 28.1746869,43.8027638 28.1746869,45.7692938 C28.1746869,47.7358238 28.1746869,57.0514863 28.1746869,58.2872247 C28.1746869,59.522963 27.5177973,60.4871391 26.4917923,60.4871391 C25.4657874,60.4871391 24.004508,60.4871391 22.5687731,60.4871391 C21.1330383,60.4871391 20.8297961,59.266182 20.8297961,58.2311422 C20.8297961,57.5411157 20.8297961,47.0027453 20.8297961,26.616031" id="Path-560" stroke="#3F3F3F" stroke-linecap="round" stroke-linejoin="round"></path>
                <g id="Oval-Copy-493" transform="translate(3.000000, 32.500000) rotate(-90.000000) translate(-3.000000, -32.500000) ">
                    <use fill="#C2C2C2" fill-rule="evenodd" xlink:href="#path-1"></use>
                    <circle stroke="#151515" stroke-width="1.5" cx="3" cy="32.5" r="2.25"></circle>
                    <use stroke="#151515" stroke-width="1" xlink:href="#path-1"></use>
                </g>
                <g id="Oval-Copy-494" transform="translate(91.000000, 9.000000) rotate(-90.000000) translate(-91.000000, -9.000000) ">
                    <use fill="#C2C2C2" fill-rule="evenodd" xlink:href="#path-2"></use>
                    <circle stroke="#151515" stroke-width="1.5" cx="91" cy="9" r="2.25"></circle>
                    <use stroke="#151515" stroke-width="1" xlink:href="#path-2"></use>
                </g>
                <g id="Oval-Copy-495" transform="translate(51.000000, 17.000000) rotate(-90.000000) translate(-51.000000, -17.000000) ">
                    <use fill="#C2C2C2" fill-rule="evenodd" xlink:href="#path-3"></use>
                    <circle stroke="#151515" stroke-width="1.5" cx="51" cy="17" r="2.25"></circle>
                    <use stroke="#151515" stroke-width="1" xlink:href="#path-3"></use>
                </g>
                <g id="Oval-Copy-496" transform="translate(45.000000, 42.500000) rotate(-90.000000) translate(-45.000000, -42.500000) ">
                    <use fill="#C2C2C2" fill-rule="evenodd" xlink:href="#path-4"></use>
                    <circle stroke="#151515" stroke-width="1.5" cx="45" cy="42.5" r="2.25"></circle>
                    <use stroke="#151515" stroke-width="1" xlink:href="#path-4"></use>
                </g>
            </g>
        </g>
    </g>
</svg>