<?xml version="1.0" encoding="UTF-8"?>
<svg width="80px" height="74px" viewBox="0 0 80 74" version="1.1" xmlns="http://www.w3.org/2000/svg" xmlns:xlink="http://www.w3.org/1999/xlink">
    <!-- Generator: Sketch 47.1 (45422) - http://www.bohemiancoding.com/sketch -->
    <title>dog-paw-pet</title>
    <desc>Created with Sketch.</desc>
    <defs>
        <circle id="path-1" cx="17" cy="36" r="3"></circle>
        <circle id="path-2" cx="66" cy="36" r="3"></circle>
        <circle id="path-3" cx="41" cy="70" r="3"></circle>
        <circle id="path-4" cx="32" cy="20" r="3"></circle>
        <circle id="path-5" cx="50" cy="20" r="3"></circle>
    </defs>
    <g id="Version-2" stroke="none" stroke-width="1" fill="none" fill-rule="evenodd">
        <g id="full-preview-8" transform="translate(-587.000000, -555.000000)">
            <g id="dog-paw-pet" transform="translate(586.000000, 555.000000)">
                <g id="Group-2" stroke="#3F3F3F" stroke-linecap="round" stroke-linejoin="round">
                    <path d="M45.3794646,7.7054743 C47.0408828,2.34141187 51.6401978,-0.590265726 56.4692889,1.02687997 C61.29838,2.64402567 62.7338173,9.01969609 60.5521408,14.1222318 C58.3704642,19.2247675 54.4634402,21.7798577 49.810765,20.5137797 C45.1580898,19.2477016 43.7180464,13.0695367 45.3794646,7.7054743 Z" id="Path-598"></path>
                    <path d="M64.0623769,26.005248 C65.6449519,20.895739 70.0260049,18.1031851 74.6259298,19.6435886 C79.2258547,21.1839921 80.5931729,27.2571029 78.5150286,32.117496 C76.4368842,36.9778892 72.7152694,39.4117267 68.2833885,38.2057308 C63.8515076,36.9997349 62.4798019,31.114757 64.0623769,26.005248 Z" id="Path-598" transform="translate(71.444801, 28.865979) rotate(15.000000) translate(-71.444801, -28.865979) "></path>
                    <path d="M20.8084208,7.7054743 C22.469839,2.34141187 27.0691541,-0.590265726 31.8982452,1.02687997 C36.7273362,2.64402567 38.1627736,9.01969609 35.981097,14.1222318 C33.7994205,19.2247675 29.8923964,21.7798577 25.2397213,20.5137797 C20.5870461,19.2477016 19.1470026,13.0695367 20.8084208,7.7054743 Z" id="Path-598" transform="translate(28.558634, 10.708726) scale(-1, 1) translate(-28.558634, -10.708726) "></path>
                    <path d="M2.86108652,26.005248 C4.44366156,20.895739 8.82471456,18.1031851 13.4246395,19.6435886 C18.0245644,21.1839921 19.3918825,27.2571029 17.3137382,32.117496 C15.2355938,36.9778892 11.513979,39.4117267 7.08209809,38.2057308 C2.65021721,36.9997349 1.27851149,31.114757 2.86108652,26.005248 Z" id="Path-598" transform="translate(10.243511, 28.865979) scale(-1, 1) rotate(15.000000) translate(-10.243511, -28.865979) "></path>
                    <path d="M41.2069961,28.7522678 C43.9398202,28.7522678 47.3900137,29.2126119 50.4228738,34.0844188 C54.2168429,40.1788262 59.4729048,47.344858 62.9957785,50.3988961 C66.5186522,53.4529341 71.5305005,60.2448998 68.2855565,66.3634552 C65.0406126,72.4820107 60.7696067,73.743174 54.0710437,73.0761425 C47.3724807,72.4091111 46.1942407,69.9013645 41.2757951,69.9013645" id="Path-599"></path>
                    <path d="M13.3368662,28.7522678 C16.0696904,28.7522678 19.5198839,29.2126119 22.5527439,34.0844188 C26.346713,40.1788262 31.602775,47.344858 35.1256487,50.3988961 C38.6485224,53.4529341 43.6603706,60.2448998 40.4154267,66.3634552 C37.1704827,72.4820107 32.8994768,73.743174 26.2009138,73.0761425 C19.5023508,72.4091111 18.3241108,69.9013645 13.4056652,69.9013645" id="Path-599" transform="translate(27.399852, 50.994349) scale(-1, 1) translate(-27.399852, -50.994349) "></path>
                </g>
                <g id="Oval-Copy-514" transform="translate(17.000000, 36.000000) rotate(-90.000000) translate(-17.000000, -36.000000) ">
                    <use fill="#C2C2C2" fill-rule="evenodd" xlink:href="#path-1"></use>
                    <circle stroke="#151515" stroke-width="1.5" cx="17" cy="36" r="2.25"></circle>
                    <use stroke="#151515" stroke-width="1" xlink:href="#path-1"></use>
                </g>
                <g id="Oval-Copy-515" transform="translate(66.000000, 36.000000) rotate(-90.000000) translate(-66.000000, -36.000000) ">
                    <use fill="#C2C2C2" fill-rule="evenodd" xlink:href="#path-2"></use>
                    <circle stroke="#151515" stroke-width="1.5" cx="66" cy="36" r="2.25"></circle>
                    <use stroke="#151515" stroke-width="1" xlink:href="#path-2"></use>
                </g>
                <g id="Oval-Copy-515" transform="translate(41.000000, 70.000000) rotate(-90.000000) translate(-41.000000, -70.000000) ">
                    <use fill="#C2C2C2" fill-rule="evenodd" xlink:href="#path-3"></use>
                    <circle stroke="#151515" stroke-width="1.5" cx="41" cy="70" r="2.25"></circle>
                    <use stroke="#151515" stroke-width="1" xlink:href="#path-3"></use>
                </g>
                <g id="Oval-Copy-514" transform="translate(32.000000, 20.000000) rotate(-90.000000) translate(-32.000000, -20.000000) ">
                    <use fill="#C2C2C2" fill-rule="evenodd" xlink:href="#path-4"></use>
                    <circle stroke="#151515" stroke-width="1.5" cx="32" cy="20" r="2.25"></circle>
                    <use stroke="#151515" stroke-width="1" xlink:href="#path-4"></use>
                </g>
                <g id="Oval-Copy-514" transform="translate(50.000000, 20.000000) rotate(-90.000000) translate(-50.000000, -20.000000) ">
                    <use fill="#C2C2C2" fill-rule="evenodd" xlink:href="#path-5"></use>
                    <circle stroke="#151515" stroke-width="1.5" cx="50" cy="20" r="2.25"></circle>
                    <use stroke="#151515" stroke-width="1" xlink:href="#path-5"></use>
                </g>
            </g>
        </g>
    </g>
</svg>