<?xml version="1.0" encoding="UTF-8"?>
<svg width="71px" height="71px" viewBox="0 0 71 71" version="1.1" xmlns="http://www.w3.org/2000/svg" xmlns:xlink="http://www.w3.org/1999/xlink">
    <!-- Generator: Sketch 47.1 (45422) - http://www.bohemiancoding.com/sketch -->
    <title>dryer-blower</title>
    <desc>Created with Sketch.</desc>
    <defs>
        <circle id="path-1" cx="58.25" cy="10.25" r="3"></circle>
        <circle id="path-2" cx="53" cy="32" r="3"></circle>
        <circle id="path-3" cx="16" cy="41" r="3"></circle>
    </defs>
    <g id="Version-2" stroke="none" stroke-width="1" fill="none" fill-rule="evenodd">
        <g id="full-preview-8" transform="translate(-404.000000, -1221.000000)">
            <g id="dryer-blower" transform="translate(405.000000, 1222.000000)">
                <path d="M0.0101334916,3.91914822 C0.0101334916,1.63044212 1.30379225,3.21529726e-16 3.92928171,0 C6.55477117,0 62.7391575,1.75802895e-17 65.1242124,0 C67.5092673,0 68.6586065,1.28195554 68.6586065,3.53439411 C68.6586065,5.78683268 68.6586065,62.4740952 68.6586065,64.7693106 C68.6586065,67.0645261 67.3238261,68.6549773 65.0240599,68.6549773 C62.7242936,68.6549773 6.17756877,68.6549773 3.70182517,68.6549773 C1.22608157,68.6549773 1.33991659e-16,67.3283708 0,64.9531521 C1.48879621e-17,62.5779335 0.0101334916,6.20785432 0.0101334916,3.91914822 Z" id="Path-596" stroke="#3F3F3F" stroke-linecap="round" stroke-linejoin="round"></path>
                <circle id="Oval-8" stroke="#3F3F3F" stroke-linecap="round" stroke-linejoin="round" cx="34.4544219" cy="36.4544219" r="24.4544219"></circle>
                <path d="M16,40.5337601 C18.2617654,38.3319476 21.0953548,35.8862464 26.357969,35.9529231 C31.6205832,36.0195998 34.0807031,39.7158594 39.9701307,41.6625225 C45.8595582,43.6091856 51.5951465,40.3740324 53.2926162,38.8428392" id="Path-597" stroke="#3F3F3F" stroke-linecap="round" stroke-linejoin="round"></path>
                <path d="M16,33.5337601 C18.2617654,31.3319476 21.0953548,28.8862464 26.357969,28.9529231 C31.6205832,29.0195998 34.0807031,32.7158594 39.9701307,34.6625225 C45.8595582,36.6091856 51.5951465,33.3740324 53.2926162,31.8428392" id="Path-597" stroke="#3F3F3F" stroke-linecap="round" stroke-linejoin="round"></path>
                <circle id="Oval-7" stroke="#3F3F3F" stroke-linecap="round" stroke-linejoin="round" cx="58.25" cy="10.25" r="4.25"></circle>
                <g id="Oval-Copy-514" transform="translate(58.250000, 10.250000) rotate(-90.000000) translate(-58.250000, -10.250000) ">
                    <use fill="#C2C2C2" fill-rule="evenodd" xlink:href="#path-1"></use>
                    <circle stroke="#151515" stroke-width="1.5" cx="58.25" cy="10.25" r="2.25"></circle>
                    <use stroke="#151515" stroke-width="1" xlink:href="#path-1"></use>
                </g>
                <g id="Oval-Copy-514" transform="translate(53.000000, 32.000000) rotate(-90.000000) translate(-53.000000, -32.000000) ">
                    <use fill="#C2C2C2" fill-rule="evenodd" xlink:href="#path-2"></use>
                    <circle stroke="#151515" stroke-width="1.5" cx="53" cy="32" r="2.25"></circle>
                    <use stroke="#151515" stroke-width="1" xlink:href="#path-2"></use>
                </g>
                <g id="Oval-Copy-514" transform="translate(16.000000, 41.000000) rotate(-90.000000) translate(-16.000000, -41.000000) ">
                    <use fill="#C2C2C2" fill-rule="evenodd" xlink:href="#path-3"></use>
                    <circle stroke="#151515" stroke-width="1.5" cx="16" cy="41" r="2.25"></circle>
                    <use stroke="#151515" stroke-width="1" xlink:href="#path-3"></use>
                </g>
            </g>
        </g>
    </g>
</svg>