<?xml version="1.0" encoding="UTF-8"?>
<svg width="86px" height="76px" viewBox="0 0 86 76" version="1.1" xmlns="http://www.w3.org/2000/svg" xmlns:xlink="http://www.w3.org/1999/xlink">
    <!-- Generator: Sketch 47.1 (45422) - http://www.bohemiancoding.com/sketch -->
    <title>electronic-healthcare</title>
    <desc>Created with Sketch.</desc>
    <defs>
        <circle id="path-1" cx="39" cy="21" r="3"></circle>
        <circle id="path-2" cx="14" cy="21" r="3"></circle>
        <circle id="path-3" cx="69" cy="20.5" r="3"></circle>
        <circle id="path-4" cx="58" cy="20.5" r="3"></circle>
    </defs>
    <g id="Version-2" stroke="none" stroke-width="1" fill="none" fill-rule="evenodd">
        <g id="full-preview-7" transform="translate(-586.000000, -50.000000)">
            <g id="electronic-healthcare" transform="translate(587.000000, 51.000000)">
                <g id="Group-7" transform="translate(57.000000, 43.400000) scale(-1, 1) translate(-57.000000, -43.400000) translate(39.000000, 20.000000)" stroke="#3F3F3F" stroke-linecap="round" stroke-linejoin="round">
                    <path d="M32.1237922,31.2260272 C32.1237922,32.0153508 32.1237922,30.2009993 32.1237922,36.9823499 C32.1237922,43.7637005 27.1773876,46.4377994 21.9241591,46.4377994 C16.6709305,46.4377994 11.6475643,43.8773769 11.6475643,36.60552 C11.6475643,31.7576154 11.6475643,27.8410788 11.6475643,24.8559102" id="Path-332"></path>
                    <circle id="Oval-26" cx="32.2048193" cy="28.0626506" r="2.92771084"></circle>
                    <path d="M8.19539954,0.542168675 C9.3506854,0.542168675 8.83436099,0.542168675 10.1474477,0.542168675 C11.4605345,0.542168675 11.9067516,1.42320413 11.9067516,2.30147253 C11.9067516,3.17974093 11.9067516,2.99732643 11.9067516,11.6109969 C11.9067516,20.2246674 4.95201425,24.9026636 0.292771084,24.9026636" id="Path-333-Copy" transform="translate(6.099761, 12.722416) scale(-1, 1) translate(-6.099761, -12.722416) "></path>
                    <path d="M0.962045785,15.9821967 C1.55242421,17.6160656 4.77830409,21.235132 11.6794018,21.235132" id="Path-334"></path>
                    <path d="M11.6565999,15.9821967 C12.2469783,17.6160656 15.763694,21.235132 22.6647917,21.235132" id="Path-334" transform="translate(17.160696, 18.608664) scale(-1, 1) translate(-17.160696, -18.608664) "></path>
                    <path d="M19.6134718,0.542168675 C20.7687577,0.542168675 20.2524333,0.542168675 21.56552,0.542168675 C22.8786068,0.542168675 23.3248239,1.42320413 23.3248239,2.30147253 C23.3248239,3.17974093 23.3248239,2.99732643 23.3248239,11.6109969 C23.3248239,20.2246674 16.3700865,24.9026636 11.7108434,24.9026636" id="Path-333"></path>
                </g>
                <rect id="Rectangle-5" stroke="#3F3F3F" stroke-linecap="round" stroke-linejoin="round" x="0" y="0" width="84" height="74" rx="3"></rect>
                <polyline id="Page-1" stroke="#3F3F3F" stroke-linecap="round" stroke-linejoin="round" points="14.5 21.1026835 20.7608696 21.1026835 22.9973023 10.7120845 27.0217391 30.4882404 30.6531395 15.9124063 32.2391304 21.1026835 38.5 21.1026835"></polyline>
                <g id="Oval-Copy-546" transform="translate(39.000000, 21.000000) rotate(-90.000000) translate(-39.000000, -21.000000) ">
                    <use fill="#C2C2C2" fill-rule="evenodd" xlink:href="#path-1"></use>
                    <circle stroke="#151515" stroke-width="1.5" cx="39" cy="21" r="2.25"></circle>
                    <use stroke="#151515" stroke-width="1" xlink:href="#path-1"></use>
                </g>
                <g id="Oval-Copy-547" transform="translate(14.000000, 21.000000) rotate(-90.000000) translate(-14.000000, -21.000000) ">
                    <use fill="#C2C2C2" fill-rule="evenodd" xlink:href="#path-2"></use>
                    <circle stroke="#151515" stroke-width="1.5" cx="14" cy="21" r="2.25"></circle>
                    <use stroke="#151515" stroke-width="1" xlink:href="#path-2"></use>
                </g>
                <g id="Oval-Copy-545" transform="translate(69.000000, 20.500000) rotate(-90.000000) translate(-69.000000, -20.500000) ">
                    <use fill="#C2C2C2" fill-rule="evenodd" xlink:href="#path-3"></use>
                    <circle stroke="#151515" stroke-width="1.5" cx="69" cy="20.5" r="2.25"></circle>
                    <use stroke="#151515" stroke-width="1" xlink:href="#path-3"></use>
                </g>
                <g id="Oval-Copy-545" transform="translate(58.000000, 20.500000) rotate(-90.000000) translate(-58.000000, -20.500000) ">
                    <use fill="#C2C2C2" fill-rule="evenodd" xlink:href="#path-4"></use>
                    <circle stroke="#151515" stroke-width="1.5" cx="58" cy="20.5" r="2.25"></circle>
                    <use stroke="#151515" stroke-width="1" xlink:href="#path-4"></use>
                </g>
            </g>
        </g>
    </g>
</svg>