<?xml version="1.0" encoding="UTF-8"?>
<svg width="93px" height="95px" viewBox="0 0 93 95" version="1.1" xmlns="http://www.w3.org/2000/svg" xmlns:xlink="http://www.w3.org/1999/xlink">
    <!-- Generator: Sketch 47.1 (45422) - http://www.bohemiancoding.com/sketch -->
    <title>experience-design</title>
    <desc>Created with Sketch.</desc>
    <defs>
        <circle id="path-1" cx="22" cy="87" r="3"></circle>
        <circle id="path-2" cx="11" cy="76" r="3"></circle>
        <circle id="path-3" cx="47" cy="51.5" r="3"></circle>
        <circle id="path-4" cx="30" cy="69" r="3"></circle>
        <circle id="path-5" cx="30" cy="48" r="3"></circle>
        <circle id="path-6" cx="51" cy="68" r="3"></circle>
    </defs>
    <g id="Version-2" stroke="none" stroke-width="1" fill="none" fill-rule="evenodd">
        <g id="full-preview-2" transform="translate(-961.000000, -1376.000000)">
            <g id="experience-design" transform="translate(961.000000, 1373.000000)">
                <polyline id="Path-45" stroke="#3F3F3F" stroke-linecap="round" stroke-linejoin="round" transform="translate(50.142398, 44.529778) rotate(4.000000) translate(-50.142398, -44.529778) " points="30.478264 50.0802752 22.4808817 44.6337239 12.5165248 37.507914 18.8050479 37.507914 7.49603116 26.8224258 27.9208253 32.9004173 22.4808817 21.2776197 27.9208253 25.4608266 23.9699291 9.52495387 39.0967474 25.4608266 39.0967474 13.4581041 42.6104476 19.4102606 46.6653996 3.32677377 51.8367339 25.4608266 58.3220759 15.6352108 58.3220759 21.2776197 69.3237649 10.4178983 63.2893316 31.4517016 74.919389 25.4608266 71.2806604 31.4517016 86.8793599 26.8224258 71.2806604 42.21624 82.3638195 43.0575599 76.4302155 46.3324963 92.7887648 49.6784165 71.2806604 55.0941611 81.1546743 61.8553721 74.919389 61.8553721 85.8734865 72.3722737 65.4801511 66.8476335 71.2806604 78.5946529 65.4801511 74.1291238 68.995236 85.7327815 52.0700566 67.584846"></polyline>
                <polygon id="Stroke-1" stroke="#3F3F3F" stroke-linecap="round" stroke-linejoin="round" points="22.2637532 87.521969 10.6231868 76 0.209312589 78.879999 18.8317133 97.435404"></polygon>
                <polygon id="Stroke-3" stroke="#3F3F3F" stroke-linecap="round" stroke-linejoin="round" points="47.7015711 51 15.053128 59.0140296 11 76.1933598 22.485427 87.6787868 39.6647572 83.6256588"></polygon>
                <path d="M30,68.9418796 L47.9120173,51 L30,68.9418796 Z" id="Stroke-5" stroke="#3F3F3F" stroke-linecap="round" stroke-linejoin="round"></path>
                <g id="Oval-Copy-196" transform="translate(22.000000, 87.000000) rotate(-90.000000) translate(-22.000000, -87.000000) ">
                    <use fill="#C2C2C2" fill-rule="evenodd" xlink:href="#path-1"></use>
                    <circle stroke="#151515" stroke-width="1.5" cx="22" cy="87" r="2.25"></circle>
                    <use stroke="#151515" stroke-width="1" xlink:href="#path-1"></use>
                </g>
                <g id="Oval-Copy-199" transform="translate(11.000000, 76.000000) rotate(-90.000000) translate(-11.000000, -76.000000) ">
                    <use fill="#C2C2C2" fill-rule="evenodd" xlink:href="#path-2"></use>
                    <circle stroke="#151515" stroke-width="1.5" cx="11" cy="76" r="2.25"></circle>
                    <use stroke="#151515" stroke-width="1" xlink:href="#path-2"></use>
                </g>
                <g id="Oval-Copy-200" transform="translate(47.000000, 51.500000) rotate(-90.000000) translate(-47.000000, -51.500000) ">
                    <use fill="#C2C2C2" fill-rule="evenodd" xlink:href="#path-3"></use>
                    <circle stroke="#151515" stroke-width="1.5" cx="47" cy="51.5" r="2.25"></circle>
                    <use stroke="#151515" stroke-width="1" xlink:href="#path-3"></use>
                </g>
                <g id="Oval-Copy-204" transform="translate(30.000000, 69.000000) rotate(-90.000000) translate(-30.000000, -69.000000) ">
                    <use fill="#C2C2C2" fill-rule="evenodd" xlink:href="#path-4"></use>
                    <circle stroke="#151515" stroke-width="1.5" cx="30" cy="69" r="2.25"></circle>
                    <use stroke="#151515" stroke-width="1" xlink:href="#path-4"></use>
                </g>
                <path d="M50.7201084,67.5917266 C58.319683,65.8952331 64,59.1109711 64,51 C64,41.6111593 56.3888407,34 47,34 C38.417293,34 31.3201063,40.3602682 30.1646379,48.6246067" id="Oval-8" stroke="#3F3F3F" stroke-linecap="round" stroke-linejoin="round"></path>
                <g id="Oval-Copy-201" transform="translate(30.000000, 48.000000) rotate(-90.000000) translate(-30.000000, -48.000000) ">
                    <use fill="#C2C2C2" fill-rule="evenodd" xlink:href="#path-5"></use>
                    <circle stroke="#151515" stroke-width="1.5" cx="30" cy="48" r="2.25"></circle>
                    <use stroke="#151515" stroke-width="1" xlink:href="#path-5"></use>
                </g>
                <g id="Oval-Copy-202" transform="translate(51.000000, 68.000000) rotate(-90.000000) translate(-51.000000, -68.000000) ">
                    <use fill="#C2C2C2" fill-rule="evenodd" xlink:href="#path-6"></use>
                    <circle stroke="#151515" stroke-width="1.5" cx="51" cy="68" r="2.25"></circle>
                    <use stroke="#151515" stroke-width="1" xlink:href="#path-6"></use>
                </g>
            </g>
        </g>
    </g>
</svg>