<?xml version="1.0" encoding="UTF-8"?>
<svg width="85px" height="82px" viewBox="0 0 85 82" version="1.1" xmlns="http://www.w3.org/2000/svg" xmlns:xlink="http://www.w3.org/1999/xlink">
    <!-- Generator: Sketch 47.1 (45422) - http://www.bohemiancoding.com/sketch -->
    <title>fertilized-egg</title>
    <desc>Created with Sketch.</desc>
    <defs>
        <circle id="path-1" cx="60" cy="32" r="3"></circle>
        <circle id="path-2" cx="21" cy="45" r="3"></circle>
        <circle id="path-3" cx="23" cy="5" r="3"></circle>
        <circle id="path-4" cx="56" cy="66" r="3"></circle>
    </defs>
    <g id="Version-2" stroke="none" stroke-width="1" fill="none" fill-rule="evenodd">
        <g id="full-preview-6" transform="translate(-397.000000, -56.000000)">
            <g id="fertilized-egg" transform="translate(398.000000, 57.000000)">
                <path d="M66.2765938,57.5641106 C55.701685,68.2678864 35.6661119,83.8178446 19.8831517,79.230698 C4.10019146,74.6435515 -2.51368243,58.6835618 0.857688039,46.7028306 C4.22905851,34.7220994 11.7515102,7.21353866 28.2829407,2.42593225 C44.8143712,-2.36167416 59.125123,0.302880032 67.7735343,7.21353866 C76.4219457,14.1241973 97.017048,26.4490496 66.2765938,57.5641106 Z" id="Path-70-Copy-5" stroke="#3F3F3F" stroke-linecap="round" stroke-linejoin="round"></path>
                <path d="M24.9897888,25.9029823 C18.8470979,33.6797373 18.8058826,46.7878082 26.0613857,53.3014365 C33.3168888,59.8150648 47.5474696,57.9636104 53.6263173,51.273807 C59.7051649,44.5840037 65.3807495,28.6959227 53.7305676,20.38741 C42.0803858,12.0788972 31.1324797,18.1262273 24.9897888,25.9029823 Z" id="Path-193-Copy" stroke="#3F3F3F" stroke-linecap="round" stroke-linejoin="round"></path>
                <g id="Oval-Copy-480" transform="translate(60.000000, 32.000000) rotate(-90.000000) translate(-60.000000, -32.000000) ">
                    <use fill="#C2C2C2" fill-rule="evenodd" xlink:href="#path-1"></use>
                    <circle stroke="#151515" stroke-width="1.5" cx="60" cy="32" r="2.25"></circle>
                    <use stroke="#151515" stroke-width="1" xlink:href="#path-1"></use>
                </g>
                <g id="Oval-Copy-481" transform="translate(21.000000, 45.000000) rotate(-90.000000) translate(-21.000000, -45.000000) ">
                    <use fill="#C2C2C2" fill-rule="evenodd" xlink:href="#path-2"></use>
                    <circle stroke="#151515" stroke-width="1.5" cx="21" cy="45" r="2.25"></circle>
                    <use stroke="#151515" stroke-width="1" xlink:href="#path-2"></use>
                </g>
                <g id="Oval-Copy-482" transform="translate(23.000000, 5.000000) rotate(-90.000000) translate(-23.000000, -5.000000) ">
                    <use fill="#C2C2C2" fill-rule="evenodd" xlink:href="#path-3"></use>
                    <circle stroke="#151515" stroke-width="1.5" cx="23" cy="5" r="2.25"></circle>
                    <use stroke="#151515" stroke-width="1" xlink:href="#path-3"></use>
                </g>
                <g id="Oval-Copy-483" transform="translate(56.000000, 66.000000) rotate(-90.000000) translate(-56.000000, -66.000000) ">
                    <use fill="#C2C2C2" fill-rule="evenodd" xlink:href="#path-4"></use>
                    <circle stroke="#151515" stroke-width="1.5" cx="56" cy="66" r="2.25"></circle>
                    <use stroke="#151515" stroke-width="1" xlink:href="#path-4"></use>
                </g>
            </g>
        </g>
    </g>
</svg>