<?xml version="1.0" encoding="UTF-8"?>
<svg width="84px" height="67px" viewBox="0 0 84 67" version="1.1" xmlns="http://www.w3.org/2000/svg" xmlns:xlink="http://www.w3.org/1999/xlink">
    <!-- Generator: Sketch 47.1 (45422) - http://www.bohemiancoding.com/sketch -->
    <title>fireplace</title>
    <desc>Created with Sketch.</desc>
    <defs>
        <circle id="path-1" cx="65" cy="49.5" r="3"></circle>
        <circle id="path-2" cx="49" cy="17.5" r="3"></circle>
        <circle id="path-3" cx="18.5" cy="49.5" r="3"></circle>
        <circle id="path-4" cx="3.5" cy="62.5" r="3"></circle>
        <circle id="path-5" cx="80.5" cy="62.5" r="3"></circle>
    </defs>
    <g id="Version-2" stroke="none" stroke-width="1" fill="none" fill-rule="evenodd">
        <g id="full-preview-8" transform="translate(-585.000000, -726.000000)">
            <g id="fireplace" transform="translate(585.000000, 727.000000)">
                <path d="M5.21978223,62.3463567 L78.8301083,62.3463567" id="Path-553" stroke="#3F3F3F" stroke-linecap="round" stroke-linejoin="round"></path>
                <path d="M10.3748094,62.2379803 L10.3748094,8.5325268" id="Path-554" stroke="#3F3F3F" stroke-linecap="round" stroke-linejoin="round"></path>
                <path d="M65,62.4041035 L65,9" id="Path-554" stroke="#3F3F3F" stroke-linecap="round" stroke-linejoin="round"></path>
                <path d="M73,62.3298232 L73,9" id="Path-554" stroke="#3F3F3F" stroke-linecap="round" stroke-linejoin="round"></path>
                <path d="M75.7252767,8.44735395 C55.1910287,8.44735395 44.573471,8.44735395 43.8726035,8.44735395 C42.8213024,8.44735395 41.589564,7.73598769 41.589564,6.30566541 C41.589564,4.87534313 41.589564,4.2037545 41.589564,2.66009581 C41.589564,1.11643712 42.7867261,0.36292879 43.886731,0.36292879 C44.6200676,0.36292879 55.2099315,0.36292879 75.6563228,0.36292879" id="Path-555" stroke="#3F3F3F" stroke-linecap="round" stroke-linejoin="round" transform="translate(58.657420, 4.405141) scale(-1, 1) translate(-58.657420, -4.405141) "></path>
                <path d="M36.2542553,27.748158 C31.3668957,30.5328833 25.1989382,40.1960295 29.5579554,48.1579743 C33.9169725,56.119919 41.2823274,55.7671795 47.1822795,53.9383017 C53.0822317,52.1094239 59.6117979,44.6831854 55.6702663,34.751188 C52.5673086,26.9322561 49.790635,25.9012598 49.3474101,16.8554078 C43.8795639,21.1841353 41.2558719,27.2619909 42.8194282,37.9572837 C39.3418765,36.0812461 36.659139,33.2033516 36.2542553,27.748158 Z" id="Path-556" stroke="#3F3F3F" stroke-linecap="round" stroke-linejoin="round"></path>
                <path d="M30.1291431,49.4648531 L18.4775957,49.4648531" id="Path-557" stroke="#3F3F3F" stroke-linecap="round" stroke-linejoin="round"></path>
                <path d="M65.1291431,49.4648531 L53.4775957,49.4648531" id="Path-557" stroke="#3F3F3F" stroke-linecap="round" stroke-linejoin="round"></path>
                <g id="Oval-Copy-493" transform="translate(65.000000, 49.500000) rotate(-90.000000) translate(-65.000000, -49.500000) ">
                    <use fill="#C2C2C2" fill-rule="evenodd" xlink:href="#path-1"></use>
                    <circle stroke="#151515" stroke-width="1.5" cx="65" cy="49.5" r="2.25"></circle>
                    <use stroke="#151515" stroke-width="1" xlink:href="#path-1"></use>
                </g>
                <g id="Oval-Copy-493" transform="translate(49.000000, 17.500000) rotate(-90.000000) translate(-49.000000, -17.500000) ">
                    <use fill="#C2C2C2" fill-rule="evenodd" xlink:href="#path-2"></use>
                    <circle stroke="#151515" stroke-width="1.5" cx="49" cy="17.5" r="2.25"></circle>
                    <use stroke="#151515" stroke-width="1" xlink:href="#path-2"></use>
                </g>
                <path d="M18.3748094,62.2379803 L18.3748094,8.5325268" id="Path-554" stroke="#3F3F3F" stroke-linecap="round" stroke-linejoin="round"></path>
                <path d="M41.7252767,8.44735395 C21.1910287,8.44735395 10.573471,8.44735395 9.87260352,8.44735395 C8.82130236,8.44735395 7.58956396,7.73598769 7.58956396,6.30566541 C7.58956396,4.87534313 7.58956396,4.2037545 7.58956396,2.66009581 C7.58956396,1.11643712 8.78672606,0.36292879 9.88673098,0.36292879 C10.6200676,0.36292879 21.2099315,0.36292879 41.6563228,0.36292879" id="Path-555" stroke="#3F3F3F" stroke-linecap="round" stroke-linejoin="round"></path>
                <g id="Oval-Copy-493" transform="translate(18.500000, 49.500000) rotate(-90.000000) translate(-18.500000, -49.500000) ">
                    <use fill="#C2C2C2" fill-rule="evenodd" xlink:href="#path-3"></use>
                    <circle stroke="#151515" stroke-width="1.5" cx="18.5" cy="49.5" r="2.25"></circle>
                    <use stroke="#151515" stroke-width="1" xlink:href="#path-3"></use>
                </g>
                <g id="Oval-Copy-493" transform="translate(3.500000, 62.500000) rotate(-90.000000) translate(-3.500000, -62.500000) ">
                    <use fill="#C2C2C2" fill-rule="evenodd" xlink:href="#path-4"></use>
                    <circle stroke="#151515" stroke-width="1.5" cx="3.5" cy="62.5" r="2.25"></circle>
                    <use stroke="#151515" stroke-width="1" xlink:href="#path-4"></use>
                </g>
                <g id="Oval-Copy-493" transform="translate(80.500000, 62.500000) rotate(-90.000000) translate(-80.500000, -62.500000) ">
                    <use fill="#C2C2C2" fill-rule="evenodd" xlink:href="#path-5"></use>
                    <circle stroke="#151515" stroke-width="1.5" cx="80.5" cy="62.5" r="2.25"></circle>
                    <use stroke="#151515" stroke-width="1" xlink:href="#path-5"></use>
                </g>
            </g>
        </g>
    </g>
</svg>