<?xml version="1.0" encoding="UTF-8"?>
<svg width="92px" height="92px" viewBox="0 0 92 92" version="1.1" xmlns="http://www.w3.org/2000/svg" xmlns:xlink="http://www.w3.org/1999/xlink">
    <!-- Generator: Sketch 47.1 (45422) - http://www.bohemiancoding.com/sketch -->
    <title>fist-entrepreneur</title>
    <desc>Created with Sketch.</desc>
    <defs>
        <circle id="path-1" cx="49.9723484" cy="42.8510281" r="3"></circle>
        <circle id="path-2" cx="72.9533188" cy="48.1543289" r="3"></circle>
        <circle id="path-3" cx="31.2340187" cy="82.8025612" r="3"></circle>
        <circle id="path-4" cx="93.8129689" cy="74.6708332" r="3"></circle>
    </defs>
    <g id="Version-2" stroke="none" stroke-width="1" fill="none" fill-rule="evenodd">
        <g id="full-preview-3" transform="translate(-961.000000, -1043.000000)">
            <g id="fist-entrepreneur" transform="translate(945.000000, 1034.000000)">
                <path d="M70.7995574,28.9280495 C66.3072777,24.1976258 61.8715738,20.1940475 57.4924455,16.9173147 C50.9237531,12.0022155 46.2440112,12.7779691 37.0008617,20.6292149 C27.7577122,28.4804606 18.7826468,34.4962254 18.7203686,46.737294 C18.6526054,60.0564711 18.7203686,65.4167052 18.7203686,75.5196917 C18.7203686,85.6226783 30.5514611,96.5192286 39.1216105,96.5192286 C47.6917599,96.5192286 76.5334658,96.5192286 83.4012599,96.5192286 C90.269054,96.5192286 91.5061177,90.3681375 91.5061177,88.4143708 C91.5061177,86.4606042 90.8006515,80.6758732 83.7676201,80.6758732 C76.7345887,80.6758732 77.0756891,80.6758732 70.938064,80.6758732 C64.800439,80.6758732 63.4038958,86.5917341 63.4038958,88.2453688 C63.4038958,89.8990035 63.9092277,96.4766272 71.4471178,96.4766272" id="Path-98" stroke="#3F3F3F" stroke-linecap="round" stroke-linejoin="round" transform="translate(55.098185, 55.178134) rotate(-45.000000) translate(-55.098185, -55.178134) "></path>
                <path d="M89.6738902,58.0098641 C94.7131568,58.0098641 100.606159,55.6014858 100.606159,49.4127792 C100.606159,43.2240726 96.7077012,40.0138559 91.2072359,40.0138559 C85.7067706,40.0138559 81.9658664,40.0138559 77.6548353,40.0138559 C73.3438041,40.0138559 69.0356151,44.3992769 69.0356151,49.0368544 C69.0356151,53.6744318 71.9076354,57.9669801 78.3695192,57.9669801" id="Path-99" stroke="#3F3F3F" stroke-linecap="round" stroke-linejoin="round" transform="translate(84.820887, 49.011860) rotate(-45.000000) translate(-84.820887, -49.011860) "></path>
                <path d="M72.6373204,38.2796923 C77.6677991,38.2796923 78.5833356,38.2796923 82.8007324,38.2796923 C87.0181292,38.2796923 90.7928006,35.552183 90.7928006,30.5781238 C90.7928006,25.6040646 87.8516001,22.2796923 82.1813559,22.2796923 C78.4011931,22.2796923 73.7526389,22.2796923 68.2356934,22.2796923" id="Path-100" stroke="#3F3F3F" stroke-linecap="round" stroke-linejoin="round" transform="translate(79.514247, 30.279692) rotate(-45.000000) translate(-79.514247, -30.279692) "></path>
                <path d="M45.3009352,33.2137784 L54.8448456,40.9793516 C54.8448456,45.7013928 54.8448456,50.0176404 54.8448456,53.9280945 C54.8448456,59.7937757 60.4927368,62.5082678 63.4250189,62.5082678" id="Path-102" stroke="#3F3F3F" stroke-linecap="round" stroke-linejoin="round" transform="translate(54.362977, 47.861023) rotate(-45.000000) translate(-54.362977, -47.861023) "></path>
                <path d="M58.2891931,17.9575415 L65.7715515,25.6308317 C65.7715515,34.0517403 65.7715515,40.467621 65.7715515,44.8784737 C65.7715515,48.1968889 64.3533068,50.3041586 62.7067549,51.5804248" id="Path-104" stroke="#3F3F3F" stroke-linecap="round" stroke-linejoin="round" transform="translate(62.030372, 34.768983) rotate(-45.000000) translate(-62.030372, -34.768983) "></path>
                <path d="M71.4081043,30.5350001 C76.1397327,29.3092162 77.2335731,24.8708342 77.2335731,22.3210243 C77.2335731,19.3421024 75.5582592,13.2514761 68.1640249,13.2514761 C63.4847593,13.2514761 57.7252616,13.2514761 50.8855315,13.2514761" id="Path-101" stroke="#3F3F3F" stroke-linecap="round" stroke-linejoin="round" transform="translate(64.059552, 21.893238) rotate(-45.000000) translate(-64.059552, -21.893238) "></path>
                <path d="M33.5535448,70.0176163 C40.9751809,70.0176163 55.3147172,67.6005313 61.7955527,51.7587831" id="Path-103" stroke="#3F3F3F" stroke-linecap="round" stroke-linejoin="round" transform="translate(47.674549, 60.888200) rotate(-45.000000) translate(-47.674549, -60.888200) "></path>
                <g id="Oval-Copy-453" transform="translate(49.972348, 42.851028) rotate(-405.000000) translate(-49.972348, -42.851028) ">
                    <use fill="#C2C2C2" fill-rule="evenodd" xlink:href="#path-1"></use>
                    <circle stroke="#151515" stroke-width="1.5" cx="49.9723484" cy="42.8510281" r="2.25"></circle>
                    <use stroke="#151515" stroke-width="1" xlink:href="#path-1"></use>
                </g>
                <g id="Oval-Copy-454" transform="translate(72.953319, 48.154329) rotate(-405.000000) translate(-72.953319, -48.154329) ">
                    <use fill="#C2C2C2" fill-rule="evenodd" xlink:href="#path-2"></use>
                    <circle stroke="#151515" stroke-width="1.5" cx="72.9533188" cy="48.1543289" r="2.25"></circle>
                    <use stroke="#151515" stroke-width="1" xlink:href="#path-2"></use>
                </g>
                <g id="Oval-Copy-456" transform="translate(31.234019, 82.802561) rotate(-405.000000) translate(-31.234019, -82.802561) ">
                    <use fill="#C2C2C2" fill-rule="evenodd" xlink:href="#path-3"></use>
                    <circle stroke="#151515" stroke-width="1.5" cx="31.2340187" cy="82.8025612" r="2.25"></circle>
                    <use stroke="#151515" stroke-width="1" xlink:href="#path-3"></use>
                </g>
                <g id="Oval-Copy-455" transform="translate(93.812969, 74.670833) rotate(-405.000000) translate(-93.812969, -74.670833) ">
                    <use fill="#C2C2C2" fill-rule="evenodd" xlink:href="#path-4"></use>
                    <circle stroke="#151515" stroke-width="1.5" cx="93.8129689" cy="74.6708332" r="2.25"></circle>
                    <use stroke="#151515" stroke-width="1" xlink:href="#path-4"></use>
                </g>
            </g>
        </g>
    </g>
</svg>