<?xml version="1.0" encoding="UTF-8"?>
<svg width="82px" height="74px" viewBox="0 0 82 74" version="1.1" xmlns="http://www.w3.org/2000/svg" xmlns:xlink="http://www.w3.org/1999/xlink">
    <!-- Generator: Sketch 47.1 (45422) - http://www.bohemiancoding.com/sketch -->
    <title>garage-with-car</title>
    <desc>Created with Sketch.</desc>
    <defs>
        <circle id="path-1" cx="28" cy="56" r="3"></circle>
        <circle id="path-2" cx="53" cy="56" r="3"></circle>
        <circle id="path-3" cx="9" cy="12" r="3"></circle>
        <circle id="path-4" cx="71" cy="12" r="3"></circle>
        <circle id="path-5" cx="77" cy="69" r="3"></circle>
        <circle id="path-6" cx="3" cy="69" r="3"></circle>
    </defs>
    <g id="Version-2" stroke="none" stroke-width="1" fill="none" fill-rule="evenodd">
        <g id="full-preview-7" transform="translate(-966.000000, -884.000000)">
            <g id="garage-with-car" transform="translate(967.000000, 885.000000)">
                <rect id="Rectangle-10" stroke="#3F3F3F" stroke-linecap="round" stroke-linejoin="round" x="3" y="0" width="74" height="12"></rect>
                <path d="M77,69 L3,69" id="Rectangle-10" stroke="#3F3F3F" stroke-linecap="round" stroke-linejoin="round"></path>
                <path d="M70.8177317,12.1673269 L70.8177317,68.8888429" id="Path-418" stroke="#3F3F3F" stroke-linecap="round" stroke-linejoin="round"></path>
                <path d="M9,12.27044 L9,68.8888429" id="Path-418" stroke="#3F3F3F" stroke-linecap="round" stroke-linejoin="round"></path>
                <path d="M15.5,18.4378719 L15.5,68.8888429" id="Path-418" stroke="#3F3F3F" stroke-linecap="round" stroke-linejoin="round"></path>
                <path d="M15.5362047,18 L64.4662248,18" id="Path-418" stroke="#3F3F3F" stroke-linecap="round" stroke-linejoin="round"></path>
                <path d="M15.5362047,25 L64.4662248,25" id="Path-418" stroke="#3F3F3F" stroke-linecap="round" stroke-linejoin="round"></path>
                <path d="M64.5,18.4378719 L64.5,68.8888429" id="Path-418" stroke="#3F3F3F" stroke-linecap="round" stroke-linejoin="round"></path>
                <path d="M40.7515527,63.1487256 L22.2264802,63.1487256 C22.2264802,57.5316474 22.2264802,54.1881205 22.2264802,53.1181448 C22.2264802,51.5131814 22.7763001,50.1100563 25.2345687,50.1100563 C26.8734144,50.1100563 32.0565721,50.1100563 40.7840419,50.1100563" id="Path-419" stroke="#3F3F3F" stroke-linecap="round" stroke-linejoin="round"></path>
                <path d="M58.834886,63.1487256 L40.3098135,63.1487256 C40.3098135,57.5316474 40.3098135,54.1881205 40.3098135,53.1181448 C40.3098135,51.5131814 40.8596335,50.1100563 43.317902,50.1100563 C44.9567477,50.1100563 50.1399054,50.1100563 58.8673753,50.1100563" id="Path-419" stroke="#3F3F3F" stroke-linecap="round" stroke-linejoin="round" transform="translate(49.588594, 56.629391) scale(-1, 1) translate(-49.588594, -56.629391) "></path>
                <polyline id="Path-420" stroke="#3F3F3F" stroke-linecap="round" stroke-linejoin="round" points="36.0102553 63.1080918 36.0102553 57.5725076 45.3042454 57.5725076 45.3042454 63.1548307"></polyline>
                <polyline id="Path-421" stroke="#3F3F3F" stroke-linecap="round" stroke-linejoin="round" points="25.1746604 50.0485799 29.7508702 38.2770689 40.7714822 38.2770689"></polyline>
                <polyline id="Path-421" stroke="#3F3F3F" stroke-linecap="round" stroke-linejoin="round" transform="translate(48.473071, 44.162824) scale(-1, 1) translate(-48.473071, -44.162824) " points="40.6746604 50.0485799 45.2508702 38.2770689 56.2714822 38.2770689"></polyline>
                <path d="M26.6269532,63.2021212 C26.6269532,64.6652451 26.6269532,65.7290088 26.6269532,66.3934124 C26.6269532,67.3900177 27.2616102,68.3653105 28.5988514,68.3653105 C28.9994381,68.3653105 29.3915368,68.3653105 29.7751469,68.3653105" id="Path-422" stroke="#3F3F3F" stroke-linecap="round" stroke-linejoin="round"></path>
                <path d="M29.2102865,63.2021212 C29.2102865,64.6652451 29.2102865,65.7290088 29.2102865,66.3934124 C29.2102865,67.3900177 29.8449435,68.3653105 31.1821847,68.3653105 C31.5827714,68.3653105 31.9748702,68.3653105 32.3584802,68.3653105" id="Path-422" stroke="#3F3F3F" stroke-linecap="round" stroke-linejoin="round" transform="translate(30.784383, 65.783716) scale(-1, 1) translate(-30.784383, -65.783716) "></path>
                <path d="M48.5852865,63.2021212 C48.5852865,64.6652451 48.5852865,65.7290088 48.5852865,66.3934124 C48.5852865,67.3900177 49.2199435,68.3653105 50.5571847,68.3653105 C50.9577714,68.3653105 51.3498702,68.3653105 51.7334802,68.3653105" id="Path-422" stroke="#3F3F3F" stroke-linecap="round" stroke-linejoin="round"></path>
                <path d="M51.1686198,63.2021212 C51.1686198,64.6652451 51.1686198,65.7290088 51.1686198,66.3934124 C51.1686198,67.3900177 51.8032768,68.3653105 53.140518,68.3653105 C53.5411048,68.3653105 53.9332035,68.3653105 54.3168136,68.3653105" id="Path-422" stroke="#3F3F3F" stroke-linecap="round" stroke-linejoin="round" transform="translate(52.742717, 65.783716) scale(-1, 1) translate(-52.742717, -65.783716) "></path>
                <g id="Oval-Copy-583" transform="translate(28.000000, 56.000000) rotate(-90.000000) translate(-28.000000, -56.000000) ">
                    <use fill="#C2C2C2" fill-rule="evenodd" xlink:href="#path-1"></use>
                    <circle stroke="#151515" stroke-width="1.5" cx="28" cy="56" r="2.25"></circle>
                    <use stroke="#151515" stroke-width="1" xlink:href="#path-1"></use>
                </g>
                <g id="Oval-Copy-583" transform="translate(53.000000, 56.000000) rotate(-90.000000) translate(-53.000000, -56.000000) ">
                    <use fill="#C2C2C2" fill-rule="evenodd" xlink:href="#path-2"></use>
                    <circle stroke="#151515" stroke-width="1.5" cx="53" cy="56" r="2.25"></circle>
                    <use stroke="#151515" stroke-width="1" xlink:href="#path-2"></use>
                </g>
                <g id="Oval-Copy-583" transform="translate(9.000000, 12.000000) rotate(-90.000000) translate(-9.000000, -12.000000) ">
                    <use fill="#C2C2C2" fill-rule="evenodd" xlink:href="#path-3"></use>
                    <circle stroke="#151515" stroke-width="1.5" cx="9" cy="12" r="2.25"></circle>
                    <use stroke="#151515" stroke-width="1" xlink:href="#path-3"></use>
                </g>
                <g id="Oval-Copy-583" transform="translate(71.000000, 12.000000) rotate(-90.000000) translate(-71.000000, -12.000000) ">
                    <use fill="#C2C2C2" fill-rule="evenodd" xlink:href="#path-4"></use>
                    <circle stroke="#151515" stroke-width="1.5" cx="71" cy="12" r="2.25"></circle>
                    <use stroke="#151515" stroke-width="1" xlink:href="#path-4"></use>
                </g>
                <g id="Oval-Copy-583" transform="translate(77.000000, 69.000000) rotate(-90.000000) translate(-77.000000, -69.000000) ">
                    <use fill="#C2C2C2" fill-rule="evenodd" xlink:href="#path-5"></use>
                    <circle stroke="#151515" stroke-width="1.5" cx="77" cy="69" r="2.25"></circle>
                    <use stroke="#151515" stroke-width="1" xlink:href="#path-5"></use>
                </g>
                <g id="Oval-Copy-583" transform="translate(3.000000, 69.000000) rotate(-90.000000) translate(-3.000000, -69.000000) ">
                    <use fill="#C2C2C2" fill-rule="evenodd" xlink:href="#path-6"></use>
                    <circle stroke="#151515" stroke-width="1.5" cx="3" cy="69" r="2.25"></circle>
                    <use stroke="#151515" stroke-width="1" xlink:href="#path-6"></use>
                </g>
            </g>
        </g>
    </g>
</svg>