<?xml version="1.0" encoding="UTF-8"?>
<svg width="75px" height="91px" viewBox="0 0 75 91" version="1.1" xmlns="http://www.w3.org/2000/svg" xmlns:xlink="http://www.w3.org/1999/xlink">
    <!-- Generator: Sketch 47.1 (45422) - http://www.bohemiancoding.com/sketch -->
    <title>grape-vine-fruit</title>
    <desc>Created with Sketch.</desc>
    <defs>
        <circle id="path-1" cx="52" cy="50" r="3"></circle>
        <circle id="path-2" cx="20" cy="50" r="3"></circle>
        <circle id="path-3" cx="36" cy="86" r="3"></circle>
        <circle id="path-4" cx="36.5" cy="3" r="3"></circle>
        <circle id="path-5" cx="70" cy="11" r="3"></circle>
        <circle id="path-6" cx="3" cy="11" r="3"></circle>
    </defs>
    <g id="Version-2" stroke="none" stroke-width="1" fill="none" fill-rule="evenodd">
        <g id="full-preview-5" transform="translate(-968.000000, -375.000000)">
            <g id="grape-vine-fruit" transform="translate(969.000000, 376.000000)">
                <circle id="Oval-18" stroke="#3F3F3F" stroke-linecap="round" stroke-linejoin="round" cx="57.5" cy="40.5" r="9.5"></circle>
                <circle id="Oval-18-Copy-3" stroke="#3F3F3F" stroke-linecap="round" stroke-linejoin="round" cx="46.5" cy="58.5" r="9.5"></circle>
                <circle id="Oval-18-Copy-4" stroke="#3F3F3F" stroke-linecap="round" stroke-linejoin="round" cx="25.5" cy="58.5" r="9.5"></circle>
                <circle id="Oval-18-Copy" stroke="#3F3F3F" stroke-linecap="round" stroke-linejoin="round" cx="36.5" cy="40.5" r="9.5"></circle>
                <circle id="Oval-18-Copy-5" stroke="#3F3F3F" stroke-linecap="round" stroke-linejoin="round" cx="36.5" cy="76.5" r="9.5"></circle>
                <path d="M36.5,24.5217391 L36.5,3.39148327" id="Line-6" stroke="#3F3F3F" stroke-linecap="round" stroke-linejoin="round"></path>
                <circle id="Oval-18-Copy-2" stroke="#3F3F3F" stroke-linecap="round" stroke-linejoin="round" cx="15.5" cy="40.5" r="9.5"></circle>
                <path d="M44,26.304921 C45.4527902,20.3218823 48.6315904,15.8730621 53.5364004,12.9584606 C58.4412105,10.043859 63.929077,9.28280201 70,10.6752896 C68.358491,16.7643584 65.1749964,21.2435166 60.4495161,24.1127643 C55.7240358,26.982012 50.2408638,27.7127309 44,26.304921 Z" id="Path-69" stroke="#3F3F3F" stroke-linecap="round" stroke-linejoin="round"></path>
                <path d="M3,26.304921 C4.45279022,20.3218823 7.63159035,15.8730621 12.5364004,12.9584606 C17.4412105,10.043859 22.929077,9.28280201 29,10.6752896 C27.358491,16.7643584 24.1749964,21.2435166 19.4495161,24.1127643 C14.7240358,26.982012 9.24086379,27.7127309 3,26.304921 Z" id="Path-69-Copy" stroke="#3F3F3F" stroke-linecap="round" stroke-linejoin="round" transform="translate(16.000000, 18.500000) scale(-1, 1) translate(-16.000000, -18.500000) "></path>
                <g id="Oval-Copy-200" transform="translate(52.000000, 50.000000) rotate(-90.000000) translate(-52.000000, -50.000000) ">
                    <use fill="#C2C2C2" fill-rule="evenodd" xlink:href="#path-1"></use>
                    <circle stroke="#151515" stroke-width="1.5" cx="52" cy="50" r="2.25"></circle>
                    <use stroke="#151515" stroke-width="1" xlink:href="#path-1"></use>
                </g>
                <g id="Oval-Copy-201" transform="translate(20.000000, 50.000000) rotate(-90.000000) translate(-20.000000, -50.000000) ">
                    <use fill="#C2C2C2" fill-rule="evenodd" xlink:href="#path-2"></use>
                    <circle stroke="#151515" stroke-width="1.5" cx="20" cy="50" r="2.25"></circle>
                    <use stroke="#151515" stroke-width="1" xlink:href="#path-2"></use>
                </g>
                <g id="Oval-Copy-199" transform="translate(36.000000, 86.000000) rotate(-90.000000) translate(-36.000000, -86.000000) ">
                    <use fill="#C2C2C2" fill-rule="evenodd" xlink:href="#path-3"></use>
                    <circle stroke="#151515" stroke-width="1.5" cx="36" cy="86" r="2.25"></circle>
                    <use stroke="#151515" stroke-width="1" xlink:href="#path-3"></use>
                </g>
                <g id="Oval-Copy-195" transform="translate(36.500000, 3.000000) rotate(-90.000000) translate(-36.500000, -3.000000) ">
                    <use fill="#C2C2C2" fill-rule="evenodd" xlink:href="#path-4"></use>
                    <circle stroke="#151515" stroke-width="1.5" cx="36.5" cy="3" r="2.25"></circle>
                    <use stroke="#151515" stroke-width="1" xlink:href="#path-4"></use>
                </g>
                <g id="Oval-Copy-196" transform="translate(70.000000, 11.000000) rotate(-90.000000) translate(-70.000000, -11.000000) ">
                    <use fill="#C2C2C2" fill-rule="evenodd" xlink:href="#path-5"></use>
                    <circle stroke="#151515" stroke-width="1.5" cx="70" cy="11" r="2.25"></circle>
                    <use stroke="#151515" stroke-width="1" xlink:href="#path-5"></use>
                </g>
                <g id="Oval-Copy-197" transform="translate(3.000000, 11.000000) rotate(-90.000000) translate(-3.000000, -11.000000) ">
                    <use fill="#C2C2C2" fill-rule="evenodd" xlink:href="#path-6"></use>
                    <circle stroke="#151515" stroke-width="1.5" cx="3" cy="11" r="2.25"></circle>
                    <use stroke="#151515" stroke-width="1" xlink:href="#path-6"></use>
                </g>
            </g>
        </g>
    </g>
</svg>