<?xml version="1.0" encoding="UTF-8"?>
<svg width="88px" height="82px" viewBox="0 0 88 82" version="1.1" xmlns="http://www.w3.org/2000/svg" xmlns:xlink="http://www.w3.org/1999/xlink">
    <!-- Generator: Sketch 47.1 (45422) - http://www.bohemiancoding.com/sketch -->
    <title>growth-presentation</title>
    <desc>Created with Sketch.</desc>
    <defs>
        <circle id="path-1" cx="8" cy="58" r="3"></circle>
        <circle id="path-2" cx="43" cy="75" r="3"></circle>
        <circle id="path-3" cx="8" cy="3" r="3"></circle>
        <circle id="path-4" cx="79" cy="58" r="3"></circle>
        <circle id="path-5" cx="79" cy="3" r="3"></circle>
        <circle id="path-6" cx="22" cy="37" r="3"></circle>
        <circle id="path-7" cx="67" cy="21" r="3"></circle>
    </defs>
    <g id="Version-2" stroke="none" stroke-width="1" fill="none" fill-rule="evenodd">
        <g id="full-preview-1" transform="translate(-390.000000, -1799.000000)">
            <g id="growth-presentation" transform="translate(391.000000, 1800.000000)">
                <g id="Group-3" transform="translate(0.000000, 3.000000)" stroke="#3F3F3F" stroke-linecap="round" stroke-linejoin="round">
                    <path d="M0,55 L86,55" id="Stroke-3"></path>
                    <path d="M0,0 L86,0" id="Stroke-3-Copy"></path>
                    <polygon id="Stroke-5" points="8 55 79 55 79 0 8 0"></polygon>
                    <path d="M43,55 L43,67" id="Stroke-6"></path>
                    <path d="M48,72 C48,74.7633333 45.76,77 43,77 C40.24,77 38,74.7633333 38,72 C38,69.24 40.24,67 43,67 C45.76,67 48,69.24 48,72 Z" id="Stroke-7"></path>
                </g>
                <g id="Oval-Copy-153" transform="translate(8.000000, 58.000000) rotate(-90.000000) translate(-8.000000, -58.000000) ">
                    <use fill="#C2C2C2" fill-rule="evenodd" xlink:href="#path-1"></use>
                    <circle stroke="#151515" stroke-width="1.5" cx="8" cy="58" r="2.25"></circle>
                    <use stroke="#151515" stroke-width="1" xlink:href="#path-1"></use>
                </g>
                <g id="Oval-Copy-160" transform="translate(43.000000, 75.000000) rotate(-90.000000) translate(-43.000000, -75.000000) ">
                    <use fill="#C2C2C2" fill-rule="evenodd" xlink:href="#path-2"></use>
                    <circle stroke="#151515" stroke-width="1.5" cx="43" cy="75" r="2.25"></circle>
                    <use stroke="#151515" stroke-width="1" xlink:href="#path-2"></use>
                </g>
                <g id="Oval-Copy-154" transform="translate(8.000000, 3.000000) rotate(-90.000000) translate(-8.000000, -3.000000) ">
                    <use fill="#C2C2C2" fill-rule="evenodd" xlink:href="#path-3"></use>
                    <circle stroke="#151515" stroke-width="1.5" cx="8" cy="3" r="2.25"></circle>
                    <use stroke="#151515" stroke-width="1" xlink:href="#path-3"></use>
                </g>
                <g id="Oval-Copy-155" transform="translate(79.000000, 58.000000) rotate(-90.000000) translate(-79.000000, -58.000000) ">
                    <use fill="#C2C2C2" fill-rule="evenodd" xlink:href="#path-4"></use>
                    <circle stroke="#151515" stroke-width="1.5" cx="79" cy="58" r="2.25"></circle>
                    <use stroke="#151515" stroke-width="1" xlink:href="#path-4"></use>
                </g>
                <g id="Oval-Copy-156" transform="translate(79.000000, 3.000000) rotate(-90.000000) translate(-79.000000, -3.000000) ">
                    <use fill="#C2C2C2" fill-rule="evenodd" xlink:href="#path-5"></use>
                    <circle stroke="#151515" stroke-width="1.5" cx="79" cy="3" r="2.25"></circle>
                    <use stroke="#151515" stroke-width="1" xlink:href="#path-5"></use>
                </g>
                <polyline id="Path-5" stroke="#3F3F3F" stroke-linecap="round" stroke-linejoin="round" points="22.5 36.1745278 31.4379575 26.9741879 40.6368632 34.5742181 50.2108054 29.3869913 59.1726532 38.8896238 66.5 22"></polyline>
                <g id="Oval-Copy-194" transform="translate(22.000000, 37.000000) rotate(-90.000000) translate(-22.000000, -37.000000) ">
                    <use fill="#C2C2C2" fill-rule="evenodd" xlink:href="#path-6"></use>
                    <circle stroke="#151515" stroke-width="1.5" cx="22" cy="37" r="2.25"></circle>
                    <use stroke="#151515" stroke-width="1" xlink:href="#path-6"></use>
                </g>
                <g id="Oval-Copy-205" transform="translate(67.000000, 21.000000) rotate(-90.000000) translate(-67.000000, -21.000000) ">
                    <use fill="#C2C2C2" fill-rule="evenodd" xlink:href="#path-7"></use>
                    <circle stroke="#151515" stroke-width="1.5" cx="67" cy="21" r="2.25"></circle>
                    <use stroke="#151515" stroke-width="1" xlink:href="#path-7"></use>
                </g>
            </g>
        </g>
    </g>
</svg>