<?xml version="1.0" encoding="UTF-8"?>
<svg width="71px" height="88px" viewBox="0 0 71 88" version="1.1" xmlns="http://www.w3.org/2000/svg" xmlns:xlink="http://www.w3.org/1999/xlink">
    <!-- Generator: Sketch 47.1 (45422) - http://www.bohemiancoding.com/sketch -->
    <title>hand-limb</title>
    <desc>Created with Sketch.</desc>
    <defs>
        <circle id="path-1" cx="40" cy="83" r="3"></circle>
        <circle id="path-2" cx="64" cy="49" r="3"></circle>
        <circle id="path-3" cx="25" cy="6" r="3"></circle>
        <circle id="path-4" cx="14" cy="46" r="3"></circle>
    </defs>
    <g id="Version-2" stroke="none" stroke-width="1" fill="none" fill-rule="evenodd">
        <g id="full-preview-6" transform="translate(-968.000000, -553.000000)">
            <g id="hand-limb" transform="translate(969.000000, 554.000000)">
                <path d="M1.43174088,46.157151 C6.24682152,51.0945258 15.1138459,62.7544433 19.429483,70.1575521 C23.7451202,77.5606609 30.3627148,83.1317561 41.2729184,83.1317561 C52.183122,83.1317561 59.6433746,77.7440328 61.3687766,70.1575521 C63.0941786,62.5710714 64.171061,41.2027674 68.2313015,26.7462051 C69.7633509,21.2913147 66.5572322,20.4215345 65.6293195,20.3906286 C64.7014069,20.3597228 62.6317409,21.0521803 61.0002958,27.4187946 C59.3688507,33.7854088 57.0264431,41.532468 56.292796,41.6170913 C55.5591489,41.7017146 55.2633077,41.661224 56.292796,28.7683336 C57.0132443,19.7457336 57.3229925,15.9107457 57.6548629,12.3197751 C57.9867333,8.72880446 55.6467156,6.84060148 53.5767565,6.84060148 C51.5067975,6.84060148 49.8047657,8.00398765 49.4375743,12.2910767 C49.0703828,16.5781658 46.1291718,36.2769943 46.1063603,38.1813861 C46.0835488,40.0857778 45.3977323,40.0048338 44.746501,39.7046051 C44.0952696,39.4043764 43.9451553,37.1430952 44.0952696,35.5558567 C44.245384,33.9686183 43.8511449,13.1194515 44.245384,5.55874271 C44.4980248,0.713601991 40.792069,-0.0292144395 39.4383036,0.00661509491 C38.0845382,0.0424446293 35.0826142,0.634528099 35.0356714,5.2491778 C34.9887286,9.8638275 34.5917126,32.4094424 34.2947338,35.2761745 C33.997755,38.1429067 33.8352485,38.1813861 32.9514871,38.1813861 C32.0677257,38.1813861 31.8923081,36.9010624 31.7537919,35.6193254 C31.6152757,34.3375885 30.4897535,14.8437423 29.9057848,10.0658523 C29.3218161,5.28796235 25.4515333,5.09298606 24.0822312,5.55874271 C22.7129292,6.02449937 20.5596951,6.87445079 21.0078306,12.7988164 C21.4559661,18.7231821 22.1351599,42.2518072 22.1910848,46.157151 C22.2470098,50.0624949 20.0968426,50.4186486 18.2785458,49.2898476 C16.460249,48.1610465 12.7732181,45.0680392 10.4454797,42.9712037 C7.62572269,40.4311559 3.13165362,40.269503 1.43174088,41.5658781 C-0.863391983,43.3161756 -0.0480525365,44.6397736 1.43174088,46.157151 Z" id="Path-211" stroke="#3F3F3F" stroke-linecap="round" stroke-linejoin="round"></path>
                <g id="Oval-Copy-532" transform="translate(40.000000, 83.000000) rotate(-90.000000) translate(-40.000000, -83.000000) ">
                    <use fill="#C2C2C2" fill-rule="evenodd" xlink:href="#path-1"></use>
                    <circle stroke="#151515" stroke-width="1.5" cx="40" cy="83" r="2.25"></circle>
                    <use stroke="#151515" stroke-width="1" xlink:href="#path-1"></use>
                </g>
                <g id="Oval-Copy-533" transform="translate(64.000000, 49.000000) rotate(-90.000000) translate(-64.000000, -49.000000) ">
                    <use fill="#C2C2C2" fill-rule="evenodd" xlink:href="#path-2"></use>
                    <circle stroke="#151515" stroke-width="1.5" cx="64" cy="49" r="2.25"></circle>
                    <use stroke="#151515" stroke-width="1" xlink:href="#path-2"></use>
                </g>
                <g id="Oval-Copy-534" transform="translate(25.000000, 6.000000) rotate(-90.000000) translate(-25.000000, -6.000000) ">
                    <use fill="#C2C2C2" fill-rule="evenodd" xlink:href="#path-3"></use>
                    <circle stroke="#151515" stroke-width="1.5" cx="25" cy="6" r="2.25"></circle>
                    <use stroke="#151515" stroke-width="1" xlink:href="#path-3"></use>
                </g>
                <g id="Oval-Copy-535" transform="translate(14.000000, 46.000000) rotate(-90.000000) translate(-14.000000, -46.000000) ">
                    <use fill="#C2C2C2" fill-rule="evenodd" xlink:href="#path-4"></use>
                    <circle stroke="#151515" stroke-width="1.5" cx="14" cy="46" r="2.25"></circle>
                    <use stroke="#151515" stroke-width="1" xlink:href="#path-4"></use>
                </g>
            </g>
        </g>
    </g>
</svg>