<?xml version="1.0" encoding="UTF-8"?>
<svg width="78px" height="96px" viewBox="0 0 78 96" version="1.1" xmlns="http://www.w3.org/2000/svg" xmlns:xlink="http://www.w3.org/1999/xlink">
    <!-- Generator: Sketch 47.1 (45422) - http://www.bohemiancoding.com/sketch -->
    <title>hazelnut</title>
    <desc>Created with Sketch.</desc>
    <defs>
        <circle id="path-1" cx="38" cy="3" r="3"></circle>
        <circle id="path-2" cx="26" cy="25" r="3"></circle>
        <circle id="path-3" cx="51" cy="25" r="3"></circle>
        <circle id="path-4" cx="73" cy="41" r="3"></circle>
        <circle id="path-5" cx="3" cy="41" r="3"></circle>
        <circle id="path-6" cx="38" cy="91" r="3"></circle>
    </defs>
    <g id="Version-2" stroke="none" stroke-width="1" fill="none" fill-rule="evenodd">
        <g id="full-preview-5" transform="translate(-399.000000, -706.000000)">
            <g id="hazelnut" transform="translate(400.000000, 707.000000)">
                <path d="M38,91 C39.0872397,91 62.2881327,79.822446 69.6415025,60.5584562 C71.8753839,54.7062455 72.5223781,48.1867601 71.582485,41" id="Path-76" stroke="#3F3F3F" stroke-linecap="round" stroke-linejoin="round"></path>
                <path d="M4,91 C5.08723974,91 28.2881327,79.822446 35.6415025,60.5584562 C37.8753839,54.7062455 38.5223781,48.1867601 37.582485,41" id="Path-76-Copy" stroke="#3F3F3F" stroke-linecap="round" stroke-linejoin="round" transform="translate(21.000000, 66.000000) scale(-1, 1) translate(-21.000000, -66.000000) "></path>
                <path d="M1.14560964,3.00028638 C3.80426455,2.98004115 21.0138352,3.99492824 30.9608864,18.3309355 C36.1378285,25.7921094 38.4592197,33.3479258 37.92506,40.9983848 C30.3139658,41.0563081 20.7252391,39.6267054 13.2298321,25.2292643 C12.4248981,29.3007817 8.34828736,34.5571552 1,40.9983848" id="Path-77-Copy" stroke="#3F3F3F" stroke-linecap="round" stroke-linejoin="round" transform="translate(19.500000, 22.000000) scale(-1, 1) translate(-19.500000, -22.000000) "></path>
                <path d="M38.1456096,3.00028638 C40.8042646,2.98004115 58.0138352,3.99492824 67.9608864,18.3309355 C73.1378285,25.7921094 75.4592197,33.3479258 74.92506,40.9983848 C67.3139658,41.0563081 57.7252391,39.6267054 50.2298321,25.2292643 C49.4248981,29.3007817 45.3482874,34.5571552 38,40.9983848" id="Path-77" stroke="#3F3F3F" stroke-linecap="round" stroke-linejoin="round"></path>
                <g id="Oval-Copy-430" transform="translate(38.000000, 3.000000) rotate(-90.000000) translate(-38.000000, -3.000000) ">
                    <use fill="#C2C2C2" fill-rule="evenodd" xlink:href="#path-1"></use>
                    <circle stroke="#151515" stroke-width="1.5" cx="38" cy="3" r="2.25"></circle>
                    <use stroke="#151515" stroke-width="1" xlink:href="#path-1"></use>
                </g>
                <g id="Oval-Copy-431" transform="translate(26.000000, 25.000000) rotate(-90.000000) translate(-26.000000, -25.000000) ">
                    <use fill="#C2C2C2" fill-rule="evenodd" xlink:href="#path-2"></use>
                    <circle stroke="#151515" stroke-width="1.5" cx="26" cy="25" r="2.25"></circle>
                    <use stroke="#151515" stroke-width="1" xlink:href="#path-2"></use>
                </g>
                <g id="Oval-Copy-446" transform="translate(51.000000, 25.000000) rotate(-90.000000) translate(-51.000000, -25.000000) ">
                    <use fill="#C2C2C2" fill-rule="evenodd" xlink:href="#path-3"></use>
                    <circle stroke="#151515" stroke-width="1.5" cx="51" cy="25" r="2.25"></circle>
                    <use stroke="#151515" stroke-width="1" xlink:href="#path-3"></use>
                </g>
                <g id="Oval-Copy-438" transform="translate(73.000000, 41.000000) rotate(-90.000000) translate(-73.000000, -41.000000) ">
                    <use fill="#C2C2C2" fill-rule="evenodd" xlink:href="#path-4"></use>
                    <circle stroke="#151515" stroke-width="1.5" cx="73" cy="41" r="2.25"></circle>
                    <use stroke="#151515" stroke-width="1" xlink:href="#path-4"></use>
                </g>
                <g id="Oval-Copy-445" transform="translate(3.000000, 41.000000) rotate(-90.000000) translate(-3.000000, -41.000000) ">
                    <use fill="#C2C2C2" fill-rule="evenodd" xlink:href="#path-5"></use>
                    <circle stroke="#151515" stroke-width="1.5" cx="3" cy="41" r="2.25"></circle>
                    <use stroke="#151515" stroke-width="1" xlink:href="#path-5"></use>
                </g>
                <g id="Oval-Copy-437" transform="translate(38.000000, 91.000000) rotate(-90.000000) translate(-38.000000, -91.000000) ">
                    <use fill="#C2C2C2" fill-rule="evenodd" xlink:href="#path-6"></use>
                    <circle stroke="#151515" stroke-width="1.5" cx="38" cy="91" r="2.25"></circle>
                    <use stroke="#151515" stroke-width="1" xlink:href="#path-6"></use>
                </g>
            </g>
        </g>
    </g>
</svg>