<?xml version="1.0" encoding="UTF-8"?>
<svg width="72px" height="79px" viewBox="0 0 72 79" version="1.1" xmlns="http://www.w3.org/2000/svg" xmlns:xlink="http://www.w3.org/1999/xlink">
    <!-- Generator: Sketch 47.1 (45422) - http://www.bohemiancoding.com/sketch -->
    <title>heart</title>
    <desc>Created with Sketch.</desc>
    <defs>
        <circle id="path-1" cx="51" cy="24" r="3"></circle>
        <circle id="path-2" cx="3" cy="49" r="3"></circle>
        <circle id="path-3" cx="21" cy="38" r="3"></circle>
        <circle id="path-4" cx="67" cy="62" r="3"></circle>
        <circle id="path-5" cx="21.5" cy="13" r="3"></circle>
    </defs>
    <g id="Version-2" stroke="none" stroke-width="1" fill="none" fill-rule="evenodd">
        <g id="full-preview-6" transform="translate(-593.000000, -558.000000)">
            <g id="heart" transform="translate(594.000000, 559.000000)">
                <path d="M9.87010538,21.8283211 C8.14490115,26.2245881 -0.546768938,33.2723649 1.52910378,44.6214859 C6.63562724,72.5396488 39.3463789,76.3402637 46.6232263,76.6842826 C53.9000737,77.0283015 68.3453067,78.1305183 67.1111131,60.2428656 C65.8769194,42.3552128 59.1182387,28.7033779 49.8488734,23.8692261 C40.579508,19.0350744 36.6084763,17.4787399 36.6084763,15.9871597 C36.6084763,14.4955795 36.6084763,11.3494845 36.6084763,7.23819459 C36.6084763,3.12690471 33.4732677,0.19798962 28.7435889,0.19798962 C24.01391,0.19798962 21.7009663,3.8570507 21.7009663,5.8096264 C21.7009663,7.11134353 21.7009663,11.8318274 21.7009663,19.971078 C21.7009663,14.5729891 21.7009663,10.926762 21.7009663,9.03239684 C21.7009663,6.19084906 19.492743,3.76192773 15.9173825,3.76192773 C12.342022,3.76192773 10.6020583,6.84038323 10.6020583,8.66269836 C10.6020583,13.4909289 10.4375261,20.3823862 9.87010538,21.8283211 Z" id="Path-203" stroke="#3F3F3F" stroke-linecap="round" stroke-linejoin="round"></path>
                <path d="M21.7761602,19.4834724 C21.7761602,21.0855847 16.3000311,23.4103402 15.4371427,25.6701545" id="Path-204" stroke="#3F3F3F" stroke-linecap="round" stroke-linejoin="round"></path>
                <path d="M21.7844506,19.1238779 C21.7844506,20.1173396 22.1996595,22.0303405 30.5701611,21.2171942" id="Path-205" stroke="#3F3F3F" stroke-linecap="round" stroke-linejoin="round"></path>
                <path d="M21.6041352,37.7585377 C27.5155338,33.9290373 36.295988,32.0226321 45.4746466,33.5078675 C54.6533052,34.9931028 60.7335112,39.7489311 64.069,43.3186225" id="Path-206" stroke="#3F3F3F" stroke-linecap="round" stroke-linejoin="round"></path>
                <path d="M36.6478751,11.8678006 C36.6478751,10.1938748 38.3754262,5.94370446 44.3520303,5.94370446 C50.3286345,5.94370446 53.582642,10.0292752 53.582642,14.2094348 C53.582642,18.3895944 52.7259421,20.7688407 50.7416231,24.4704698" id="Path-207" stroke="#3F3F3F" stroke-linecap="round" stroke-linejoin="round"></path>
                <circle id="Oval-17" stroke="#3F3F3F" stroke-linecap="round" stroke-linejoin="round" cx="45" cy="14" r="2"></circle>
                <g id="Oval-Copy-475" transform="translate(51.000000, 24.000000) rotate(-90.000000) translate(-51.000000, -24.000000) ">
                    <use fill="#C2C2C2" fill-rule="evenodd" xlink:href="#path-1"></use>
                    <circle stroke="#151515" stroke-width="1.5" cx="51" cy="24" r="2.25"></circle>
                    <use stroke="#151515" stroke-width="1" xlink:href="#path-1"></use>
                </g>
                <g id="Oval-Copy-476" transform="translate(3.000000, 49.000000) rotate(-90.000000) translate(-3.000000, -49.000000) ">
                    <use fill="#C2C2C2" fill-rule="evenodd" xlink:href="#path-2"></use>
                    <circle stroke="#151515" stroke-width="1.5" cx="3" cy="49" r="2.25"></circle>
                    <use stroke="#151515" stroke-width="1" xlink:href="#path-2"></use>
                </g>
                <g id="Oval-Copy-478" transform="translate(21.000000, 38.000000) rotate(-90.000000) translate(-21.000000, -38.000000) ">
                    <use fill="#C2C2C2" fill-rule="evenodd" xlink:href="#path-3"></use>
                    <circle stroke="#151515" stroke-width="1.5" cx="21" cy="38" r="2.25"></circle>
                    <use stroke="#151515" stroke-width="1" xlink:href="#path-3"></use>
                </g>
                <g id="Oval-Copy-479" transform="translate(67.000000, 62.000000) rotate(-90.000000) translate(-67.000000, -62.000000) ">
                    <use fill="#C2C2C2" fill-rule="evenodd" xlink:href="#path-4"></use>
                    <circle stroke="#151515" stroke-width="1.5" cx="67" cy="62" r="2.25"></circle>
                    <use stroke="#151515" stroke-width="1" xlink:href="#path-4"></use>
                </g>
                <g id="Oval-Copy-477" transform="translate(21.500000, 13.000000) rotate(-90.000000) translate(-21.500000, -13.000000) ">
                    <use fill="#C2C2C2" fill-rule="evenodd" xlink:href="#path-5"></use>
                    <circle stroke="#151515" stroke-width="1.5" cx="21.5" cy="13" r="2.25"></circle>
                    <use stroke="#151515" stroke-width="1" xlink:href="#path-5"></use>
                </g>
            </g>
        </g>
    </g>
</svg>