<?xml version="1.0" encoding="UTF-8"?>
<svg width="89px" height="74px" viewBox="0 0 89 74" version="1.1" xmlns="http://www.w3.org/2000/svg" xmlns:xlink="http://www.w3.org/1999/xlink">
    <!-- Generator: Sketch 47.1 (45422) - http://www.bohemiancoding.com/sketch -->
    <title>hospital-building</title>
    <desc>Created with Sketch.</desc>
    <defs>
        <circle id="path-1" cx="59" cy="3" r="3"></circle>
        <circle id="path-2" cx="30" cy="3" r="3"></circle>
        <circle id="path-3" cx="3.5" cy="69" r="3"></circle>
        <circle id="path-4" cx="85" cy="69" r="3"></circle>
    </defs>
    <g id="Version-2" stroke="none" stroke-width="1" fill="none" fill-rule="evenodd">
        <g id="full-preview-7" transform="translate(-584.000000, -212.000000)">
            <g id="hospital-building" transform="translate(584.000000, 213.000000)">
                <path d="M41.5,15 L35.5,15 L35.5,21 L41.5,21 L41.5,27 L47.5,27 L47.5,21 L53.5,21 L53.5,15 L47.5,15 L47.5,9 L41.5,9 L41.5,15 Z" id="Combined-Shape" stroke="#3F3F3F" stroke-linecap="round" stroke-linejoin="round"></path>
                <polygon id="Path-386" stroke="#3F3F3F" stroke-linecap="round" stroke-linejoin="round" points="29.5219217 2.59220661 29.5219217 69.0591203 58.8948597 69.0591203 58.8948597 2.76259407"></polygon>
                <path d="M4,45 L20.6965366,45" id="Path-388" stroke="#3F3F3F" stroke-linecap="round" stroke-linejoin="round"></path>
                <path d="M4,53 L17.5830777,53" id="Path-388-Copy" stroke="#3F3F3F" stroke-linecap="round" stroke-linejoin="round"></path>
                <path d="M4,61 L13.8234414,61" id="Path-388-Copy-2" stroke="#3F3F3F" stroke-linecap="round" stroke-linejoin="round"></path>
                <polyline id="Path-387" stroke="#3F3F3F" stroke-linecap="round" stroke-linejoin="round" transform="translate(72.023982, 53.491483) scale(-1, 1) translate(-72.023982, -53.491483) " points="84.9726768 37.8999939 59.0479645 37.8999939 59.0479645 69.0829718 85 69.0829718"></polyline>
                <g id="Oval-Copy-573" transform="translate(59.000000, 3.000000) rotate(-90.000000) translate(-59.000000, -3.000000) ">
                    <use fill="#C2C2C2" fill-rule="evenodd" xlink:href="#path-1"></use>
                    <circle stroke="#151515" stroke-width="1.5" cx="59" cy="3" r="2.25"></circle>
                    <use stroke="#151515" stroke-width="1" xlink:href="#path-1"></use>
                </g>
                <g id="Oval-Copy-574" transform="translate(30.000000, 3.000000) rotate(-90.000000) translate(-30.000000, -3.000000) ">
                    <use fill="#C2C2C2" fill-rule="evenodd" xlink:href="#path-2"></use>
                    <circle stroke="#151515" stroke-width="1.5" cx="30" cy="3" r="2.25"></circle>
                    <use stroke="#151515" stroke-width="1" xlink:href="#path-2"></use>
                </g>
                <polyline id="Path-387" stroke="#3F3F3F" stroke-linecap="round" stroke-linejoin="round" points="29.5528345 37.9060832 3.62812223 37.9060832 3.62812223 69.0890611 29.5801578 69.0890611"></polyline>
                <polyline id="Path-389" stroke="#3F3F3F" stroke-linecap="round" stroke-linejoin="round" points="34.9844275 68.6731392 34.9844275 44.7982049 53.6807201 44.7982049 53.6807201 69.0459489"></polyline>
                <g id="Oval-Copy-576" transform="translate(3.500000, 69.000000) rotate(-90.000000) translate(-3.500000, -69.000000) ">
                    <use fill="#C2C2C2" fill-rule="evenodd" xlink:href="#path-3"></use>
                    <circle stroke="#151515" stroke-width="1.5" cx="3.5" cy="69" r="2.25"></circle>
                    <use stroke="#151515" stroke-width="1" xlink:href="#path-3"></use>
                </g>
                <g id="Oval-Copy-577" transform="translate(85.000000, 69.000000) rotate(-90.000000) translate(-85.000000, -69.000000) ">
                    <use fill="#C2C2C2" fill-rule="evenodd" xlink:href="#path-4"></use>
                    <circle stroke="#151515" stroke-width="1.5" cx="85" cy="69" r="2.25"></circle>
                    <use stroke="#151515" stroke-width="1" xlink:href="#path-4"></use>
                </g>
                <path d="M68.3034634,45 L85,45" id="Path-388" stroke="#3F3F3F" stroke-linecap="round" stroke-linejoin="round" transform="translate(76.651732, 45.000000) scale(-1, 1) translate(-76.651732, -45.000000) "></path>
                <path d="M71,53 L84.5830777,53" id="Path-388-Copy" stroke="#3F3F3F" stroke-linecap="round" stroke-linejoin="round" transform="translate(78.000000, 53.000000) scale(-1, 1) translate(-78.000000, -53.000000) "></path>
                <path d="M75,61 L84.8234414,61" id="Path-388-Copy-2" stroke="#3F3F3F" stroke-linecap="round" stroke-linejoin="round" transform="translate(80.000000, 61.000000) scale(-1, 1) translate(-80.000000, -61.000000) "></path>
            </g>
        </g>
    </g>
</svg>