<?xml version="1.0" encoding="UTF-8"?>
<svg width="86px" height="82px" viewBox="0 0 86 82" version="1.1" xmlns="http://www.w3.org/2000/svg" xmlns:xlink="http://www.w3.org/1999/xlink">
    <!-- Generator: Sketch 47.1 (45422) - http://www.bohemiancoding.com/sketch -->
    <title>hot-tub</title>
    <desc>Created with Sketch.</desc>
    <defs>
        <circle id="path-1" cx="40" cy="3" r="3"></circle>
        <circle id="path-2" cx="50" cy="9" r="3"></circle>
        <circle id="path-3" cx="30" cy="9" r="3"></circle>
        <circle id="path-4" cx="81" cy="77.5" r="3"></circle>
        <circle id="path-5" cx="3" cy="77.5" r="3"></circle>
    </defs>
    <g id="Version-2" stroke="none" stroke-width="1" fill="none" fill-rule="evenodd">
        <g id="full-preview-8" transform="translate(-583.000000, -1040.000000)">
            <g id="hot-tub" transform="translate(584.000000, 1041.000000)">
                <path d="M8.76752198,77.6320424 L8.76752198,43.2975915" id="Path-576" stroke="#3F3F3F" stroke-linecap="round" stroke-linejoin="round"></path>
                <path d="M19.767522,77.6320424 L19.767522,43.2975915" id="Path-576" stroke="#3F3F3F" stroke-linecap="round" stroke-linejoin="round"></path>
                <path d="M30.767522,77.6320424 L30.767522,43.2975915" id="Path-576" stroke="#3F3F3F" stroke-linecap="round" stroke-linejoin="round"></path>
                <path d="M41.767522,77.6320424 L41.767522,43.2975915" id="Path-576" stroke="#3F3F3F" stroke-linecap="round" stroke-linejoin="round"></path>
                <path d="M52.767522,77.6320424 L52.767522,43.2975915" id="Path-576" stroke="#3F3F3F" stroke-linecap="round" stroke-linejoin="round"></path>
                <path d="M63.767522,77.6320424 L63.767522,43.2975915" id="Path-576" stroke="#3F3F3F" stroke-linecap="round" stroke-linejoin="round"></path>
                <path d="M74.767522,77.6320424 L74.767522,43.2975915" id="Path-576" stroke="#3F3F3F" stroke-linecap="round" stroke-linejoin="round"></path>
                <path d="M40.7968211,27.8993745 C42.8947765,25.3349556 45.5534565,22.5552212 41.5651138,16.8608168 C37.576771,11.1664125 38.1032775,7.47473397 40.1153649,3.95511432" id="Path-578" stroke="#3F3F3F" stroke-linecap="round" stroke-linejoin="round"></path>
                <path d="M50.3456012,27.2737647 C51.0951708,26.3389011 54.737459,23.4720074 51.3282411,18.3476891 C47.9190231,13.2233708 49.0162612,10.5194971 50.3456012,9.37028627" id="Path-580" stroke="#3F3F3F" stroke-linecap="round" stroke-linejoin="round"></path>
                <g id="Oval-Copy-493" transform="translate(40.000000, 3.000000) rotate(-90.000000) translate(-40.000000, -3.000000) ">
                    <use fill="#C2C2C2" fill-rule="evenodd" xlink:href="#path-1"></use>
                    <circle stroke="#151515" stroke-width="1.5" cx="40" cy="3" r="2.25"></circle>
                    <use stroke="#151515" stroke-width="1" xlink:href="#path-1"></use>
                </g>
                <g id="Oval-Copy-493" transform="translate(50.000000, 9.000000) rotate(-90.000000) translate(-50.000000, -9.000000) ">
                    <use fill="#C2C2C2" fill-rule="evenodd" xlink:href="#path-2"></use>
                    <circle stroke="#151515" stroke-width="1.5" cx="50" cy="9" r="2.25"></circle>
                    <use stroke="#151515" stroke-width="1" xlink:href="#path-2"></use>
                </g>
                <path d="M3.81978233,77.6370362 L79.652583,77.6370362" id="Path-575" stroke="#3F3F3F" stroke-linecap="round" stroke-linejoin="round"></path>
                <path d="M8.82601879,43.3446105 C6.85514311,43.3446105 5.19973372,41.8284006 5.19973372,39.3066419 C5.19973372,36.7848832 6.51128485,35.570472 8.93590356,35.570472 C11.3605223,35.570472 71.9619231,35.570472 74.6053048,35.570472 C77.2486865,35.570472 78.3701752,37.2584069 78.3701752,39.3685678 C78.3701752,41.4787287 77.3815767,43.3476358 74.6827626,43.3476358 C71.9839484,43.3476358 10.7968945,43.3446105 8.82601879,43.3446105 Z" id="Path-577" stroke="#3F3F3F" stroke-linecap="round" stroke-linejoin="round"></path>
                <path d="M30.1346623,9.72344264 C28.7807886,11.1409103 27.849153,14.8238728 31.4817569,17.9331984 C35.1143608,21.042524 34.0035646,25.5948193 32.0802504,27.3948193" id="Path-579" stroke="#3F3F3F" stroke-linecap="round" stroke-linejoin="round"></path>
                <g id="Oval-Copy-493" transform="translate(30.000000, 9.000000) rotate(-90.000000) translate(-30.000000, -9.000000) ">
                    <use fill="#C2C2C2" fill-rule="evenodd" xlink:href="#path-3"></use>
                    <circle stroke="#151515" stroke-width="1.5" cx="30" cy="9" r="2.25"></circle>
                    <use stroke="#151515" stroke-width="1" xlink:href="#path-3"></use>
                </g>
                <g id="Oval-Copy-493" transform="translate(81.000000, 77.500000) rotate(-90.000000) translate(-81.000000, -77.500000) ">
                    <use fill="#C2C2C2" fill-rule="evenodd" xlink:href="#path-4"></use>
                    <circle stroke="#151515" stroke-width="1.5" cx="81" cy="77.5" r="2.25"></circle>
                    <use stroke="#151515" stroke-width="1" xlink:href="#path-4"></use>
                </g>
                <g id="Oval-Copy-493" transform="translate(3.000000, 77.500000) rotate(-90.000000) translate(-3.000000, -77.500000) ">
                    <use fill="#C2C2C2" fill-rule="evenodd" xlink:href="#path-5"></use>
                    <circle stroke="#151515" stroke-width="1.5" cx="3" cy="77.5" r="2.25"></circle>
                    <use stroke="#151515" stroke-width="1" xlink:href="#path-5"></use>
                </g>
            </g>
        </g>
    </g>
</svg>