<?xml version="1.0" encoding="UTF-8"?>
<svg width="63px" height="94px" viewBox="0 0 63 94" version="1.1" xmlns="http://www.w3.org/2000/svg" xmlns:xlink="http://www.w3.org/1999/xlink">
    <!-- Generator: Sketch 47.1 (45422) - http://www.bohemiancoding.com/sketch -->
    <title>indoor-flower-plant</title>
    <desc>Created with Sketch.</desc>
    <defs>
        <circle id="path-1" cx="38.0710678" cy="38.0710678" r="3"></circle>
        <circle id="path-2" cx="24.2426407" cy="24.2426407" r="3"></circle>
        <circle id="path-3" cx="6.24264069" cy="66.2426407" r="3"></circle>
        <circle id="path-4" cx="30.4926407" cy="89.2426407" r="3"></circle>
        <circle id="path-5" cx="55.2426407" cy="66.2426407" r="3"></circle>
    </defs>
    <g id="Version-2" stroke="none" stroke-width="1" fill="none" fill-rule="evenodd">
        <g id="full-preview-8" transform="translate(-597.000000, -1376.000000)">
            <g id="indoor-flower-plant" transform="translate(597.000000, 1377.000000)">
                <path d="M30.8567087,89.359875 C48.032963,89.359875 55.3084418,82.0130522 55.3084418,66.2019522" id="Path-542" stroke="#3F3F3F" stroke-linecap="round" stroke-linejoin="round"></path>
                <path d="M30.8567087,89.359875 C48.032963,89.359875 55.3084418,82.0130522 55.3084418,66.2019522" id="Path-542" stroke="#3F3F3F" stroke-linecap="round" stroke-linejoin="round" transform="translate(43.082575, 77.780914) scale(-1, -1) translate(-43.082575, -77.780914) "></path>
                <path d="M5.55596494,89.359875 C22.7322193,89.359875 30.0076981,82.0130522 30.0076981,66.2019522" id="Path-542" stroke="#3F3F3F" stroke-linecap="round" stroke-linejoin="round" transform="translate(17.781832, 77.780914) scale(-1, 1) translate(-17.781832, -77.780914) "></path>
                <path d="M5.55596494,89.359875 C22.7322193,89.359875 30.0076981,82.0130522 30.0076981,66.2019522" id="Path-542" stroke="#3F3F3F" stroke-linecap="round" stroke-linejoin="round" transform="translate(17.781832, 77.780914) scale(1, -1) translate(-17.781832, -77.780914) "></path>
                <circle id="Oval-37" stroke="#3F3F3F" stroke-linecap="round" stroke-linejoin="round" cx="30.9661017" cy="30.9661017" r="9.61016949"></circle>
                <path d="M38.5088235,49.1186441 C38.5088235,54.378368 38.109308,61.6617664 31.0018634,61.6617664 C23.8944188,61.6617664 23.4915254,54.3851239 23.4915254,49.1186441" id="Path-543" stroke="#3F3F3F" stroke-linecap="round" stroke-linejoin="round"></path>
                <path d="M38.5088235,0 C38.5088235,5.25972398 38.109308,12.5431224 31.0018634,12.5431224 C23.8944188,12.5431224 23.4915254,5.26647981 23.4915254,0" id="Path-543" stroke="#3F3F3F" stroke-linecap="round" stroke-linejoin="round" transform="translate(31.000174, 6.271561) scale(1, -1) translate(-31.000174, -6.271561) "></path>
                <path d="M55.9256683,42.3184198 C55.9256683,47.5781438 55.5261528,54.8615422 48.4187082,54.8615422 C41.3112636,54.8615422 40.9083702,47.5848996 40.9083702,42.3184198" id="Path-543" stroke="#3F3F3F" stroke-linecap="round" stroke-linejoin="round" transform="translate(48.417019, 48.589981) rotate(-45.000000) translate(-48.417019, -48.589981) "></path>
                <path d="M21.193542,7.58629348 C21.193542,12.8460175 20.7940265,20.1294159 13.6865819,20.1294159 C6.57913727,20.1294159 6.17624388,12.8527733 6.17624388,7.58629348" id="Path-543" stroke="#3F3F3F" stroke-linecap="round" stroke-linejoin="round" transform="translate(13.684893, 13.857855) scale(1, -1) rotate(45.000000) translate(-13.684893, -13.857855) "></path>
                <path d="M21.0238332,42.3184198 C21.0238332,47.5781438 20.6243177,54.8615422 13.5168731,54.8615422 C6.4094285,54.8615422 6.00653511,47.5848996 6.00653511,42.3184198" id="Path-543" stroke="#3F3F3F" stroke-linecap="round" stroke-linejoin="round" transform="translate(13.515184, 48.589981) scale(-1, 1) rotate(-45.000000) translate(-13.515184, -48.589981) "></path>
                <path d="M55.7559595,7.58629348 C55.7559595,12.8460175 55.356444,20.1294159 48.2489994,20.1294159 C41.1415548,20.1294159 40.7386614,12.8527733 40.7386614,7.58629348" id="Path-543" stroke="#3F3F3F" stroke-linecap="round" stroke-linejoin="round" transform="translate(48.247310, 13.857855) scale(-1, -1) rotate(45.000000) translate(-48.247310, -13.857855) "></path>
                <path d="M63.4737841,24.8338629 C63.4737841,30.0935868 62.8673398,37.6964569 55.5652894,37.6964569 C48.2632389,37.6964569 48.0549513,30.4198143 48.0549513,25.1533345" id="Path-543" stroke="#3F3F3F" stroke-linecap="round" stroke-linejoin="round" transform="translate(55.764368, 31.265160) rotate(-90.000000) translate(-55.764368, -31.265160) "></path>
                <path d="M14.3141085,25.194366 C14.3141085,30.45409 13.9145931,37.7374884 6.80714845,37.7374884 C-0.300296166,37.7374884 -0.703189549,30.4608458 -0.703189549,25.194366" id="Path-543" stroke="#3F3F3F" stroke-linecap="round" stroke-linejoin="round" transform="translate(6.805459, 31.465927) scale(1, -1) rotate(90.000000) translate(-6.805459, -31.465927) "></path>
                <g id="Oval-Copy-583" transform="translate(38.071068, 38.071068) rotate(-135.000000) translate(-38.071068, -38.071068) ">
                    <use fill="#C2C2C2" fill-rule="evenodd" xlink:href="#path-1"></use>
                    <circle stroke="#151515" stroke-width="1.5" cx="38.0710678" cy="38.0710678" r="2.25"></circle>
                    <use stroke="#151515" stroke-width="1" xlink:href="#path-1"></use>
                </g>
                <g id="Oval-Copy-584" transform="translate(24.242641, 24.242641) rotate(-135.000000) translate(-24.242641, -24.242641) ">
                    <use fill="#C2C2C2" fill-rule="evenodd" xlink:href="#path-2"></use>
                    <circle stroke="#151515" stroke-width="1.5" cx="24.2426407" cy="24.2426407" r="2.25"></circle>
                    <use stroke="#151515" stroke-width="1" xlink:href="#path-2"></use>
                </g>
                <g id="Oval-Copy-585" transform="translate(6.242641, 66.242641) rotate(-135.000000) translate(-6.242641, -66.242641) ">
                    <use fill="#C2C2C2" fill-rule="evenodd" xlink:href="#path-3"></use>
                    <circle stroke="#151515" stroke-width="1.5" cx="6.24264069" cy="66.2426407" r="2.25"></circle>
                    <use stroke="#151515" stroke-width="1" xlink:href="#path-3"></use>
                </g>
                <g id="Oval-Copy-586" transform="translate(30.492641, 89.242641) rotate(-135.000000) translate(-30.492641, -89.242641) ">
                    <use fill="#C2C2C2" fill-rule="evenodd" xlink:href="#path-4"></use>
                    <circle stroke="#151515" stroke-width="1.5" cx="30.4926407" cy="89.2426407" r="2.25"></circle>
                    <use stroke="#151515" stroke-width="1" xlink:href="#path-4"></use>
                </g>
                <g id="Oval-Copy-585" transform="translate(55.242641, 66.242641) rotate(-135.000000) translate(-55.242641, -66.242641) ">
                    <use fill="#C2C2C2" fill-rule="evenodd" xlink:href="#path-5"></use>
                    <circle stroke="#151515" stroke-width="1.5" cx="55.2426407" cy="66.2426407" r="2.25"></circle>
                    <use stroke="#151515" stroke-width="1" xlink:href="#path-5"></use>
                </g>
            </g>
        </g>
    </g>
</svg>