<?xml version="1.0" encoding="UTF-8"?>
<svg width="94px" height="81px" viewBox="0 0 94 81" version="1.1" xmlns="http://www.w3.org/2000/svg" xmlns:xlink="http://www.w3.org/1999/xlink">
    <!-- Generator: Sketch 47.1 (45422) - http://www.bohemiancoding.com/sketch -->
    <title>internet-of-things</title>
    <desc>Created with Sketch.</desc>
    <defs>
        <circle id="path-1" cx="74" cy="77" r="3"></circle>
        <circle id="path-2" cx="57" cy="30" r="3"></circle>
        <circle id="path-3" cx="67" cy="51" r="3"></circle>
        <circle id="path-4" cx="29" cy="33" r="3"></circle>
        <circle id="path-5" cx="39" cy="56" r="3"></circle>
        <circle id="path-6" cx="22" cy="77" r="3"></circle>
    </defs>
    <g id="Version-2" stroke="none" stroke-width="1" fill="none" fill-rule="evenodd">
        <g id="full-preview-6" transform="translate(-768.000000, -881.000000)">
            <g id="internet-of-things" transform="translate(768.000000, 881.000000)">
                <path d="M64.5909138,56.2570877 C67.511459,56.2570877 70.87876,56.2570877 74.6928166,56.2570877 C74.6928166,56.2570877 92.673913,53.9287628 92.673913,36.3908346 C92.673913,25.2776526 83.4436169,16.1352029 71.9756732,16.5603407 C67.4923865,7.15565647 57.8824894,0.631578947 46.7222222,0.631578947 C31.8338744,0.631578947 19.7066238,12.1937383 18.8395354,26.7715948 C9.51334005,24.840595 0.770531401,31.8970881 0.770531401,41.3573978 C0.770531401,56.4954827 16.7537282,56.2570877 16.7537282,56.2570877 C22.5522365,56.2570877 27.3902037,56.2570877 31.2676297,56.2570877" id="Page-1" stroke="#3F3F3F" stroke-linecap="round" stroke-linejoin="round"></path>
                <circle id="Oval-20" stroke="#3F3F3F" stroke-linecap="round" stroke-linejoin="round" cx="47.9074074" cy="42.6666667" r="21.3333333"></circle>
                <ellipse id="Oval-20" stroke="#3F3F3F" stroke-linecap="round" stroke-linejoin="round" cx="47.9074074" cy="42.6666667" rx="11.5555556" ry="21.3333333"></ellipse>
                <path d="M26.6823057,42.6666667 L69.1649563,42.6666667" id="Line" stroke="#3F3F3F" stroke-linecap="round" stroke-linejoin="round"></path>
                <path d="M47.9074074,63.815984 L47.9074074,21.3333333" id="Line" stroke="#3F3F3F" stroke-linecap="round" stroke-linejoin="round"></path>
                <path d="M51,63.8761689 C51,64.2547811 51,65.9347957 51,68.9162129 C51,73.3883387 53.1569105,76.9069582 57.3208459,76.9069582 C60.0968027,76.9069582 65.7636107,76.9069582 74.3212698,76.9069582" id="Line-Copy" stroke="#3F3F3F" stroke-linecap="round" stroke-linejoin="round"></path>
                <path d="M21.5,63.9506528 C21.5,64.2796091 21.5,65.9347957 21.5,68.9162129 C21.5,73.3883387 23.6569105,76.9069582 27.8208459,76.9069582 C30.5968027,76.9069582 36.2636107,76.9069582 44.8212698,76.9069582" id="Line-Copy-2" stroke="#3F3F3F" stroke-linecap="round" stroke-linejoin="round" transform="translate(33.160635, 70.428806) scale(-1, 1) translate(-33.160635, -70.428806) "></path>
                <g id="Oval-Copy-115" transform="translate(74.000000, 77.000000) rotate(-90.000000) translate(-74.000000, -77.000000) ">
                    <use fill="#C2C2C2" fill-rule="evenodd" xlink:href="#path-1"></use>
                    <circle stroke="#151515" stroke-width="1.5" cx="74" cy="77" r="2.25"></circle>
                    <use stroke="#151515" stroke-width="1" xlink:href="#path-1"></use>
                </g>
                <g id="Oval-Copy-117" transform="translate(57.000000, 30.000000) rotate(-90.000000) translate(-57.000000, -30.000000) ">
                    <use fill="#C2C2C2" fill-rule="evenodd" xlink:href="#path-2"></use>
                    <circle stroke="#151515" stroke-width="1.5" cx="57" cy="30" r="2.25"></circle>
                    <use stroke="#151515" stroke-width="1" xlink:href="#path-2"></use>
                </g>
                <g id="Oval-Copy-119" transform="translate(67.000000, 51.000000) rotate(-90.000000) translate(-67.000000, -51.000000) ">
                    <use fill="#C2C2C2" fill-rule="evenodd" xlink:href="#path-3"></use>
                    <circle stroke="#151515" stroke-width="1.5" cx="67" cy="51" r="2.25"></circle>
                    <use stroke="#151515" stroke-width="1" xlink:href="#path-3"></use>
                </g>
                <g id="Oval-Copy-120" transform="translate(29.000000, 33.000000) rotate(-90.000000) translate(-29.000000, -33.000000) ">
                    <use fill="#C2C2C2" fill-rule="evenodd" xlink:href="#path-4"></use>
                    <circle stroke="#151515" stroke-width="1.5" cx="29" cy="33" r="2.25"></circle>
                    <use stroke="#151515" stroke-width="1" xlink:href="#path-4"></use>
                </g>
                <g id="Oval-Copy-118" transform="translate(39.000000, 56.000000) rotate(-90.000000) translate(-39.000000, -56.000000) ">
                    <use fill="#C2C2C2" fill-rule="evenodd" xlink:href="#path-5"></use>
                    <circle stroke="#151515" stroke-width="1.5" cx="39" cy="56" r="2.25"></circle>
                    <use stroke="#151515" stroke-width="1" xlink:href="#path-5"></use>
                </g>
                <g id="Oval-Copy-116" transform="translate(22.000000, 77.000000) rotate(-90.000000) translate(-22.000000, -77.000000) ">
                    <use fill="#C2C2C2" fill-rule="evenodd" xlink:href="#path-6"></use>
                    <circle stroke="#151515" stroke-width="1.5" cx="22" cy="77" r="2.25"></circle>
                    <use stroke="#151515" stroke-width="1" xlink:href="#path-6"></use>
                </g>
            </g>
        </g>
    </g>
</svg>