<?xml version="1.0" encoding="UTF-8"?>
<svg width="75px" height="75px" viewBox="0 0 75 75" version="1.1" xmlns="http://www.w3.org/2000/svg" xmlns:xlink="http://www.w3.org/1999/xlink">
    <!-- Generator: Sketch 47.1 (45422) - http://www.bohemiancoding.com/sketch -->
    <title>key-overhanding</title>
    <desc>Created with Sketch.</desc>
    <defs>
        <circle id="path-1" cx="33.0980762" cy="29.0980762" r="3"></circle>
        <circle id="path-2" cx="4.09807621" cy="51.0980762" r="3"></circle>
        <circle id="path-3" cx="4.09807621" cy="73.0980762" r="3"></circle>
        <circle id="path-4" cx="60.0980762" cy="66.0980762" r="3"></circle>
        <circle id="path-5" cx="49.0980762" cy="46.0980762" r="3"></circle>
    </defs>
    <g id="Version-2" stroke="none" stroke-width="1" fill="none" fill-rule="evenodd">
        <g id="full-preview-8" transform="translate(-966.000000, -386.000000)">
            <g id="key-overhanding" transform="translate(966.000000, 383.000000)">
                <rect id="Rectangle-13" stroke="#3F3F3F" stroke-linecap="round" stroke-linejoin="round" x="4" y="51" width="11.1944444" height="21.5277778"></rect>
                <path d="M47.5338267,65.2152792 C55.7254141,61.4249908 60.3160902,59.3063359 61.3058548,58.8593147 C62.7905018,58.1887829 64.382037,58.5898217 65.1221468,59.8613807 C65.8622565,61.1329397 65.7189504,63.0140071 64.2495878,63.9122961 C62.7802251,64.810585 43.2884538,75.2638784 41.8784602,75.9341097 C40.4684666,76.6043409 38.536014,76.8988342 35.8322622,75.9341097 C34.0297611,75.2909599 27.1954909,72.946722 15.3294516,68.9013958" id="Path-533" stroke="#3F3F3F" stroke-linecap="round" stroke-linejoin="round"></path>
                <path d="M15.3155804,53.375709 C20.134243,53.375709 24.1054506,53.375709 27.2292033,53.375709 C31.9148323,53.375709 34.8233137,56.7303909 35.9317892,59.4096675 C39.5638204,59.4239496 44.1843737,59.4096675 45.7816181,59.4096675 C47.3788626,59.4096675 48.9221208,60.7153183 48.9221208,62.3695085 C48.9221208,64.0236986 47.8460616,65.6682237 45.8625955,65.6682237 C44.5402847,65.6682237 39.7106087,65.6682237 31.3735673,65.6682237" id="Path-532" stroke="#3F3F3F" stroke-linecap="round" stroke-linejoin="round"></path>
                <path d="M44.3890341,12.3111175 C63.6893867,12.3679084 73.5964315,12.3963038 74.1101685,12.3963038 C74.8807741,12.3963038 79.2227014,15.7230049 79.7236157,16.0952903 C80.2245301,16.4675756 80.451412,16.6189372 80.451412,16.9175935 C80.451412,17.2162498 80.451412,17.2836812 80.451412,17.4710196 C80.451412,17.658358 80.118036,17.8948642 79.9328172,17.8948642 C79.7475984,17.8948642 79.3437912,17.8948642 79.2043296,17.8948642 C79.064868,17.8948642 78.4534226,18.4346605 78.1905927,18.6577599 C77.9277629,18.8808593 75.2766527,21.0573425 74.7236522,21.4725712 C74.1706517,21.8877999 73.7992842,21.7741265 73.4673584,21.4053773 C73.1354325,21.0366281 72.5678305,20.9185195 72.0171168,21.3126064 C71.4664032,21.7066934 71.1174441,21.9392094 70.8526917,22.1149152 C70.5879393,22.2906211 70.0556487,22.4130335 69.6879071,22.0361249 C69.3201655,21.6592163 67.5919958,20.1523257 66.7250351,19.3547511 C65.8580745,18.5571765 65.0925753,19.3088295 64.8930674,19.4553863 C64.6935595,19.6019431 63.221063,20.7222482 62.6853335,21.1306191 C62.1496041,21.5389901 61.6768626,21.3110323 61.4638401,21.1306191 C61.2508175,20.950206 59.8297516,19.855039 59.5723059,19.652101 C59.3148603,19.4491629 58.8752704,19.4726145 58.6671732,19.652101 C58.4590761,19.8315874 57.9748736,20.2032485 57.8589378,20.3096716 C57.743002,20.4160947 57.3319225,20.509901 57.0492817,20.2822283 C56.7666408,20.0545556 55.8773261,19.4313425 55.5848345,19.2286183 C55.2923429,19.0258941 54.7274401,19.0247262 54.1248392,19.4553863 C53.5222383,19.8860464 51.60011,21.2811654 51.076694,21.6796995 C50.553278,22.0782337 49.8109668,21.429707 49.287172,21.4341664 C48.7633771,21.4386259 47.9064562,21.7201161 48.0002278,22.2864466 C48.0939994,22.852777 48.2492435,23.2084711 48.2492435,23.5529027 C48.2492435,23.8973342 47.8715788,24.8053459 46.7819548,24.1406888 C45.6923308,23.4760318 44.4027489,22.6778593 43.0346159,24.6516507" id="Path-534" stroke="#3F3F3F" stroke-linecap="round" stroke-linejoin="round" transform="translate(61.743014, 18.481384) rotate(-45.000000) translate(-61.743014, -18.481384) "></path>
                <circle id="Oval-3" stroke="#3F3F3F" stroke-linecap="round" stroke-linejoin="round" transform="translate(40.970563, 37.719300) rotate(-45.000000) translate(-40.970563, -37.719300) " cx="40.9705627" cy="37.7193001" r="12"></circle>
                <circle id="Oval-36" stroke="#3F3F3F" stroke-linecap="round" stroke-linejoin="round" transform="translate(36.727922, 41.961941) rotate(-45.000000) translate(-36.727922, -41.961941) " cx="36.7279221" cy="41.9619408" r="2"></circle>
                <path d="M74.9035541,14.7095091 L45.99956,14.7095091" id="Path-535" stroke="#3F3F3F" stroke-linecap="round" stroke-linejoin="round" transform="translate(60.451557, 14.709509) rotate(-45.000000) translate(-60.451557, -14.709509) "></path>
                <g id="Oval-Copy-35" transform="translate(33.098076, 29.098076) scale(-1, 1) rotate(-210.000000) translate(-33.098076, -29.098076) ">
                    <use fill="#C2C2C2" fill-rule="evenodd" xlink:href="#path-1"></use>
                    <circle stroke="#151515" stroke-width="1.5" cx="33.0980762" cy="29.0980762" r="2.25"></circle>
                    <use stroke="#151515" stroke-width="1" xlink:href="#path-1"></use>
                </g>
                <g id="Oval-Copy-35" transform="translate(4.098076, 51.098076) scale(-1, 1) rotate(-210.000000) translate(-4.098076, -51.098076) ">
                    <use fill="#C2C2C2" fill-rule="evenodd" xlink:href="#path-2"></use>
                    <circle stroke="#151515" stroke-width="1.5" cx="4.09807621" cy="51.0980762" r="2.25"></circle>
                    <use stroke="#151515" stroke-width="1" xlink:href="#path-2"></use>
                </g>
                <g id="Oval-Copy-35" transform="translate(4.098076, 73.098076) scale(-1, 1) rotate(-210.000000) translate(-4.098076, -73.098076) ">
                    <use fill="#C2C2C2" fill-rule="evenodd" xlink:href="#path-3"></use>
                    <circle stroke="#151515" stroke-width="1.5" cx="4.09807621" cy="73.0980762" r="2.25"></circle>
                    <use stroke="#151515" stroke-width="1" xlink:href="#path-3"></use>
                </g>
                <g id="Oval-Copy-35" transform="translate(60.098076, 66.098076) scale(-1, 1) rotate(-210.000000) translate(-60.098076, -66.098076) ">
                    <use fill="#C2C2C2" fill-rule="evenodd" xlink:href="#path-4"></use>
                    <circle stroke="#151515" stroke-width="1.5" cx="60.0980762" cy="66.0980762" r="2.25"></circle>
                    <use stroke="#151515" stroke-width="1" xlink:href="#path-4"></use>
                </g>
                <g id="Oval-Copy-35" transform="translate(49.098076, 46.098076) scale(-1, 1) rotate(-210.000000) translate(-49.098076, -46.098076) ">
                    <use fill="#C2C2C2" fill-rule="evenodd" xlink:href="#path-5"></use>
                    <circle stroke="#151515" stroke-width="1.5" cx="49.0980762" cy="46.0980762" r="2.25"></circle>
                    <use stroke="#151515" stroke-width="1" xlink:href="#path-5"></use>
                </g>
            </g>
        </g>
    </g>
</svg>