<?xml version="1.0" encoding="UTF-8"?>
<svg width="104px" height="40px" viewBox="0 0 104 40" version="1.1" xmlns="http://www.w3.org/2000/svg" xmlns:xlink="http://www.w3.org/1999/xlink">
    <!-- Generator: Sketch 47.1 (45422) - http://www.bohemiancoding.com/sketch -->
    <title>lab-glasses-protection</title>
    <desc>Created with Sketch.</desc>
    <defs>
        <circle id="path-1" cx="52" cy="3" r="3"></circle>
        <circle id="path-2" cx="4" cy="11" r="3"></circle>
        <circle id="path-3" cx="100" cy="11" r="3"></circle>
        <circle id="path-4" cx="77" cy="35" r="3"></circle>
        <circle id="path-5" cx="26" cy="35" r="3"></circle>
    </defs>
    <g id="Version-2" stroke="none" stroke-width="1" fill="none" fill-rule="evenodd">
        <g id="full-preview-5" transform="translate(-386.000000, -1069.000000)">
            <g id="lab-glasses-protection" transform="translate(386.000000, 1070.000000)">
                <path d="M51.9558529,3.25925926 C19.8219577,3.33175992 3.76260292,4.27649881 3.77778854,6.09347595 C3.84841176,14.5436272 7.06075516,27.8283078 8.66945402,30.9156982 C10.2781529,34.0030887 16.9492224,35.2895955 27.916185,35.2895955 C38.8831475,35.2895955 44.5819886,33.5452369 44.7481719,32.3096024 C44.9143551,31.073968 46.4405276,17.904795 47.3551006,16.5221958 C48.2696736,15.1395966 49.9506727,15.1395966 52.0477468,15.1395966" id="Path-19" stroke="#3F3F3F" stroke-linecap="round" stroke-linejoin="round"></path>
                <path d="M99.8077047,3.25925926 C67.6738095,3.33175992 51.6144548,4.27649881 51.6296404,6.09347595 C51.7002636,14.5436272 54.912607,27.8283078 56.5213059,30.9156982 C58.1300047,34.0030887 64.8010743,35.2895955 75.7680368,35.2895955 C86.7349993,35.2895955 92.4338405,33.5452369 92.6000237,32.3096024 C92.766207,31.073968 94.2923795,17.904795 95.2069525,16.5221958 C96.1215255,15.1395966 97.8025246,15.1395966 99.8995986,15.1395966" id="Path-19-Copy" stroke="#3F3F3F" stroke-linecap="round" stroke-linejoin="round" transform="translate(75.764614, 19.274427) scale(-1, 1) translate(-75.764614, -19.274427) "></path>
                <path d="M99.5086824,11.5933283 C100.889689,11.5933283 102.731672,11.3239456 102.731672,9.50117038 C102.731672,7.6783952 102.731672,6.14534431 102.731672,4.56844252 C102.731672,2.99154073 102.328786,1.72502792 100.130039,1.53589253 C97.931293,1.34675714 96.6090743,1.83704585 96.3333333,4.65589623" id="Path-20" stroke="#3F3F3F" stroke-linecap="round" stroke-linejoin="round"></path>
                <path d="M3.8049787,11.5933283 C5.1859854,11.5933283 7.02796791,11.3239456 7.02796791,9.50117038 C7.02796791,7.6783952 7.02796791,6.14534431 7.02796791,4.56844252 C7.02796791,2.99154073 6.62508208,1.72502792 4.42633568,1.53589253 C2.22758928,1.34675714 0.905370574,1.83704585 0.62962963,4.65589623" id="Path-20-Copy" stroke="#3F3F3F" stroke-linecap="round" stroke-linejoin="round" transform="translate(3.828799, 6.546664) scale(-1, 1) translate(-3.828799, -6.546664) "></path>
                <g id="Oval-Copy-499" transform="translate(52.000000, 3.000000) rotate(-360.000000) translate(-52.000000, -3.000000) ">
                    <use fill="#C2C2C2" fill-rule="evenodd" xlink:href="#path-1"></use>
                    <circle stroke="#151515" stroke-width="1.5" cx="52" cy="3" r="2.25"></circle>
                    <use stroke="#151515" stroke-width="1" xlink:href="#path-1"></use>
                </g>
                <g id="Oval-Copy-500" transform="translate(4.000000, 11.000000) rotate(-360.000000) translate(-4.000000, -11.000000) ">
                    <use fill="#C2C2C2" fill-rule="evenodd" xlink:href="#path-2"></use>
                    <circle stroke="#151515" stroke-width="1.5" cx="4" cy="11" r="2.25"></circle>
                    <use stroke="#151515" stroke-width="1" xlink:href="#path-2"></use>
                </g>
                <g id="Oval-Copy-503" transform="translate(100.000000, 11.000000) rotate(-360.000000) translate(-100.000000, -11.000000) ">
                    <use fill="#C2C2C2" fill-rule="evenodd" xlink:href="#path-3"></use>
                    <circle stroke="#151515" stroke-width="1.5" cx="100" cy="11" r="2.25"></circle>
                    <use stroke="#151515" stroke-width="1" xlink:href="#path-3"></use>
                </g>
                <g id="Oval-Copy-501" transform="translate(77.000000, 35.000000) rotate(-360.000000) translate(-77.000000, -35.000000) ">
                    <use fill="#C2C2C2" fill-rule="evenodd" xlink:href="#path-4"></use>
                    <circle stroke="#151515" stroke-width="1.5" cx="77" cy="35" r="2.25"></circle>
                    <use stroke="#151515" stroke-width="1" xlink:href="#path-4"></use>
                </g>
                <g id="Oval-Copy-502" transform="translate(26.000000, 35.000000) rotate(-360.000000) translate(-26.000000, -35.000000) ">
                    <use fill="#C2C2C2" fill-rule="evenodd" xlink:href="#path-5"></use>
                    <circle stroke="#151515" stroke-width="1.5" cx="26" cy="35" r="2.25"></circle>
                    <use stroke="#151515" stroke-width="1" xlink:href="#path-5"></use>
                </g>
            </g>
        </g>
    </g>
</svg>