<?xml version="1.0" encoding="UTF-8"?>
<svg width="68px" height="85px" viewBox="0 0 68 85" version="1.1" xmlns="http://www.w3.org/2000/svg" xmlns:xlink="http://www.w3.org/1999/xlink">
    <!-- Generator: Sketch 47.1 (45422) - http://www.bohemiancoding.com/sketch -->
    <title>live-streaming-torso</title>
    <desc>Created with Sketch.</desc>
    <defs>
        <circle id="path-1" cx="3" cy="80" r="3"></circle>
        <circle id="path-2" cx="63" cy="80" r="3"></circle>
        <circle id="path-3" cx="23" cy="7" r="3"></circle>
        <circle id="path-4" cx="48" cy="3" r="3"></circle>
    </defs>
    <g id="Version-2" stroke="none" stroke-width="1" fill="none" fill-rule="evenodd">
        <g id="full-preview-6" transform="translate(-404.000000, -1381.000000)">
            <g id="live-streaming-torso" transform="translate(405.000000, 1382.000000)">
                <g id="Group-6" transform="translate(3.000000, 1.000000)" stroke="#3F3F3F" stroke-linecap="round" stroke-linejoin="round">
                    <path d="M0.00511548006,78.7265718 C0.00511548006,75.0180538 0.397486185,72.3681542 2.497955,70.1609293 C4.59842381,67.9537043 7.12424036,66.4803579 10.0195114,65.3792606 C12.9147824,64.2781634 23.3852673,61.0710079 23.3852673,56.2692177" id="Path-256"></path>
                    <path d="M30.0733019,16.6600271 C17.1940292,16.6600271 9.6978462,16.6600271 7.58475289,16.6600271 C4.41511293,16.6600271 2.40276818,18.7464362 2.40276818,21.7328554 C2.40276818,24.7192747 2.40276818,46.7358352 2.40276818,49.9158757 C2.40276818,53.0959162 3.59378632,55.4155493 7.58475289,55.4155493 C10.2453973,55.4155493 17.747138,55.4155493 30.0899752,55.4155493" id="Path-258"></path>
                    <path d="M30.0541556,21.5803095 C16.3143061,21.5803095 9.18271432,21.5803095 8.65938041,21.5803095 C7.87437954,21.5803095 7.22814377,22.2541497 7.22814377,22.9550133 C7.22814377,23.655877 7.22814377,48.3528056 7.22814377,49.0677027 C7.22814377,49.7825997 7.74003534,50.5766524 8.78506721,50.5766524 C9.48175513,50.5766524 16.5743356,50.5766524 30.0628087,50.5766524" id="Path-259"></path>
                    <path d="M19.4400844,61.2877529 C20.9380052,63.2114815 22.8760774,66.0323876 30.0025918,66.0323876" id="Path-257"></path>
                    <path d="M36.6147327,78.7265718 C36.6147327,75.0180538 37.0071034,72.3681542 39.1075722,70.1609293 C41.208041,67.9537043 43.7338576,66.4803579 46.6291286,65.3792606 C49.5243996,64.2781634 59.9948845,61.0710079 59.9948845,56.2692177" id="Path-256" transform="translate(48.304809, 67.497895) scale(-1, 1) translate(-48.304809, -67.497895) "></path>
                    <path d="M57.5805585,16.6600271 C44.7012858,16.6600271 37.2051028,16.6600271 35.0920095,16.6600271 C31.9223695,16.6600271 29.9100248,18.7464362 29.9100248,21.7328554 C29.9100248,24.7192747 29.9100248,46.7358352 29.9100248,49.9158757 C29.9100248,53.0959162 31.1010429,55.4155493 35.0920095,55.4155493 C37.7526539,55.4155493 45.2543947,55.4155493 57.5972318,55.4155493" id="Path-258" transform="translate(43.753628, 36.037788) scale(-1, 1) translate(-43.753628, -36.037788) "></path>
                    <path d="M52.7632031,21.5803095 C39.0233536,21.5803095 31.8917618,21.5803095 31.3684279,21.5803095 C30.583427,21.5803095 29.9371913,22.2541497 29.9371913,22.9550133 C29.9371913,23.655877 29.9371913,48.3528056 29.9371913,49.0677027 C29.9371913,49.7825997 30.4490828,50.5766524 31.4941147,50.5766524 C32.1908026,50.5766524 39.2833831,50.5766524 52.7718562,50.5766524" id="Path-259" transform="translate(41.354524, 36.078481) scale(-1, 1) translate(-41.354524, -36.078481) "></path>
                    <path d="M29.9974082,61.2877529 C31.495329,63.2114815 33.4334012,66.0323876 40.5599156,66.0323876" id="Path-257" transform="translate(35.278662, 63.660070) scale(-1, 1) translate(-35.278662, -63.660070) "></path>
                    <path d="M20.3668358,6.84772106 L30.055103,16.6133236" id="Path-260"></path>
                    <path d="M45,1.8 L30.055103,16.6133236" id="Path-260"></path>
                    <path d="M10.8,30.240183 C12.397934,30.240183 12.5142986,27.6 15.0663222,27.6 C17.6183459,27.6 17.6349852,30.2485726 19.8273205,30.2485726 C22.0196558,30.2485726 22.1201908,27.6 24.6718795,27.6 C27.2235681,27.6 27.0198413,30.2485726 29.4547751,30.2485726 C31.8897089,30.2485726 31.8958612,27.7936437 34.1944644,27.7936437 C36.4930677,27.7936437 36.5176771,30.2485726 39.0303542,30.2485726 C41.5430314,30.2485726 41.3314743,27.7936437 43.7666877,27.7936437 C46.2019011,27.7936437 46.0469737,30.2485726 48.0441116,30.2485726" id="Path-261"></path>
                    <path d="M10.8,37.440183 C12.397934,37.440183 12.5142986,34.8 15.0663222,34.8 C17.6183459,34.8 17.6349852,37.4485726 19.8273205,37.4485726 C22.0196558,37.4485726 22.1201908,34.8 24.6718795,34.8 C27.2235681,34.8 27.0198413,37.4485726 29.4547751,37.4485726 C31.8897089,37.4485726 31.8958612,34.9936437 34.1944644,34.9936437 C36.4930677,34.9936437 36.5176771,37.4485726 39.0303542,37.4485726 C41.5430314,37.4485726 41.3314743,34.9936437 43.7666877,34.9936437 C46.2019011,34.9936437 46.0469737,37.4485726 48.0441116,37.4485726" id="Path-261-Copy"></path>
                    <path d="M10.8,44.640183 C12.397934,44.640183 12.5142986,42 15.0663222,42 C17.6183459,42 17.6349852,44.6485726 19.8273205,44.6485726 C22.0196558,44.6485726 22.1201908,42 24.6718795,42 C27.2235681,42 27.0198413,44.6485726 29.4547751,44.6485726 C31.8897089,44.6485726 31.8958612,42.1936437 34.1944644,42.1936437 C36.4930677,42.1936437 36.5176771,44.6485726 39.0303542,44.6485726 C41.5430314,44.6485726 41.3314743,42.1936437 43.7666877,42.1936437 C46.2019011,42.1936437 46.0469737,44.6485726 48.0441116,44.6485726" id="Path-261-Copy-2"></path>
                </g>
                <g id="Oval-Copy-489" transform="translate(3.000000, 80.000000) rotate(-90.000000) translate(-3.000000, -80.000000) ">
                    <use fill="#C2C2C2" fill-rule="evenodd" xlink:href="#path-1"></use>
                    <circle stroke="#151515" stroke-width="1.5" cx="3" cy="80" r="2.25"></circle>
                    <use stroke="#151515" stroke-width="1" xlink:href="#path-1"></use>
                </g>
                <g id="Oval-Copy-494" transform="translate(63.000000, 80.000000) rotate(-90.000000) translate(-63.000000, -80.000000) ">
                    <use fill="#C2C2C2" fill-rule="evenodd" xlink:href="#path-2"></use>
                    <circle stroke="#151515" stroke-width="1.5" cx="63" cy="80" r="2.25"></circle>
                    <use stroke="#151515" stroke-width="1" xlink:href="#path-2"></use>
                </g>
                <g id="Oval-Copy-492" transform="translate(23.000000, 7.000000) rotate(-90.000000) translate(-23.000000, -7.000000) ">
                    <use fill="#C2C2C2" fill-rule="evenodd" xlink:href="#path-3"></use>
                    <circle stroke="#151515" stroke-width="1.5" cx="23" cy="7" r="2.25"></circle>
                    <use stroke="#151515" stroke-width="1" xlink:href="#path-3"></use>
                </g>
                <g id="Oval-Copy-493" transform="translate(48.000000, 3.000000) rotate(-90.000000) translate(-48.000000, -3.000000) ">
                    <use fill="#C2C2C2" fill-rule="evenodd" xlink:href="#path-4"></use>
                    <circle stroke="#151515" stroke-width="1.5" cx="48" cy="3" r="2.25"></circle>
                    <use stroke="#151515" stroke-width="1" xlink:href="#path-4"></use>
                </g>
            </g>
        </g>
    </g>
</svg>