<?xml version="1.0" encoding="UTF-8"?>
<svg width="82px" height="80px" viewBox="0 0 82 80" version="1.1" xmlns="http://www.w3.org/2000/svg" xmlns:xlink="http://www.w3.org/1999/xlink">
    <!-- Generator: Sketch 47.1 (45422) - http://www.bohemiancoding.com/sketch -->
    <title>loaf-bread-bake</title>
    <desc>Created with Sketch.</desc>
    <defs>
        <circle id="path-1" cx="39" cy="3" r="3"></circle>
        <circle id="path-2" cx="50" cy="42" r="3"></circle>
        <circle id="path-3" cx="5" cy="32" r="3"></circle>
        <circle id="path-4" cx="76.5" cy="15" r="3"></circle>
        <circle id="path-5" cx="77" cy="39" r="3"></circle>
        <circle id="path-6" cx="46" cy="75" r="3"></circle>
        <circle id="path-7" cx="5" cy="75" r="3"></circle>
    </defs>
    <g id="Version-2" stroke="none" stroke-width="1" fill="none" fill-rule="evenodd">
        <g id="full-preview-5" transform="translate(-584.000000, -209.000000)">
            <g id="loaf-bread-bake" transform="translate(585.000000, 210.000000)">
                <path d="M5,48.0789422 C0.961479934,46.0694098 0,43.1936434 0,40 C0,33.9248678 5.38702063,29 25,29 C44.6129794,29 50,33.9248678 50,40 C50,42.9114283 49.2009396,45.5586776 46,47.5262942 L46,75 L5,75 L5,48.0789422 Z" id="Combined-Shape" stroke="#3F3F3F" stroke-linecap="round" stroke-linejoin="round"></path>
                <path d="M2.85230728,33.6880353 L38.1808676,3.79263403" id="Combined-Shape-Copy" stroke="#3F3F3F" stroke-linecap="round" stroke-linejoin="round"></path>
                <path d="M46.5,74.5 L76.5,39.5" id="Line-3" stroke="#3F3F3F" stroke-linecap="round" stroke-linejoin="round"></path>
                <path d="M76.988563,14.8811156 L49.5605937,43.2208407" id="Path-3" stroke="#3F3F3F" stroke-linecap="round" stroke-linejoin="round"></path>
                <path d="M76.9440995,14.9357937 C77.7918394,14.055912 78.4439713,13.5245314 78.8634559,12.9548322 C79.4674539,12.1345467 79.8754761,10.6519854 79.8754761,9.05875518 C79.8754761,4.08819243 75.2069872,0 57.7566622,0 C46.9116063,5.37384575e-16 40.9553028,1.55632732 38,3.92766157" id="Oval-14" stroke="#3F3F3F" stroke-linecap="round" stroke-linejoin="round"></path>
                <path d="M76.5,39.5 L76.5,15.3132268" id="Line-4" stroke="#3F3F3F" stroke-linecap="round" stroke-linejoin="round"></path>
                <g id="Oval-Copy-166" transform="translate(39.000000, 3.000000) rotate(-90.000000) translate(-39.000000, -3.000000) ">
                    <use fill="#C2C2C2" fill-rule="evenodd" xlink:href="#path-1"></use>
                    <circle stroke="#151515" stroke-width="1.5" cx="39" cy="3" r="2.25"></circle>
                    <use stroke="#151515" stroke-width="1" xlink:href="#path-1"></use>
                </g>
                <g id="Oval-Copy-169" transform="translate(50.000000, 42.000000) rotate(-90.000000) translate(-50.000000, -42.000000) ">
                    <use fill="#C2C2C2" fill-rule="evenodd" xlink:href="#path-2"></use>
                    <circle stroke="#151515" stroke-width="1.5" cx="50" cy="42" r="2.25"></circle>
                    <use stroke="#151515" stroke-width="1" xlink:href="#path-2"></use>
                </g>
                <g id="Oval-Copy-178" transform="translate(5.000000, 32.000000) rotate(-90.000000) translate(-5.000000, -32.000000) ">
                    <use fill="#C2C2C2" fill-rule="evenodd" xlink:href="#path-3"></use>
                    <circle stroke="#151515" stroke-width="1.5" cx="5" cy="32" r="2.25"></circle>
                    <use stroke="#151515" stroke-width="1" xlink:href="#path-3"></use>
                </g>
                <g id="Oval-Copy-170" transform="translate(76.500000, 15.000000) rotate(-90.000000) translate(-76.500000, -15.000000) ">
                    <use fill="#C2C2C2" fill-rule="evenodd" xlink:href="#path-4"></use>
                    <circle stroke="#151515" stroke-width="1.5" cx="76.5" cy="15" r="2.25"></circle>
                    <use stroke="#151515" stroke-width="1" xlink:href="#path-4"></use>
                </g>
                <g id="Oval-Copy-170" transform="translate(77.000000, 39.000000) rotate(-90.000000) translate(-77.000000, -39.000000) ">
                    <use fill="#C2C2C2" fill-rule="evenodd" xlink:href="#path-5"></use>
                    <circle stroke="#151515" stroke-width="1.5" cx="77" cy="39" r="2.25"></circle>
                    <use stroke="#151515" stroke-width="1" xlink:href="#path-5"></use>
                </g>
                <g id="Oval-Copy-173" transform="translate(46.000000, 75.000000) rotate(-90.000000) translate(-46.000000, -75.000000) ">
                    <use fill="#C2C2C2" fill-rule="evenodd" xlink:href="#path-6"></use>
                    <circle stroke="#151515" stroke-width="1.5" cx="46" cy="75" r="2.25"></circle>
                    <use stroke="#151515" stroke-width="1" xlink:href="#path-6"></use>
                </g>
                <g id="Oval-Copy-174" transform="translate(5.000000, 75.000000) rotate(-90.000000) translate(-5.000000, -75.000000) ">
                    <use fill="#C2C2C2" fill-rule="evenodd" xlink:href="#path-7"></use>
                    <circle stroke="#151515" stroke-width="1.5" cx="5" cy="75" r="2.25"></circle>
                    <use stroke="#151515" stroke-width="1" xlink:href="#path-7"></use>
                </g>
            </g>
        </g>
    </g>
</svg>