<?xml version="1.0" encoding="UTF-8"?>
<svg width="56px" height="97px" viewBox="0 0 56 97" version="1.1" xmlns="http://www.w3.org/2000/svg" xmlns:xlink="http://www.w3.org/1999/xlink">
    <!-- Generator: Sketch 47.1 (45422) - http://www.bohemiancoding.com/sketch -->
    <title>location-pin</title>
    <desc>Created with Sketch.</desc>
    <defs>
        <circle id="path-1" cx="27" cy="92" r="3"></circle>
        <circle id="path-2" cx="27" cy="3" r="3"></circle>
        <circle id="path-3" cx="19" cy="37" r="3"></circle>
        <circle id="path-4" cx="35" cy="22" r="3"></circle>
    </defs>
    <g id="Version-2" stroke="none" stroke-width="1" fill="none" fill-rule="evenodd">
        <g id="full-preview-1" transform="translate(-595.000000, -1286.000000)">
            <g id="location-pin" transform="translate(596.000000, 1287.000000)">
                <path d="M53.5876093,31.3424869 C53.5876093,47.1535871 27,90.4814961 27,90.4814961 C27,90.4814961 0.412390744,47.1535871 0.412390744,31.3424869 C0.412390744,15.5390174 12.3130046,2.72683724 27,2.72683724 C41.6834503,2.72683724 53.5876093,15.5390174 53.5876093,31.3424869 Z" id="Stroke-1" stroke="#3F3F3F" stroke-linecap="round" stroke-linejoin="round"></path>
                <path d="M37.6350437,29.7808958 C37.6350437,35.7580391 32.8705441,40.6025192 27,40.6025192 C21.1259109,40.6025192 16.3649563,35.7580391 16.3649563,29.7808958 C16.3649563,23.8073597 21.1259109,18.9592724 27,18.9592724 C32.8705441,18.9592724 37.6350437,23.8073597 37.6350437,29.7808958 Z" id="Stroke-3" stroke="#3F3F3F" stroke-linecap="round" stroke-linejoin="round"></path>
                <g id="Oval-Copy-124" transform="translate(27.000000, 92.000000) rotate(-90.000000) translate(-27.000000, -92.000000) ">
                    <use fill="#C2C2C2" fill-rule="evenodd" xlink:href="#path-1"></use>
                    <circle stroke="#151515" stroke-width="1.5" cx="27" cy="92" r="2.25"></circle>
                    <use stroke="#151515" stroke-width="1" xlink:href="#path-1"></use>
                </g>
                <g id="Oval-Copy-125" transform="translate(27.000000, 3.000000) rotate(-90.000000) translate(-27.000000, -3.000000) ">
                    <use fill="#C2C2C2" fill-rule="evenodd" xlink:href="#path-2"></use>
                    <circle stroke="#151515" stroke-width="1.5" cx="27" cy="3" r="2.25"></circle>
                    <use stroke="#151515" stroke-width="1" xlink:href="#path-2"></use>
                </g>
                <g id="Oval-Copy-129" transform="translate(19.000000, 37.000000) rotate(-90.000000) translate(-19.000000, -37.000000) ">
                    <use fill="#C2C2C2" fill-rule="evenodd" xlink:href="#path-3"></use>
                    <circle stroke="#151515" stroke-width="1.5" cx="19" cy="37" r="2.25"></circle>
                    <use stroke="#151515" stroke-width="1" xlink:href="#path-3"></use>
                </g>
                <g id="Oval-Copy-130" transform="translate(35.000000, 22.000000) rotate(-90.000000) translate(-35.000000, -22.000000) ">
                    <use fill="#C2C2C2" fill-rule="evenodd" xlink:href="#path-4"></use>
                    <circle stroke="#151515" stroke-width="1.5" cx="35" cy="22" r="2.25"></circle>
                    <use stroke="#151515" stroke-width="1" xlink:href="#path-4"></use>
                </g>
            </g>
        </g>
    </g>
</svg>