<?xml version="1.0" encoding="UTF-8"?>
<svg width="80px" height="70px" viewBox="0 0 80 70" version="1.1" xmlns="http://www.w3.org/2000/svg" xmlns:xlink="http://www.w3.org/1999/xlink">
    <!-- Generator: Sketch 47.1 (45422) - http://www.bohemiancoding.com/sketch -->
    <title>mansion-building</title>
    <desc>Created with Sketch.</desc>
    <defs>
        <circle id="path-1" cx="40" cy="12" r="3"></circle>
        <circle id="path-2" cx="40" cy="52.5" r="3"></circle>
        <circle id="path-3" cx="7" cy="35" r="3"></circle>
        <circle id="path-4" cx="72.5" cy="35" r="3"></circle>
    </defs>
    <g id="Version-2" stroke="none" stroke-width="1" fill="none" fill-rule="evenodd">
        <g id="full-preview-8" transform="translate(-965.000000, -1052.000000)">
            <g id="mansion-building" transform="translate(966.000000, 1052.000000)">
                <path d="M78.5015923,69 L0,69" id="Rectangle-10" stroke="#3F3F3F" stroke-linecap="round" stroke-linejoin="round"></path>
                <polyline id="Path-443" stroke="#3F3F3F" stroke-linecap="round" stroke-linejoin="round" points="54.2253626 25.2231133 75.1735656 25.2231133 65.1058019 0.5 13.9467287 0.5 4 25.2231133 25.5449191 25.2231133"></polyline>
                <path d="M7,69.1310244 L7,25.4877797" id="Path-442" stroke="#3F3F3F" stroke-linecap="round" stroke-linejoin="round"></path>
                <path d="M72.5,69.1310244 L72.5,25.4510935" id="Path-442" stroke="#3F3F3F" stroke-linecap="round" stroke-linejoin="round"></path>
                <polyline id="Path-441" stroke="#3F3F3F" stroke-linecap="round" stroke-linejoin="round" points="25.5 69.1378457 25.5 25.3056745 39.834874 12 54.2185343 25.3056745 54.2185343 69.2180008"></polyline>
                <rect id="Rectangle-9" stroke="#3F3F3F" stroke-linecap="round" stroke-linejoin="round" x="13" y="32" width="7" height="7"></rect>
                <rect id="Rectangle-9" stroke="#3F3F3F" stroke-linecap="round" stroke-linejoin="round" x="13" y="45" width="7" height="7"></rect>
                <rect id="Rectangle-9" stroke="#3F3F3F" stroke-linecap="round" stroke-linejoin="round" x="60" y="32" width="7" height="7"></rect>
                <rect id="Rectangle-9" stroke="#3F3F3F" stroke-linecap="round" stroke-linejoin="round" x="60" y="45" width="7" height="7"></rect>
                <path d="M32.859337,39.5599682 L46.8056448,39.5599682" id="Path-444" stroke="#3F3F3F" stroke-linecap="round" stroke-linejoin="round"></path>
                <g id="Oval-Copy-583" transform="translate(40.000000, 12.000000) rotate(-90.000000) translate(-40.000000, -12.000000) ">
                    <use fill="#C2C2C2" fill-rule="evenodd" xlink:href="#path-1"></use>
                    <circle stroke="#151515" stroke-width="1.5" cx="40" cy="12" r="2.25"></circle>
                    <use stroke="#151515" stroke-width="1" xlink:href="#path-1"></use>
                </g>
                <path d="M35.4680197,39.4045831 C35.4680197,37.430255 35.4680197,35.791255 35.4680197,34.4875831 C35.4680197,32.5320754 37.4061233,30.5965387 39.8973348,30.5965387 C42.3885462,30.5965387 44.3242525,32.5921796 44.3242525,34.694463 C44.3242525,36.0959853 44.3242525,37.6739513 44.3242525,39.428361" id="Path-445" stroke="#3F3F3F" stroke-linecap="round" stroke-linejoin="round"></path>
                <g id="Group-4" transform="translate(32.500000, 45.000000)" stroke="#3F3F3F" stroke-linecap="round" stroke-linejoin="round">
                    <path d="M0.766022244,23.81999 C0.766022244,12.4077609 0.766022244,5.89833573 0.766022244,4.29171449 C0.766022244,1.88178263 2.52205012,0.0829038988 4.98083195,0.0829038988 C7.43961378,0.0829038988 8.15790907,0.0829038988 10.4122015,0.0829038988 C12.666494,0.0829038988 14.5828507,1.48476573 14.5828507,4.24334682 C14.5828507,6.08240087 14.5828507,12.5810126 14.5828507,23.739182" id="Path-446"></path>
                    <path d="M7.64218763,23.7126553 L7.64218763,7.69722558" id="Path-448"></path>
                    <path d="M0.865516331,7.59920531 L14.4789553,7.59920531" id="Path-447"></path>
                </g>
                <g id="Oval-Copy-583" transform="translate(40.000000, 52.500000) rotate(-90.000000) translate(-40.000000, -52.500000) ">
                    <use fill="#C2C2C2" fill-rule="evenodd" xlink:href="#path-2"></use>
                    <circle stroke="#151515" stroke-width="1.5" cx="40" cy="52.5" r="2.25"></circle>
                    <use stroke="#151515" stroke-width="1" xlink:href="#path-2"></use>
                </g>
                <g id="Oval-Copy-583" transform="translate(7.000000, 35.000000) rotate(-90.000000) translate(-7.000000, -35.000000) ">
                    <use fill="#C2C2C2" fill-rule="evenodd" xlink:href="#path-3"></use>
                    <circle stroke="#151515" stroke-width="1.5" cx="7" cy="35" r="2.25"></circle>
                    <use stroke="#151515" stroke-width="1" xlink:href="#path-3"></use>
                </g>
                <g id="Oval-Copy-583" transform="translate(72.500000, 35.000000) rotate(-90.000000) translate(-72.500000, -35.000000) ">
                    <use fill="#C2C2C2" fill-rule="evenodd" xlink:href="#path-4"></use>
                    <circle stroke="#151515" stroke-width="1.5" cx="72.5" cy="35" r="2.25"></circle>
                    <use stroke="#151515" stroke-width="1" xlink:href="#path-4"></use>
                </g>
            </g>
        </g>
    </g>
</svg>