<?xml version="1.0" encoding="UTF-8"?>
<svg width="92px" height="52px" viewBox="0 0 92 52" version="1.1" xmlns="http://www.w3.org/2000/svg" xmlns:xlink="http://www.w3.org/1999/xlink">
    <!-- Generator: Sketch 47.1 (45422) - http://www.bohemiancoding.com/sketch -->
    <title>melon-fruit</title>
    <desc>Created with Sketch.</desc>
    <defs>
        <circle id="path-1" cx="80" cy="3" r="3"></circle>
        <circle id="path-2" cx="11" cy="3" r="3"></circle>
        <circle id="path-3" cx="45" cy="47" r="3"></circle>
    </defs>
    <g id="Version-2" stroke="none" stroke-width="1" fill="none" fill-rule="evenodd">
        <g id="full-preview-5" transform="translate(-770.000000, -406.000000)">
            <g id="melon-fruit" transform="translate(770.000000, 407.000000)">
                <path d="M28.25,54.25 C47.3038239,54.25 62.75,38.8038239 62.75,19.75 C62.75,0.696176132 47.3038239,-14.75 28.25,-14.75" id="Oval-16" stroke="#3F3F3F" stroke-linecap="round" stroke-linejoin="round" transform="translate(45.500000, 19.750000) rotate(-270.000000) translate(-45.500000, -19.750000) "></path>
                <path d="M23.3125,69.8125 C48.0962781,69.8125 68.1875,49.7212781 68.1875,24.9375 C68.1875,0.153721853 48.0962781,-19.9375 23.3125,-19.9375" id="Oval-16" stroke="#3F3F3F" stroke-linecap="round" stroke-linejoin="round" transform="translate(45.750000, 24.937500) rotate(-270.000000) translate(-45.750000, -24.937500) "></path>
                <ellipse id="Oval-17" stroke="#3F3F3F" stroke-linecap="round" stroke-linejoin="round" cx="45" cy="18" rx="3" ry="5"></ellipse>
                <ellipse id="Oval-17-Copy" stroke="#3F3F3F" stroke-linecap="round" stroke-linejoin="round" transform="translate(25.656854, 12.656854) rotate(-315.000000) translate(-25.656854, -12.656854) " cx="25.6568542" cy="12.6568542" rx="3" ry="5"></ellipse>
                <ellipse id="Oval-17-Copy-2" stroke="#3F3F3F" stroke-linecap="round" stroke-linejoin="round" transform="translate(64.656854, 12.656854) scale(-1, 1) rotate(-315.000000) translate(-64.656854, -12.656854) " cx="64.6568542" cy="12.6568542" rx="3" ry="5"></ellipse>
                <path d="M0.873996444,2.5 L90.5499861,2.5" id="Line-5" stroke="#3F3F3F" stroke-linecap="round" stroke-linejoin="round"></path>
                <g id="Oval-Copy-417" transform="translate(80.000000, 3.000000) rotate(-90.000000) translate(-80.000000, -3.000000) ">
                    <use fill="#C2C2C2" fill-rule="evenodd" xlink:href="#path-1"></use>
                    <circle stroke="#151515" stroke-width="1.5" cx="80" cy="3" r="2.25"></circle>
                    <use stroke="#151515" stroke-width="1" xlink:href="#path-1"></use>
                </g>
                <g id="Oval-Copy-421" transform="translate(11.000000, 3.000000) rotate(-90.000000) translate(-11.000000, -3.000000) ">
                    <use fill="#C2C2C2" fill-rule="evenodd" xlink:href="#path-2"></use>
                    <circle stroke="#151515" stroke-width="1.5" cx="11" cy="3" r="2.25"></circle>
                    <use stroke="#151515" stroke-width="1" xlink:href="#path-2"></use>
                </g>
                <g id="Oval-Copy-420" transform="translate(45.000000, 47.000000) rotate(-90.000000) translate(-45.000000, -47.000000) ">
                    <use fill="#C2C2C2" fill-rule="evenodd" xlink:href="#path-3"></use>
                    <circle stroke="#151515" stroke-width="1.5" cx="45" cy="47" r="2.25"></circle>
                    <use stroke="#151515" stroke-width="1" xlink:href="#path-3"></use>
                </g>
            </g>
        </g>
    </g>
</svg>