<?xml version="1.0" encoding="UTF-8"?>
<svg width="76px" height="73px" viewBox="0 0 76 73" version="1.1" xmlns="http://www.w3.org/2000/svg" xmlns:xlink="http://www.w3.org/1999/xlink">
    <!-- Generator: Sketch 47.1 (45422) - http://www.bohemiancoding.com/sketch -->
    <title>mobile-health-care</title>
    <desc>Created with Sketch.</desc>
    <defs>
        <circle id="path-1" cx="22" cy="23.5" r="3"></circle>
        <circle id="path-2" cx="60.5" cy="34" r="3"></circle>
        <circle id="path-3" cx="3" cy="61.5" r="3"></circle>
        <circle id="path-4" cx="3" cy="10.5" r="3"></circle>
    </defs>
    <g id="Version-2" stroke="none" stroke-width="1" fill="none" fill-rule="evenodd">
        <g id="full-preview-7" transform="translate(-970.000000, -386.000000)">
            <g id="mobile-health-care" transform="translate(971.000000, 387.000000)">
                <path d="M3.01315915,4.23526934 C3.01315915,2.39962531 4.23445031,0.713862191 6.23374524,0.713862191 C8.23304017,0.713862191 36.4956982,0.713862191 38.4996061,0.713862191 C40.503514,0.713862191 42.0150996,2.25592408 42.0150996,4.22935574 C42.0150996,6.2027874 42.0150996,65.6573856 42.0150996,67.6582905 C42.0150996,69.6591953 40.2629531,71.4802668 38.534614,71.4802668 C36.8062749,71.4802668 8.47812784,71.4802668 6.21038026,71.4802668 C3.94263269,71.4802668 2.83149084,69.9131887 2.83149084,67.7598867 C2.83149084,65.6065848 3.01315915,6.07091338 3.01315915,4.23526934 Z" id="Path-382" stroke="#3F3F3F" stroke-linecap="round" stroke-linejoin="round"></path>
                <path d="M3.13585881,10.5 L42.0062037,10.5" id="Line-6" stroke="#3F3F3F" stroke-linecap="round" stroke-linejoin="round"></path>
                <path d="M3.13585881,61.5 L42.0062037,61.5" id="Line-6" stroke="#3F3F3F" stroke-linecap="round" stroke-linejoin="round"></path>
                <path d="M29.5,5.5 L19.4501244,5.5" id="Line-7" stroke="#3F3F3F" stroke-linecap="round" stroke-linejoin="round"></path>
                <circle id="Oval-29" stroke="#3F3F3F" stroke-linecap="round" stroke-linejoin="round" cx="22" cy="23.5" r="8"></circle>
                <path d="M51.5114697,3 C49.4353807,3 47,4.50089687 47,7.00228326 C47,9.50366965 47,14.6288799 47,16.7056914 C47,18.7825028 49.4708222,23.8116128 53.0042378,27.2790227 C56.5376533,30.7464327 60.3780114,33.0062319 60.3780114,34.4138104" id="Path-384" stroke="#3F3F3F" stroke-linecap="round" stroke-linejoin="round"></path>
                <path d="M52.0060637,0.888865792 C51.9924204,3.19375176 52.0060637,5.37022976 52.0060637,5.95806937 C52.0060637,6.54590898 52.5222489,6.9790944 52.9884555,6.9790944 C53.4546622,6.9790944 54.9911028,6.9790944 55.4652578,6.9790944 C55.9394129,6.9790944 56.3857871,6.5585063 56.3857871,6.04805022 C56.3857871,5.53759415 56.3857871,1.77609511 56.3857871,1.02887447 C56.3857871,0.281653835 55.8470436,0 55.5244335,0 C55.2018234,0 53.3329519,0 52.8252197,0 C52.3174875,0 52.0089002,0.40966127 52.0060637,0.888865792 Z" id="Path-385" stroke="#3F3F3F" stroke-linecap="round" stroke-linejoin="round"></path>
                <path d="M65.1334583,3 C63.0573693,3 60.6219886,4.50089687 60.6219886,7.00228326 C60.6219886,9.50366965 60.6219886,14.6288799 60.6219886,16.7056914 C60.6219886,18.7825028 63.0928108,23.8116128 66.6262264,27.2790227 C70.1596419,30.7464327 74,33.0062319 74,34.4138104" id="Path-384" stroke="#3F3F3F" stroke-linecap="round" stroke-linejoin="round" transform="translate(67.310994, 18.706905) scale(-1, 1) translate(-67.310994, -18.706905) "></path>
                <path d="M64.6202766,0.888865792 C64.6066333,3.19375176 64.6202766,5.37022976 64.6202766,5.95806937 C64.6202766,6.54590898 65.1364618,6.9790944 65.6026684,6.9790944 C66.0688751,6.9790944 67.6053157,6.9790944 68.0794708,6.9790944 C68.5536258,6.9790944 69,6.5585063 69,6.04805022 C69,5.53759415 69,1.77609511 69,1.02887447 C69,0.281653835 68.4612565,0 68.1386464,0 C67.8160363,0 65.9471648,0 65.4394326,0 C64.9317004,0 64.6231131,0.40966127 64.6202766,0.888865792 Z" id="Path-385" stroke="#3F3F3F" stroke-linecap="round" stroke-linejoin="round" transform="translate(66.807106, 3.489547) scale(-1, 1) translate(-66.807106, -3.489547) "></path>
                <g id="Oval-Copy-553" transform="translate(22.000000, 23.500000) rotate(-90.000000) translate(-22.000000, -23.500000) ">
                    <use fill="#C2C2C2" fill-rule="evenodd" xlink:href="#path-1"></use>
                    <circle stroke="#151515" stroke-width="1.5" cx="22" cy="23.5" r="2.25"></circle>
                    <use stroke="#151515" stroke-width="1" xlink:href="#path-1"></use>
                </g>
                <path d="M22.2059358,31.7921875 C22.2059358,33.6220689 22.2059358,35.5696656 22.2059358,37.6349776 C22.2059358,40.7329457 23.6021866,41.8706949 25.7439332,41.8706949 C27.8856798,41.8706949 28.8891704,41.8706949 31.0313847,41.8706949 C33.173599,41.8706949 34.8729352,43.4191314 34.8729352,45.4069775 C34.8729352,47.3948236 33.3482302,49.1148746 31.1650381,49.1148746 C28.9818459,49.1148746 14.7777291,49.1148746 12.4768512,49.1148746 C10.1759732,49.1148746 9.00357602,50.3569544 9.00357602,52.5881497 C9.00357602,54.8193451 10.8443045,55.9862087 12.6983986,55.9862087 C14.5524926,55.9862087 40.0776171,55.9862087 42.093578,55.9862087 C44.1095389,55.9862087 46.2225577,53.9189576 46.2225577,51.857229 C46.2225577,49.7955003 46.2225577,46.744613 46.2225577,44.4724861 C46.2225577,42.2003593 47.7399006,40.7919526 49.9030913,40.7919526 C52.066282,40.7919526 53.7137984,42.5799983 53.7137984,44.6026596 C53.7137984,46.625321 53.7137984,62.5989798 53.7137984,64.5344356 C53.7137984,66.4698914 55.0693937,67.8333655 57.0127283,67.8333655 C58.9560629,67.8333655 60.4767599,66.8522714 60.4767599,64.5661398 C60.4767599,63.042052 60.4767599,52.9890194 60.4767599,34.407042" id="Path-383" stroke="#3F3F3F" stroke-linecap="round" stroke-linejoin="round"></path>
                <g id="Oval-Copy-553" transform="translate(60.500000, 34.000000) rotate(-90.000000) translate(-60.500000, -34.000000) ">
                    <use fill="#C2C2C2" fill-rule="evenodd" xlink:href="#path-2"></use>
                    <circle stroke="#151515" stroke-width="1.5" cx="60.5" cy="34" r="2.25"></circle>
                    <use stroke="#151515" stroke-width="1" xlink:href="#path-2"></use>
                </g>
                <g id="Oval-Copy-553" transform="translate(3.000000, 61.500000) rotate(-90.000000) translate(-3.000000, -61.500000) ">
                    <use fill="#C2C2C2" fill-rule="evenodd" xlink:href="#path-3"></use>
                    <circle stroke="#151515" stroke-width="1.5" cx="3" cy="61.5" r="2.25"></circle>
                    <use stroke="#151515" stroke-width="1" xlink:href="#path-3"></use>
                </g>
                <g id="Oval-Copy-553" transform="translate(3.000000, 10.500000) rotate(-90.000000) translate(-3.000000, -10.500000) ">
                    <use fill="#C2C2C2" fill-rule="evenodd" xlink:href="#path-4"></use>
                    <circle stroke="#151515" stroke-width="1.5" cx="3" cy="10.5" r="2.25"></circle>
                    <use stroke="#151515" stroke-width="1" xlink:href="#path-4"></use>
                </g>
            </g>
        </g>
    </g>
</svg>