<?xml version="1.0" encoding="UTF-8"?>
<svg width="71px" height="80px" viewBox="0 0 71 80" version="1.1" xmlns="http://www.w3.org/2000/svg" xmlns:xlink="http://www.w3.org/1999/xlink">
    <!-- Generator: Sketch 47.1 (45422) - http://www.bohemiancoding.com/sketch -->
    <title>muscle-protein-powder-keg</title>
    <desc>Created with Sketch.</desc>
    <defs>
        <circle id="path-1" cx="12" cy="18" r="3"></circle>
        <circle id="path-2" cx="57" cy="18" r="3"></circle>
        <circle id="path-3" cx="61.5" cy="50" r="3"></circle>
        <circle id="path-4" cx="8.5" cy="50" r="3"></circle>
        <circle id="path-5" cx="35" cy="76" r="3"></circle>
    </defs>
    <g id="Version-2" stroke="none" stroke-width="1" fill="none" fill-rule="evenodd">
        <g id="full-preview-5" transform="translate(-971.000000, -1045.000000)">
            <g id="muscle-protein-powder-keg" transform="translate(972.000000, 1045.000000)">
                <path d="M35.4723838,18 L12.8487152,18 C5.69320148,25.4781332 1.76287052,29.5873823 1.05772231,30.3277475 C0,31.4382952 7.37866132e-17,32.4152614 0,33.9071235 C0,35.3989856 5.49898735e-17,66.420695 0,70.0593502 C0,73.6980054 2.74995657,76.0636117 5.760397,76.0636117 C7.76735728,76.0636117 17.5209746,76.0636117 35.021249,76.0636117" id="Path-28" stroke="#3F3F3F" stroke-linecap="round" stroke-linejoin="round"></path>
                <path d="M69.4723838,18 L46.8487152,18 C39.6932015,25.4781332 35.7628705,29.5873823 35.0577223,30.3277475 C34,31.4382952 34,32.4152614 34,33.9071235 C34,35.3989856 34,66.420695 34,70.0593502 C34,73.6980054 36.7499566,76.0636117 39.760397,76.0636117 C41.7673573,76.0636117 51.5209746,76.0636117 69.021249,76.0636117" id="Path-28-Copy" stroke="#3F3F3F" stroke-linecap="round" stroke-linejoin="round" transform="translate(51.736192, 47.031806) scale(-1, 1) translate(-51.736192, -47.031806) "></path>
                <path d="M40.6813547,17.9748681 C38.324249,17.9748681 38.8624628,17.9748681 37.3212961,17.9748681 C35.7801294,17.9748681 34,16.5431673 34,14.653572 C34,12.7639766 34,6.13881509 34,4.0471149 C34,1.9554147 35.3555916,0.600006104 37.4471088,0.600006104 C38.8414536,0.600006104 47.3109108,0.600006104 62.8554803,0.600006104" id="Path-29-Copy" stroke="#3F3F3F" stroke-linecap="round" stroke-linejoin="round" transform="translate(48.427740, 9.287437) scale(-1, 1) translate(-48.427740, -9.287437) "></path>
                <path d="M12.6813547,17.9748681 C10.324249,17.9748681 10.8624628,17.9748681 9.32129608,17.9748681 C7.78012935,17.9748681 6,16.5431673 6,14.653572 C6,12.7639766 6,6.13881509 6,4.0471149 C6,1.9554147 7.35559162,0.600006104 9.44710879,0.600006104 C10.8414536,0.600006104 19.3109108,0.600006104 34.8554803,0.600006104" id="Path-29" stroke="#3F3F3F" stroke-linecap="round" stroke-linejoin="round"></path>
                <path d="M21.8736651,32.3279386 C19.2759612,32.3279386 17.3866072,34.1456256 17.3866072,36.4016871 C17.3866072,38.6577487 17.4341672,37.3966599 17.3866072,41.0364757 C13.1718621,41.0364757 15.0060585,41.0364757 12.3576487,41.0364757 C9.70923892,41.0364757 8.59283632,43.0697597 8.59283632,44.8012881 C8.59283632,46.5328165 8.59283632,51.934034 8.59283632,54.3602288 C8.59283632,56.7864235 9.51394816,58.5406733 11.873431,58.5406733 C13.4464195,58.5406733 15.2773227,58.5406733 17.3661404,58.5406733 C17.3661404,60.5038876 17.3661404,62.329108 17.3661404,64.0163343 C17.3661404,66.5471738 19.0640848,67.8986364 21.8314054,67.8986364" id="Path-30" stroke="#3F3F3F" stroke-linecap="round" stroke-linejoin="round"></path>
                <path d="M21.75,32.2999878 C24.8540289,32.2999878 26.0754379,34.5108981 26.0754379,36.4457077 C26.0754379,37.7355808 26.0754379,40.7439971 26.0754379,45.4709567 L35.6628204,45.4709567" id="Path-31" stroke="#3F3F3F" stroke-linecap="round" stroke-linejoin="round"></path>
                <path d="M21.5,54.75 C24.6040289,54.75 25.8254379,56.9609103 25.8254379,58.8957199 C25.8254379,60.185593 25.8254379,63.1940093 25.8254379,67.9209689 L35.4128204,67.9209689" id="Path-31-Copy" stroke="#3F3F3F" stroke-linecap="round" stroke-linejoin="round" transform="translate(28.456410, 61.335484) scale(1, -1) translate(-28.456410, -61.335484) "></path>
                <path d="M61.4071637,32.3279386 C58.8094598,32.3279386 56.9201058,34.1456256 56.9201058,36.4016871 C56.9201058,38.6577487 56.9676658,37.3966599 56.9201058,41.0364757 C52.7053607,41.0364757 54.5395571,41.0364757 51.8911473,41.0364757 C49.2427375,41.0364757 48.1263349,43.0697597 48.1263349,44.8012881 C48.1263349,46.5328165 48.1263349,51.934034 48.1263349,54.3602288 C48.1263349,56.7864235 49.0474468,58.5406733 51.4069296,58.5406733 C52.9799182,58.5406733 54.8108213,58.5406733 56.899639,58.5406733 C56.899639,60.5038876 56.899639,62.329108 56.899639,64.0163343 C56.899639,66.5471738 58.5975834,67.8986364 61.3649041,67.8986364" id="Path-30" stroke="#3F3F3F" stroke-linecap="round" stroke-linejoin="round" transform="translate(54.766749, 50.113288) scale(-1, 1) translate(-54.766749, -50.113288) "></path>
                <path d="M34.3371796,32.2999878 C37.4412085,32.2999878 38.6626175,34.5108981 38.6626175,36.4457077 C38.6626175,37.7355808 38.6626175,40.7439971 38.6626175,45.4709567 L48.25,45.4709567" id="Path-31" stroke="#3F3F3F" stroke-linecap="round" stroke-linejoin="round" transform="translate(41.293590, 38.885472) scale(-1, 1) translate(-41.293590, -38.885472) "></path>
                <path d="M34.5871796,54.75 C37.6912085,54.75 38.9126175,56.9609103 38.9126175,58.8957199 C38.9126175,60.185593 38.9126175,63.1940093 38.9126175,67.9209689 L48.5,67.9209689" id="Path-31-Copy" stroke="#3F3F3F" stroke-linecap="round" stroke-linejoin="round" transform="translate(41.543590, 61.335484) scale(-1, -1) translate(-41.543590, -61.335484) "></path>
                <g id="Oval-Copy-439" transform="translate(12.000000, 18.000000) rotate(-90.000000) translate(-12.000000, -18.000000) ">
                    <use fill="#C2C2C2" fill-rule="evenodd" xlink:href="#path-1"></use>
                    <circle stroke="#151515" stroke-width="1.5" cx="12" cy="18" r="2.25"></circle>
                    <use stroke="#151515" stroke-width="1" xlink:href="#path-1"></use>
                </g>
                <g id="Oval-Copy-440" transform="translate(57.000000, 18.000000) rotate(-90.000000) translate(-57.000000, -18.000000) ">
                    <use fill="#C2C2C2" fill-rule="evenodd" xlink:href="#path-2"></use>
                    <circle stroke="#151515" stroke-width="1.5" cx="57" cy="18" r="2.25"></circle>
                    <use stroke="#151515" stroke-width="1" xlink:href="#path-2"></use>
                </g>
                <g id="Oval-Copy-442" transform="translate(61.500000, 50.000000) rotate(-90.000000) translate(-61.500000, -50.000000) ">
                    <use fill="#C2C2C2" fill-rule="evenodd" xlink:href="#path-3"></use>
                    <circle stroke="#151515" stroke-width="1.5" cx="61.5" cy="50" r="2.25"></circle>
                    <use stroke="#151515" stroke-width="1" xlink:href="#path-3"></use>
                </g>
                <g id="Oval-Copy-443" transform="translate(8.500000, 50.000000) rotate(-90.000000) translate(-8.500000, -50.000000) ">
                    <use fill="#C2C2C2" fill-rule="evenodd" xlink:href="#path-4"></use>
                    <circle stroke="#151515" stroke-width="1.5" cx="8.5" cy="50" r="2.25"></circle>
                    <use stroke="#151515" stroke-width="1" xlink:href="#path-4"></use>
                </g>
                <g id="Oval-Copy-441" transform="translate(35.000000, 76.000000) rotate(-90.000000) translate(-35.000000, -76.000000) ">
                    <use fill="#C2C2C2" fill-rule="evenodd" xlink:href="#path-5"></use>
                    <circle stroke="#151515" stroke-width="1.5" cx="35" cy="76" r="2.25"></circle>
                    <use stroke="#151515" stroke-width="1" xlink:href="#path-5"></use>
                </g>
            </g>
        </g>
    </g>
</svg>