<?xml version="1.0" encoding="UTF-8"?>
<svg width="105px" height="57px" viewBox="0 0 105 57" version="1.1" xmlns="http://www.w3.org/2000/svg" xmlns:xlink="http://www.w3.org/1999/xlink">
    <!-- Generator: Sketch 47.1 (45422) - http://www.bohemiancoding.com/sketch -->
    <title>observing-eye</title>
    <desc>Created with Sketch.</desc>
    <defs>
        <circle id="path-1" cx="43" cy="28" r="3"></circle>
        <circle id="path-2" cx="66" cy="36" r="3"></circle>
        <circle id="path-3" cx="100" cy="28" r="3"></circle>
        <circle id="path-4" cx="3" cy="28" r="3"></circle>
        <circle id="path-5" cx="49" cy="20" r="3"></circle>
    </defs>
    <g id="Version-2" stroke="none" stroke-width="1" fill="none" fill-rule="evenodd">
        <g id="full-preview-3" transform="translate(-764.000000, -1062.000000)">
            <g id="observing-eye" transform="translate(765.000000, 1063.000000)">
                <path d="M100.152711,27.75 C100.152711,27.75 78.2613061,55.3906627 51.25,55.3906627 C24.2386939,55.3906627 2.3472891,27.75 2.3472891,27.75 C2.3472891,27.75 24.2386939,0.109337318 51.25,0.109337318 C78.2613061,0.109337318 100.152711,27.75 100.152711,27.75 Z" id="Stroke-1" stroke="#3F3F3F" stroke-linecap="round" stroke-linejoin="round"></path>
                <path d="M67.955895,28.0537435 C67.955895,37.4515689 60.3398294,45.0633821 50.9462565,45.0633821 C41.5526836,45.0633821 33.9366179,37.4515689 33.9366179,28.0537435 C33.9366179,18.6559182 41.5526836,11.044105 50.9462565,11.044105 C60.3398294,11.044105 67.955895,18.6559182 67.955895,28.0537435 Z" id="Stroke-3" stroke="#3F3F3F" stroke-linecap="round" stroke-linejoin="round"></path>
                <path d="M50.9462565,19.5489243 C55.6451691,19.5489243 59.4510757,23.3590833 59.4510757,28.0537435 C59.4510757,32.7484038 55.6451691,36.5585628 50.9462565,36.5585628 C46.2515962,36.5585628 42.4414372,32.7484038 42.4414372,28.0537435" id="Stroke-5" stroke="#3F3F3F" stroke-linecap="round" stroke-linejoin="round"></path>
                <g id="Oval-Copy-464" transform="translate(43.000000, 28.000000) rotate(-360.000000) translate(-43.000000, -28.000000) ">
                    <use fill="#C2C2C2" fill-rule="evenodd" xlink:href="#path-1"></use>
                    <circle stroke="#151515" stroke-width="1.5" cx="43" cy="28" r="2.25"></circle>
                    <use stroke="#151515" stroke-width="1" xlink:href="#path-1"></use>
                </g>
                <g id="Oval-Copy-466" transform="translate(66.000000, 36.000000) rotate(-360.000000) translate(-66.000000, -36.000000) ">
                    <use fill="#C2C2C2" fill-rule="evenodd" xlink:href="#path-2"></use>
                    <circle stroke="#151515" stroke-width="1.5" cx="66" cy="36" r="2.25"></circle>
                    <use stroke="#151515" stroke-width="1" xlink:href="#path-2"></use>
                </g>
                <g id="Oval-Copy-467" transform="translate(100.000000, 28.000000) rotate(-360.000000) translate(-100.000000, -28.000000) ">
                    <use fill="#C2C2C2" fill-rule="evenodd" xlink:href="#path-3"></use>
                    <circle stroke="#151515" stroke-width="1.5" cx="100" cy="28" r="2.25"></circle>
                    <use stroke="#151515" stroke-width="1" xlink:href="#path-3"></use>
                </g>
                <g id="Oval-Copy-468" transform="translate(3.000000, 28.000000) rotate(-360.000000) translate(-3.000000, -28.000000) ">
                    <use fill="#C2C2C2" fill-rule="evenodd" xlink:href="#path-4"></use>
                    <circle stroke="#151515" stroke-width="1.5" cx="3" cy="28" r="2.25"></circle>
                    <use stroke="#151515" stroke-width="1" xlink:href="#path-4"></use>
                </g>
                <g id="Oval-Copy-465" transform="translate(49.000000, 20.000000) rotate(-360.000000) translate(-49.000000, -20.000000) ">
                    <use fill="#C2C2C2" fill-rule="evenodd" xlink:href="#path-5"></use>
                    <circle stroke="#151515" stroke-width="1.5" cx="49" cy="20" r="2.25"></circle>
                    <use stroke="#151515" stroke-width="1" xlink:href="#path-5"></use>
                </g>
            </g>
        </g>
    </g>
</svg>