<?xml version="1.0" encoding="UTF-8"?>
<svg width="91px" height="87px" viewBox="0 0 91 87" version="1.1" xmlns="http://www.w3.org/2000/svg" xmlns:xlink="http://www.w3.org/1999/xlink">
    <!-- Generator: Sketch 47.1 (45422) - http://www.bohemiancoding.com/sketch -->
    <title>office-complex-2</title>
    <desc>Created with Sketch.</desc>
    <defs>
        <circle id="path-1" cx="28" cy="3" r="3"></circle>
        <circle id="path-2" cx="3" cy="82.5" r="3"></circle>
        <circle id="path-3" cx="86" cy="82.5" r="3"></circle>
        <circle id="path-4" cx="62" cy="18" r="3"></circle>
    </defs>
    <g id="Version-2" stroke="none" stroke-width="1" fill="none" fill-rule="evenodd">
        <g id="full-preview-8" transform="translate(-394.000000, -872.000000)">
            <g id="office-complex-2" transform="translate(395.000000, 873.000000)">
                <path d="M3.5,82.5 L84.5246876,82.5" id="Line" stroke="#3F3F3F" stroke-linecap="round" stroke-linejoin="round"></path>
                <polyline id="Path-410" stroke="#3F3F3F" stroke-linecap="round" stroke-linejoin="round" points="45.2899984 32.7429593 77.925365 32.7429593 77.925365 82.4243849"></polyline>
                <path d="M61.9317966,25.3357994 L61.9317966,18.7884066" id="Path-412" stroke="#3F3F3F" stroke-linecap="round" stroke-linejoin="round"></path>
                <path d="M28,10.5473928 L28,4" id="Path-412" stroke="#3F3F3F" stroke-linecap="round" stroke-linejoin="round"></path>
                <polyline id="Path-411" stroke="#3F3F3F" stroke-linecap="round" stroke-linejoin="round" points="17.5 18.1534068 17.5 10.7879545 39.0445161 10.7879545 39.0445161 18.1261344"></polyline>
                <rect id="Rectangle-9" stroke="#3F3F3F" stroke-linecap="round" stroke-linejoin="round" x="17" y="24" width="9" height="9"></rect>
                <rect id="Rectangle-9" stroke="#3F3F3F" stroke-linecap="round" stroke-linejoin="round" x="30" y="24" width="9" height="9"></rect>
                <rect id="Rectangle-9" stroke="#3F3F3F" stroke-linecap="round" stroke-linejoin="round" x="17" y="38" width="9" height="9"></rect>
                <rect id="Rectangle-9" stroke="#3F3F3F" stroke-linecap="round" stroke-linejoin="round" x="30" y="38" width="9" height="9"></rect>
                <rect id="Rectangle-9" stroke="#3F3F3F" stroke-linecap="round" stroke-linejoin="round" x="17" y="51.5" width="9" height="9"></rect>
                <rect id="Rectangle-9" stroke="#3F3F3F" stroke-linecap="round" stroke-linejoin="round" x="30" y="51.5" width="9" height="9"></rect>
                <rect id="Rectangle-9" stroke="#3F3F3F" stroke-linecap="round" stroke-linejoin="round" x="50.5" y="38" width="9" height="9"></rect>
                <rect id="Rectangle-9" stroke="#3F3F3F" stroke-linecap="round" stroke-linejoin="round" x="63.5" y="38" width="9" height="9"></rect>
                <rect id="Rectangle-9" stroke="#3F3F3F" stroke-linecap="round" stroke-linejoin="round" x="50.5" y="52" width="9" height="9"></rect>
                <rect id="Rectangle-9" stroke="#3F3F3F" stroke-linecap="round" stroke-linejoin="round" x="63.5" y="52" width="9" height="9"></rect>
                <rect id="Rectangle-9" stroke="#3F3F3F" stroke-linecap="round" stroke-linejoin="round" x="50.5" y="65.5" width="9" height="9"></rect>
                <rect id="Rectangle-9" stroke="#3F3F3F" stroke-linecap="round" stroke-linejoin="round" x="63.5" y="65.5" width="9" height="9"></rect>
                <polyline id="Rectangle-9" stroke="#3F3F3F" stroke-linecap="round" stroke-linejoin="round" points="22 82 22 68 22 68 34 68 34 82"></polyline>
                <polyline id="Path-403" stroke="#3F3F3F" stroke-linecap="round" stroke-linejoin="round" points="10.9661068 82.418946 10.9661068 18.406757 44.9987089 18.406757 44.9987089 82.3891908"></polyline>
                <polyline id="Path-411" stroke="#3F3F3F" stroke-linecap="round" stroke-linejoin="round" points="50.9972621 32.706665 50.9972621 25.5763611 72.5417781 25.5763611 72.5417781 32.5927458"></polyline>
                <g id="Oval-Copy-580" transform="translate(28.000000, 3.000000) rotate(-90.000000) translate(-28.000000, -3.000000) ">
                    <use fill="#C2C2C2" fill-rule="evenodd" xlink:href="#path-1"></use>
                    <circle stroke="#151515" stroke-width="1.5" cx="28" cy="3" r="2.25"></circle>
                    <use stroke="#151515" stroke-width="1" xlink:href="#path-1"></use>
                </g>
                <g id="Oval-Copy-582" transform="translate(3.000000, 82.500000) rotate(-90.000000) translate(-3.000000, -82.500000) ">
                    <use fill="#C2C2C2" fill-rule="evenodd" xlink:href="#path-2"></use>
                    <circle stroke="#151515" stroke-width="1.5" cx="3" cy="82.5" r="2.25"></circle>
                    <use stroke="#151515" stroke-width="1" xlink:href="#path-2"></use>
                </g>
                <g id="Oval-Copy-583" transform="translate(86.000000, 82.500000) rotate(-90.000000) translate(-86.000000, -82.500000) ">
                    <use fill="#C2C2C2" fill-rule="evenodd" xlink:href="#path-3"></use>
                    <circle stroke="#151515" stroke-width="1.5" cx="86" cy="82.5" r="2.25"></circle>
                    <use stroke="#151515" stroke-width="1" xlink:href="#path-3"></use>
                </g>
                <g id="Oval-Copy-581" transform="translate(62.000000, 18.000000) rotate(-90.000000) translate(-62.000000, -18.000000) ">
                    <use fill="#C2C2C2" fill-rule="evenodd" xlink:href="#path-4"></use>
                    <circle stroke="#151515" stroke-width="1.5" cx="62" cy="18" r="2.25"></circle>
                    <use stroke="#151515" stroke-width="1" xlink:href="#path-4"></use>
                </g>
            </g>
        </g>
    </g>
</svg>