<?xml version="1.0" encoding="UTF-8"?>
<svg width="85px" height="80px" viewBox="0 0 85 80" version="1.1" xmlns="http://www.w3.org/2000/svg" xmlns:xlink="http://www.w3.org/1999/xlink">
    <!-- Generator: Sketch 47.1 (45422) - http://www.bohemiancoding.com/sketch -->
    <title>office-complex-3</title>
    <desc>Created with Sketch.</desc>
    <defs>
        <circle id="path-1" cx="27" cy="55" r="3"></circle>
        <circle id="path-2" cx="56" cy="55" r="3"></circle>
        <circle id="path-3" cx="3" cy="75" r="3"></circle>
        <circle id="path-4" cx="41.5" cy="3" r="3"></circle>
        <circle id="path-5" cx="80" cy="75" r="3"></circle>
    </defs>
    <g id="Version-2" stroke="none" stroke-width="1" fill="none" fill-rule="evenodd">
        <g id="full-preview-8" transform="translate(-585.000000, -1211.000000)">
            <g id="office-complex-3" transform="translate(586.000000, 1212.000000)">
                <polyline id="Path-452" stroke="#3F3F3F" stroke-linecap="round" stroke-linejoin="round" points="26.8695348 26.0828429 26.8695348 15.4672554 2.91684431 15.4672554 2.91684431 75.2396217 41.4877888 75.2396217"></polyline>
                <path d="M26.8884938,34.3878603 L26.8884938,75.1888051" id="Path-454" stroke="#3F3F3F" stroke-linecap="round" stroke-linejoin="round"></path>
                <polyline id="Path-456" stroke="#3F3F3F" stroke-linecap="round" stroke-linejoin="round" points="36.1461938 75.0756981 36.1461938 61.8439048 41.3790283 61.8439048"></polyline>
                <path d="M41.4265996,3.40327797 L41.4265996,17.2385374" id="Path-458" stroke="#3F3F3F" stroke-linecap="round" stroke-linejoin="round"></path>
                <polyline id="Path-453" stroke="#3F3F3F" stroke-linecap="round" stroke-linejoin="round" points="41.5349091 26.1627107 24.489205 26.1627107 24.489205 34.3306106 41.6090238 34.3306106"></polyline>
                <path d="M26.9339413,55.1590707 L41.4757343,55.1590707" id="Path-455" stroke="#3F3F3F" stroke-linecap="round" stroke-linejoin="round"></path>
                <polyline id="Path-457" stroke="#3F3F3F" stroke-linecap="round" stroke-linejoin="round" points="34.0161073 26.0331641 34.0161073 17.1562823 41.412591 17.1562823"></polyline>
                <rect id="Rectangle-9" stroke="#3F3F3F" stroke-linecap="round" stroke-linejoin="round" x="34" y="43" width="4" height="4"></rect>
                <rect id="Rectangle-9" stroke="#3F3F3F" stroke-linecap="round" stroke-linejoin="round" x="45" y="43" width="4" height="4"></rect>
                <polyline id="Path-452" stroke="#3F3F3F" stroke-linecap="round" stroke-linejoin="round" transform="translate(60.797683, 45.353439) scale(-1, 1) translate(-60.797683, -45.353439) " points="65.4649017 26.0828429 65.4649017 15.4672554 41.5122112 15.4672554 41.5122112 75.2396217 80.0831557 75.2396217"></polyline>
                <path d="M56.1115062,34.3878603 L56.1115062,75.1888051" id="Path-454" stroke="#3F3F3F" stroke-linecap="round" stroke-linejoin="round" transform="translate(56.111506, 54.788333) scale(-1, 1) translate(-56.111506, -54.788333) "></path>
                <polyline id="Path-456" stroke="#3F3F3F" stroke-linecap="round" stroke-linejoin="round" transform="translate(43.803016, 68.459801) scale(-1, 1) translate(-43.803016, -68.459801) " points="40.752226 75.0756981 40.752226 61.8439048 46.8538062 61.8439048"></polyline>
                <polyline id="Path-453" stroke="#3F3F3F" stroke-linecap="round" stroke-linejoin="round" transform="translate(49.950886, 30.246661) scale(-1, 1) translate(-49.950886, -30.246661) " points="58.4366803 26.1627107 41.3909762 26.1627107 41.3909762 34.3306106 58.510795 34.3306106"></polyline>
                <path d="M41.5242657,55.1590707 L56.0660587,55.1590707" id="Path-455" stroke="#3F3F3F" stroke-linecap="round" stroke-linejoin="round" transform="translate(48.795162, 55.159071) scale(-1, 1) translate(-48.795162, -55.159071) "></path>
                <polyline id="Path-457" stroke="#3F3F3F" stroke-linecap="round" stroke-linejoin="round" transform="translate(45.010338, 21.594723) scale(-1, 1) translate(-45.010338, -21.594723) " points="41.0367832 26.0331641 41.0367832 17.1562823 48.9838927 17.1562823"></polyline>
                <rect id="Rectangle-9" stroke="#3F3F3F" stroke-linecap="round" stroke-linejoin="round" transform="translate(68.000000, 25.000000) scale(-1, 1) translate(-68.000000, -25.000000) " x="66" y="23" width="4" height="4"></rect>
                <rect id="Rectangle-9" stroke="#3F3F3F" stroke-linecap="round" stroke-linejoin="round" transform="translate(68.000000, 33.000000) scale(-1, 1) translate(-68.000000, -33.000000) " x="66" y="31" width="4" height="4"></rect>
                <rect id="Rectangle-9" stroke="#3F3F3F" stroke-linecap="round" stroke-linejoin="round" transform="translate(68.000000, 41.000000) scale(-1, 1) translate(-68.000000, -41.000000) " x="66" y="39" width="4" height="4"></rect>
                <rect id="Rectangle-9" stroke="#3F3F3F" stroke-linecap="round" stroke-linejoin="round" transform="translate(68.000000, 49.000000) scale(-1, 1) translate(-68.000000, -49.000000) " x="66" y="47" width="4" height="4"></rect>
                <rect id="Rectangle-9" stroke="#3F3F3F" stroke-linecap="round" stroke-linejoin="round" transform="translate(68.000000, 57.000000) scale(-1, 1) translate(-68.000000, -57.000000) " x="66" y="55" width="4" height="4"></rect>
                <rect id="Rectangle-9" stroke="#3F3F3F" stroke-linecap="round" stroke-linejoin="round" transform="translate(68.000000, 65.000000) scale(-1, 1) translate(-68.000000, -65.000000) " x="66" y="63" width="4" height="4"></rect>
                <rect id="Rectangle-9" stroke="#3F3F3F" stroke-linecap="round" stroke-linejoin="round" transform="translate(15.000000, 25.000000) scale(-1, 1) translate(-15.000000, -25.000000) " x="13" y="23" width="4" height="4"></rect>
                <rect id="Rectangle-9" stroke="#3F3F3F" stroke-linecap="round" stroke-linejoin="round" transform="translate(15.000000, 33.000000) scale(-1, 1) translate(-15.000000, -33.000000) " x="13" y="31" width="4" height="4"></rect>
                <rect id="Rectangle-9" stroke="#3F3F3F" stroke-linecap="round" stroke-linejoin="round" transform="translate(15.000000, 41.000000) scale(-1, 1) translate(-15.000000, -41.000000) " x="13" y="39" width="4" height="4"></rect>
                <rect id="Rectangle-9" stroke="#3F3F3F" stroke-linecap="round" stroke-linejoin="round" transform="translate(15.000000, 49.000000) scale(-1, 1) translate(-15.000000, -49.000000) " x="13" y="47" width="4" height="4"></rect>
                <rect id="Rectangle-9" stroke="#3F3F3F" stroke-linecap="round" stroke-linejoin="round" transform="translate(15.000000, 57.000000) scale(-1, 1) translate(-15.000000, -57.000000) " x="13" y="55" width="4" height="4"></rect>
                <rect id="Rectangle-9" stroke="#3F3F3F" stroke-linecap="round" stroke-linejoin="round" transform="translate(15.000000, 65.000000) scale(-1, 1) translate(-15.000000, -65.000000) " x="13" y="63" width="4" height="4"></rect>
                <g id="Oval-Copy-584" transform="translate(27.000000, 55.000000) rotate(-90.000000) translate(-27.000000, -55.000000) ">
                    <use fill="#C2C2C2" fill-rule="evenodd" xlink:href="#path-1"></use>
                    <circle stroke="#151515" stroke-width="1.5" cx="27" cy="55" r="2.25"></circle>
                    <use stroke="#151515" stroke-width="1" xlink:href="#path-1"></use>
                </g>
                <g id="Oval-Copy-584" transform="translate(56.000000, 55.000000) rotate(-90.000000) translate(-56.000000, -55.000000) ">
                    <use fill="#C2C2C2" fill-rule="evenodd" xlink:href="#path-2"></use>
                    <circle stroke="#151515" stroke-width="1.5" cx="56" cy="55" r="2.25"></circle>
                    <use stroke="#151515" stroke-width="1" xlink:href="#path-2"></use>
                </g>
                <g id="Oval-Copy-585" transform="translate(3.000000, 75.000000) rotate(-90.000000) translate(-3.000000, -75.000000) ">
                    <use fill="#C2C2C2" fill-rule="evenodd" xlink:href="#path-3"></use>
                    <circle stroke="#151515" stroke-width="1.5" cx="3" cy="75" r="2.25"></circle>
                    <use stroke="#151515" stroke-width="1" xlink:href="#path-3"></use>
                </g>
                <g id="Oval-Copy-584" transform="translate(41.500000, 3.000000) rotate(-90.000000) translate(-41.500000, -3.000000) ">
                    <use fill="#C2C2C2" fill-rule="evenodd" xlink:href="#path-4"></use>
                    <circle stroke="#151515" stroke-width="1.5" cx="41.5" cy="3" r="2.25"></circle>
                    <use stroke="#151515" stroke-width="1" xlink:href="#path-4"></use>
                </g>
                <g id="Oval-Copy-584" transform="translate(80.000000, 75.000000) rotate(-90.000000) translate(-80.000000, -75.000000) ">
                    <use fill="#C2C2C2" fill-rule="evenodd" xlink:href="#path-5"></use>
                    <circle stroke="#151515" stroke-width="1.5" cx="80" cy="75" r="2.25"></circle>
                    <use stroke="#151515" stroke-width="1" xlink:href="#path-5"></use>
                </g>
            </g>
        </g>
    </g>
</svg>