<?xml version="1.0" encoding="UTF-8"?>
<svg width="64px" height="85px" viewBox="0 0 64 85" version="1.1" xmlns="http://www.w3.org/2000/svg" xmlns:xlink="http://www.w3.org/1999/xlink">
    <!-- Generator: Sketch 47.1 (45422) - http://www.bohemiancoding.com/sketch -->
    <title>oil-platform</title>
    <desc>Created with Sketch.</desc>
    <defs>
        <circle id="path-1" cx="17" cy="55" r="3"></circle>
        <circle id="path-2" cx="17" cy="80" r="3"></circle>
        <circle id="path-3" cx="45" cy="55" r="3"></circle>
        <circle id="path-4" cx="45" cy="80" r="3"></circle>
        <circle id="path-5" cx="59" cy="80" r="3"></circle>
        <circle id="path-6" cx="3" cy="80" r="3"></circle>
        <circle id="path-7" cx="31" cy="16" r="3"></circle>
    </defs>
    <g id="Version-2" stroke="none" stroke-width="1" fill="none" fill-rule="evenodd">
        <g id="full-preview-2" transform="translate(-783.000000, -40.000000)">
            <g id="oil-platform" transform="translate(784.000000, 41.000000)">
                <path d="M58.5,79.4791667 L58.5,55.4304242" id="Line-Copy" stroke="#3F3F3F" stroke-linecap="round" stroke-linejoin="round"></path>
                <path d="M17,79.4292455 L17,65" id="Line-Copy-7" stroke="#3F3F3F" stroke-linecap="round" stroke-linejoin="round"></path>
                <path d="M45,79.4292455 L45,65" id="Line-Copy-6" stroke="#3F3F3F" stroke-linecap="round" stroke-linejoin="round"></path>
                <path d="M2.5,79.4791667 L2.5,55.4304242" id="Line-Copy-8" stroke="#3F3F3F" stroke-linecap="round" stroke-linejoin="round"></path>
                <path d="M45.5,54.6162791 L37.5,22.3837209" id="Line-Copy-3" stroke="#3F3F3F" stroke-linecap="round" stroke-linejoin="round"></path>
                <path d="M17,55.0324169 L25,23 L17,55.0324169 Z" id="Line-Copy-4" stroke="#3F3F3F" stroke-linecap="round" stroke-linejoin="round"></path>
                <path d="M58.5283307,55 L3,55" id="Line-Copy-2" stroke="#3F3F3F" stroke-linecap="round" stroke-linejoin="round"></path>
                <path d="M58.5283307,64 L3,64" id="Line-Copy-9" stroke="#3F3F3F" stroke-linecap="round" stroke-linejoin="round"></path>
                <path d="M58.519908,80 L45.4904029,80" id="Line-Copy-10" stroke="#3F3F3F" stroke-linecap="round" stroke-linejoin="round"></path>
                <path d="M16.5089257,80 L2.5,80" id="Line-Copy-11" stroke="#3F3F3F" stroke-linecap="round" stroke-linejoin="round"></path>
                <path d="M36.75,21.5 L26,21.5" id="Line-Copy-5" stroke="#3F3F3F" stroke-linecap="round" stroke-linejoin="round"></path>
                <path d="M30.6247652,1.84741111e-13 C28.4480559,0.589819706 24.536698,8.20517695 26.5667211,13.4213752 C28.5967441,18.6375735 37.8098453,15.805812 35.8194029,10.8334728 C33.8289604,5.86113364 31.067052,7.62782082 30.6247652,1.84741111e-13 Z" id="Path-26" stroke="#3F3F3F" stroke-linecap="round" stroke-linejoin="round"></path>
                <g id="Oval-Copy-278" transform="translate(17.000000, 55.000000) rotate(-90.000000) translate(-17.000000, -55.000000) ">
                    <use fill="#C2C2C2" fill-rule="evenodd" xlink:href="#path-1"></use>
                    <circle stroke="#151515" stroke-width="1.5" cx="17" cy="55" r="2.25"></circle>
                    <use stroke="#151515" stroke-width="1" xlink:href="#path-1"></use>
                </g>
                <g id="Oval-Copy-285" transform="translate(17.000000, 80.000000) rotate(-90.000000) translate(-17.000000, -80.000000) ">
                    <use fill="#C2C2C2" fill-rule="evenodd" xlink:href="#path-2"></use>
                    <circle stroke="#151515" stroke-width="1.5" cx="17" cy="80" r="2.25"></circle>
                    <use stroke="#151515" stroke-width="1" xlink:href="#path-2"></use>
                </g>
                <g id="Oval-Copy-279" transform="translate(45.000000, 55.000000) rotate(-90.000000) translate(-45.000000, -55.000000) ">
                    <use fill="#C2C2C2" fill-rule="evenodd" xlink:href="#path-3"></use>
                    <circle stroke="#151515" stroke-width="1.5" cx="45" cy="55" r="2.25"></circle>
                    <use stroke="#151515" stroke-width="1" xlink:href="#path-3"></use>
                </g>
                <g id="Oval-Copy-286" transform="translate(45.000000, 80.000000) rotate(-90.000000) translate(-45.000000, -80.000000) ">
                    <use fill="#C2C2C2" fill-rule="evenodd" xlink:href="#path-4"></use>
                    <circle stroke="#151515" stroke-width="1.5" cx="45" cy="80" r="2.25"></circle>
                    <use stroke="#151515" stroke-width="1" xlink:href="#path-4"></use>
                </g>
                <g id="Oval-Copy-289" transform="translate(59.000000, 80.000000) rotate(-90.000000) translate(-59.000000, -80.000000) ">
                    <use fill="#C2C2C2" fill-rule="evenodd" xlink:href="#path-5"></use>
                    <circle stroke="#151515" stroke-width="1.5" cx="59" cy="80" r="2.25"></circle>
                    <use stroke="#151515" stroke-width="1" xlink:href="#path-5"></use>
                </g>
                <g id="Oval-Copy-292" transform="translate(3.000000, 80.000000) rotate(-90.000000) translate(-3.000000, -80.000000) ">
                    <use fill="#C2C2C2" fill-rule="evenodd" xlink:href="#path-6"></use>
                    <circle stroke="#151515" stroke-width="1.5" cx="3" cy="80" r="2.25"></circle>
                    <use stroke="#151515" stroke-width="1" xlink:href="#path-6"></use>
                </g>
                <g id="Oval-Copy-282" transform="translate(31.000000, 16.000000) rotate(-90.000000) translate(-31.000000, -16.000000) ">
                    <use fill="#C2C2C2" fill-rule="evenodd" xlink:href="#path-7"></use>
                    <circle stroke="#151515" stroke-width="1.5" cx="31" cy="16" r="2.25"></circle>
                    <use stroke="#151515" stroke-width="1" xlink:href="#path-7"></use>
                </g>
            </g>
        </g>
    </g>
</svg>