<?xml version="1.0" encoding="UTF-8"?>
<svg width="86px" height="79px" viewBox="0 0 86 79" version="1.1" xmlns="http://www.w3.org/2000/svg" xmlns:xlink="http://www.w3.org/1999/xlink">
    <!-- Generator: Sketch 47.1 (45422) - http://www.bohemiancoding.com/sketch -->
    <title>one-family-house</title>
    <desc>Created with Sketch.</desc>
    <defs>
        <circle id="path-1" cx="81" cy="74" r="3"></circle>
        <circle id="path-2" cx="3" cy="74" r="3"></circle>
        <circle id="path-3" cx="59.5" cy="3" r="3"></circle>
        <circle id="path-4" cx="60" cy="54.5" r="3"></circle>
    </defs>
    <g id="Version-2" stroke="none" stroke-width="1" fill="none" fill-rule="evenodd">
        <g id="full-preview-7" transform="translate(-774.000000, -1042.000000)">
            <g id="one-family-house" transform="translate(775.000000, 1043.000000)">
                <path d="M80.5015923,74 L2,74" id="Rectangle-10" stroke="#3F3F3F" stroke-linecap="round" stroke-linejoin="round"></path>
                <g id="Oval-Copy-583" transform="translate(81.000000, 74.000000) rotate(-90.000000) translate(-81.000000, -74.000000) ">
                    <use fill="#C2C2C2" fill-rule="evenodd" xlink:href="#path-1"></use>
                    <circle stroke="#151515" stroke-width="1.5" cx="81" cy="74" r="2.25"></circle>
                    <use stroke="#151515" stroke-width="1" xlink:href="#path-1"></use>
                </g>
                <g id="Oval-Copy-583" transform="translate(3.000000, 74.000000) rotate(-90.000000) translate(-3.000000, -74.000000) ">
                    <use fill="#C2C2C2" fill-rule="evenodd" xlink:href="#path-2"></use>
                    <circle stroke="#151515" stroke-width="1.5" cx="3" cy="74" r="2.25"></circle>
                    <use stroke="#151515" stroke-width="1" xlink:href="#path-2"></use>
                </g>
                <path d="M11.2386595,73.7135767 L11.2386595,64.8619115" id="Path-433" stroke="#3F3F3F" stroke-linecap="round" stroke-linejoin="round"></path>
                <path d="M21.8032981,73.7531622 L21.8032981,38.945561" id="Path-435" stroke="#3F3F3F" stroke-linecap="round" stroke-linejoin="round"></path>
                <path d="M74.8032981,73.7531622 L74.8032981,38.945561" id="Path-435" stroke="#3F3F3F" stroke-linecap="round" stroke-linejoin="round"></path>
                <polygon id="Path-437" stroke="#3F3F3F" stroke-linecap="round" stroke-linejoin="round" points="53.3010183 48.1253356 66.1445809 48.1253356 66.1445809 61.2185959 53.2930314 61.2185959"></polygon>
                <polygon id="Path-438" stroke="#3F3F3F" stroke-linecap="round" stroke-linejoin="round" points="18.3862582 38.564351 78.4196319 38.564351 78.4196319 30.0597791 18.3433276 30.0597791"></polygon>
                <path d="M11.3490435,64.8154936 C17.9935946,64.8154936 17.9935946,56.7936897 11.3490435,40.750082 C4.70449233,56.7936897 4.70449233,64.8154936 11.3490435,64.8154936 Z" id="Path-434" stroke="#3F3F3F" stroke-linecap="round" stroke-linejoin="round"></path>
                <polyline id="Path-436" stroke="#3F3F3F" stroke-linecap="round" stroke-linejoin="round" points="30.4378289 73.6949146 30.4378289 48.1220835 44.5779989 48.1220835 44.5779989 73.8708907"></polyline>
                <polyline id="Path-439" stroke="#3F3F3F" stroke-linecap="round" stroke-linejoin="round" points="18.3287612 30.0544139 24.5230527 16.6654251 72.601489 16.6654251 78.4076952 30.0450949"></polyline>
                <polyline id="Path-440" stroke="#3F3F3F" stroke-linecap="round" stroke-linejoin="round" points="55.5 16.5299737 55.5 7.97923307 63.47774 7.97923307 63.47774 16.6371459"></polyline>
                <g id="Oval-Copy-583" transform="translate(59.500000, 3.000000) rotate(-90.000000) translate(-59.500000, -3.000000) ">
                    <use fill="#C2C2C2" fill-rule="evenodd" xlink:href="#path-3"></use>
                    <circle stroke="#151515" stroke-width="1.5" cx="59.5" cy="3" r="2.25"></circle>
                    <use stroke="#151515" stroke-width="1" xlink:href="#path-3"></use>
                </g>
                <g id="Oval-Copy-583" transform="translate(60.000000, 54.500000) rotate(-90.000000) translate(-60.000000, -54.500000) ">
                    <use fill="#C2C2C2" fill-rule="evenodd" xlink:href="#path-4"></use>
                    <circle stroke="#151515" stroke-width="1.5" cx="60" cy="54.5" r="2.25"></circle>
                    <use stroke="#151515" stroke-width="1" xlink:href="#path-4"></use>
                </g>
            </g>
        </g>
    </g>
</svg>