<?xml version="1.0" encoding="UTF-8"?>
<svg width="44px" height="99px" viewBox="0 0 44 99" version="1.1" xmlns="http://www.w3.org/2000/svg" xmlns:xlink="http://www.w3.org/1999/xlink">
    <!-- Generator: Sketch 47.1 (45422) - http://www.bohemiancoding.com/sketch -->
    <title>outdoor-exercise</title>
    <desc>Created with Sketch.</desc>
    <defs>
        <circle id="path-1" cx="3" cy="43" r="3"></circle>
        <circle id="path-2" cx="39" cy="43" r="3"></circle>
        <circle id="path-3" cx="15.5" cy="94" r="3"></circle>
        <circle id="path-4" cx="26.5" cy="94" r="3"></circle>
    </defs>
    <g id="Version-2" stroke="none" stroke-width="1" fill="none" fill-rule="evenodd">
        <g id="full-preview-8" transform="translate(-983.000000, -209.000000)">
            <g id="outdoor-exercise" transform="translate(984.000000, 210.000000)">
                <path d="M30.2971927,51.3711299 L39.0837161,51.3711299 C39.0837161,37.6527309 39.0837161,30.661934 39.0837161,30.3987392 C39.0837161,30.0039471 39.0837161,29.6636091 38.8506144,29.0545831 C38.6952132,28.6485658 36.6916874,24.4212122 32.8400368,16.3725222 C31.8491113,16.3725222 30.218003,16.3725222 27.9467119,16.3725222 C24.5397752,16.3725222 21.9411897,18.4880857 21.9411897,22.0409214 C21.9411897,25.593757 21.9411897,41.3840137 21.9411897,46.0338971 C21.9411897,49.1338194 23.8442165,50.8793246 27.6502702,51.2704128 C27.6502702,34.6772719 27.6502702,26.2698228 27.6502702,26.0480655 C27.6502702,25.7154295 27.6502702,24.6286927 28.7005574,24.6286927 C29.4007489,24.6286927 29.7822618,25.0664474 29.8450962,25.9419568 C29.8450962,66.381991 29.8450962,87.6063258 29.8450962,89.6149612 C29.8450962,92.6279142 32.1407831,93.7333255 34.4750941,93.7333255 C36.8094051,93.7333255 39.0768039,92.7862187 39.0768039,89.7360015 C39.0768039,87.7025235 39.0768039,75.6649073 39.0768039,53.6231531 L30.1943612,53.6231531" id="Path-523" stroke="#3F3F3F" stroke-linecap="round" stroke-linejoin="round" transform="translate(30.512453, 55.052924) scale(-1, 1) translate(-30.512453, -55.052924) "></path>
                <path d="M11.3291773,51.3711299 L20.0837161,51.3711299 C20.0837161,37.6527309 20.0837161,30.661934 20.0837161,30.3987392 C20.0837161,30.0039471 20.0837161,29.6636091 19.8506144,29.0545831 C19.6952132,28.6485658 17.6916874,24.4212122 13.8400368,16.3725222 C12.8491113,16.3725222 11.218003,16.3725222 8.94671189,16.3725222 C5.53977525,16.3725222 2.94118971,18.4880857 2.94118971,22.0409214 C2.94118971,25.593757 2.94118971,41.3840137 2.94118971,46.0338971 C2.94118971,49.1338194 4.84421654,50.8793246 8.6502702,51.2704128 C8.6502702,34.6772719 8.6502702,26.2698228 8.6502702,26.0480655 C8.6502702,25.7154295 8.6502702,24.6286927 9.70055741,24.6286927 C10.4007489,24.6286927 10.7822618,25.0664474 10.8450962,25.9419568 C10.8450962,66.381991 10.8450962,87.6063258 10.8450962,89.6149612 C10.8450962,92.6279142 13.1407831,93.7333255 15.4750941,93.7333255 C17.8094051,93.7333255 20.0768039,92.7862187 20.0768039,89.7360015 C20.0768039,87.7025235 20.0768039,75.6649073 20.0768039,53.6231531 L11.2406386,53.6231531" id="Path-523" stroke="#3F3F3F" stroke-linecap="round" stroke-linejoin="round"></path>
                <circle id="Oval-2" stroke="#3F3F3F" stroke-linecap="round" stroke-linejoin="round" cx="21" cy="8" r="8"></circle>
                <path d="M25.4032177,17.4614939 L21.1140648,26.5871111 L16.9958761,17.4614939 C18.6557404,18.0681129 20.056964,18.3714225 21.1995469,18.3714225 C22.3421299,18.3714225 23.7433535,18.0681129 25.4032177,17.4614939 Z" id="Path-527" stroke="#3F3F3F" stroke-linecap="round" stroke-linejoin="round"></path>
                <g id="Oval-Copy-193" transform="translate(3.000000, 43.000000) rotate(-90.000000) translate(-3.000000, -43.000000) ">
                    <use fill="#C2C2C2" fill-rule="evenodd" xlink:href="#path-1"></use>
                    <circle stroke="#151515" stroke-width="1.5" cx="3" cy="43" r="2.25"></circle>
                    <use stroke="#151515" stroke-width="1" xlink:href="#path-1"></use>
                </g>
                <g id="Oval-Copy-193" transform="translate(39.000000, 43.000000) rotate(-90.000000) translate(-39.000000, -43.000000) ">
                    <use fill="#C2C2C2" fill-rule="evenodd" xlink:href="#path-2"></use>
                    <circle stroke="#151515" stroke-width="1.5" cx="39" cy="43" r="2.25"></circle>
                    <use stroke="#151515" stroke-width="1" xlink:href="#path-2"></use>
                </g>
                <g id="Oval-Copy-197" transform="translate(15.500000, 94.000000) rotate(-90.000000) translate(-15.500000, -94.000000) ">
                    <use fill="#C2C2C2" fill-rule="evenodd" xlink:href="#path-3"></use>
                    <circle stroke="#151515" stroke-width="1.5" cx="15.5" cy="94" r="2.25"></circle>
                    <use stroke="#151515" stroke-width="1" xlink:href="#path-3"></use>
                </g>
                <g id="Oval-Copy-197" transform="translate(26.500000, 94.000000) rotate(-90.000000) translate(-26.500000, -94.000000) ">
                    <use fill="#C2C2C2" fill-rule="evenodd" xlink:href="#path-4"></use>
                    <circle stroke="#151515" stroke-width="1.5" cx="26.5" cy="94" r="2.25"></circle>
                    <use stroke="#151515" stroke-width="1" xlink:href="#path-4"></use>
                </g>
            </g>
        </g>
    </g>
</svg>