<?xml version="1.0" encoding="UTF-8"?>
<svg width="70px" height="85px" viewBox="0 0 70 85" version="1.1" xmlns="http://www.w3.org/2000/svg" xmlns:xlink="http://www.w3.org/1999/xlink">
    <!-- Generator: Sketch 47.1 (45422) - http://www.bohemiancoding.com/sketch -->
    <title>patient-documents</title>
    <desc>Created with Sketch.</desc>
    <defs>
        <circle id="path-1" cx="3" cy="80" r="3"></circle>
        <circle id="path-2" cx="17" cy="60.5" r="3"></circle>
        <circle id="path-3" cx="51" cy="69.5" r="3"></circle>
        <circle id="path-4" cx="65" cy="3" r="3"></circle>
    </defs>
    <g id="Version-2" stroke="none" stroke-width="1" fill="none" fill-rule="evenodd">
        <g id="full-preview-7" transform="translate(-972.000000, -712.000000)">
            <g id="patient-documents" transform="translate(973.000000, 713.000000)">
                <path d="M27.6363636,26.1363636 L16.5,26.1363636 L16.5,38.8636364 L27.6363636,38.8636364 L27.6363636,50 L40.3636364,50 L40.3636364,38.8636364 L51.5,38.8636364 L51.5,26.1363636 L40.3636364,26.1363636 L40.3636364,15 L27.6363636,15 L27.6363636,26.1363636 Z" id="Combined-Shape" stroke="#3F3F3F" stroke-linecap="round" stroke-linejoin="round"></path>
                <rect id="Rectangle-8" stroke="#3F3F3F" stroke-linecap="round" stroke-linejoin="round" x="3" y="3" width="62" height="77"></rect>
                <path d="M17.5,60.5 L50.5,60.5" id="Line-4" stroke="#3F3F3F" stroke-linecap="round" stroke-linejoin="round"></path>
                <path d="M17.5,69.5 L50.5,69.5" id="Line-4" stroke="#3F3F3F" stroke-linecap="round" stroke-linejoin="round"></path>
                <g id="Oval-Copy-530" transform="translate(3.000000, 80.000000) rotate(-90.000000) translate(-3.000000, -80.000000) ">
                    <use fill="#C2C2C2" fill-rule="evenodd" xlink:href="#path-1"></use>
                    <circle stroke="#151515" stroke-width="1.5" cx="3" cy="80" r="2.25"></circle>
                    <use stroke="#151515" stroke-width="1" xlink:href="#path-1"></use>
                </g>
                <g id="Oval-Copy-565" transform="translate(17.000000, 60.500000) rotate(-90.000000) translate(-17.000000, -60.500000) ">
                    <use fill="#C2C2C2" fill-rule="evenodd" xlink:href="#path-2"></use>
                    <circle stroke="#151515" stroke-width="1.5" cx="17" cy="60.5" r="2.25"></circle>
                    <use stroke="#151515" stroke-width="1" xlink:href="#path-2"></use>
                </g>
                <g id="Oval-Copy-565" transform="translate(51.000000, 69.500000) rotate(-90.000000) translate(-51.000000, -69.500000) ">
                    <use fill="#C2C2C2" fill-rule="evenodd" xlink:href="#path-3"></use>
                    <circle stroke="#151515" stroke-width="1.5" cx="51" cy="69.5" r="2.25"></circle>
                    <use stroke="#151515" stroke-width="1" xlink:href="#path-3"></use>
                </g>
                <g id="Oval-Copy-566" transform="translate(65.000000, 3.000000) rotate(-90.000000) translate(-65.000000, -3.000000) ">
                    <use fill="#C2C2C2" fill-rule="evenodd" xlink:href="#path-4"></use>
                    <circle stroke="#151515" stroke-width="1.5" cx="65" cy="3" r="2.25"></circle>
                    <use stroke="#151515" stroke-width="1" xlink:href="#path-4"></use>
                </g>
            </g>
        </g>
    </g>
</svg>