<?xml version="1.0" encoding="UTF-8"?>
<svg width="78px" height="78px" viewBox="0 0 78 78" version="1.1" xmlns="http://www.w3.org/2000/svg" xmlns:xlink="http://www.w3.org/1999/xlink">
    <!-- Generator: Sketch 47.1 (45422) - http://www.bohemiancoding.com/sketch -->
    <title>pipette</title>
    <desc>Created with Sketch.</desc>
    <defs>
        <circle id="path-1" cx="55" cy="25" r="3"></circle>
        <circle id="path-2" cx="73" cy="43" r="3"></circle>
        <circle id="path-3" cx="63" cy="53" r="3"></circle>
        <circle id="path-4" cx="45" cy="35" r="3"></circle>
        <circle id="path-5" cx="84" cy="13" r="3"></circle>
        <circle id="path-6" cx="15" cy="83" r="3"></circle>
    </defs>
    <g id="Version-2" stroke="none" stroke-width="1" fill="none" fill-rule="evenodd">
        <g id="full-preview-5" transform="translate(-589.000000, -1045.000000)">
            <g id="pipette" transform="translate(578.000000, 1036.000000)">
                <g id="Group-3" transform="translate(49.000000, 49.000000) rotate(-315.000000) translate(-49.000000, -49.000000) translate(31.000000, -1.000000)" stroke="#3F3F3F" stroke-linecap="round" stroke-linejoin="round">
                    <path d="M5,28.9170246 C5,22.7312973 5,17.2974071 5,12.6153539 C5,5.59227411 11.4388501,1.84194593e-15 18.5787139,0" id="Path-22"></path>
                    <path d="M18,29.2586425 C18,22.84517 18,17.2974071 18,12.6153539 C18,5.59227411 24.4388501,1.84194593e-15 31.5787139,0" id="Path-22-Copy-3" transform="translate(24.789357, 14.629321) scale(-1, 1) translate(-24.789357, -14.629321) "></path>
                    <path d="M17.8761042,43 C17.8761042,68.4638059 17.8761042,81.4960867 17.8761042,82.0968425 C17.8761042,82.9979763 18.539966,83.237941 19.399332,84.0223941 C20.2586981,84.8068473 24.207153,88.431289 24.7802667,88.9538517 C25.3533804,89.4764145 26.0550031,93.6197646 26.5373687,95.9700789 C27.0197343,98.3203932 29.6106089,99.2717254 30.7677991,99.2717254" id="Path-23-Copy" transform="translate(24.321952, 71.135863) scale(-1, 1) translate(-24.321952, -71.135863) "></path>
                    <path d="M0.5,36 C0.5,39.1820056 3.46390276,43.627171 7.24833134,43.627171 C11.0327599,43.627171 25.320933,43.627171 28.9938288,43.627171 C32.6667247,43.627171 35.8978608,40.1535963 35.8978608,36" id="Path-24"></path>
                    <path d="M0.5,28.5 C0.5,31.6820056 3.46390276,36.127171 7.24833134,36.127171 C11.0327599,36.127171 25.320933,36.127171 28.9938288,36.127171 C32.6667247,36.127171 35.8978608,32.6535963 35.8978608,28.5" id="Path-24-Copy" transform="translate(18.198930, 32.313585) scale(1, -1) translate(-18.198930, -32.313585) "></path>
                    <path d="M5,43 C5,68.4638059 5,81.4960867 5,82.0968425 C5,82.9979763 5.66386177,83.237941 6.52322779,84.0223941 C7.38259381,84.8068473 11.3310487,88.431289 11.9041624,88.9538517 C12.4772761,89.4764145 13.1788988,93.6197646 13.6612645,95.9700789 C14.1436301,98.3203932 16.7285703,99.2717254 17.8857605,99.2717254" id="Path-23"></path>
                </g>
                <g id="Oval-Copy-430" transform="translate(55.000000, 25.000000) rotate(-90.000000) translate(-55.000000, -25.000000) ">
                    <use fill="#C2C2C2" fill-rule="evenodd" xlink:href="#path-1"></use>
                    <circle stroke="#151515" stroke-width="1.5" cx="55" cy="25" r="2.25"></circle>
                    <use stroke="#151515" stroke-width="1" xlink:href="#path-1"></use>
                </g>
                <g id="Oval-Copy-431" transform="translate(73.000000, 43.000000) rotate(-90.000000) translate(-73.000000, -43.000000) ">
                    <use fill="#C2C2C2" fill-rule="evenodd" xlink:href="#path-2"></use>
                    <circle stroke="#151515" stroke-width="1.5" cx="73" cy="43" r="2.25"></circle>
                    <use stroke="#151515" stroke-width="1" xlink:href="#path-2"></use>
                </g>
                <g id="Oval-Copy-432" transform="translate(63.000000, 53.000000) rotate(-90.000000) translate(-63.000000, -53.000000) ">
                    <use fill="#C2C2C2" fill-rule="evenodd" xlink:href="#path-3"></use>
                    <circle stroke="#151515" stroke-width="1.5" cx="63" cy="53" r="2.25"></circle>
                    <use stroke="#151515" stroke-width="1" xlink:href="#path-3"></use>
                </g>
                <g id="Oval-Copy-433" transform="translate(45.000000, 35.000000) rotate(-90.000000) translate(-45.000000, -35.000000) ">
                    <use fill="#C2C2C2" fill-rule="evenodd" xlink:href="#path-4"></use>
                    <circle stroke="#151515" stroke-width="1.5" cx="45" cy="35" r="2.25"></circle>
                    <use stroke="#151515" stroke-width="1" xlink:href="#path-4"></use>
                </g>
                <g id="Oval-Copy-434" transform="translate(84.000000, 13.000000) rotate(-90.000000) translate(-84.000000, -13.000000) ">
                    <use fill="#C2C2C2" fill-rule="evenodd" xlink:href="#path-5"></use>
                    <circle stroke="#151515" stroke-width="1.5" cx="84" cy="13" r="2.25"></circle>
                    <use stroke="#151515" stroke-width="1" xlink:href="#path-5"></use>
                </g>
                <g id="Oval-Copy-435" transform="translate(15.000000, 83.000000) rotate(-90.000000) translate(-15.000000, -83.000000) ">
                    <use fill="#C2C2C2" fill-rule="evenodd" xlink:href="#path-6"></use>
                    <circle stroke="#151515" stroke-width="1.5" cx="15" cy="83" r="2.25"></circle>
                    <use stroke="#151515" stroke-width="1" xlink:href="#path-6"></use>
                </g>
            </g>
        </g>
    </g>
</svg>