<?xml version="1.0" encoding="UTF-8"?>
<svg width="79px" height="72px" viewBox="0 0 79 72" version="1.1" xmlns="http://www.w3.org/2000/svg" xmlns:xlink="http://www.w3.org/1999/xlink">
    <!-- Generator: Sketch 47.1 (45422) - http://www.bohemiancoding.com/sketch -->
    <title>precision-agriculture-satellite-map</title>
    <desc>Created with Sketch.</desc>
    <defs>
        <circle id="path-1" cx="40" cy="17" r="3"></circle>
        <circle id="path-2" cx="59" cy="32" r="3"></circle>
        <circle id="path-3" cx="66" cy="67" r="3"></circle>
        <circle id="path-4" cx="38" cy="49" r="3"></circle>
        <circle id="path-5" cx="3" cy="3" r="3"></circle>
    </defs>
    <g id="Version-2" stroke="none" stroke-width="1" fill="none" fill-rule="evenodd">
        <g id="full-preview-2" transform="translate(-588.000000, -556.000000)">
            <g id="precision-agriculture-satellite-map" transform="translate(589.000000, 557.000000)">
                <path d="M58.6239164,32 C58.3640579,36.9800678 57.2184691,40.6311715 55.1871499,42.953311 C52.1401711,46.4365203 47.5694264,45.6044203 42.7847132,46.4365203 C39.5949044,46.9912537 38,47.9818489 38,49.408306" id="Path-29" stroke="#3F3F3F" stroke-linecap="round" stroke-linejoin="round"></path>
                <path d="M69.7841318,53.3435846 C67.589157,52.0116717 64.9186965,49.7591964 66.454626,46.0520665 C67.9905554,42.3449366 70.0998322,44.2380332 70.6742852,47.1810686 C71.2487383,50.124104 71.9791065,54.6754975 69.7841318,53.3435846 Z" id="Path-31" stroke="#3F3F3F" stroke-linecap="round" stroke-linejoin="round"></path>
                <path d="M29.085466,13 C28.6313587,15.7803013 29.9868616,17.3764958 33.1519746,17.7885835 C36.3170876,18.2006711 38.3596489,17.742325 39.2796585,16.4135451" id="Path-33" stroke="#3F3F3F" stroke-linecap="round" stroke-linejoin="round"></path>
                <path d="M3.11127453,4.01203636 L49.6967581,65.1199404 C62.1064416,67.1968999 71.1472473,67.5108415 76.8191751,66.0617651 C72.0066274,59.7489681 80.8391176,48.9683823 72.8422696,38.8606754 C69.934189,35.184974 62.9362514,33.943631 58.9464211,32.0802117 C54.9281187,27.0095682 52.1180044,23.2862885 50.5160782,20.9103726 L39.9652248,16.7395951 C38.9576522,13.8556783 37.2366866,12.5622615 34.8023282,12.8593446 C31.1507905,13.3049693 29.3868359,13.1369469 26.256224,12.4137199 C23.1256121,11.6904929 15.9697671,8.17494664 14.3564146,6.96001521 C12.7430621,5.74508378 7.25732637,0.886481957 4.8988309,2.2340331 C3.32650059,3.13240053 2.73064846,3.72506828 3.11127453,4.01203636 Z" id="Path-28" stroke="#3F3F3F" stroke-linecap="round" stroke-linejoin="round"></path>
                <path d="M44,57.9808275 C46.3965954,56.6730575 48.6050239,56.6730575 50.6252852,57.9808275 C53.6556773,59.9424825 59.8364387,61.3484827 63.7890519,60.610927 C67.7416652,59.8733712 67.4663258,65.245254 66.5435517,66.8326023" id="Path-30" stroke="#3F3F3F" stroke-linecap="round" stroke-linejoin="round"></path>
                <path d="M37.5539036,49.8825725 C41.8258701,49.2732045 45.2526615,50.3494986 47.8342778,53.1114545 C51.7067023,57.2543885 56.9840605,51.9852169 55.7665959,48.4926084 C54.9549528,46.1642028 54.1368594,45 53.3123155,45" id="Path-32" stroke="#3F3F3F" stroke-linecap="round" stroke-linejoin="round"></path>
                <g id="Oval-Copy-363" transform="translate(40.000000, 17.000000) rotate(-90.000000) translate(-40.000000, -17.000000) ">
                    <use fill="#C2C2C2" fill-rule="evenodd" xlink:href="#path-1"></use>
                    <circle stroke="#151515" stroke-width="1.5" cx="40" cy="17" r="2.25"></circle>
                    <use stroke="#151515" stroke-width="1" xlink:href="#path-1"></use>
                </g>
                <g id="Oval-Copy-365" transform="translate(59.000000, 32.000000) rotate(-90.000000) translate(-59.000000, -32.000000) ">
                    <use fill="#C2C2C2" fill-rule="evenodd" xlink:href="#path-2"></use>
                    <circle stroke="#151515" stroke-width="1.5" cx="59" cy="32" r="2.25"></circle>
                    <use stroke="#151515" stroke-width="1" xlink:href="#path-2"></use>
                </g>
                <g id="Oval-Copy-366" transform="translate(66.000000, 67.000000) rotate(-90.000000) translate(-66.000000, -67.000000) ">
                    <use fill="#C2C2C2" fill-rule="evenodd" xlink:href="#path-3"></use>
                    <circle stroke="#151515" stroke-width="1.5" cx="66" cy="67" r="2.25"></circle>
                    <use stroke="#151515" stroke-width="1" xlink:href="#path-3"></use>
                </g>
                <g id="Oval-Copy-369" transform="translate(38.000000, 49.000000) rotate(-90.000000) translate(-38.000000, -49.000000) ">
                    <use fill="#C2C2C2" fill-rule="evenodd" xlink:href="#path-4"></use>
                    <circle stroke="#151515" stroke-width="1.5" cx="38" cy="49" r="2.25"></circle>
                    <use stroke="#151515" stroke-width="1" xlink:href="#path-4"></use>
                </g>
                <g id="Oval-Copy-372" transform="translate(3.000000, 3.000000) rotate(-90.000000) translate(-3.000000, -3.000000) ">
                    <use fill="#C2C2C2" fill-rule="evenodd" xlink:href="#path-5"></use>
                    <circle stroke="#151515" stroke-width="1.5" cx="3" cy="3" r="2.25"></circle>
                    <use stroke="#151515" stroke-width="1" xlink:href="#path-5"></use>
                </g>
            </g>
        </g>
    </g>
</svg>