<?xml version="1.0" encoding="UTF-8"?>
<svg width="84px" height="69px" viewBox="0 0 84 69" version="1.1" xmlns="http://www.w3.org/2000/svg" xmlns:xlink="http://www.w3.org/1999/xlink">
    <!-- Generator: Sketch 47.1 (45422) - http://www.bohemiancoding.com/sketch -->
    <title>premium-content</title>
    <desc>Created with Sketch.</desc>
    <defs>
        <circle id="path-1" cx="50.5" cy="18.5" r="3"></circle>
        <circle id="path-2" cx="41" cy="44" r="3"></circle>
        <circle id="path-3" cx="74" cy="47" r="3"></circle>
        <circle id="path-4" cx="11" cy="37" r="3"></circle>
    </defs>
    <g id="Version-2" stroke="none" stroke-width="1" fill="none" fill-rule="evenodd">
        <g id="full-preview-6" transform="translate(-773.000000, -1221.000000)">
            <g id="premium-content" transform="translate(773.000000, 1221.000000)">
                <g id="Group-4" stroke="#3F3F3F" stroke-linecap="round" stroke-linejoin="round">
                    <path d="M0,37.0909091 C9.5540319,37.0909091 15.0332579,37.0909091 16.4376781,37.0909091 C18.5443084,37.0909091 20.3535798,38.6906402 20.3535798,41.0801211 C20.3535798,43.4696021 20.3535798,57.0125597 20.3535798,59.4622952 C20.3535798,61.9120306 18.6605821,63.8253495 16.4376781,63.8253495 C14.9557422,63.8253495 9.56867494,63.8253495 0.2764764,63.8253495" id="Path-250"></path>
                    <path d="M39.3389031,56.4500757 C39.6131309,55.4291511 40.2838408,52.8145307 43.2507022,52.8145307 C46.2175635,52.8145307 55.4952722,52.8145307 57.1866227,52.8145307 C58.8779731,52.8145307 60.7823705,51.1867252 60.7823705,49.3194768 C60.7823705,47.4522285 59.7897069,45.5157478 57.1866227,45.5157478 C54.5835384,45.5157478 47.6474918,45.5157478 46.4281443,45.5157478 C45.2087969,45.5157478 43.8916928,45.2313884 41.416888,44.165885 C38.9420833,43.1003816 36.6111468,42.3293691 34.2670392,41.2861552 C31.9229317,40.2429412 30.4437225,40.4388182 29.0762983,40.4388182 C28.1646822,40.4388182 25.2868346,40.4388182 20.4427557,40.4388182" id="Path-252"></path>
                    <circle id="Oval-22" cx="14.2181818" cy="57.4909091" r="1.85454545"></circle>
                    <circle id="Oval-22-Copy-8" cx="46.9818182" cy="28.4363636" r="1.85454545"></circle>
                    <circle id="Oval-22-Copy-8" cx="54.4" cy="28.4363636" r="1.85454545"></circle>
                    <circle id="Oval-22-Copy-2" cx="8.03636364" cy="57.4909091" r="1.85454545"></circle>
                    <path d="M50.7986562,33.2417024 L65.485708,33.2417024 C65.485708,30.4655746 65.485708,28.7985735 65.485708,28.2406991 C65.485708,27.4038876 72.8304645,2.96570017 73.1389599,1.85056991 C73.4474553,0.735439659 72.6707491,1.21429817 72.1262778,1.53286571 C71.7632969,1.74524406 67.564172,4.06481092 59.5289031,8.49156627" id="Path-253"></path>
                    <path d="M73.0226986,1.34523605 C65.6805851,10.9669156 61.8512518,15.9533944 61.5346987,16.3046724 C61.059869,16.8315895 60.7790001,16.4209338 60.2909327,15.7777554 C59.8028654,15.1345771 51.773352,2.40281119 51.5854346,1.99992542 C51.3975172,1.59703965 51.074759,1.34523605 50.6934564,1.34523605" id="Path-254"></path>
                    <path d="M65.5845411,28.2935486 L59.1241776,28.2935486" id="Path-255"></path>
                    <path d="M28.172706,33.2417024 L43.0932628,33.2417024 C43.0932628,30.4655746 43.0932628,28.7985735 43.0932628,28.2406991 C43.0932628,27.4038876 50.4380193,2.96570017 50.7465147,1.85056991 C51.0550101,0.735439659 50.2783039,1.21429817 49.7338326,1.53286571 C49.3708517,1.74524406 45.1717268,4.06481092 37.1364579,8.49156627" id="Path-253" transform="translate(39.494686, 17.197061) scale(-1, 1) translate(-39.494686, -17.197061) "></path>
                    <path d="M50.6883617,1.34523605 C43.3462482,10.9669156 39.5169149,15.9533944 39.2003618,16.3046724 C38.7255321,16.8315895 38.4446632,16.4209338 37.9565959,15.7777554 C37.4685285,15.1345771 29.4390152,2.40281119 29.2510977,1.99992542 C29.0631803,1.59703965 28.7404222,1.34523605 28.3591196,1.34523605" id="Path-254" transform="translate(39.523741, 8.945415) scale(-1, 1) translate(-39.523741, -8.945415) "></path>
                    <path d="M42.2022334,28.2935486 L35.7972771,28.2935486" id="Path-255" transform="translate(38.999755, 28.293549) scale(-1, 1) translate(-38.999755, -28.293549) "></path>
                    <circle id="Oval-23" cx="50.6909091" cy="18.5454545" r="5.25454545"></circle>
                    <path d="M20.52596,59.9903558 C23.8308985,59.9903558 26.1251512,59.9903558 27.4087183,59.9903558 C29.334069,59.9903558 43.5858691,66.0759815 45.566939,66.9232503 C47.5480089,67.770519 49.8904328,67.9639497 52.084489,66.8241968 C54.2785452,65.6844439 79.454552,52.7479557 81.5063533,51.8207805 C83.5581546,50.8936053 83.7577305,48.6127645 82.7769152,46.680625 C81.7960998,44.7484856 79.3505533,44.8464187 77.5838615,45.6729152 C76.406067,46.2239128 70.5098407,48.2732012 59.8951827,51.8207805" id="Path-251"></path>
                </g>
                <g id="Oval-Copy-505" transform="translate(50.500000, 18.500000) rotate(-360.000000) translate(-50.500000, -18.500000) ">
                    <use fill="#C2C2C2" fill-rule="evenodd" xlink:href="#path-1"></use>
                    <circle stroke="#151515" stroke-width="1.5" cx="50.5" cy="18.5" r="2.25"></circle>
                    <use stroke="#151515" stroke-width="1" xlink:href="#path-1"></use>
                </g>
                <g id="Oval-Copy-506" transform="translate(41.000000, 44.000000) rotate(-360.000000) translate(-41.000000, -44.000000) ">
                    <use fill="#C2C2C2" fill-rule="evenodd" xlink:href="#path-2"></use>
                    <circle stroke="#151515" stroke-width="1.5" cx="41" cy="44" r="2.25"></circle>
                    <use stroke="#151515" stroke-width="1" xlink:href="#path-2"></use>
                </g>
                <g id="Oval-Copy-507" transform="translate(74.000000, 47.000000) rotate(-360.000000) translate(-74.000000, -47.000000) ">
                    <use fill="#C2C2C2" fill-rule="evenodd" xlink:href="#path-3"></use>
                    <circle stroke="#151515" stroke-width="1.5" cx="74" cy="47" r="2.25"></circle>
                    <use stroke="#151515" stroke-width="1" xlink:href="#path-3"></use>
                </g>
                <g id="Oval-Copy-508" transform="translate(11.000000, 37.000000) rotate(-360.000000) translate(-11.000000, -37.000000) ">
                    <use fill="#C2C2C2" fill-rule="evenodd" xlink:href="#path-4"></use>
                    <circle stroke="#151515" stroke-width="1.5" cx="11" cy="37" r="2.25"></circle>
                    <use stroke="#151515" stroke-width="1" xlink:href="#path-4"></use>
                </g>
            </g>
        </g>
    </g>
</svg>