<?xml version="1.0" encoding="UTF-8"?>
<svg width="24px" height="114px" viewBox="0 0 24 114" version="1.1" xmlns="http://www.w3.org/2000/svg" xmlns:xlink="http://www.w3.org/1999/xlink">
    <!-- Generator: Sketch 47.1 (45422) - http://www.bohemiancoding.com/sketch -->
    <title>preparate</title>
    <desc>Created with Sketch.</desc>
    <defs>
        <circle id="path-1" cx="11" cy="109" r="3"></circle>
        <circle id="path-2" cx="11" cy="3" r="3"></circle>
        <circle id="path-3" cx="5" cy="72.5" r="3"></circle>
        <circle id="path-4" cx="17" cy="78.5" r="3"></circle>
    </defs>
    <g id="Version-2" stroke="none" stroke-width="1" fill="none" fill-rule="evenodd">
        <g id="full-preview-5" transform="translate(-804.000000, -1361.000000)">
            <g id="preparate" transform="translate(805.000000, 1362.000000)">
                <path d="M11.0943499,109.633378 C17.6815849,109.633378 22,108.304694 22,106.045201 C22,103.785708 22,63.2805668 22,60.1265442 C22,56.9725216 20.6900237,54.5448462 17.9482017,53.1926378 C15.2063797,51.8404294 15.5300739,49.0004413 17.8303616,47.7354305 C21.3946566,45.7752967 21.9096354,40.9646459 17.8303616,21.4075884 C13.7510877,1.85053085 12.4976823,2.17614574 11,2" id="Path-69" stroke="#3F3F3F" stroke-linecap="round" stroke-linejoin="round"></path>
                <path d="M0,109.633378 C6.58723502,109.633378 11.1292375,108.304694 11.1292375,106.045201 C11.1292375,103.785708 11.1292375,63.2805668 11.1292375,60.1265442 C11.1292375,56.9725216 9.81926114,54.5448462 7.07743917,53.1926378 C4.3356172,51.8404294 4.65931138,49.0004413 6.95959904,47.7354305 C10.5238941,45.7752967 11.0388729,40.9646459 6.95959904,21.4075884 C2.88032522,1.85053085 1.50002184,2.17614574 0.00233953132,2" id="Path-69-Copy" stroke="#3F3F3F" stroke-linecap="round" stroke-linejoin="round" transform="translate(5.564619, 55.816689) scale(-1, 1) translate(-5.564619, -55.816689) "></path>
                <g id="Oval-Copy-475" transform="translate(11.000000, 109.000000) rotate(-90.000000) translate(-11.000000, -109.000000) ">
                    <use fill="#C2C2C2" fill-rule="evenodd" xlink:href="#path-1"></use>
                    <circle stroke="#151515" stroke-width="1.5" cx="11" cy="109" r="2.25"></circle>
                    <use stroke="#151515" stroke-width="1" xlink:href="#path-1"></use>
                </g>
                <g id="Oval-Copy-476" transform="translate(11.000000, 3.000000) rotate(-90.000000) translate(-11.000000, -3.000000) ">
                    <use fill="#C2C2C2" fill-rule="evenodd" xlink:href="#path-2"></use>
                    <circle stroke="#151515" stroke-width="1.5" cx="11" cy="3" r="2.25"></circle>
                    <use stroke="#151515" stroke-width="1" xlink:href="#path-2"></use>
                </g>
                <path d="M0,83 C7.22295653,84.8110349 14.4505411,84.8110349 21.6827537,83" id="Path-70-Copy" stroke="#3F3F3F" stroke-linecap="round" stroke-linejoin="round"></path>
                <path d="M3,72 C8.22331997,73.3096596 13.4499867,73.3096596 18.6800003,72" id="Path-70-Copy-3" stroke="#3F3F3F" stroke-linecap="round" stroke-linejoin="round"></path>
                <path d="M3,78 C8.22331997,79.3096596 13.4499867,79.3096596 18.6800003,78" id="Path-70-Copy-4" stroke="#3F3F3F" stroke-linecap="round" stroke-linejoin="round"></path>
                <g id="Oval-Copy-474" transform="translate(5.000000, 72.500000) rotate(-90.000000) translate(-5.000000, -72.500000) ">
                    <use fill="#C2C2C2" fill-rule="evenodd" xlink:href="#path-3"></use>
                    <circle stroke="#151515" stroke-width="1.5" cx="5" cy="72.5" r="2.25"></circle>
                    <use stroke="#151515" stroke-width="1" xlink:href="#path-3"></use>
                </g>
                <g id="Oval-Copy-483" transform="translate(17.000000, 78.500000) rotate(-90.000000) translate(-17.000000, -78.500000) ">
                    <use fill="#C2C2C2" fill-rule="evenodd" xlink:href="#path-4"></use>
                    <circle stroke="#151515" stroke-width="1.5" cx="17" cy="78.5" r="2.25"></circle>
                    <use stroke="#151515" stroke-width="1" xlink:href="#path-4"></use>
                </g>
                <path d="M0,66 C7.22295653,67.8110349 14.4505411,67.8110349 21.6827537,66" id="Path-70-Copy-2" stroke="#3F3F3F" stroke-linecap="round" stroke-linejoin="round"></path>
            </g>
        </g>
    </g>
</svg>