<?xml version="1.0" encoding="UTF-8"?>
<svg width="78px" height="77px" viewBox="0 0 78 77" version="1.1" xmlns="http://www.w3.org/2000/svg" xmlns:xlink="http://www.w3.org/1999/xlink">
    <!-- Generator: Sketch 47.1 (45422) - http://www.bohemiancoding.com/sketch -->
    <title>protein-powder-keg</title>
    <desc>Created with Sketch.</desc>
    <defs>
        <circle id="path-1" cx="16" cy="18" r="3"></circle>
        <circle id="path-2" cx="60" cy="18" r="3"></circle>
        <circle id="path-3" cx="3" cy="66" r="3"></circle>
        <circle id="path-4" cx="73" cy="66" r="3"></circle>
    </defs>
    <g id="Version-2" stroke="none" stroke-width="1" fill="none" fill-rule="evenodd">
        <g id="full-preview-5" transform="translate(-400.000000, -1212.000000)">
            <g id="protein-powder-keg" transform="translate(401.000000, 1212.000000)">
                <path d="M38.4723838,18 L15.8487152,18 C8.69320148,25.4781332 4.76287052,29.5873823 4.05772231,30.3277475 C3,31.4382952 3,32.4152614 3,33.9071235 C3,35.3989856 3,66.420695 3,70.0593502 C3,73.6980054 5.74995657,76.0636117 8.760397,76.0636117 C10.7673573,76.0636117 20.5209746,76.0636117 38.021249,76.0636117" id="Path-28" stroke="#3F3F3F" stroke-linecap="round" stroke-linejoin="round"></path>
                <path d="M72.4723838,18 L49.8487152,18 C42.6932015,25.4781332 38.7628705,29.5873823 38.0577223,30.3277475 C37,31.4382952 37,32.4152614 37,33.9071235 C37,35.3989856 37,66.420695 37,70.0593502 C37,73.6980054 39.7499566,76.0636117 42.760397,76.0636117 C44.7673573,76.0636117 54.5209746,76.0636117 72.021249,76.0636117" id="Path-28-Copy" stroke="#3F3F3F" stroke-linecap="round" stroke-linejoin="round" transform="translate(54.736192, 47.031806) scale(-1, 1) translate(-54.736192, -47.031806) "></path>
                <path d="M43.6813547,17.9748681 C41.324249,17.9748681 41.8624628,17.9748681 40.3212961,17.9748681 C38.7801294,17.9748681 37,16.5431673 37,14.653572 C37,12.7639766 37,6.13881509 37,4.0471149 C37,1.9554147 38.3555916,0.600006104 40.4471088,0.600006104 C41.8414536,0.600006104 50.3109108,0.600006104 65.8554803,0.600006104" id="Path-29-Copy" stroke="#3F3F3F" stroke-linecap="round" stroke-linejoin="round" transform="translate(51.427740, 9.287437) scale(-1, 1) translate(-51.427740, -9.287437) "></path>
                <path d="M15.6813547,17.9748681 C13.324249,17.9748681 13.8624628,17.9748681 12.3212961,17.9748681 C10.7801294,17.9748681 9,16.5431673 9,14.653572 C9,12.7639766 9,6.13881509 9,4.0471149 C9,1.9554147 10.3555916,0.600006104 12.4471088,0.600006104 C13.8414536,0.600006104 22.3109108,0.600006104 37.8554803,0.600006104" id="Path-29" stroke="#3F3F3F" stroke-linecap="round" stroke-linejoin="round"></path>
                <g id="Oval-Copy-444" transform="translate(16.000000, 18.000000) rotate(-90.000000) translate(-16.000000, -18.000000) ">
                    <use fill="#C2C2C2" fill-rule="evenodd" xlink:href="#path-1"></use>
                    <circle stroke="#151515" stroke-width="1.5" cx="16" cy="18" r="2.25"></circle>
                    <use stroke="#151515" stroke-width="1" xlink:href="#path-1"></use>
                </g>
                <g id="Oval-Copy-445" transform="translate(60.000000, 18.000000) rotate(-90.000000) translate(-60.000000, -18.000000) ">
                    <use fill="#C2C2C2" fill-rule="evenodd" xlink:href="#path-2"></use>
                    <circle stroke="#151515" stroke-width="1.5" cx="60" cy="18" r="2.25"></circle>
                    <use stroke="#151515" stroke-width="1" xlink:href="#path-2"></use>
                </g>
                <g id="Oval-Copy-446" transform="translate(3.000000, 66.000000) rotate(-90.000000) translate(-3.000000, -66.000000) ">
                    <use fill="#C2C2C2" fill-rule="evenodd" xlink:href="#path-3"></use>
                    <circle stroke="#151515" stroke-width="1.5" cx="3" cy="66" r="2.25"></circle>
                    <use stroke="#151515" stroke-width="1" xlink:href="#path-3"></use>
                </g>
                <g id="Oval-Copy-447" transform="translate(73.000000, 66.000000) rotate(-90.000000) translate(-73.000000, -66.000000) ">
                    <use fill="#C2C2C2" fill-rule="evenodd" xlink:href="#path-4"></use>
                    <circle stroke="#151515" stroke-width="1.5" cx="73" cy="66" r="2.25"></circle>
                    <use stroke="#151515" stroke-width="1" xlink:href="#path-4"></use>
                </g>
            </g>
        </g>
    </g>
</svg>