<?xml version="1.0" encoding="UTF-8"?>
<svg width="103px" height="96px" viewBox="0 0 103 96" version="1.1" xmlns="http://www.w3.org/2000/svg" xmlns:xlink="http://www.w3.org/1999/xlink">
    <!-- Generator: Sketch 47.1 (45422) - http://www.bohemiancoding.com/sketch -->
    <title>radio-activity</title>
    <desc>Created with Sketch.</desc>
    <defs>
        <circle id="path-1" cx="26" cy="7" r="3"></circle>
        <circle id="path-2" cx="99" cy="50" r="3"></circle>
        <circle id="path-3" cx="25" cy="92" r="3"></circle>
        <circle id="path-4" cx="30" cy="50" r="3"></circle>
        <circle id="path-5" cx="61" cy="33" r="3"></circle>
        <circle id="path-6" cx="62" cy="68" r="3"></circle>
    </defs>
    <g id="Version-2" stroke="none" stroke-width="1" fill="none" fill-rule="evenodd">
        <g id="full-preview-3" transform="translate(-577.000000, -535.000000)">
            <g id="radio-activity" transform="translate(577.000000, 535.000000)">
                <path d="M24.9167419,91.9522094 C10.4996796,83.3827128 0.838121558,67.6505845 0.838121558,49.6618784 L31.7973395,49.6618784 C31.7937179,49.8131736 31.7918969,49.9649146 31.7918969,50.117081 C31.7918969,56.7915951 35.2955937,62.647777 40.5641007,65.9467398 L24.9167419,91.9522094 Z M76.4116439,91.1338138 C90.0906956,82.4040663 99.1618784,67.0923165 99.1618784,49.6618784 L69.1130657,49.6618784 C69.1166872,49.8131736 69.1185083,49.9649146 69.1185083,50.117081 C69.1185083,56.5119209 65.9022822,62.155571 60.9991606,65.5187007 L76.4116439,91.1338138 Z M25.3213799,7.13363932 C32.5744689,2.91566728 41.0051298,0.5 50,0.5 C59.5528553,0.5 68.4693302,3.22466879 76.0146871,7.939269 L60.211462,34.2037839 C57.3726073,32.4595994 54.0313664,31.4537753 50.4552026,31.4537753 C47.1578818,31.4537753 44.0602769,32.308861 41.3720385,33.8093818 L25.3213799,7.13363932 Z" id="Combined-Shape" stroke="#3F3F3F" stroke-linecap="round" stroke-linejoin="round"></path>
                <circle id="Oval-2" stroke="#3F3F3F" stroke-linecap="round" stroke-linejoin="round" cx="50.5" cy="50.5" r="12.5"></circle>
                <g id="Oval-Copy-524">
                    <use fill="#C2C2C2" fill-rule="evenodd" xlink:href="#path-1"></use>
                    <circle stroke="#151515" stroke-width="1.5" cx="26" cy="7" r="2.25"></circle>
                    <use stroke="#151515" stroke-width="1" xlink:href="#path-1"></use>
                </g>
                <g id="Oval-Copy-525">
                    <use fill="#C2C2C2" fill-rule="evenodd" xlink:href="#path-2"></use>
                    <circle stroke="#151515" stroke-width="1.5" cx="99" cy="50" r="2.25"></circle>
                    <use stroke="#151515" stroke-width="1" xlink:href="#path-2"></use>
                </g>
                <g id="Oval-Copy-526">
                    <use fill="#C2C2C2" fill-rule="evenodd" xlink:href="#path-3"></use>
                    <circle stroke="#151515" stroke-width="1.5" cx="25" cy="92" r="2.25"></circle>
                    <use stroke="#151515" stroke-width="1" xlink:href="#path-3"></use>
                </g>
                <g id="Oval-Copy-527">
                    <use fill="#C2C2C2" fill-rule="evenodd" xlink:href="#path-4"></use>
                    <circle stroke="#151515" stroke-width="1.5" cx="30" cy="50" r="2.25"></circle>
                    <use stroke="#151515" stroke-width="1" xlink:href="#path-4"></use>
                </g>
                <g id="Oval-Copy-528">
                    <use fill="#C2C2C2" fill-rule="evenodd" xlink:href="#path-5"></use>
                    <circle stroke="#151515" stroke-width="1.5" cx="61" cy="33" r="2.25"></circle>
                    <use stroke="#151515" stroke-width="1" xlink:href="#path-5"></use>
                </g>
                <g id="Oval-Copy-529">
                    <use fill="#C2C2C2" fill-rule="evenodd" xlink:href="#path-6"></use>
                    <circle stroke="#151515" stroke-width="1.5" cx="62" cy="68" r="2.25"></circle>
                    <use stroke="#151515" stroke-width="1" xlink:href="#path-6"></use>
                </g>
            </g>
        </g>
    </g>
</svg>