<?xml version="1.0" encoding="UTF-8"?>
<svg width="90px" height="94px" viewBox="0 0 90 94" version="1.1" xmlns="http://www.w3.org/2000/svg" xmlns:xlink="http://www.w3.org/1999/xlink">
    <!-- Generator: Sketch 47.1 (45422) - http://www.bohemiancoding.com/sketch -->
    <title>skeletal-muscle</title>
    <desc>Created with Sketch.</desc>
    <defs>
        <circle id="path-1" cx="85" cy="22" r="3"></circle>
        <circle id="path-2" cx="46" cy="18" r="3"></circle>
        <circle id="path-3" cx="3" cy="70" r="3"></circle>
        <circle id="path-4" cx="39" cy="77" r="3"></circle>
    </defs>
    <g id="Version-2" stroke="none" stroke-width="1" fill="none" fill-rule="evenodd">
        <g id="full-preview-6" transform="translate(-392.000000, -385.000000)">
            <g id="skeletal-muscle" transform="translate(393.000000, 386.000000)">
                <path d="M1.03169931,67.0662027 C1.86883351,68.9702862 4.66250147,73.7522341 6.15112345,72.4451177 C7.63974543,71.1380014 32.4321683,45.353854 35.219625,41.402829 C38.0070818,37.451804 53.9374764,18.072803 59.3129408,13.2418554 C64.6884051,8.41090788 70.1791221,5.49025501 68.4648258,4.06443535 C66.7505296,2.63861569 64.8195308,-0.151601595 63.2888106,0.00643940346 C61.7580904,0.164480402 61.710471,0.949164312 59.3129408,3.22799129 C56.9154105,5.50681826 37.7089433,26.5580173 26.9159163,38.899708 C16.1228893,51.2413988 0.194565116,65.1621192 1.03169931,67.0662027 Z" id="Path-134-Copy" stroke="#3F3F3F" stroke-linecap="round" stroke-linejoin="round"></path>
                <path d="M41.4672324,22.8614091 C42.5859418,22.820001 43.713006,24.7754991 41.6957403,26.4028383 C39.6784746,28.0301775 37.3928152,29.2633257 37.2095359,27.5569067" id="Path-135-Copy" stroke="#3F3F3F" stroke-linecap="round" stroke-linejoin="round"></path>
                <path d="M21.5356676,56.5722732 C22.6222927,55.5838072 22.9558492,54.8372395 22.5363372,54.3325699 C21.9070691,53.5755656 20.7999816,54.1841003 19.4891355,55.4192817 C18.1782895,56.654463 16.2051292,59.0390556 17.3373722,59.3178795 C18.0922009,59.5037621 18.9880753,59.0882647 20.0249953,58.0713873" id="Path-136-Copy" stroke="#3F3F3F" stroke-linecap="round" stroke-linejoin="round"></path>
                <path d="M8.96014894,75.6266887 C9.79089585,77.1211956 11.3361793,78.6460638 13.8252792,77.1211956 C16.3143791,75.5963275 22.0484697,67.1941103 25.2803735,64.1339046 C28.5122774,61.0736989 41.5267888,46.1171137 44.858152,43.5662443 C48.1895152,41.015375 59.983818,25.7609353 63.4596589,23.0907148 C66.9354998,20.4204943 76.1470016,11.9287637 75.4010568,10.5054487 C74.6551121,9.08213378 72.1487376,5.936079 70.7866687,6.00098929 C69.4245997,6.06589957 68.2645901,7.5839626 66.8679722,8.58745462 C65.4713542,9.59094663 57.1528922,16.5002273 54.6815903,20.3917034 C52.2102883,24.2831795 44.9942542,31.1170805 43.1170907,33.9501002 C41.2399273,36.7831199 31.3212175,48.6161595 27.3910046,52.6233225 C23.4607918,56.6304854 10.6237366,69.6910623 8.96014894,71.5174491 C7.29656124,73.343836 8.12940203,74.1321818 8.96014894,75.6266887 Z" id="Path-137-Copy" stroke="#3F3F3F" stroke-linecap="round" stroke-linejoin="round"></path>
                <path d="M14.7383449,82.6949008 C16.1454323,84.3176579 18.1304306,85.7833739 19.7720325,84.3621528 C21.4136345,82.9409317 27.9282188,75.0213539 31.4208107,72.0935861 C34.9134026,69.1658183 46.7312616,55.2064435 48.7529028,52.4278647 C50.774544,49.6492859 65.0516652,33.9907274 67.2041738,31.4089733 C69.3566825,28.8272192 79.0272676,19.5089295 79.4340038,18.6069906 C79.84074,17.7050518 80.2961589,17.1841991 79.4340038,15.9440987 C78.5718486,14.7039982 77.3898534,12.5572477 76.348148,13.0807177 C75.3064427,13.6041877 74.1516679,14.8589453 73.1366595,15.9440987 C72.1216511,17.029252 65.0851672,23.7275743 62.8159247,26.2056813 C60.5466822,28.6837884 51.1514424,39.0060936 45.1121689,45.318095 C39.0728954,51.6300964 27.7539033,64.0551806 24.6287873,66.8515574 C21.5036713,69.6479342 19.7688917,74.8957211 13.3134595,79.1955038 C12.5157133,79.7268602 13.3312575,81.0721438 14.7383449,82.6949008 Z" id="Path-138-Copy" stroke="#3F3F3F" stroke-linecap="round" stroke-linejoin="round"></path>
                <path d="M21.501077,85.2294553 C20.4300574,86.2193371 19.0863098,87.9012463 20.8676783,89.2046866 C22.6490467,90.5081269 22.549064,91.5566374 23.622701,91.8429755 C24.696338,92.1293136 25.071666,91.9330123 26.2107367,90.7222262 C27.3498075,89.51144 39.1655726,77.0732691 40.7919939,75.1458525 C42.4184152,73.2184359 52.5391845,62.2056738 54.2205701,60.2866327 C55.9019558,58.3675916 70.2277597,43.1372316 74.26319,38.5244139 C78.2986203,33.9115961 86.0920419,26.7871692 86.3804738,26.1741859 C86.6689058,25.5612025 87.4258435,24.7660515 86.3804738,23.5981899 C85.3351042,22.4303283 83.3605753,20.0385938 82.4952794,20.0317887 C81.6299835,20.0249836 80.9091653,19.5444381 78.4598491,22.5695713 C76.0105329,25.5947046 70.4680324,30.1954825 67.9815498,33.2221861 C65.4950673,36.2488897 59.5814265,42.7231668 57.2483207,45.9592585 C54.9152149,49.1953501 45.9361337,58.8350504 44.0772917,61.4288443 C42.2184497,64.0226382 32.2683317,74.0518002 31.0742966,75.1458525 C29.8802615,76.2399048 22.5720967,84.2395735 21.501077,85.2294553 Z" id="Path-139-Copy" stroke="#3F3F3F" stroke-linecap="round" stroke-linejoin="round"></path>
                <path d="M27.4675436,78.9179354 C27.0560961,79.6989527 27.1378489,80.132018 28.1058359,79.9731127 C29.0738229,79.8142074 31.308429,77.9805896 32.3715754,76.9218638 C33.4347217,75.8631379 34.3425101,73.8736666 34.0068311,73.3196541 C33.7830452,72.9503125 33.2762395,73.1043685 32.4864141,73.7818222" id="Path-140-Copy" stroke="#3F3F3F" stroke-linecap="round" stroke-linejoin="round"></path>
                <path d="M78.366973,34.1537792 C79.0765586,33.0467494 79.1203358,32.346686 78.4983047,32.0535891 C77.5652581,31.6139436 75.2579485,34.0010141 74.3285671,34.778204 C73.3991856,35.5553938 70.6698583,38.2620319 71.0330589,39.4334889 C71.2751926,40.2144602 72.037112,40.2521757 73.3188171,39.5466352" id="Path-141-Copy" stroke="#3F3F3F" stroke-linecap="round" stroke-linejoin="round"></path>
                <path d="M50.5502377,50.2525032 C49.9036446,50.9783721 48.6516875,51.5939588 48.0898558,50.6385795 C47.5280242,49.6832002 49.7330587,47.4066759 51.0334999,45.9149465 C52.3339412,44.423217 54.0017408,42.702154 54.843692,43.0438539 C55.6856432,43.3855537 55.7049328,44.1309268 55.127529,44.9620838" id="Path-142-Copy" stroke="#3F3F3F" stroke-linecap="round" stroke-linejoin="round"></path>
                <path d="M32.3120551,56.5935252 C31.6869635,57.3133108 30.2674753,57.1679269 31.4549634,55.2961868 C32.6424515,53.4244466 35.2248613,50.8610128 36.2220313,50.2517345 C37.2192013,49.6424562 38.1592664,50.0185286 37.521152,50.9814674" id="Path-143-Copy" stroke="#3F3F3F" stroke-linecap="round" stroke-linejoin="round"></path>
                <path d="M64.0064483,25.0051858 C63.5381568,25.6274847 63.4540226,26.6153087 64.3646922,26.9051194 C65.2753619,27.19493 66.3253893,26.2717016 67.9874159,24.583179 C69.6494426,22.8946564 70.5040539,21.7504828 69.9904591,21.2045961 C69.4768644,20.6587095 68.0537312,21.0060513 67.5873323,21.5098284" id="Path-144-Copy" stroke="#3F3F3F" stroke-linecap="round" stroke-linejoin="round"></path>
                <path d="M49.3197159,26.9426254 C48.9430988,27.3013692 48.5443648,29.0888265 49.2826621,29.6300062 C50.0209594,30.171186 52.6171923,28.0165527 54.0875313,26.3387551 C55.5578703,24.6609575 56.1612238,22.9378381 55.6374067,22.3383147 C55.1135897,21.7387912 53.8321004,21.5406584 53.0833344,22.5824198" id="Path-145-Copy" stroke="#3F3F3F" stroke-linecap="round" stroke-linejoin="round"></path>
                <g id="Oval-Copy-516" transform="translate(85.000000, 22.000000) rotate(-90.000000) translate(-85.000000, -22.000000) ">
                    <use fill="#C2C2C2" fill-rule="evenodd" xlink:href="#path-1"></use>
                    <circle stroke="#151515" stroke-width="1.5" cx="85" cy="22" r="2.25"></circle>
                    <use stroke="#151515" stroke-width="1" xlink:href="#path-1"></use>
                </g>
                <g id="Oval-Copy-517" transform="translate(46.000000, 18.000000) rotate(-90.000000) translate(-46.000000, -18.000000) ">
                    <use fill="#C2C2C2" fill-rule="evenodd" xlink:href="#path-2"></use>
                    <circle stroke="#151515" stroke-width="1.5" cx="46" cy="18" r="2.25"></circle>
                    <use stroke="#151515" stroke-width="1" xlink:href="#path-2"></use>
                </g>
                <g id="Oval-Copy-518" transform="translate(3.000000, 70.000000) rotate(-90.000000) translate(-3.000000, -70.000000) ">
                    <use fill="#C2C2C2" fill-rule="evenodd" xlink:href="#path-3"></use>
                    <circle stroke="#151515" stroke-width="1.5" cx="3" cy="70" r="2.25"></circle>
                    <use stroke="#151515" stroke-width="1" xlink:href="#path-3"></use>
                </g>
                <g id="Oval-Copy-519" transform="translate(39.000000, 77.000000) rotate(-90.000000) translate(-39.000000, -77.000000) ">
                    <use fill="#C2C2C2" fill-rule="evenodd" xlink:href="#path-4"></use>
                    <circle stroke="#151515" stroke-width="1.5" cx="39" cy="77" r="2.25"></circle>
                    <use stroke="#151515" stroke-width="1" xlink:href="#path-4"></use>
                </g>
            </g>
        </g>
    </g>
</svg>