<?xml version="1.0" encoding="UTF-8"?>
<svg width="96px" height="29px" viewBox="0 0 96 29" version="1.1" xmlns="http://www.w3.org/2000/svg" xmlns:xlink="http://www.w3.org/1999/xlink">
    <!-- Generator: Sketch 47.1 (45422) - http://www.bohemiancoding.com/sketch -->
    <title>smart-glasses</title>
    <desc>Created with Sketch.</desc>
    <defs>
        <circle id="path-1" cx="80" cy="14" r="3"></circle>
        <circle id="path-2" cx="67" cy="20" r="3"></circle>
        <circle id="path-3" cx="67" cy="8" r="3"></circle>
        <circle id="path-4" cx="5" cy="6.5" r="3"></circle>
    </defs>
    <g id="Version-2" stroke="none" stroke-width="1" fill="none" fill-rule="evenodd">
        <g id="full-preview-6" transform="translate(-958.000000, -913.000000)">
            <g id="smart-glasses" transform="translate(959.000000, 913.000000)">
                <path d="M5.15095563,1.42268041 C3.8969932,1.75430457 1.7083287,2.11450281 0.967600669,3.81850698 C0.22687264,5.52251115 0.368918779,10.4762672 0.967600669,13.1707479 C1.56628256,15.8652285 5.42876261,18.8089478 6.33159358,18.9957783" id="Path-228" stroke="#3F3F3F" stroke-linecap="round" stroke-linejoin="round"></path>
                <ellipse id="Oval-21" stroke="#3F3F3F" stroke-linecap="round" stroke-linejoin="round" cx="4.82989691" cy="6.37113402" rx="2.17010309" ry="2.37113402"></ellipse>
                <path d="M0.748776966,10.8540807 L5.56703451,10.6704198 L14.5321459,9.84098713 L14.5321459,2.3915981 L5.13045549,2.36650644 C3.3629995,2.50417215 2.18037246,2.67838961 1.58257438,2.88915883" id="Path-233" stroke="#3F3F3F" stroke-linecap="round" stroke-linejoin="round"></path>
                <path d="M14.5885603,2.41942823 C16.6578783,2.23923201 27.3305583,2.52732798 27.9135303,2.61557026 C28.4965024,2.70381254 29.0550284,2.77990479 29.0550284,3.44033611 C29.0550284,4.10076743 29.0550284,7.32956038 29.0550284,7.9116314 C29.0550284,8.49370243 28.72488,8.64620456 27.906075,8.7254522 C27.360205,8.77828395 22.9210334,9.14898461 14.5885603,9.83755419" id="Path-234" stroke="#3F3F3F" stroke-linecap="round" stroke-linejoin="round"></path>
                <path d="M47.913735,8.76875658 C41.532847,8.76875658 42.6304221,24.6711446 36.0746617,26.7098632 C29.5189013,28.7485817 19.2975338,27.9479074 17.4854814,27.8285086 C15.673429,27.7091098 9.55120759,27.07636 7.32828284,21.5243157 C6.25447652,18.8423445 5.7021419,14.6991516 5.40563438,10.7463167 M5.0070869,2.15819415 C4.98897355,2.03461208 5.00558203,1.72408716 5.05691233,1.62367376 C5.16135298,1.41936481 5.64144112,1.22080721 6.49717674,1.02800096 C7.81361977,0.876982194 9.46766966,0.801472813 11.4593264,0.801472813 C20.0927174,0.801472813 27.9542841,1.38445947 33.8698275,2.42550213 C39.7853708,3.46654479 44.3306114,4.7835848 47.913735,4.7835848" id="Path-229" stroke="#3F3F3F" stroke-linecap="round" stroke-linejoin="round"></path>
                <path d="M41.6600217,17.9910034 C41.5792297,18.4083159 41.6253868,19.4954296 42.2059264,19.697744 C42.7864659,19.9000584 43.4433799,19.8525389 44.3595889,16.9612245 C45.2757979,14.0699102 44.4632504,13.2062793 44.1236626,13.2251014 C43.7840747,13.2439235 43.3285285,12.914267 42.6476801,15.0019608" id="Path-237" stroke="#3F3F3F" stroke-linecap="round" stroke-linejoin="round"></path>
                <path d="M94.2813954,8.76875658 C87.5355008,8.76875658 88.826177,24.6711446 82.2704166,26.7098632 C75.7146562,28.7485817 65.4932887,27.9479074 63.6812363,27.8285086 C61.8691839,27.7091098 55.7469625,27.07636 53.5240377,21.5243157 C52.4502314,18.8423445 51.8978968,14.4077271 51.6013893,10.4548922 C51.4271035,7.16918689 51.3369235,5.25004082 51.3308492,4.69745399 C49.6728284,5.28995758 48.3081958,5.79707401 49.2818177,7.28445067 C49.7632433,8.01991201 50.4733545,8.79125759 51.4121511,9.59848739 M49.0104271,6.79907152 C47.9261664,6.68114352 47.6804179,3.6513311 48.0887404,3.34388525 C48.4970628,3.03643941 50.1929612,1.59214682 52.6929316,1.22652814 C54.0093747,1.07550938 55.6634245,1 57.6550813,1 C66.2884723,1 74.150039,1.38445947 80.0655823,2.42550213 C85.9811257,3.46654479 90.7098026,4.7835848 94.2929262,4.7835848" id="Path-229" stroke="#3F3F3F" stroke-linecap="round" stroke-linejoin="round" transform="translate(71.097877, 14.541533) scale(-1, 1) translate(-71.097877, -14.541533) "></path>
                <path d="M51.2495015,17.9910034 C51.1687094,18.4083159 51.2148665,19.4954296 51.7954061,19.697744 C52.3759457,19.9000584 53.0328597,19.8525389 53.9490687,16.9612245 C54.8652777,14.0699102 54.0527302,13.2062793 53.7131423,13.2251014 C53.3735544,13.2439235 52.9180082,12.914267 52.2371598,15.0019608" id="Path-237" stroke="#3F3F3F" stroke-linecap="round" stroke-linejoin="round" transform="translate(52.794740, 16.492389) scale(-1, 1) translate(-52.794740, -16.492389) "></path>
                <polygon id="Triangle" stroke="#3F3F3F" stroke-linecap="round" stroke-linejoin="round" points="80.2 14 67 20 67 8"></polygon>
                <g id="Oval-Copy-121" transform="translate(80.000000, 14.000000) rotate(-90.000000) translate(-80.000000, -14.000000) ">
                    <use fill="#C2C2C2" fill-rule="evenodd" xlink:href="#path-1"></use>
                    <circle stroke="#151515" stroke-width="1.5" cx="80" cy="14" r="2.25"></circle>
                    <use stroke="#151515" stroke-width="1" xlink:href="#path-1"></use>
                </g>
                <g id="Oval-Copy-122" transform="translate(67.000000, 20.000000) rotate(-90.000000) translate(-67.000000, -20.000000) ">
                    <use fill="#C2C2C2" fill-rule="evenodd" xlink:href="#path-2"></use>
                    <circle stroke="#151515" stroke-width="1.5" cx="67" cy="20" r="2.25"></circle>
                    <use stroke="#151515" stroke-width="1" xlink:href="#path-2"></use>
                </g>
                <g id="Oval-Copy-123" transform="translate(67.000000, 8.000000) rotate(-90.000000) translate(-67.000000, -8.000000) ">
                    <use fill="#C2C2C2" fill-rule="evenodd" xlink:href="#path-3"></use>
                    <circle stroke="#151515" stroke-width="1.5" cx="67" cy="8" r="2.25"></circle>
                    <use stroke="#151515" stroke-width="1" xlink:href="#path-3"></use>
                </g>
                <g id="Oval-Copy-125" transform="translate(5.000000, 6.500000) rotate(-90.000000) translate(-5.000000, -6.500000) ">
                    <use fill="#C2C2C2" fill-rule="evenodd" xlink:href="#path-4"></use>
                    <circle stroke="#151515" stroke-width="1.5" cx="5" cy="6.5" r="2.25"></circle>
                    <use stroke="#151515" stroke-width="1" xlink:href="#path-4"></use>
                </g>
            </g>
        </g>
    </g>
</svg>