<?xml version="1.0" encoding="UTF-8"?>
<svg width="51px" height="91px" viewBox="0 0 51 91" version="1.1" xmlns="http://www.w3.org/2000/svg" xmlns:xlink="http://www.w3.org/1999/xlink">
    <!-- Generator: Sketch 47.1 (45422) - http://www.bohemiancoding.com/sketch -->
    <title>smooth-muscle</title>
    <desc>Created with Sketch.</desc>
    <defs>
        <circle id="path-1" cx="3" cy="54" r="3"></circle>
        <circle id="path-2" cx="38" cy="8" r="3"></circle>
        <circle id="path-3" cx="46" cy="52" r="3"></circle>
        <circle id="path-4" cx="19" cy="80" r="3"></circle>
        <circle id="path-5" cx="29" cy="51" r="3"></circle>
        <circle id="path-6" cx="21" cy="20" r="3"></circle>
    </defs>
    <g id="Version-2" stroke="none" stroke-width="1" fill="none" fill-rule="evenodd">
        <g id="full-preview-6" transform="translate(-600.000000, -385.000000)">
            <g id="smooth-muscle" transform="translate(601.000000, 385.000000)">
                <path d="M14.6667015,22.3885091 C13.9090112,25.6705906 13.9955192,37.9099726 13.4004042,41.6506953 C12.8052892,45.391418 11.8574307,49.8085432 10.1131025,52.4336118 C8.36877425,55.0586803 3.43707587,64.8579419 2,66.4710167 C2.27965929,59.187943 2.92623157,48.8338374 4.52066241,43.1854655 C6.11509324,37.5370936 15.4243917,19.1064277 14.6667015,22.3885091 Z" id="Path-118-Copy" stroke="#3F3F3F" stroke-linecap="round" stroke-linejoin="round"></path>
                <path d="M6.77863772,42.7452966 C5.66462473,45.5707976 5.57871293,48.4921086 7.63327651,48.5241762 C9.6878401,48.5562438 10.6153839,45.1837664 10.7557657,42.7452966 C10.8961475,40.3068268 10.590064,39.0310574 9.496708,39.000702 C8.40335197,38.9703466 7.89265071,39.9197957 6.77863772,42.7452966 Z" id="Path-119-Copy" stroke="#3F3F3F" stroke-linecap="round" stroke-linejoin="round"></path>
                <path d="M17.2286077,18.4566364 C15.9503588,21.8734715 16.4819807,29.1153932 16.3547395,31.6925141 C16.2274982,34.269635 16.5994761,39.3046991 16.7879832,42.1396803 C19.5503237,37.2846694 21.638662,32.1188724 23.8947615,28.2175868 C26.150861,24.3163012 27.4010935,17.6845827 26.6497088,13.8556729 C25.8983242,10.0267631 27.0508883,1.09653129 27.4010935,0 C25.5897545,2.66545044 21.6229043,8.44037954 20.5641174,10.8922048 C19.5053304,13.3440301 18.5068566,15.0398014 17.2286077,18.4566364 Z" id="Path-120-Copy" stroke="#3F3F3F" stroke-linecap="round" stroke-linejoin="round"></path>
                <path d="M38.9739947,1 C35.4855621,3.26777302 33.1967768,6.78227643 31.0605253,9.08468084 C28.9242738,11.3870853 28.2359261,15.9895594 28.2320349,20.1332648 C28.2281437,24.2769701 24.5790059,32.1768205 24,34.6609424 C28.47212,28.6307986 29.730913,26.8054514 31.3764882,24.7937173 C33.0220633,22.7819832 34.9053889,15.6545298 36.4898727,11.0380474 C38.0743566,6.42156511 38.5767064,3.43314768 38.9739947,1 Z" id="Path-121-Copy" stroke="#3F3F3F" stroke-linecap="round" stroke-linejoin="round"></path>
                <path d="M48.3860088,10 C46.8583361,11.2996503 39.9371146,18.1154211 38.0176012,20.8598622 C36.0980878,23.6043034 36.4257241,28.9305349 36.0980878,31.9002747 C35.7704514,34.8700145 35.3618787,49.1976861 35,51.3222642 C36.778264,48.0610758 40.5293505,43.053531 42.2434102,39.6098469 C43.9574699,36.1661627 44.8469911,24.6638686 46.1528672,20.8598622 C47.4587434,17.0558559 48.6692859,11.8607568 48.3860088,10 Z" id="Path-122-Copy" stroke="#3F3F3F" stroke-linecap="round" stroke-linejoin="round"></path>
                <path d="M45.4519412,39 C43.7989728,44.1830365 42.2856974,50.4746669 40.6696951,53.0210475 C39.0536928,55.5674282 36.2722855,60.2578428 36.2707291,67.611373 C36.2702805,69.7307804 36.1800374,71.5951318 36,73.2044272 C38.395858,70.8617587 40.4517897,68.3971297 42.167795,65.8105403 C44.741803,61.9306561 45.2764495,58.1371559 45.7270468,52.622981 C46.027445,48.9468644 45.9357432,44.4058707 45.4519412,39 Z" id="Path-123-Copy" stroke="#3F3F3F" stroke-linecap="round" stroke-linejoin="round"></path>
                <path d="M33.3650268,29.6260881 C31.6470759,31.364273 26.9037415,36.7247468 25.3519435,42.8961401 C23.8001455,49.0675334 22.7187898,59.1721198 21.9133179,62.3052887 C21.3763366,64.3940679 20.4052307,67.7636902 19,72.4141554 C26.1511895,65.7485837 30.2244647,60.9285933 31.2198256,57.954184 C32.712867,53.4925702 33.9926723,45.9409794 33.3650268,37.7282792 C32.7373814,29.5155789 35.0829777,27.8879031 33.3650268,29.6260881 Z" id="Path-124-Copy" stroke="#3F3F3F" stroke-linecap="round" stroke-linejoin="round"></path>
                <path d="M19.842923,43 C16.5179195,46.6814345 12.3068969,51.2426623 10.5500343,57.3012117 C8.7931717,63.3597611 7.10479368,71.5362735 5.30084795,75.0702328 C4.09821746,77.4262056 3.33126815,80.6963436 3,84.8806468 C7.31738118,80.8831197 10.5489966,77.2226975 12.6948464,73.8993801 C15.913621,68.9144041 18.4872398,62.2328787 19.1654705,55.807003 C19.8437012,49.3811273 19.4464129,47.9441187 19.842923,43 Z" id="Path-125-Copy" stroke="#3F3F3F" stroke-linecap="round" stroke-linejoin="round"></path>
                <path d="M35.0068321,58 C31.4678143,61.3179994 26.1143447,66.63139 22.4877756,72.5603635 C18.8612065,78.489337 16.3338926,86.6172098 15,90.2966988 C19.2195831,87.3362977 27.4579652,79.5197184 30.4775119,74.6767701 C33.4970587,69.8338217 35.3103432,61.1755826 35.0068321,58 Z" id="Path-126-Copy" stroke="#3F3F3F" stroke-linecap="round" stroke-linejoin="round"></path>
                <path d="M14.7161363,56.0223538 C13.0028548,55.6386846 9.99692711,60.2866854 9.74750321,62.8291749 C9.49807931,65.3716644 8.1980399,71.4165947 9.74750321,71.2558895 C11.2969665,71.0951842 13.3550055,66.1814166 14.3725461,62.8291749 C15.3900867,59.4769332 16.4294178,56.406023 14.7161363,56.0223538 Z" id="Path-127-Copy" stroke="#3F3F3F" stroke-linecap="round" stroke-linejoin="round"></path>
                <path d="M28.7527993,46.017497 C27.2589797,45.7058144 25.2682579,49.6413423 25.1382929,51.1966423 C25.0083278,52.7519424 24.6176545,56.2399858 26.2048622,56.2765628 C27.7920698,56.3131398 29.317797,52.3445503 29.610802,51.1382814 C29.903807,49.9320125 30.2466189,46.3291796 28.7527993,46.017497 Z" id="Path-128-Copy" stroke="#3F3F3F" stroke-linecap="round" stroke-linejoin="round"></path>
                <path d="M25.9377408,70.8703331 C24.5396439,72.2692082 23.2314331,75.5914878 24.5396439,76.5063016 C25.8478548,77.4211153 27.8058908,74.6260889 28.7845197,73.214373 C29.7631486,71.8026571 30.6608411,69.3772917 29.7631486,68.2865972 C28.865456,67.1959026 27.3358376,69.471458 25.9377408,70.8703331 Z" id="Path-129-Copy" stroke="#3F3F3F" stroke-linecap="round" stroke-linejoin="round"></path>
                <path d="M39.8750364,60.3882133 C38.7936807,62.605012 38.6259713,66.3514291 39.8750364,66.2771078 C41.1241015,66.2027865 42.5081901,62.5836106 42.843998,61.0002941 C43.1798058,59.4169777 43.942864,54.8896031 42.5081901,55.0020579 C41.0735163,55.1145126 40.9563921,58.1714146 39.8750364,60.3882133 Z" id="Path-130-Copy" stroke="#3F3F3F" stroke-linecap="round" stroke-linejoin="round"></path>
                <path d="M39.5043599,26.8245045 C38.8973376,29.2113473 38.5735924,34.7543168 40.1113822,34.7784421 C41.649172,34.8025673 43.4398878,30.4296721 43.9928228,27.4361962 C44.5457579,24.4427202 44.8379846,21.2449579 43.4398878,21.0107096 C42.0417909,20.7764612 40.1113822,24.4376617 39.5043599,26.8245045 Z" id="Path-131-Copy" stroke="#3F3F3F" stroke-linecap="round" stroke-linejoin="round"></path>
                <path d="M30.5627563,16.198791 C30.3833734,17.8451444 29.3915145,23.4768326 30.5627563,23.2993953 C31.733998,23.121958 34.0675318,17.7144011 34.1866015,15.7408004 C34.3056713,13.7671998 34.3710429,10.8313131 33.0970743,11.007583 C31.8231058,11.183853 30.7421391,14.5524376 30.5627563,16.198791 Z" id="Path-132-Copy" stroke="#3F3F3F" stroke-linecap="round" stroke-linejoin="round"></path>
                <path d="M20.358557,19.9110493 C19.6861631,21.8504077 19.0520463,28.7801325 20.7174664,28.9707998 C22.3828865,29.161467 24.6105961,22.9218915 24.9969891,21.1782589 C25.3833822,19.4346263 25.6199496,14.8913847 24.3662151,15.002283 C23.1124806,15.1131813 21.0309509,17.9716909 20.358557,19.9110493 Z" id="Path-133-Copy" stroke="#3F3F3F" stroke-linecap="round" stroke-linejoin="round"></path>
                <g id="Oval-Copy-520" transform="translate(3.000000, 54.000000) rotate(-90.000000) translate(-3.000000, -54.000000) ">
                    <use fill="#C2C2C2" fill-rule="evenodd" xlink:href="#path-1"></use>
                    <circle stroke="#151515" stroke-width="1.5" cx="3" cy="54" r="2.25"></circle>
                    <use stroke="#151515" stroke-width="1" xlink:href="#path-1"></use>
                </g>
                <g id="Oval-Copy-521" transform="translate(38.000000, 8.000000) rotate(-90.000000) translate(-38.000000, -8.000000) ">
                    <use fill="#C2C2C2" fill-rule="evenodd" xlink:href="#path-2"></use>
                    <circle stroke="#151515" stroke-width="1.5" cx="38" cy="8" r="2.25"></circle>
                    <use stroke="#151515" stroke-width="1" xlink:href="#path-2"></use>
                </g>
                <g id="Oval-Copy-522" transform="translate(46.000000, 52.000000) rotate(-90.000000) translate(-46.000000, -52.000000) ">
                    <use fill="#C2C2C2" fill-rule="evenodd" xlink:href="#path-3"></use>
                    <circle stroke="#151515" stroke-width="1.5" cx="46" cy="52" r="2.25"></circle>
                    <use stroke="#151515" stroke-width="1" xlink:href="#path-3"></use>
                </g>
                <g id="Oval-Copy-523" transform="translate(19.000000, 80.000000) rotate(-90.000000) translate(-19.000000, -80.000000) ">
                    <use fill="#C2C2C2" fill-rule="evenodd" xlink:href="#path-4"></use>
                    <circle stroke="#151515" stroke-width="1.5" cx="19" cy="80" r="2.25"></circle>
                    <use stroke="#151515" stroke-width="1" xlink:href="#path-4"></use>
                </g>
                <g id="Oval-Copy-524" transform="translate(29.000000, 51.000000) rotate(-90.000000) translate(-29.000000, -51.000000) ">
                    <use fill="#C2C2C2" fill-rule="evenodd" xlink:href="#path-5"></use>
                    <circle stroke="#151515" stroke-width="1.5" cx="29" cy="51" r="2.25"></circle>
                    <use stroke="#151515" stroke-width="1" xlink:href="#path-5"></use>
                </g>
                <g id="Oval-Copy-525" transform="translate(21.000000, 20.000000) rotate(-90.000000) translate(-21.000000, -20.000000) ">
                    <use fill="#C2C2C2" fill-rule="evenodd" xlink:href="#path-6"></use>
                    <circle stroke="#151515" stroke-width="1.5" cx="21" cy="20" r="2.25"></circle>
                    <use stroke="#151515" stroke-width="1" xlink:href="#path-6"></use>
                </g>
            </g>
        </g>
    </g>
</svg>