<?xml version="1.0" encoding="UTF-8"?>
<svg width="53px" height="85px" viewBox="0 0 53 85" version="1.1" xmlns="http://www.w3.org/2000/svg" xmlns:xlink="http://www.w3.org/1999/xlink">
    <!-- Generator: Sketch 47.1 (45422) - http://www.bohemiancoding.com/sketch -->
    <title>spine</title>
    <desc>Created with Sketch.</desc>
    <defs>
        <circle id="path-1" cx="33" cy="3" r="3"></circle>
        <circle id="path-2" cx="48" cy="38" r="3"></circle>
        <circle id="path-3" cx="3" cy="38" r="3"></circle>
        <circle id="path-4" cx="33" cy="80" r="3"></circle>
    </defs>
    <g id="Version-2" stroke="none" stroke-width="1" fill="none" fill-rule="evenodd">
        <g id="full-preview-6" transform="translate(-599.000000, -725.000000)">
            <g id="spine" transform="translate(600.000000, 726.000000)">
                <path d="M3.06343311,66.3577757 C3.26803692,69.4023353 5.45416081,74.7844589 9.98101454,74.0806929 C14.5078683,73.376927 15.8860578,69.9863009 18.0971198,69.845006 C20.3081818,69.7037111 20.5059043,71.9829377 20.8345391,74.9424564 C21.1631739,77.901975 23.192313,80.28232 30.8430028,80.0900145 C38.4936926,79.897709 43.7491405,80.1094256 47.0088543,77.724115 C50.2685682,75.3388044 49.9232309,72.2673332 48.9729888,70.525298 C48.0227468,68.7832629 47.1599396,67.1964338 47.2092854,64.9163679 C47.2768297,61.7954238 49.8366153,61.5832609 49.4984433,58.3071266 C49.1602714,55.0309923 47.6858057,54.5286543 45.7620284,54.5115755 C43.484357,54.491355 43.5698832,56.8307482 41.1146452,57.1496822 C38.3512321,57.5086478 28.381364,57.8989166 24.3073239,55.8956335 C22.0733183,54.7971305 21.7653395,54.0110086 20.0720884,54.0001151 C18.329271,53.9889027 17.7752908,54.7965168 16.9301955,56.6115878 C15.7003711,59.2529688 14.9340479,60.4998743 13.3565439,60.4998743 C10.4660927,60.4998743 7.12204279,58.8345683 4.9343511,60.0153837 C3.0664104,61.0236123 2.85882931,63.3132162 3.06343311,66.3577757 Z" id="Path-212-Copy-5" stroke="#3F3F3F" stroke-linecap="round" stroke-linejoin="round"></path>
                <path d="M3.06343311,39.3577757 C3.26803692,42.4023353 5.45416081,47.7844589 9.98101454,47.0806929 C14.5078683,46.376927 15.8860578,42.9863009 18.0971198,42.845006 C20.3081818,42.7037111 20.5059043,44.9829377 20.8345391,47.9424564 C21.1631739,50.901975 23.192313,53.28232 30.8430028,53.0900145 C38.4936926,52.897709 43.7491405,53.1094256 47.0088543,50.724115 C50.2685682,48.3388044 49.9232309,45.2673332 48.9729888,43.525298 C48.0227468,41.7832629 47.1599396,40.1964338 47.2092854,37.9163679 C47.2768297,34.7954238 49.8366153,34.5832609 49.4984433,31.3071266 C49.1602714,28.0309923 47.6858057,27.5286543 45.7620284,27.5115755 C43.484357,27.491355 43.5698832,29.8307482 41.1146452,30.1496822 C38.3512321,30.5086478 28.381364,30.8989166 24.3073239,28.8956335 C22.0733183,27.7971305 21.7653395,27.0110086 20.0720884,27.0001151 C18.329271,26.9889027 17.7752908,27.7965168 16.9301955,29.6115878 C15.7003711,32.2529688 14.9340479,33.4998743 13.3565439,33.4998743 C10.4660927,33.4998743 7.12204279,31.8345683 4.9343511,33.0153837 C3.0664104,34.0236123 2.85882931,36.3132162 3.06343311,39.3577757 Z" id="Path-212-Copy-6" stroke="#3F3F3F" stroke-linecap="round" stroke-linejoin="round"></path>
                <path d="M3.06343311,12.3577757 C3.26803692,15.4023353 5.45416081,20.7844589 9.98101454,20.0806929 C14.5078683,19.376927 15.8860578,15.9863009 18.0971198,15.845006 C20.3081818,15.7037111 20.5059043,17.9829377 20.8345391,20.9424564 C21.1631739,23.901975 23.192313,26.28232 30.8430028,26.0900145 C38.4936926,25.897709 43.7491405,26.1094256 47.0088543,23.724115 C50.2685682,21.3388044 49.9232309,18.2673332 48.9729888,16.525298 C48.0227468,14.7832629 47.1599396,13.1964338 47.2092854,10.9163679 C47.2768297,7.79542382 49.8366153,7.58326086 49.4984433,4.3071266 C49.1602714,1.03099235 47.6858057,0.528654256 45.7620284,0.511575528 C43.484357,0.491355032 43.5698832,2.8307482 41.1146452,3.14968215 C38.3512321,3.50864785 28.381364,3.89891657 24.3073239,1.89563352 C22.0733183,0.797130466 21.7653395,0.0110085512 20.0720884,0.000115089104 C18.329271,-0.0110972557 17.7752908,0.796516788 16.9301955,2.61158785 C15.7003711,5.25296876 14.9340479,6.49987426 13.3565439,6.49987426 C10.4660927,6.49987426 7.12204279,4.83456834 4.9343511,6.01538373 C3.0664104,7.02361225 2.85882931,9.31321621 3.06343311,12.3577757 Z" id="Path-212-Copy-7" stroke="#3F3F3F" stroke-linecap="round" stroke-linejoin="round"></path>
                <g id="Oval-Copy-546" transform="translate(33.000000, 3.000000) rotate(-90.000000) translate(-33.000000, -3.000000) ">
                    <use fill="#C2C2C2" fill-rule="evenodd" xlink:href="#path-1"></use>
                    <circle stroke="#151515" stroke-width="1.5" cx="33" cy="3" r="2.25"></circle>
                    <use stroke="#151515" stroke-width="1" xlink:href="#path-1"></use>
                </g>
                <g id="Oval-Copy-547" transform="translate(48.000000, 38.000000) rotate(-90.000000) translate(-48.000000, -38.000000) ">
                    <use fill="#C2C2C2" fill-rule="evenodd" xlink:href="#path-2"></use>
                    <circle stroke="#151515" stroke-width="1.5" cx="48" cy="38" r="2.25"></circle>
                    <use stroke="#151515" stroke-width="1" xlink:href="#path-2"></use>
                </g>
                <g id="Oval-Copy-550" transform="translate(3.000000, 38.000000) rotate(-90.000000) translate(-3.000000, -38.000000) ">
                    <use fill="#C2C2C2" fill-rule="evenodd" xlink:href="#path-3"></use>
                    <circle stroke="#151515" stroke-width="1.5" cx="3" cy="38" r="2.25"></circle>
                    <use stroke="#151515" stroke-width="1" xlink:href="#path-3"></use>
                </g>
                <g id="Oval-Copy-548" transform="translate(33.000000, 80.000000) rotate(-90.000000) translate(-33.000000, -80.000000) ">
                    <use fill="#C2C2C2" fill-rule="evenodd" xlink:href="#path-4"></use>
                    <circle stroke="#151515" stroke-width="1.5" cx="33" cy="80" r="2.25"></circle>
                    <use stroke="#151515" stroke-width="1" xlink:href="#path-4"></use>
                </g>
            </g>
        </g>
    </g>
</svg>