<?xml version="1.0" encoding="UTF-8"?>
<svg width="61px" height="84px" viewBox="0 0 61 84" version="1.1" xmlns="http://www.w3.org/2000/svg" xmlns:xlink="http://www.w3.org/1999/xlink">
    <!-- Generator: Sketch 47.1 (45422) - http://www.bohemiancoding.com/sketch -->
    <title>stethoscope</title>
    <desc>Created with Sketch.</desc>
    <defs>
        <circle id="path-1" cx="55" cy="51" r="3"></circle>
        <circle id="path-2" cx="29" cy="4" r="3"></circle>
        <circle id="path-3" cx="11" cy="4" r="3"></circle>
    </defs>
    <g id="Version-2" stroke="none" stroke-width="1" fill="none" fill-rule="evenodd">
        <g id="full-preview-7" transform="translate(-980.000000, -549.000000)">
            <g id="stethoscope" transform="translate(980.000000, 550.000000)">
                <g id="Group-7">
                    <path d="M54.8616204,56.4024745 C54.8616204,57.7504962 54.8616204,54.7552215 54.8616204,66.3365404 C54.8616204,77.9178594 46.414057,82.4847361 37.4424939,82.4847361 C28.4709308,82.4847361 19.8919308,78.1119981 19.8919308,65.6929833 C19.8919308,57.4136401 19.8919308,50.6904683 19.8919308,45.523468" id="Path-332" stroke="#3F3F3F" stroke-linecap="round" stroke-linejoin="round"></path>
                    <circle id="Oval-26" stroke="#3F3F3F" stroke-linecap="round" stroke-linejoin="round" cx="29" cy="4" r="4"></circle>
                    <circle id="Oval-26" stroke="#3F3F3F" stroke-linecap="round" stroke-linejoin="round" cx="55" cy="51" r="5"></circle>
                    <circle id="Oval-26-Copy-4" stroke="#3F3F3F" stroke-linecap="round" stroke-linejoin="round" transform="translate(11.000000, 4.000000) scale(-1, 1) translate(-11.000000, -4.000000) " cx="11" cy="4" r="4"></circle>
                    <path d="M13.9962585,4 C15.9692775,4 15.0874889,4 17.3300033,4 C19.5725177,4 20.3345758,5.50464902 20.3345758,7.00457242 C20.3345758,8.50449583 20.3345758,8.19296489 20.3345758,22.9035544 C20.3345758,37.614144 8.45714368,45.6033143 0.5,45.6033143" id="Path-333-Copy" stroke="#3F3F3F" stroke-linecap="round" stroke-linejoin="round" transform="translate(10.417288, 24.801657) scale(-1, 1) translate(-10.417288, -24.801657) "></path>
                    <path d="M1.643,30.3687721 C2.65125946,33.1591244 8.16047819,39.3398345 19.9463034,39.3398345" id="Path-334" stroke="#3F3F3F" stroke-linecap="round" stroke-linejoin="round"></path>
                    <path d="M19.907362,30.3687721 C20.9156214,33.1591244 26.9215351,39.3398345 38.7073603,39.3398345" id="Path-334" stroke="#3F3F3F" stroke-linecap="round" stroke-linejoin="round" transform="translate(29.307361, 34.854303) scale(-1, 1) translate(-29.307361, -34.854303) "></path>
                    <g id="Oval-Copy-530" transform="translate(55.000000, 51.000000) rotate(-90.000000) translate(-55.000000, -51.000000) ">
                        <use fill="#C2C2C2" fill-rule="evenodd" xlink:href="#path-1"></use>
                        <circle stroke="#151515" stroke-width="1.5" cx="55" cy="51" r="2.25"></circle>
                        <use stroke="#151515" stroke-width="1" xlink:href="#path-1"></use>
                    </g>
                    <g id="Oval-Copy-542" transform="translate(29.000000, 4.000000) rotate(-90.000000) translate(-29.000000, -4.000000) ">
                        <use fill="#C2C2C2" fill-rule="evenodd" xlink:href="#path-2"></use>
                        <circle stroke="#151515" stroke-width="1.5" cx="29" cy="4" r="2.25"></circle>
                        <use stroke="#151515" stroke-width="1" xlink:href="#path-2"></use>
                    </g>
                    <g id="Oval-Copy-543" transform="translate(11.000000, 4.000000) rotate(-90.000000) translate(-11.000000, -4.000000) ">
                        <use fill="#C2C2C2" fill-rule="evenodd" xlink:href="#path-3"></use>
                        <circle stroke="#151515" stroke-width="1.5" cx="11" cy="4" r="2.25"></circle>
                        <use stroke="#151515" stroke-width="1" xlink:href="#path-3"></use>
                    </g>
                    <path d="M33.4962585,4 C35.4692775,4 34.5874889,4 36.8300033,4 C39.0725177,4 39.8345758,5.50464902 39.8345758,7.00457242 C39.8345758,8.50449583 39.8345758,8.19296489 39.8345758,22.9035544 C39.8345758,37.614144 27.9571437,45.6033143 20,45.6033143" id="Path-333" stroke="#3F3F3F" stroke-linecap="round" stroke-linejoin="round"></path>
                </g>
            </g>
        </g>
    </g>
</svg>