<?xml version="1.0" encoding="UTF-8"?>
<svg width="72px" height="103px" viewBox="0 0 72 103" version="1.1" xmlns="http://www.w3.org/2000/svg" xmlns:xlink="http://www.w3.org/1999/xlink">
    <!-- Generator: Sketch 47.1 (45422) - http://www.bohemiancoding.com/sketch -->
    <title>straw-berry-fruit</title>
    <desc>Created with Sketch.</desc>
    <defs>
        <circle id="path-1" cx="14" cy="52" r="3"></circle>
        <circle id="path-2" cx="35" cy="52" r="3"></circle>
        <circle id="path-3" cx="35" cy="86" r="3"></circle>
        <circle id="path-4" cx="25" cy="69" r="3"></circle>
        <circle id="path-5" cx="56" cy="52" r="3"></circle>
        <circle id="path-6" cx="53" cy="32" r="3"></circle>
        <circle id="path-7" cx="18" cy="32" r="3"></circle>
        <circle id="path-8" cx="47" cy="3" r="3"></circle>
        <circle id="path-9" cx="46" cy="69" r="3"></circle>
    </defs>
    <g id="Version-2" stroke="none" stroke-width="1" fill="none" fill-rule="evenodd">
        <g id="full-preview-5" transform="translate(-402.000000, -366.000000)">
            <g id="straw-berry-fruit" transform="translate(403.000000, 367.000000)">
                <path d="M35,29.3110101 C43.2579762,29.2721496 50.6321435,30.9358032 57.1225017,34.3019707 C66.858039,39.351222 72.3121318,48.6656441 69.0557498,63.7607942 C65.7993678,78.8559443 56.5211998,84.4312334 51.1562429,92.5215514 C45.791286,100.611869 40.5629554,101 35,101" id="Path-65" stroke="#3F3F3F" stroke-linecap="round" stroke-linejoin="round"></path>
                <path d="M0,29.3110101 C8.25797624,29.2721496 15.6321435,30.9358032 22.1225017,34.3019707 C31.858039,39.351222 37.3121318,48.6656441 34.0557498,63.7607942 C30.7993678,78.8559443 21.5211998,84.4312334 16.1562429,92.5215514 C10.791286,100.611869 5.56295544,101 0,101" id="Path-65-Copy" stroke="#3F3F3F" stroke-linecap="round" stroke-linejoin="round" transform="translate(17.500000, 65.155172) scale(-1, 1) translate(-17.500000, -65.155172) "></path>
                <path d="M19.3562181,31.4786022 C15.4072942,31.0621004 12.0853028,29.2450278 9.3902439,26.0273844 C11.809076,24.7592936 14.6079285,24.3402899 17.7868015,24.7703733 C16.007176,22.3047206 15.1308291,19.9887035 15.1577606,17.8223222 C18.6358595,17.7633495 24.14991,19.3391704 26.204809,21.3535333 C26.1738259,18.9443514 27.1263199,16.2414976 29.0622913,13.2449718 C31.2480346,14.1539847 32.7065076,15.2645768 33.4377104,16.5767482 C33.6157444,11.639486 37.4195241,4.63031776 41.4789149,2.73604457 C44.1851754,1.47319577 46.0194981,1.83537128 46.981883,3.82257108 C47.6420628,5.81954008 46.8802344,7.26323835 44.6963977,8.15366589 C41.4206427,9.48930719 37.4588489,13.8522115 37.1349556,19.140093 C39.5734501,15.749344 42.4177049,14.9194379 43.7690477,14.8125723 C44.7500224,16.4977606 45.9687334,18.9685362 45.8768564,21.748114 C48.8488572,20.3484963 52.7617929,19.7972509 57.6156637,20.0943778 C56.9483339,22.5026066 55.8678555,24.3558968 54.3742285,25.6542483 C56.518502,26.0142793 58.4624575,26.551824 60.2060948,27.2668824 C58.982498,29.4578059 56.4585615,31.1487128 52.6342853,32.339603" id="Path-66" stroke="#3F3F3F" stroke-linecap="round" stroke-linejoin="round"></path>
                <g id="Oval-Copy-194" transform="translate(14.000000, 52.000000) rotate(-90.000000) translate(-14.000000, -52.000000) ">
                    <use fill="#C2C2C2" fill-rule="evenodd" xlink:href="#path-1"></use>
                    <circle stroke="#151515" stroke-width="1.5" cx="14" cy="52" r="2.25"></circle>
                    <use stroke="#151515" stroke-width="1" xlink:href="#path-1"></use>
                </g>
                <g id="Oval-Copy-400" transform="translate(35.000000, 52.000000) rotate(-90.000000) translate(-35.000000, -52.000000) ">
                    <use fill="#C2C2C2" fill-rule="evenodd" xlink:href="#path-2"></use>
                    <circle stroke="#151515" stroke-width="1.5" cx="35" cy="52" r="2.25"></circle>
                    <use stroke="#151515" stroke-width="1" xlink:href="#path-2"></use>
                </g>
                <g id="Oval-Copy-408">
                    <use fill="#C2C2C2" fill-rule="evenodd" xlink:href="#path-3"></use>
                    <circle stroke="#151515" stroke-width="1.5" cx="35" cy="86" r="2.25"></circle>
                    <use stroke="#151515" stroke-width="1" xlink:href="#path-3"></use>
                </g>
                <g id="Oval-Copy-402">
                    <use fill="#C2C2C2" fill-rule="evenodd" xlink:href="#path-4"></use>
                    <circle stroke="#151515" stroke-width="1.5" cx="25" cy="69" r="2.25"></circle>
                    <use stroke="#151515" stroke-width="1" xlink:href="#path-4"></use>
                </g>
                <g id="Oval-Copy-401" transform="translate(56.000000, 52.000000) rotate(-90.000000) translate(-56.000000, -52.000000) ">
                    <use fill="#C2C2C2" fill-rule="evenodd" xlink:href="#path-5"></use>
                    <circle stroke="#151515" stroke-width="1.5" cx="56" cy="52" r="2.25"></circle>
                    <use stroke="#151515" stroke-width="1" xlink:href="#path-5"></use>
                </g>
                <g id="Oval-Copy-403" transform="translate(53.000000, 32.000000) rotate(-90.000000) translate(-53.000000, -32.000000) ">
                    <use fill="#C2C2C2" fill-rule="evenodd" xlink:href="#path-6"></use>
                    <circle stroke="#151515" stroke-width="1.5" cx="53" cy="32" r="2.25"></circle>
                    <use stroke="#151515" stroke-width="1" xlink:href="#path-6"></use>
                </g>
                <g id="Oval-Copy-404" transform="translate(18.000000, 32.000000) rotate(-90.000000) translate(-18.000000, -32.000000) ">
                    <use fill="#C2C2C2" fill-rule="evenodd" xlink:href="#path-7"></use>
                    <circle stroke="#151515" stroke-width="1.5" cx="18" cy="32" r="2.25"></circle>
                    <use stroke="#151515" stroke-width="1" xlink:href="#path-7"></use>
                </g>
                <g id="Oval-Copy-405" transform="translate(47.000000, 3.000000) rotate(-90.000000) translate(-47.000000, -3.000000) ">
                    <use fill="#C2C2C2" fill-rule="evenodd" xlink:href="#path-8"></use>
                    <circle stroke="#151515" stroke-width="1.5" cx="47" cy="3" r="2.25"></circle>
                    <use stroke="#151515" stroke-width="1" xlink:href="#path-8"></use>
                </g>
                <g id="Oval-Copy-407">
                    <use fill="#C2C2C2" fill-rule="evenodd" xlink:href="#path-9"></use>
                    <circle stroke="#151515" stroke-width="1.5" cx="46" cy="69" r="2.25"></circle>
                    <use stroke="#151515" stroke-width="1" xlink:href="#path-9"></use>
                </g>
            </g>
        </g>
    </g>
</svg>