<?xml version="1.0" encoding="UTF-8"?>
<svg width="88px" height="68px" viewBox="0 0 88 68" version="1.1" xmlns="http://www.w3.org/2000/svg" xmlns:xlink="http://www.w3.org/1999/xlink">
    <!-- Generator: Sketch 47.1 (45422) - http://www.bohemiancoding.com/sketch -->
    <title>swimming-pool</title>
    <desc>Created with Sketch.</desc>
    <defs>
        <circle id="path-1" cx="3" cy="42" r="3"></circle>
        <circle id="path-2" cx="3" cy="52" r="3"></circle>
        <circle id="path-3" cx="3" cy="62" r="3"></circle>
        <circle id="path-4" cx="83" cy="42" r="3"></circle>
        <circle id="path-5" cx="83" cy="52" r="3"></circle>
        <circle id="path-6" cx="83" cy="62" r="3"></circle>
        <circle id="path-7" cx="51" cy="10" r="3"></circle>
        <circle id="path-8" cx="71" cy="10" r="3"></circle>
    </defs>
    <g id="Version-2" stroke="none" stroke-width="1" fill="none" fill-rule="evenodd">
        <g id="full-preview-8" transform="translate(-774.000000, -1050.000000)">
            <g id="swimming-pool" transform="translate(775.000000, 1051.000000)">
                <path d="M57.280176,43.9714092 C57.280176,22.6151278 57.280176,10.4376804 57.280176,7.43906687 C57.280176,2.94114661 60.5563898,0.174961352 64.2977257,0.174961352 C68.0390616,0.174961352 70.8454989,2.79930586 70.8454989,7.43906687 C70.8454989,8.5878865 70.8454989,9.6621191 70.8454989,10.6617647" id="Path-524" stroke="#3F3F3F" stroke-linecap="round" stroke-linejoin="round"></path>
                <path d="M37.3946191,25.4606923 L57.3287029,25.4606923" id="Path-525" stroke="#3F3F3F" stroke-linecap="round" stroke-linejoin="round"></path>
                <path d="M37.3946191,34.4606923 L57.3287029,34.4606923" id="Path-525" stroke="#3F3F3F" stroke-linecap="round" stroke-linejoin="round"></path>
                <path d="M2.69403864,52.2523537 C6.19151584,55.5788873 10.9564766,56.6586837 14.8283459,53.3085682 C18.7002151,49.9584527 22.9807032,50.2060459 26.7976643,53.3085682 C30.6146254,56.4110905 33.3953094,55.9784305 36.6063922,53.2499161 C39.817475,50.5214017 44.5056247,50.0845739 47.8963068,53.0640576 C51.2869888,56.0435413 55.0395352,56.297567 58.4412195,53.1446958 C61.8429038,49.9918247 66.5811716,50.4761883 70.1064305,53.5929221 C73.6316894,56.7096558 77.8020987,56.1351294 81.7065131,52.2523537" id="Path-526" stroke="#3F3F3F" stroke-linecap="round" stroke-linejoin="round"></path>
                <path d="M2.69403864,62.2523537 C6.19151584,65.5788873 10.9564766,66.6586837 14.8283459,63.3085682 C18.7002151,59.9584527 22.9807032,60.2060459 26.7976643,63.3085682 C30.6146254,66.4110905 33.3953094,65.9784305 36.6063922,63.2499161 C39.817475,60.5214017 44.5056247,60.0845739 47.8963068,63.0640576 C51.2869888,66.0435413 55.0395352,66.297567 58.4412195,63.1446958 C61.8429038,59.9918247 66.5811716,60.4761883 70.1064305,63.5929221 C73.6316894,66.7096558 77.8020987,66.1351294 81.7065131,62.2523537" id="Path-526" stroke="#3F3F3F" stroke-linecap="round" stroke-linejoin="round"></path>
                <path d="M37.280176,42.8441199 C37.280176,22.2393647 37.280176,10.4376804 37.280176,7.43906687 C37.280176,2.94114661 40.7473253,0.174961352 44.4886612,0.174961352 C48.229997,0.174961352 50.8454989,3.28651882 50.8454989,7.43906687 C50.8454989,8.5878865 50.8454989,9.6621191 50.8454989,10.6617647" id="Path-524" stroke="#3F3F3F" stroke-linecap="round" stroke-linejoin="round"></path>
                <path d="M37.3946191,16.4606923 L57.3287029,16.4606923" id="Path-525" stroke="#3F3F3F" stroke-linecap="round" stroke-linejoin="round"></path>
                <path d="M2.69403864,42.2523537 C6.19151584,45.5788873 10.9564766,46.6586837 14.8283459,43.3085682 C18.7002151,39.9584527 22.9807032,40.2060459 26.7976643,43.3085682 C30.6146254,46.4110905 33.3953094,45.9784305 36.6063922,43.2499161 C39.817475,40.5214017 44.5056247,40.0845739 47.8963068,43.0640576 C51.2869888,46.0435413 55.0395352,46.297567 58.4412195,43.1446958 C61.8429038,39.9918247 66.5811716,40.4761883 70.1064305,43.5929221 C73.6316894,46.7096558 77.8020987,46.1351294 81.7065131,42.2523537" id="Path-526" stroke="#3F3F3F" stroke-linecap="round" stroke-linejoin="round"></path>
                <g id="Oval-Copy-193" transform="translate(3.000000, 42.000000) rotate(-90.000000) translate(-3.000000, -42.000000) ">
                    <use fill="#C2C2C2" fill-rule="evenodd" xlink:href="#path-1"></use>
                    <circle stroke="#151515" stroke-width="1.5" cx="3" cy="42" r="2.25"></circle>
                    <use stroke="#151515" stroke-width="1" xlink:href="#path-1"></use>
                </g>
                <g id="Oval-Copy-193" transform="translate(3.000000, 52.000000) rotate(-90.000000) translate(-3.000000, -52.000000) ">
                    <use fill="#C2C2C2" fill-rule="evenodd" xlink:href="#path-2"></use>
                    <circle stroke="#151515" stroke-width="1.5" cx="3" cy="52" r="2.25"></circle>
                    <use stroke="#151515" stroke-width="1" xlink:href="#path-2"></use>
                </g>
                <g id="Oval-Copy-193" transform="translate(3.000000, 62.000000) rotate(-90.000000) translate(-3.000000, -62.000000) ">
                    <use fill="#C2C2C2" fill-rule="evenodd" xlink:href="#path-3"></use>
                    <circle stroke="#151515" stroke-width="1.5" cx="3" cy="62" r="2.25"></circle>
                    <use stroke="#151515" stroke-width="1" xlink:href="#path-3"></use>
                </g>
                <g id="Oval-Copy-193" transform="translate(83.000000, 42.000000) rotate(-90.000000) translate(-83.000000, -42.000000) ">
                    <use fill="#C2C2C2" fill-rule="evenodd" xlink:href="#path-4"></use>
                    <circle stroke="#151515" stroke-width="1.5" cx="83" cy="42" r="2.25"></circle>
                    <use stroke="#151515" stroke-width="1" xlink:href="#path-4"></use>
                </g>
                <g id="Oval-Copy-193" transform="translate(83.000000, 52.000000) rotate(-90.000000) translate(-83.000000, -52.000000) ">
                    <use fill="#C2C2C2" fill-rule="evenodd" xlink:href="#path-5"></use>
                    <circle stroke="#151515" stroke-width="1.5" cx="83" cy="52" r="2.25"></circle>
                    <use stroke="#151515" stroke-width="1" xlink:href="#path-5"></use>
                </g>
                <g id="Oval-Copy-193" transform="translate(83.000000, 62.000000) rotate(-90.000000) translate(-83.000000, -62.000000) ">
                    <use fill="#C2C2C2" fill-rule="evenodd" xlink:href="#path-6"></use>
                    <circle stroke="#151515" stroke-width="1.5" cx="83" cy="62" r="2.25"></circle>
                    <use stroke="#151515" stroke-width="1" xlink:href="#path-6"></use>
                </g>
                <g id="Oval-Copy-193" transform="translate(51.000000, 10.000000) rotate(-90.000000) translate(-51.000000, -10.000000) ">
                    <use fill="#C2C2C2" fill-rule="evenodd" xlink:href="#path-7"></use>
                    <circle stroke="#151515" stroke-width="1.5" cx="51" cy="10" r="2.25"></circle>
                    <use stroke="#151515" stroke-width="1" xlink:href="#path-7"></use>
                </g>
                <g id="Oval-Copy-193" transform="translate(71.000000, 10.000000) rotate(-90.000000) translate(-71.000000, -10.000000) ">
                    <use fill="#C2C2C2" fill-rule="evenodd" xlink:href="#path-8"></use>
                    <circle stroke="#151515" stroke-width="1.5" cx="71" cy="10" r="2.25"></circle>
                    <use stroke="#151515" stroke-width="1" xlink:href="#path-8"></use>
                </g>
            </g>
        </g>
    </g>
</svg>