<?xml version="1.0" encoding="UTF-8"?>
<svg width="100px" height="73px" viewBox="0 0 100 73" version="1.1" xmlns="http://www.w3.org/2000/svg" xmlns:xlink="http://www.w3.org/1999/xlink">
    <!-- Generator: Sketch 47.1 (45422) - http://www.bohemiancoding.com/sketch -->
    <title>uterus</title>
    <desc>Created with Sketch.</desc>
    <defs>
        <circle id="path-1" cx="49" cy="3" r="3"></circle>
        <circle id="path-2" cx="49" cy="68" r="3"></circle>
        <circle id="path-3" cx="70" cy="29" r="3"></circle>
        <circle id="path-4" cx="28" cy="29" r="3"></circle>
    </defs>
    <g id="Version-2" stroke="none" stroke-width="1" fill="none" fill-rule="evenodd">
        <g id="full-preview-6" transform="translate(-389.000000, -737.000000)">
            <g id="uterus" transform="translate(390.000000, 738.000000)">
                <path d="M49,68.1725141 C51.4576338,68.1725141 52.8366237,69.9736664 55.1674386,69.5171071 C56.3134834,69.2926202 56.7629627,68.1213341 56.3137712,65.7327684 C55.8645798,63.3442027 54.8768446,58.1525628 56.7629627,54.7906829 C58.6490808,51.428803 59.746097,49.8339287 59.746097,47.1223314 C59.746097,43.5979117 56.7629627,42.4187675 56.7629627,37.2160668 C56.7629627,30.14422 60.1826945,23.2947962 66.1766046,20.7261685 C72.1705148,18.1575409 79.7665664,14.7990309 83.0113468,13.5112791 C86.2561271,12.2235272 90.3666716,12.1891741 90.878657,15.5768642 C91.3906425,18.9645542 88.4377958,20.2182703 79.4501131,22.2257923 C69.0114388,24.5574131 64.7651715,25.646575 65.297926,29.6658866 C65.8306805,33.6851982 68.9031099,33.8019834 79.4501131,31.6742167 C92.3025848,29.0813418 97.6810719,22.0209466 98.3278293,17.1639343 C98.9745867,12.306922 96.3771961,7.2901199 88.1253717,6.76297232 C79.8735474,6.23582473 75.9554631,11.2881788 72.8593215,12.0906614 C69.7631799,12.8931439 67.5776197,12.4628725 65.2335013,10.4091747 C62.889383,8.35547696 58.4127631,3 49.2868223,3" id="Path-212-Copy-2" stroke="#3F3F3F" stroke-linecap="round" stroke-linejoin="round"></path>
                <path d="M0,68.1725141 C2.45763384,68.1725141 3.83662365,69.9736664 6.16743858,69.5171071 C7.31348336,69.2926202 7.76296269,68.1213341 7.31377123,65.7327684 C6.86457976,63.3442027 5.87684461,58.1525628 7.76296269,54.7906829 C9.64908078,51.428803 10.746097,49.8339287 10.746097,47.1223314 C10.746097,43.5979117 7.76296269,42.4187675 7.76296269,37.2160668 C7.76296269,30.14422 11.1826945,23.2947962 17.1766046,20.7261685 C23.1705148,18.1575409 30.7665664,14.7990309 34.0113468,13.5112791 C37.2561271,12.2235272 41.3666716,12.1891741 41.878657,15.5768642 C42.3906425,18.9645542 39.4377958,20.2182703 30.4501131,22.2257923 C20.0114388,24.5574131 15.7651715,25.646575 16.297926,29.6658866 C16.8306805,33.6851982 19.9031099,33.8019834 30.4501131,31.6742167 C43.3025848,29.0813418 48.6810719,22.0209466 49.3278293,17.1639343 C49.9745867,12.306922 47.3771961,7.2901199 39.1253717,6.76297232 C30.8735474,6.23582473 26.9554631,11.2881788 23.8593215,12.0906614 C20.7631799,12.8931439 18.5776197,12.4628725 16.2335013,10.4091747 C13.889383,8.35547696 9.23305768,3 0.107116898,3" id="Path-212-Copy-3" stroke="#3F3F3F" stroke-linecap="round" stroke-linejoin="round" transform="translate(24.711135, 36.295626) scale(-1, 1) translate(-24.711135, -36.295626) "></path>
                <g id="Oval-Copy-551" transform="translate(49.000000, 3.000000) rotate(-90.000000) translate(-49.000000, -3.000000) ">
                    <use fill="#C2C2C2" fill-rule="evenodd" xlink:href="#path-1"></use>
                    <circle stroke="#151515" stroke-width="1.5" cx="49" cy="3" r="2.25"></circle>
                    <use stroke="#151515" stroke-width="1" xlink:href="#path-1"></use>
                </g>
                <g id="Oval-Copy-554" transform="translate(49.000000, 68.000000) rotate(-90.000000) translate(-49.000000, -68.000000) ">
                    <use fill="#C2C2C2" fill-rule="evenodd" xlink:href="#path-2"></use>
                    <circle stroke="#151515" stroke-width="1.5" cx="49" cy="68" r="2.25"></circle>
                    <use stroke="#151515" stroke-width="1" xlink:href="#path-2"></use>
                </g>
                <g id="Oval-Copy-552" transform="translate(70.000000, 29.000000) rotate(-90.000000) translate(-70.000000, -29.000000) ">
                    <use fill="#C2C2C2" fill-rule="evenodd" xlink:href="#path-3"></use>
                    <circle stroke="#151515" stroke-width="1.5" cx="70" cy="29" r="2.25"></circle>
                    <use stroke="#151515" stroke-width="1" xlink:href="#path-3"></use>
                </g>
                <g id="Oval-Copy-553" transform="translate(28.000000, 29.000000) rotate(-90.000000) translate(-28.000000, -29.000000) ">
                    <use fill="#C2C2C2" fill-rule="evenodd" xlink:href="#path-4"></use>
                    <circle stroke="#151515" stroke-width="1.5" cx="28" cy="29" r="2.25"></circle>
                    <use stroke="#151515" stroke-width="1" xlink:href="#path-4"></use>
                </g>
            </g>
        </g>
    </g>
</svg>