<?xml version="1.0" encoding="UTF-8"?>
<svg width="65px" height="85px" viewBox="0 0 65 85" version="1.1" xmlns="http://www.w3.org/2000/svg" xmlns:xlink="http://www.w3.org/1999/xlink">
    <!-- Generator: Sketch 47.1 (45422) - http://www.bohemiancoding.com/sketch -->
    <title>utility-pole</title>
    <desc>Created with Sketch.</desc>
    <defs>
        <circle id="path-1" cx="60" cy="43" r="3"></circle>
        <circle id="path-2" cx="3" cy="43" r="3"></circle>
        <circle id="path-3" cx="11" cy="25" r="3"></circle>
        <circle id="path-4" cx="51" cy="25" r="3"></circle>
        <circle id="path-5" cx="31.5" cy="3" r="3"></circle>
        <circle id="path-6" cx="20" cy="80" r="3"></circle>
        <circle id="path-7" cx="44" cy="80" r="3"></circle>
    </defs>
    <g id="Version-2" stroke="none" stroke-width="1" fill="none" fill-rule="evenodd">
        <g id="full-preview-2" transform="translate(-972.000000, -43.000000)">
            <g id="utility-pole" transform="translate(973.000000, 44.000000)">
                <path d="M31.5,2.5 L19.5,79.5" id="Line" stroke="#3F3F3F" stroke-linecap="round" stroke-linejoin="round"></path>
                <path d="M43.5,2.5 L31.5,79.5" id="Line-Copy-12" stroke="#3F3F3F" stroke-linecap="round" stroke-linejoin="round" transform="translate(37.500000, 41.000000) scale(-1, 1) translate(-37.500000, -41.000000) "></path>
                <path d="M34.5,16.625 L53.5,25.375" id="Line-2" stroke="#3F3F3F" stroke-linecap="round" stroke-linejoin="round"></path>
                <path d="M36.5,34.5 L61.5,43.5" id="Line-2-Copy-3" stroke="#3F3F3F" stroke-linecap="round" stroke-linejoin="round"></path>
                <path d="M35.5,25.5 L53.5,25.5" id="Line-2" stroke="#3F3F3F" stroke-linecap="round" stroke-linejoin="round"></path>
                <path d="M28.5,16.47048 L9.5,25.3646987 L28.5,16.47048 Z" id="Line-2-Copy" stroke="#3F3F3F" stroke-linecap="round" stroke-linejoin="round"></path>
                <path d="M9.5,25.5 L27.5,25.5" id="Line-2-Copy-2" stroke="#3F3F3F" stroke-linecap="round" stroke-linejoin="round" transform="translate(18.500000, 25.500000) scale(-1, 1) translate(-18.500000, -25.500000) "></path>
                <path d="M38.5,43.5 L61.5,43.5" id="Line-2-Copy-4" stroke="#3F3F3F" stroke-linecap="round" stroke-linejoin="round"></path>
                <path d="M19.5,79.5 L43.5,79.5" id="Line-2-Copy-7" stroke="#3F3F3F" stroke-linecap="round" stroke-linejoin="round"></path>
                <path d="M1.5,34.5 L26.5,43.5" id="Line-2-Copy-5" stroke="#3F3F3F" stroke-linecap="round" stroke-linejoin="round" transform="translate(14.000000, 39.000000) scale(-1, 1) translate(-14.000000, -39.000000) "></path>
                <path d="M1.5,43.5 L24.5,43.5" id="Line-2-Copy-6" stroke="#3F3F3F" stroke-linecap="round" stroke-linejoin="round" transform="translate(13.000000, 43.500000) scale(-1, 1) translate(-13.000000, -43.500000) "></path>
                <g id="Oval-Copy-308" transform="translate(60.000000, 43.000000) rotate(-90.000000) translate(-60.000000, -43.000000) ">
                    <use fill="#C2C2C2" fill-rule="evenodd" xlink:href="#path-1"></use>
                    <circle stroke="#151515" stroke-width="1.5" cx="60" cy="43" r="2.25"></circle>
                    <use stroke="#151515" stroke-width="1" xlink:href="#path-1"></use>
                </g>
                <g id="Oval-Copy-309" transform="translate(3.000000, 43.000000) rotate(-90.000000) translate(-3.000000, -43.000000) ">
                    <use fill="#C2C2C2" fill-rule="evenodd" xlink:href="#path-2"></use>
                    <circle stroke="#151515" stroke-width="1.5" cx="3" cy="43" r="2.25"></circle>
                    <use stroke="#151515" stroke-width="1" xlink:href="#path-2"></use>
                </g>
                <g id="Oval-Copy-316" transform="translate(11.000000, 25.000000) rotate(-90.000000) translate(-11.000000, -25.000000) ">
                    <use fill="#C2C2C2" fill-rule="evenodd" xlink:href="#path-3"></use>
                    <circle stroke="#151515" stroke-width="1.5" cx="11" cy="25" r="2.25"></circle>
                    <use stroke="#151515" stroke-width="1" xlink:href="#path-3"></use>
                </g>
                <g id="Oval-Copy-317" transform="translate(51.000000, 25.000000) rotate(-90.000000) translate(-51.000000, -25.000000) ">
                    <use fill="#C2C2C2" fill-rule="evenodd" xlink:href="#path-4"></use>
                    <circle stroke="#151515" stroke-width="1.5" cx="51" cy="25" r="2.25"></circle>
                    <use stroke="#151515" stroke-width="1" xlink:href="#path-4"></use>
                </g>
                <g id="Oval-Copy-318" transform="translate(31.500000, 3.000000) rotate(-90.000000) translate(-31.500000, -3.000000) ">
                    <use fill="#C2C2C2" fill-rule="evenodd" xlink:href="#path-5"></use>
                    <circle stroke="#151515" stroke-width="1.5" cx="31.5" cy="3" r="2.25"></circle>
                    <use stroke="#151515" stroke-width="1" xlink:href="#path-5"></use>
                </g>
                <g id="Oval-Copy-319" transform="translate(20.000000, 80.000000) rotate(-90.000000) translate(-20.000000, -80.000000) ">
                    <use fill="#C2C2C2" fill-rule="evenodd" xlink:href="#path-6"></use>
                    <circle stroke="#151515" stroke-width="1.5" cx="20" cy="80" r="2.25"></circle>
                    <use stroke="#151515" stroke-width="1" xlink:href="#path-6"></use>
                </g>
                <g id="Oval-Copy-320" transform="translate(44.000000, 80.000000) rotate(-90.000000) translate(-44.000000, -80.000000) ">
                    <use fill="#C2C2C2" fill-rule="evenodd" xlink:href="#path-7"></use>
                    <circle stroke="#151515" stroke-width="1.5" cx="44" cy="80" r="2.25"></circle>
                    <use stroke="#151515" stroke-width="1" xlink:href="#path-7"></use>
                </g>
            </g>
        </g>
    </g>
</svg>