<?xml version="1.0" encoding="UTF-8"?>
<svg width="70px" height="71px" viewBox="0 0 70 71" version="1.1" xmlns="http://www.w3.org/2000/svg" xmlns:xlink="http://www.w3.org/1999/xlink">
    <!-- Generator: Sketch 47.1 (45422) - http://www.bohemiancoding.com/sketch -->
    <title>washing-machine</title>
    <desc>Created with Sketch.</desc>
    <defs>
        <circle id="path-1" cx="13" cy="41" r="3"></circle>
        <circle id="path-2" cx="57" cy="41" r="3"></circle>
        <circle id="path-3" cx="10" cy="10" r="3"></circle>
        <circle id="path-4" cx="21" cy="10" r="3"></circle>
    </defs>
    <g id="Version-2" stroke="none" stroke-width="1" fill="none" fill-rule="evenodd">
        <g id="full-preview-8" transform="translate(-970.000000, -1220.000000)">
            <g id="washing-machine" transform="translate(970.000000, 1221.000000)">
                <path d="M0.595588492,4.01030447 C0.595588492,1.72159837 1.88924725,0.091156248 4.51473671,0.091156248 C7.14022617,0.091156248 63.3246125,0.091156248 65.7096674,0.091156248 C68.0947223,0.091156248 69.2440615,1.37311178 69.2440615,3.62555035 C69.2440615,5.87798893 69.2440615,62.5652514 69.2440615,64.8604669 C69.2440615,67.1556823 67.9092811,68.7461336 65.6095149,68.7461336 C63.3097486,68.7461336 6.76302377,68.7461336 4.28728017,68.7461336 C1.81153657,68.7461336 0.585455,67.419527 0.585455,65.0443084 C0.585455,62.6690898 0.595588492,6.29901057 0.595588492,4.01030447 Z" id="Path-596" stroke="#3F3F3F" stroke-linecap="round" stroke-linejoin="round"></path>
                <circle id="Oval-7" stroke="#3F3F3F" stroke-linecap="round" stroke-linejoin="round" cx="10" cy="10" r="4.25"></circle>
                <circle id="Oval-8" stroke="#3F3F3F" stroke-linecap="round" stroke-linejoin="round" cx="35" cy="41" r="22"></circle>
                <path d="M13.1291308,41.8192347 C15.7841184,38.9644506 19.1103454,35.7934501 25.2878985,35.8799005 C31.4654516,35.9663509 34.353279,40.7587766 41.2666211,43.2827439 C48.1799631,45.8067112 54.9127198,41.612138 56.9053054,39.6268527" id="Path-597" stroke="#3F3F3F" stroke-linecap="round" stroke-linejoin="round"></path>
                <g id="Oval-Copy-510" transform="translate(13.000000, 41.000000) rotate(-90.000000) translate(-13.000000, -41.000000) ">
                    <use fill="#C2C2C2" fill-rule="evenodd" xlink:href="#path-1"></use>
                    <circle stroke="#151515" stroke-width="1.5" cx="13" cy="41" r="2.25"></circle>
                    <use stroke="#151515" stroke-width="1" xlink:href="#path-1"></use>
                </g>
                <g id="Oval-Copy-512" transform="translate(57.000000, 41.000000) rotate(-90.000000) translate(-57.000000, -41.000000) ">
                    <use fill="#C2C2C2" fill-rule="evenodd" xlink:href="#path-2"></use>
                    <circle stroke="#151515" stroke-width="1.5" cx="57" cy="41" r="2.25"></circle>
                    <use stroke="#151515" stroke-width="1" xlink:href="#path-2"></use>
                </g>
                <g id="Oval-Copy-514" transform="translate(10.000000, 10.000000) rotate(-90.000000) translate(-10.000000, -10.000000) ">
                    <use fill="#C2C2C2" fill-rule="evenodd" xlink:href="#path-3"></use>
                    <circle stroke="#151515" stroke-width="1.5" cx="10" cy="10" r="2.25"></circle>
                    <use stroke="#151515" stroke-width="1" xlink:href="#path-3"></use>
                </g>
                <circle id="Oval-7" stroke="#3F3F3F" stroke-linecap="round" stroke-linejoin="round" cx="21" cy="10" r="4.25"></circle>
                <g id="Oval-Copy-514" transform="translate(21.000000, 10.000000) rotate(-90.000000) translate(-21.000000, -10.000000) ">
                    <use fill="#C2C2C2" fill-rule="evenodd" xlink:href="#path-4"></use>
                    <circle stroke="#151515" stroke-width="1.5" cx="21" cy="10" r="2.25"></circle>
                    <use stroke="#151515" stroke-width="1" xlink:href="#path-4"></use>
                </g>
            </g>
        </g>
    </g>
</svg>