<?xml version="1.0" encoding="UTF-8"?>
<svg width="84px" height="78px" viewBox="0 0 84 78" version="1.1" xmlns="http://www.w3.org/2000/svg" xmlns:xlink="http://www.w3.org/1999/xlink">
    <!-- Generator: Sketch 47.1 (45422) - http://www.bohemiancoding.com/sketch -->
    <title>white-blood-cells</title>
    <desc>Created with Sketch.</desc>
    <defs>
        <circle id="path-1" cx="30" cy="16" r="3"></circle>
        <circle id="path-2" cx="56" cy="17" r="3"></circle>
        <circle id="path-3" cx="47" cy="46" r="3"></circle>
        <circle id="path-4" cx="31" cy="71" r="3"></circle>
        <circle id="path-5" cx="77" cy="33" r="3"></circle>
        <circle id="path-6" cx="3" cy="9" r="3"></circle>
    </defs>
    <g id="Version-2" stroke="none" stroke-width="1" fill="none" fill-rule="evenodd">
        <g id="full-preview-6" transform="translate(-776.000000, -230.000000)">
            <g id="white-blood-cells" transform="translate(777.000000, 231.000000)">
                <path d="M1.0552265,18.3931719 C0.50833933,24.1089847 4.07277154,32.289843 9.54476116,35.2768322 C15.0167508,38.2638214 30.7000031,39.4318028 35.7398458,35.2768322 C40.7796886,31.1218616 39.0161801,16.0385015 37.4347595,11.9901646 C35.8533389,7.94182763 29.069319,-3.19109894 14.5540481,0.88155795 C0.0387771445,4.95421484 1.60211367,12.6773592 1.0552265,18.3931719 Z" id="Path-112-Copy" stroke="#3F3F3F" stroke-linecap="round" stroke-linejoin="round"></path>
                <path d="M44.7779277,21.814468 C44.7642088,16.5482626 45.6746481,9.85902808 54.6855028,5.96284675 C63.6963575,2.06666542 69.3423283,4.41135841 73.5284783,8.51394755 C77.7146283,12.6165367 85.5531365,20.2997713 80.7303026,28.345311 C75.9074686,36.3908506 71.2112232,36.8017954 61.4090346,37.425384 C51.606846,38.0489725 44.7916467,27.0806734 44.7779277,21.814468 Z" id="Path-113-Copy" stroke="#3F3F3F" stroke-linecap="round" stroke-linejoin="round"></path>
                <path d="M47.2050056,38.2232846 C39.7182014,38.3118341 27.8980802,41.000748 26.3621816,51.478283 C24.826283,61.955818 29.8206037,72.7164622 36.7835936,74.8216972 C43.7465835,76.9269322 58.9091393,75.6610474 62.0476605,70.9579425 C65.1861818,66.2548375 63.2861074,55.3962899 60.5853454,49.495895 C57.8845833,43.5955 54.6918099,38.134735 47.2050056,38.2232846 Z" id="Path-114-Copy" stroke="#3F3F3F" stroke-linecap="round" stroke-linejoin="round"></path>
                <path d="M45.4533306,45.3920195 C39.8273146,45.4618614 35.3742687,47.3631829 34.5623564,53.507401 C33.750444,59.6516191 37.2356805,67.3909767 41.8103262,69.4226283 C46.3849719,71.4542798 56.6479924,70.1696873 58.3828158,65.8444771 C60.1176392,61.5192668 58.8199514,53.0353445 56.6479924,49.722842 C54.4760334,46.4103396 51.0793466,45.3221776 45.4533306,45.3920195 Z" id="Path-115-Copy" stroke="#3F3F3F" stroke-linecap="round" stroke-linejoin="round"></path>
                <path d="M48.3625641,13.2625681 C48.2920986,16.9828974 50.7933123,16.9473529 53.9686253,17.0489978 C57.1439382,17.1506428 60.2787179,15.4551055 63.3461501,15.6961224 C66.4135822,15.9371394 71.3954312,20.3602531 72.6538329,23.4301796 C73.9122346,26.5001061 76.3286403,29.8967929 78.2274675,27.9998365 C80.1262946,26.1028801 80.3744829,22.0196222 77.3213933,17.0489978 C74.2683037,12.0783734 68.9131059,9.03837918 63.8416816,8.7864494 C58.7702572,8.53451963 48.4330296,9.54223874 48.3625641,13.2625681 Z" id="Path-116-Copy" stroke="#3F3F3F" stroke-linecap="round" stroke-linejoin="round"></path>
                <path d="M25.3952764,14.1964231 C25.4794609,16.5292679 27.1045327,17.7253108 29.1311955,17.4247411 C31.1578583,17.1241714 33.5511912,14.3635448 32.1892738,12.2458381 C30.8273564,10.1281313 29.1330662,9.99094185 27.4188213,10.1281313 C25.7045763,10.2653208 24.4162424,8.40453255 24.4305849,7.46665536 C24.4449274,6.52877816 23.6673125,4.48403127 20.7139971,4.81328603 C17.7606817,5.14254079 17.5879476,7.34942071 14.9115055,7.46665536 C12.2350634,7.58389001 10.7783606,6.11097383 8.99988598,7.58389001 C7.2214114,9.05680619 8.92380817,14.202659 7.2214114,13.8740278 C5.51901463,13.5453966 4.60919892,14.1384294 4.58363179,16.6402667 C4.55806466,19.142104 6.17627697,22.7358449 8.99988598,21.6682612 C11.823495,20.6006776 10.1803391,18.3164727 10.1572663,16.6402667 C10.1341936,14.9640606 10.2370857,12.708981 13.2396646,13.3195659 C16.2422435,13.9301508 15.0568017,11.5405594 17.5380605,11.238119 C20.0193194,10.9356785 19.3689166,12.7508531 20.9235228,13.1469236 C22.4781291,13.542994 25.311092,11.8635783 25.3952764,14.1964231 Z" id="Path-117-Copy" stroke="#3F3F3F" stroke-linecap="round" stroke-linejoin="round"></path>
                <g id="Oval-Copy-506" transform="translate(30.000000, 16.000000) rotate(-90.000000) translate(-30.000000, -16.000000) ">
                    <use fill="#C2C2C2" fill-rule="evenodd" xlink:href="#path-1"></use>
                    <circle stroke="#151515" stroke-width="1.5" cx="30" cy="16" r="2.25"></circle>
                    <use stroke="#151515" stroke-width="1" xlink:href="#path-1"></use>
                </g>
                <g id="Oval-Copy-507" transform="translate(56.000000, 17.000000) rotate(-90.000000) translate(-56.000000, -17.000000) ">
                    <use fill="#C2C2C2" fill-rule="evenodd" xlink:href="#path-2"></use>
                    <circle stroke="#151515" stroke-width="1.5" cx="56" cy="17" r="2.25"></circle>
                    <use stroke="#151515" stroke-width="1" xlink:href="#path-2"></use>
                </g>
                <g id="Oval-Copy-508" transform="translate(47.000000, 46.000000) rotate(-90.000000) translate(-47.000000, -46.000000) ">
                    <use fill="#C2C2C2" fill-rule="evenodd" xlink:href="#path-3"></use>
                    <circle stroke="#151515" stroke-width="1.5" cx="47" cy="46" r="2.25"></circle>
                    <use stroke="#151515" stroke-width="1" xlink:href="#path-3"></use>
                </g>
                <g id="Oval-Copy-509" transform="translate(31.000000, 71.000000) rotate(-90.000000) translate(-31.000000, -71.000000) ">
                    <use fill="#C2C2C2" fill-rule="evenodd" xlink:href="#path-4"></use>
                    <circle stroke="#151515" stroke-width="1.5" cx="31" cy="71" r="2.25"></circle>
                    <use stroke="#151515" stroke-width="1" xlink:href="#path-4"></use>
                </g>
                <g id="Oval-Copy-510" transform="translate(77.000000, 33.000000) rotate(-90.000000) translate(-77.000000, -33.000000) ">
                    <use fill="#C2C2C2" fill-rule="evenodd" xlink:href="#path-5"></use>
                    <circle stroke="#151515" stroke-width="1.5" cx="77" cy="33" r="2.25"></circle>
                    <use stroke="#151515" stroke-width="1" xlink:href="#path-5"></use>
                </g>
                <g id="Oval-Copy-511" transform="translate(3.000000, 9.000000) rotate(-90.000000) translate(-3.000000, -9.000000) ">
                    <use fill="#C2C2C2" fill-rule="evenodd" xlink:href="#path-6"></use>
                    <circle stroke="#151515" stroke-width="1.5" cx="3" cy="9" r="2.25"></circle>
                    <use stroke="#151515" stroke-width="1" xlink:href="#path-6"></use>
                </g>
            </g>
        </g>
    </g>
</svg>