<?xml version="1.0" encoding="UTF-8"?>
<svg width="51px" height="86px" viewBox="0 0 51 86" version="1.1" xmlns="http://www.w3.org/2000/svg" xmlns:xlink="http://www.w3.org/1999/xlink">
    <!-- Generator: Sketch 49.1 (51147) - http://www.bohemiancoding.com/sketch -->
    <title>iwatch</title>
    <desc>Created with Sketch.</desc>
    <defs>
        <circle id="path-1" cx="10" cy="68" r="3"></circle>
        <circle id="path-2" cx="10" cy="15" r="3"></circle>
        <circle id="path-3" cx="40" cy="68" r="3"></circle>
        <circle id="path-4" cx="40" cy="15" r="3"></circle>
    </defs>
    <g id="Page-2" stroke="none" stroke-width="1" fill="none" fill-rule="evenodd">
        <g id="Draft-3-Copy-11" transform="translate(-221.000000, -4225.000000)">
            <g id="iwatch" transform="translate(222.000000, 4226.000000)">
                <rect id="Rectangle-2" stroke="#3F3F3F" stroke-linecap="round" stroke-linejoin="round" x="0" y="15" width="49" height="53" rx="9"></rect>
                <path d="M41.0778133,84.2274362 C39.4527217,81.8183553 38.6401759,79.2295044 38.6401759,76.4608836 C38.6401759,72.3079523 36.7649352,68 32.88941,68 C30.3057265,68 27.6759232,68 25,68" id="Path-49" stroke="#3F3F3F" stroke-linecap="round" stroke-linejoin="round" transform="translate(33.038907, 76.113718) scale(1, -1) translate(-33.038907, -76.113718) "></path>
                <path d="M25.0778133,84.2274362 C23.4527217,81.8183553 22.6401759,79.2295044 22.6401759,76.4608836 C22.6401759,72.3079523 20.7649352,68 16.88941,68 C14.3057265,68 11.6759232,68 9,68" id="Path-49-Copy" stroke="#3F3F3F" stroke-linecap="round" stroke-linejoin="round" transform="translate(17.038907, 76.113718) scale(-1, -1) translate(-17.038907, -76.113718) "></path>
                <path d="M41.0778133,16.2274362 C39.4527217,13.8183553 38.6401759,11.2295044 38.6401759,8.46088355 C38.6401759,4.30795228 36.7649352,0 32.88941,0 C30.3057265,3.19354539e-16 27.6759232,3.19354539e-16 25,0" id="Path-49" stroke="#3F3F3F" stroke-linecap="round" stroke-linejoin="round"></path>
                <path d="M25.0778133,16.2274362 C23.4527217,13.8183553 22.6401759,11.2295044 22.6401759,8.46088355 C22.6401759,4.30795228 20.7649352,0 16.88941,0 C14.3057265,3.19354539e-16 11.6759232,3.19354539e-16 9,0" id="Path-49-Copy" stroke="#3F3F3F" stroke-linecap="round" stroke-linejoin="round" transform="translate(17.038907, 8.113718) scale(-1, 1) translate(-17.038907, -8.113718) "></path>
                <g id="Oval-Copy-601" transform="translate(10.000000, 68.000000) rotate(-90.000000) translate(-10.000000, -68.000000) ">
                    <use fill="#C2C2C2" fill-rule="evenodd" xlink:href="#path-1"></use>
                    <circle stroke="#151515" stroke-width="1.5" cx="10" cy="68" r="2.25"></circle>
                    <use stroke="#151515" stroke-width="1" xlink:href="#path-1"></use>
                </g>
                <g id="Oval-Copy-602" transform="translate(10.000000, 15.000000) rotate(-90.000000) translate(-10.000000, -15.000000) ">
                    <use fill="#C2C2C2" fill-rule="evenodd" xlink:href="#path-2"></use>
                    <circle stroke="#151515" stroke-width="1.5" cx="10" cy="15" r="2.25"></circle>
                    <use stroke="#151515" stroke-width="1" xlink:href="#path-2"></use>
                </g>
                <g id="Oval-Copy-601" transform="translate(40.000000, 68.000000) rotate(-90.000000) translate(-40.000000, -68.000000) ">
                    <use fill="#C2C2C2" fill-rule="evenodd" xlink:href="#path-3"></use>
                    <circle stroke="#151515" stroke-width="1.5" cx="40" cy="68" r="2.25"></circle>
                    <use stroke="#151515" stroke-width="1" xlink:href="#path-3"></use>
                </g>
                <g id="Oval-Copy-603" transform="translate(40.000000, 15.000000) rotate(-90.000000) translate(-40.000000, -15.000000) ">
                    <use fill="#C2C2C2" fill-rule="evenodd" xlink:href="#path-4"></use>
                    <circle stroke="#151515" stroke-width="1.5" cx="40" cy="15" r="2.25"></circle>
                    <use stroke="#151515" stroke-width="1" xlink:href="#path-4"></use>
                </g>
            </g>
        </g>
    </g>
</svg>