<?xml version="1.0" encoding="UTF-8"?>
<svg width="49px" height="92px" viewBox="0 0 49 92" version="1.1" xmlns="http://www.w3.org/2000/svg" xmlns:xlink="http://www.w3.org/1999/xlink">
    <!-- Generator: Sketch 48.2 (47327) - http://www.bohemiancoding.com/sketch -->
    <title>androidphone</title>
    <desc>Created with Sketch.</desc>
    <defs>
        <circle id="path-1" cx="3" cy="75" r="3"></circle>
        <circle id="path-2" cx="44" cy="75" r="3"></circle>
        <circle id="path-3" cx="44" cy="20" r="3"></circle>
        <circle id="path-4" cx="3" cy="20" r="3"></circle>
    </defs>
    <g id="Draft-3-Copy-11" stroke="none" stroke-width="1" fill="none" fill-rule="evenodd" transform="translate(-538.000000, -4222.000000)">
        <g id="androidphone" transform="translate(539.000000, 4223.000000)">
            <path d="M3,6.51529147 C3,2.73008252 6.1998281,4.74988926e-16 9.43575419,0 C12.6716803,0 34.2397799,7.14998874e-17 37.413186,0 C40.5865922,0 44,2.91370193 44,6.51529147 C44,10.116881 44,80.6947496 44,84.4685595 C44,88.2423695 40.3119897,90 37.9853889,90 C35.6587881,90 12.0240596,90 9.04382751,90 C6.06359545,90 3,87.1794598 3,83.9853044 C3,80.7911489 3,10.3005004 3,6.51529147 Z" id="Path-303-Copy-2" stroke="#3F3F3F" stroke-linecap="round" stroke-linejoin="round"></path>
            <path d="M3,12 C3,9.67610768 5.1998281,8 8.43575419,8 C11.6716803,8 35.2397799,8 38.413186,8 C41.5865922,8 44,9.78883904 44,12" id="Path-303-Copy-2" stroke="#3F3F3F" stroke-linecap="round" stroke-linejoin="round"></path>
            <rect id="Rectangle-3" stroke="#3F3F3F" stroke-linecap="round" stroke-linejoin="round" x="19" y="3" width="10" height="3" rx="1.5"></rect>
            <g id="Oval-Copy-608" transform="translate(3.000000, 75.000000) rotate(-90.000000) translate(-3.000000, -75.000000) ">
                <use fill="#C2C2C2" fill-rule="evenodd" xlink:href="#path-1"></use>
                <circle stroke="#151515" stroke-width="1.5" cx="3" cy="75" r="2.25"></circle>
                <use stroke="#151515" stroke-width="1" xlink:href="#path-1"></use>
            </g>
            <g id="Oval-Copy-611" transform="translate(44.000000, 75.000000) rotate(-90.000000) translate(-44.000000, -75.000000) ">
                <use fill="#C2C2C2" fill-rule="evenodd" xlink:href="#path-2"></use>
                <circle stroke="#151515" stroke-width="1.5" cx="44" cy="75" r="2.25"></circle>
                <use stroke="#151515" stroke-width="1" xlink:href="#path-2"></use>
            </g>
            <g id="Oval-Copy-609" transform="translate(44.000000, 20.000000) rotate(-90.000000) translate(-44.000000, -20.000000) ">
                <use fill="#C2C2C2" fill-rule="evenodd" xlink:href="#path-3"></use>
                <circle stroke="#151515" stroke-width="1.5" cx="44" cy="20" r="2.25"></circle>
                <use stroke="#151515" stroke-width="1" xlink:href="#path-3"></use>
            </g>
            <g id="Oval-Copy-610" transform="translate(3.000000, 20.000000) rotate(-90.000000) translate(-3.000000, -20.000000) ">
                <use fill="#C2C2C2" fill-rule="evenodd" xlink:href="#path-4"></use>
                <circle stroke="#151515" stroke-width="1.5" cx="3" cy="20" r="2.25"></circle>
                <use stroke="#151515" stroke-width="1" xlink:href="#path-4"></use>
            </g>
        </g>
    </g>
</svg>