<?xml version="1.0" encoding="UTF-8"?>
<svg width="151px" height="175px" viewBox="0 0 151 175" version="1.1" xmlns="http://www.w3.org/2000/svg" xmlns:xlink="http://www.w3.org/1999/xlink">
    <!-- Generator: Sketch 48.2 (47327) - http://www.bohemiancoding.com/sketch -->
    <title>color-section-6</title>
    <desc>Created with Sketch.</desc>
    <defs>
        <rect id="path-1" x="0.166666667" y="0" width="150" height="175" rx="4"></rect>
        <ellipse id="path-3" cx="102.49" cy="57.5075628" rx="6.5075628" ry="6.48999977"></ellipse>
        <ellipse id="path-4" cx="132.253326" cy="78.8081816" rx="6.5075628" ry="6.48999977"></ellipse>
    </defs>
    <g id="Draft-3-Copy-11" stroke="none" stroke-width="1" fill="none" fill-rule="evenodd" transform="translate(-960.000000, -6459.000000)">
        <g id="color-section-6" transform="translate(960.000000, 6459.000000)">
            <mask id="mask-2" fill="white">
                <use xlink:href="#path-1"></use>
            </mask>
            <use id="Mask" fill="#F9B38F" xlink:href="#path-1"></use>
            <g id="wearable-device" mask="url(#mask-2)">
                <g transform="translate(-38.000000, -26.000000)">
                    <path d="M86.5739058,210.954545 C89.7320382,202.65321 93.4129348,180.522455 91.8192573,154.577645 C90.2255798,128.632835 78.2975244,55.8528475 70.7038128,40.5681818 C66.482185,52.7482152 64.9657388,53.2168389 63.2426467,79.3666717 C64.9996789,79.4117082 66.0004107,80.3684394 66.244842,82.2368652 C66.0280252,91.204271 65.8972878,96.5502909 65.85263,98.2749251 C65.8079722,99.9995593 64.648056,100.814955 62.3728814,100.721112 C63.0813033,115.949094 64.6802497,127.786644 67.1697206,136.233764 C71.0228398,135.498088 71.3355208,145.229925 71.7076582,147.261606 C72.0797956,149.293288 74.7681675,171.384985 75.0641664,174.021584 C75.3601654,176.658183 72.9990177,177.706391 72.3325924,177.779273 C73.0439309,182.682061 79.0396205,201.63942 86.5739058,210.954545 Z" id="Path-242" stroke="#0F0F0F" stroke-width="5" stroke-linecap="round" stroke-linejoin="round"></path>
                    <path d="M73.220339,45.9772727 C79.9448575,39.8636612 84.0868652,37.8904946 86.0020192,37.8703509 C87.2787886,37.8569218 103.809189,37.8636364 135.59322,37.8904946" id="Path-243" stroke="#0F0F0F" stroke-width="5" stroke-linecap="round" stroke-linejoin="round"></path>
                    <path d="M82.7561183,39.5573213 C83.6548468,41.9054623 94.0136822,84.9551768 95.1681548,93.0223411 C95.9378033,98.4004507 98.0866065,113.731415 101.614564,139.015233" id="Path-245" stroke="#0F0F0F" stroke-width="5" stroke-linecap="round" stroke-linejoin="round"></path>
                    <path d="M4.66489763,79.6204841 C6.29573047,79.6204841 26.1827361,79.6711143 64.3259146,79.7723745" id="Path-247" stroke="#0F0F0F" stroke-width="5" stroke-linecap="round" stroke-linejoin="round"></path>
                    <path d="M5.42372881,100.068182 C7.05456166,100.068182 26.9415673,100.118812 65.0847458,100.220072" id="Path-247" stroke="#0F0F0F" stroke-width="5" stroke-linecap="round" stroke-linejoin="round"></path>
                    <path d="M46.4437526,0.972243756 C24.9576408,10.8803061 13.1163658,34.7183767 11.0366428,59.2330149 C6.77542796,59.4075727 4.66302689,66.0398363 4.69943955,79.1298055 C3.37438945,79.7459617 2.71186441,80.7275832 2.71186441,82.0746701 C2.71186441,84.0953005 2.71186441,96.2315781 2.71186441,97.8399707 C2.71186441,99.4483633 4.49515885,100.994857 6.05035446,100.994857 C6.07811881,102.898489 5.58959733,117.96397 9.98283421,140.546278 C7.94348304,142.342731 7.61968819,159.338759 8.29582894,164.182996 C8.97196969,169.027234 9.4845908,177.943045 14.7593971,190.771484 C15.7024469,191.951349 17.487969,191.951349 20.1159633,190.771484 C22.1378966,196.463642 24.7438287,203.242028 27.9337596,211.106643 C32.7186559,222.903565 43.882116,235.951931 54.2052669,237.628958 C64.5284178,239.305984 104.958121,234.814238 116.495485,233.777232 C128.032849,232.740227 148.009623,215.440056 154.685302,195.306012 C161.36098,175.171968 160.377068,147.789547 158.99563,136.275895 C157.614193,124.762244 143.667365,38.5589554 128.71293,16.4681625 C126.153134,12.6868157 122.830109,9.85347223 119.159545,6.75068443 C114.120413,2.49102436 108.090139,0.1976369 98.3249186,0.1976369 C88.5596986,0.1976369 49.8263038,-0.58757912 46.4437526,0.972243756 Z" id="Path-241" stroke="#0F0F0F" stroke-width="5" stroke-linecap="round" stroke-linejoin="round"></path>
                    <path d="M92.2033898,143.340909 C99.0306046,140.559578 101.275698,139.240579 104.504882,139.240579 C106.657671,139.240579 124.785276,138.804326 158.887696,137.931818" id="Path-244" stroke="#0F0F0F" stroke-width="5" stroke-linecap="round" stroke-linejoin="round"></path>
                    <path d="M103.050847,56.7954545 L129.138999,56.7954545" id="Path-246" stroke="#0F0F0F" stroke-width="5" stroke-linecap="round" stroke-linejoin="round"></path>
                    <path d="M108.474576,78.4318182 L134.562728,78.4318182" id="Path-246-Copy" stroke="#0F0F0F" stroke-width="5" stroke-linecap="round" stroke-linejoin="round"></path>
                    <g id="Oval-Copy-482" stroke="none" transform="translate(102.490000, 57.507563) rotate(-90.000000) translate(-102.490000, -57.507563) ">
                        <use fill="#0F0F0F" fill-rule="evenodd" xlink:href="#path-3"></use>
                        <ellipse stroke="#F9B38F" stroke-width="3.3" cx="102.49" cy="57.5075628" rx="4.8575628" ry="4.83999977"></ellipse>
                        <use stroke="#F9B38F" stroke-width="2.2" xlink:href="#path-3"></use>
                    </g>
                    <g id="Oval-Copy-483" stroke="none" transform="translate(132.253326, 78.808182) rotate(-90.000000) translate(-132.253326, -78.808182) ">
                        <use fill="#0F0F0F" fill-rule="evenodd" xlink:href="#path-4"></use>
                        <ellipse stroke="#F9B38F" stroke-width="3.3" cx="132.253326" cy="78.8081816" rx="4.8575628" ry="4.83999977"></ellipse>
                        <use stroke="#F9B38F" stroke-width="2.2" xlink:href="#path-4"></use>
                    </g>
                </g>
            </g>
        </g>
    </g>
</svg>