<?xml version="1.0" encoding="UTF-8"?>
<svg width="196px" height="196px" viewBox="0 0 196 196" version="1.1" xmlns="http://www.w3.org/2000/svg" xmlns:xlink="http://www.w3.org/1999/xlink">
    <!-- Generator: Sketch 48.2 (47327) - http://www.bohemiancoding.com/sketch -->
    <title>designspecs-1</title>
    <desc>Created with Sketch.</desc>
    <defs>
        <ellipse id="path-1" cx="15.5176471" cy="102.530612" rx="4.53061224" ry="4.51764706"></ellipse>
        <ellipse id="path-2" cx="15.1020408" cy="22.5882353" rx="4.53061224" ry="4.51764706"></ellipse>
        <ellipse id="path-3" cx="60.4081633" cy="102.4" rx="4.53061224" ry="4.51764706"></ellipse>
        <ellipse id="path-4" cx="60.4081633" cy="22.5882353" rx="4.53061224" ry="4.51764706"></ellipse>
    </defs>
    <g id="Draft-3-Copy-11" stroke="none" stroke-width="1" fill="none" fill-rule="evenodd" transform="translate(-343.000000, -4551.000000)">
        <g id="designspecs-1" transform="translate(344.000000, 4551.000000)">
            <circle id="Oval-Copy-6" stroke-opacity="0.2" stroke="#FFFFFF" stroke-width="0.25" fill-opacity="0.01" fill="#FFFFFF" cx="97" cy="98" r="97"></circle>
            <circle id="Oval-Copy-6" stroke-opacity="0.197067482" stroke="#FFFFFF" stroke-width="0.25" fill="#151515" cx="97.5" cy="98.5" r="66"></circle>
            <g id="Group-16-Copy" transform="translate(60.000000, 35.000000)">
                <rect id="Rectangle-2" stroke="#3F3F3F" stroke-width="1.5" stroke-linecap="round" stroke-linejoin="round" x="0" y="22.5882353" width="74" height="79.8117647" rx="13.5"></rect>
                <path d="M62.0358812,126.83661 C59.5816613,123.208817 58.3545513,119.310313 58.3545513,115.141095 C58.3545513,108.887269 55.5225552,102.4 49.6697212,102.4 C45.7678318,102.4 41.7962921,102.4 37.755102,102.4" id="Path-49" stroke="#3F3F3F" stroke-width="1.5" stroke-linecap="round" stroke-linejoin="round" transform="translate(49.895492, 114.618305) scale(1, -1) translate(-49.895492, -114.618305) "></path>
                <path d="M37.8726159,126.83661 C35.418396,123.208817 34.191286,119.310313 34.191286,115.141095 C34.191286,108.887269 31.3592899,102.4 25.5064559,102.4 C21.6045665,102.4 17.6330268,102.4 13.5918367,102.4" id="Path-49-Copy" stroke="#3F3F3F" stroke-width="1.5" stroke-linecap="round" stroke-linejoin="round" transform="translate(25.732226, 114.618305) scale(-1, -1) translate(-25.732226, -114.618305) "></path>
                <path d="M62.0358812,24.4366097 C59.5816613,20.8088173 58.3545513,16.9103125 58.3545513,12.7410952 C58.3545513,6.48726932 55.5225552,0 49.6697212,0 C45.7678318,4.80910364e-16 41.7962921,4.80910364e-16 37.755102,0" id="Path-49" stroke="#3F3F3F" stroke-width="1.5" stroke-linecap="round" stroke-linejoin="round"></path>
                <path d="M37.8726159,24.4366097 C35.418396,20.8088173 34.191286,16.9103125 34.191286,12.7410952 C34.191286,6.48726932 31.3592899,0 25.5064559,0 C21.6045665,4.80910364e-16 17.6330268,4.80910364e-16 13.5918367,0" id="Path-49-Copy" stroke="#3F3F3F" stroke-width="1.5" stroke-linecap="round" stroke-linejoin="round" transform="translate(25.732226, 12.218305) scale(-1, 1) translate(-25.732226, -12.218305) "></path>
                <g id="Oval-Copy-601" transform="translate(15.517647, 102.530612) rotate(-90.000000) translate(-15.517647, -102.530612) ">
                    <use fill="#C2C2C2" fill-rule="evenodd" xlink:href="#path-1"></use>
                    <ellipse stroke="#151515" stroke-width="2.25" cx="15.5176471" cy="102.530612" rx="3.40561224" ry="3.39264706"></ellipse>
                    <use stroke="#151515" stroke-width="1.5" xlink:href="#path-1"></use>
                </g>
                <g id="Oval-Copy-602" transform="translate(15.102041, 22.588235) rotate(-90.000000) translate(-15.102041, -22.588235) ">
                    <use fill="#C2C2C2" fill-rule="evenodd" xlink:href="#path-2"></use>
                    <ellipse stroke="#151515" stroke-width="2.25" cx="15.1020408" cy="22.5882353" rx="3.40561224" ry="3.39264706"></ellipse>
                    <use stroke="#151515" stroke-width="1.5" xlink:href="#path-2"></use>
                </g>
                <g id="Oval-Copy-601" transform="translate(60.408163, 102.400000) rotate(-90.000000) translate(-60.408163, -102.400000) ">
                    <use fill="#C2C2C2" fill-rule="evenodd" xlink:href="#path-3"></use>
                    <ellipse stroke="#151515" stroke-width="2.25" cx="60.4081633" cy="102.4" rx="3.40561224" ry="3.39264706"></ellipse>
                    <use stroke="#151515" stroke-width="1.5" xlink:href="#path-3"></use>
                </g>
                <g id="Oval-Copy-603" transform="translate(60.408163, 22.588235) rotate(-90.000000) translate(-60.408163, -22.588235) ">
                    <use fill="#C2C2C2" fill-rule="evenodd" xlink:href="#path-4"></use>
                    <ellipse stroke="#151515" stroke-width="2.25" cx="60.4081633" cy="22.5882353" rx="3.40561224" ry="3.39264706"></ellipse>
                    <use stroke="#151515" stroke-width="1.5" xlink:href="#path-4"></use>
                </g>
            </g>
            <path d="M29.5,165.5 L165.795635,29.2043654" id="Line-4" stroke="#FFFFFF" stroke-width="0.25" opacity="0.200000003" stroke-linecap="square" transform="translate(97.500000, 97.500000) rotate(-345.000000) translate(-97.500000, -97.500000) "></path>
            <path d="M97.5,193.666522 L97.5,0.915387355" id="Line-4" stroke="#FFFFFF" stroke-width="0.25" opacity="0.200000003" stroke-linecap="square"></path>
            <path d="M29.5,165.5 L165.795635,29.2043654" id="Line-4" stroke="#FFFFFF" stroke-width="0.25" opacity="0.200000003" stroke-linecap="square" transform="translate(97.500000, 97.500000) scale(-1, 1) rotate(-345.000000) translate(-97.500000, -97.500000) "></path>
        </g>
    </g>
</svg>