<?xml version="1.0" encoding="UTF-8"?>
<svg width="107px" height="63px" viewBox="0 0 107 63" version="1.1" xmlns="http://www.w3.org/2000/svg" xmlns:xlink="http://www.w3.org/1999/xlink">
    <!-- Generator: Sketch 48.2 (47327) - http://www.bohemiancoding.com/sketch -->
    <title>notebook</title>
    <desc>Created with Sketch.</desc>
    <defs>
        <circle id="path-1" cx="3" cy="58" r="3"></circle>
        <circle id="path-2" cx="102" cy="58" r="3"></circle>
        <circle id="path-3" cx="20" cy="3" r="3"></circle>
        <circle id="path-4" cx="86" cy="3" r="3"></circle>
    </defs>
    <g id="Draft-3-Copy-11" stroke="none" stroke-width="1" fill="none" fill-rule="evenodd" transform="translate(-983.000000, -4236.000000)">
        <g id="notebook" transform="translate(984.000000, 4237.000000)">
            <path d="M16.5733302,57.6736842 L16.1263158,57.6736842 C13.8474145,57.6736842 12,55.8262697 12,53.5473684 L12,7.12631579 C12,4.84741451 13.8474145,3 16.1263158,3 L89.3684211,3 C91.6473223,3 93.4947368,4.84741451 93.4947368,7.12631579 L93.4947368,53.5473684 C93.4947368,55.8262697 91.6473223,57.6736842 89.3684211,57.6736842 L89.054877,57.6736842" id="Rectangle-6" stroke="#3F3F3F" stroke-linecap="round" stroke-linejoin="round"></path>
            <path d="M90.2836754,58 L102.23376,58 L102.23376,58.8006746 C100.354968,59.9253974 96.2577653,60.4877588 89.9421518,60.4877588 C83.6265383,60.4877588 71.3124877,60.4877588 53,60.4877588" id="Path-52" stroke="#3F3F3F" stroke-linecap="round" stroke-linejoin="round"></path>
            <path d="M40.7156168,58 L53.2337595,58 L53.2337595,58.8006746 C51.3549679,59.9253974 47.2577653,60.4877588 40.9421518,60.4877588 C34.6265383,60.4877588 22.3124877,60.4877588 4,60.4877588" id="Path-52" stroke="#3F3F3F" stroke-linecap="round" stroke-linejoin="round" transform="translate(28.616880, 59.243879) scale(-1, 1) translate(-28.616880, -59.243879) "></path>
            <rect id="Rectangle-7" stroke="#3F3F3F" stroke-linecap="round" stroke-linejoin="round" x="15" y="7" width="75.5" height="47.4526316"></rect>
            <g id="Oval-Copy-619" transform="translate(3.000000, 58.000000) rotate(-90.000000) translate(-3.000000, -58.000000) ">
                <use fill="#C2C2C2" fill-rule="evenodd" xlink:href="#path-1"></use>
                <circle stroke="#151515" stroke-width="1.5" cx="3" cy="58" r="2.25"></circle>
                <use stroke="#151515" stroke-width="1" xlink:href="#path-1"></use>
            </g>
            <g id="Oval-Copy-620" transform="translate(102.000000, 58.000000) rotate(-90.000000) translate(-102.000000, -58.000000) ">
                <use fill="#C2C2C2" fill-rule="evenodd" xlink:href="#path-2"></use>
                <circle stroke="#151515" stroke-width="1.5" cx="102" cy="58" r="2.25"></circle>
                <use stroke="#151515" stroke-width="1" xlink:href="#path-2"></use>
            </g>
            <g id="Oval-Copy-621" transform="translate(20.000000, 3.000000) rotate(-90.000000) translate(-20.000000, -3.000000) ">
                <use fill="#C2C2C2" fill-rule="evenodd" xlink:href="#path-3"></use>
                <circle stroke="#151515" stroke-width="1.5" cx="20" cy="3" r="2.25"></circle>
                <use stroke="#151515" stroke-width="1" xlink:href="#path-3"></use>
            </g>
            <g id="Oval-Copy-622" transform="translate(86.000000, 3.000000) rotate(-90.000000) translate(-86.000000, -3.000000) ">
                <use fill="#C2C2C2" fill-rule="evenodd" xlink:href="#path-4"></use>
                <circle stroke="#151515" stroke-width="1.5" cx="86" cy="3" r="2.25"></circle>
                <use stroke="#151515" stroke-width="1" xlink:href="#path-4"></use>
            </g>
        </g>
    </g>
</svg>