<svg width="36" height="35" viewBox="0 0 36 35" version="1.1" xmlns="http://www.w3.org/2000/svg" xmlns:xlink="http://www.w3.org/1999/xlink">
<title>designer-news</title>
<desc>Created using Figma</desc>
<g id="Canvas" transform="translate(1840 -1425)">
<g id="designer-news">
<g id="a-link">
<g id="a">
<use xlink:href="#path0_fill" transform="translate(-1839.25 1425)" fill="#151515"/>
</g>
</g>
<g id="Shape">
<use xlink:href="#path1_fill" transform="translate(-1833.91 1436.71)" fill="#FFFFFF"/>
</g>
</g>
</g>
<defs>
<path id="path0_fill" d="M 17.5 35C 27.165 35 35 27.165 35 17.5C 35 7.83502 27.165 0 17.5 0C 7.83502 0 0 7.83502 0 17.5C 0 27.165 7.83502 35 17.5 35Z"/>
<path id="path1_fill" fill-rule="evenodd" d="M 20.3562 0.00012207L 23.2332 0.00012207L 23.2332 12.4854L 20.5553 12.4851L 15.6335 5.01208L 15.6335 12.4851L 12.7566 12.4851L 12.7566 0L 15.7603 0L 20.3562 6.98474L 20.3562 0.00012207ZM 10.9109 6.22461C 10.9109 2.51538 8.6311 0.00012207 4.28833 0.00012207L 0 0.00012207L 0 12.4852L 4.37878 12.4852C 8.59485 12.4852 10.9109 9.93408 10.9109 6.22461ZM 7.79871 6.24268C 7.79871 8.92065 6.42346 10.0787 4.21606 10.0787L 3.09412 10.0787L 3.09412 2.40674L 4.21606 2.40674C 6.33301 2.40674 7.79871 3.61902 7.79871 6.24268Z"/>
</defs>
</svg>
