<?xml version="1.0" encoding="UTF-8"?><svg version="1.1" viewBox="0 0 86 76" xmlns="http://www.w3.org/2000/svg" xmlns:xlink="http://www.w3.org/1999/xlink"><!--Generated by IJSVG (https://github.com/curthard89/IJSVG)--><defs><path d="M67.6213,50.3787c1.17157,1.17157 1.17157,3.07107 0,4.24264c-1.17157,1.17157 -3.07107,1.17157 -4.24264,0c-1.17157,-1.17157 -1.17157,-3.07107 0,-4.24264c1.17157,-1.17157 3.07107,-1.17157 4.24264,0" id="f"></path><path d="M46.6213,58.8787c1.17157,1.17157 1.17157,3.07107 0,4.24264c-1.17157,1.17157 -3.07107,1.17157 -4.24264,0c-1.17157,-1.17157 -1.17157,-3.07107 0,-4.24264c1.17157,-1.17157 3.07107,-1.17157 4.24264,0" id="d"></path><path d="M46.6213,12.3787c1.17157,1.17157 1.17157,3.07107 0,4.24264c-1.17157,1.17157 -3.07107,1.17157 -4.24264,0c-1.17157,-1.17157 -1.17157,-3.07107 0,-4.24264c1.17157,-1.17157 3.07107,-1.17157 4.24264,0" id="c"></path><path d="M24.6213,67.3787c1.17157,1.17157 1.17157,3.07107 0,4.24264c-1.17157,1.17157 -3.07107,1.17157 -4.24264,0c-1.17157,-1.17157 -1.17157,-3.07107 0,-4.24264c1.17157,-1.17157 3.07107,-1.17157 4.24264,0" id="b"></path><path d="M67.6213,20.8787c1.17157,1.17157 1.17157,3.07107 0,4.24264c-1.17157,1.17157 -3.07107,1.17157 -4.24264,0c-1.17157,-1.17157 -1.17157,-3.07107 0,-4.24264c1.17157,-1.17157 3.07107,-1.17157 4.24264,0" id="e"></path><path d="M24.6213,3.87868c1.17157,1.17157 1.17157,3.07107 0,4.24264c-1.17157,1.17157 -3.07107,1.17157 -4.24264,0c-1.17157,-1.17157 -1.17157,-3.07107 0,-4.24264c1.17157,-1.17157 3.07107,-1.17157 4.24264,-8.88178e-16" id="a"></path></defs><g transform="matrix(1,0,0,1,-401,-1555)"><g transform="matrix(1,0,0,1,402,1555)"><path fill="none" fill-rule="evenodd" stroke="#E5E5E5" stroke-linecap="round" stroke-linejoin="round" stroke-width="1" d="M9,1c-4.97056,0 -9,16.5655 -9,37c0,20.4345 4.02944,37 9,37v0"></path><path fill="none" fill-rule="evenodd" stroke="#E5E5E5" stroke-linecap="round" stroke-linejoin="round" stroke-width="1" d="M82,46c1.10457,0 2,-3.58172 2,-8c0,-4.41828 -0.895431,-8 -2,-8"></path><path fill="none" fill-rule="evenodd" stroke="#E5E5E5" stroke-linecap="round" stroke-linejoin="round" stroke-width="1" d="M9.31988,0.982779l72.7253,29.0429"></path><g transform="matrix(1,0,0,1,45.842,60.4962)"><g transform="matrix(1,0,0,-1,0,0)"><path fill="none" fill-rule="evenodd" stroke="#E5E5E5" stroke-linecap="round" stroke-linejoin="round" stroke-width="1" d="M9.51604,46l72.652,28.9925" transform="matrix(1,0,0,1,-45.842,-60.4962)"></path></g></g><path fill="none" fill-rule="evenodd" stroke="#E5E5E5" stroke-linecap="round" stroke-linejoin="round" stroke-width="1" d="M22.5,6.5v63"></path><path fill="none" fill-rule="evenodd" stroke="#E5E5E5" stroke-linecap="round" stroke-linejoin="round" stroke-width="1" d="M44.5,15.4904v45.1094"></path><path fill="none" fill-rule="evenodd" stroke="#E5E5E5" stroke-linecap="round" stroke-linejoin="round" stroke-width="1" d="M65.5,23.5v29"></path><g transform="matrix(1,0,0,1,22.5,6)"><g transform="matrix(6.12323e-17,-1,1,6.12323e-17,0,0)"><g transform="matrix(1,0,0,1,-22.5,-6)"><use fill="#515151" fill-rule="evenodd" stroke="none" xlink:href="#a"></use><path fill="none" fill-rule="evenodd" stroke="#FFF" stroke-width="1.5" d="M24.091,4.40901c0.87868,0.87868 0.87868,2.3033 0,3.18198c-0.87868,0.87868 -2.3033,0.87868 -3.18198,0c-0.87868,-0.87868 -0.87868,-2.3033 0,-3.18198c0.87868,-0.87868 2.3033,-0.87868 3.18198,0"></path><use fill="none" fill-rule="evenodd" stroke="#FFF" stroke-width="1" xlink:href="#a"></use></g></g></g><g transform="matrix(1,0,0,1,22.5,69.5)"><g transform="matrix(6.12323e-17,-1,1,6.12323e-17,0,0)"><g transform="matrix(1,0,0,1,-22.5,-69.5)"><use fill="#515151" fill-rule="evenodd" stroke="none" xlink:href="#b"></use><path fill="none" fill-rule="evenodd" stroke="#FFF" stroke-width="1.5" d="M24.091,67.909c0.87868,0.87868 0.87868,2.3033 0,3.18198c-0.87868,0.87868 -2.3033,0.87868 -3.18198,0c-0.87868,-0.87868 -0.87868,-2.3033 0,-3.18198c0.87868,-0.87868 2.3033,-0.87868 3.18198,0"></path><use fill="none" fill-rule="evenodd" stroke="#FFF" stroke-width="1" xlink:href="#b"></use></g></g></g><g transform="matrix(1,0,0,1,44.5,14.5)"><g transform="matrix(6.12323e-17,-1,1,6.12323e-17,0,0)"><g transform="matrix(1,0,0,1,-44.5,-14.5)"><use fill="#515151" fill-rule="evenodd" stroke="none" xlink:href="#c"></use><path fill="none" fill-rule="evenodd" stroke="#FFF" stroke-width="1.5" d="M46.091,12.909c0.87868,0.87868 0.87868,2.3033 0,3.18198c-0.87868,0.87868 -2.3033,0.87868 -3.18198,0c-0.87868,-0.87868 -0.87868,-2.3033 0,-3.18198c0.87868,-0.87868 2.3033,-0.87868 3.18198,0"></path><use fill="none" fill-rule="evenodd" stroke="#FFF" stroke-width="1" xlink:href="#c"></use></g></g></g><g transform="matrix(1,0,0,1,44.5,61)"><g transform="matrix(6.12323e-17,-1,1,6.12323e-17,0,0)"><g transform="matrix(1,0,0,1,-44.5,-61)"><use fill="#515151" fill-rule="evenodd" stroke="none" xlink:href="#d"></use><path fill="none" fill-rule="evenodd" stroke="#FFF" stroke-width="1.5" d="M46.091,59.409c0.87868,0.87868 0.87868,2.3033 0,3.18198c-0.87868,0.87868 -2.3033,0.87868 -3.18198,0c-0.87868,-0.87868 -0.87868,-2.3033 0,-3.18198c0.87868,-0.87868 2.3033,-0.87868 3.18198,0"></path><use fill="none" fill-rule="evenodd" stroke="#FFF" stroke-width="1" xlink:href="#d"></use></g></g></g><g transform="matrix(1,0,0,1,65.5,23)"><g transform="matrix(6.12323e-17,-1,1,6.12323e-17,0,0)"><g transform="matrix(1,0,0,1,-65.5,-23)"><use fill="#515151" fill-rule="evenodd" stroke="none" xlink:href="#e"></use><path fill="none" fill-rule="evenodd" stroke="#FFF" stroke-width="1.5" d="M67.091,21.409c0.87868,0.87868 0.87868,2.3033 0,3.18198c-0.87868,0.87868 -2.3033,0.87868 -3.18198,0c-0.87868,-0.87868 -0.87868,-2.3033 0,-3.18198c0.87868,-0.87868 2.3033,-0.87868 3.18198,0"></path><use fill="none" fill-rule="evenodd" stroke="#FFF" stroke-width="1" xlink:href="#e"></use></g></g></g><g transform="matrix(1,0,0,1,65.5,52.5)"><g transform="matrix(6.12323e-17,-1,1,6.12323e-17,0,0)"><g transform="matrix(1,0,0,1,-65.5,-52.5)"><use fill="#515151" fill-rule="evenodd" stroke="none" xlink:href="#f"></use><path fill="none" fill-rule="evenodd" stroke="#FFF" stroke-width="1.5" d="M67.091,50.909c0.87868,0.87868 0.87868,2.3033 0,3.18198c-0.87868,0.87868 -2.3033,0.87868 -3.18198,0c-0.87868,-0.87868 -0.87868,-2.3033 0,-3.18198c0.87868,-0.87868 2.3033,-0.87868 3.18198,0"></path><use fill="none" fill-rule="evenodd" stroke="#FFF" stroke-width="1" xlink:href="#f"></use></g></g></g></g></g></svg>