<svg width="36" height="35" viewBox="0 0 36 35" version="1.1" xmlns="http://www.w3.org/2000/svg" xmlns:xlink="http://www.w3.org/1999/xlink">
<title>Group 10</title>
<desc>Created using Figma</desc>
<g id="Canvas" transform="translate(1932 -1425)">
<g id="Group 10">
<g id="Oval 12">
<use xlink:href="#path0_fill" transform="translate(-1931.75 1425)" fill="#151515"/>
</g>
<g id="Fill 1">
<use xlink:href="#path1_fill" transform="translate(-1921.95 1433.75)" fill="#FFFFFF"/>
</g>
</g>
</g>
<defs>
<path id="path0_fill" fill-rule="evenodd" d="M 17.5 35C 27.165 35 35 27.165 35 17.5C 35 7.83502 27.165 0 17.5 0C 7.83502 0 0 7.83502 0 17.5C 0 27.165 7.83502 35 17.5 35Z"/>
<path id="path1_fill" fill-rule="evenodd" d="M 10.6467 8.26785C 9.80799 8.26785 9.12867 8.94793 9.12867 9.78588L 9.12867 15.099L 5.33362 15.099C 5.33362 15.099 5.3784 5.99082 5.33362 5.23181L 9.12867 5.23181L 9.12867 6.35894C 9.12867 6.35894 10.3036 5.26369 12.1177 5.26369C 14.3658 5.26369 15.9598 6.89101 15.9598 10.0485L 15.9598 15.099L 12.1647 15.099L 12.1647 9.78588C 12.1647 8.94793 11.4846 8.26785 10.6467 8.26785L 10.6467 8.26785ZM 1.91043 3.71384L 1.88842 3.71384C 0.741553 3.71384 0 2.81669 0 1.83073C 0 0.822009 0.764324 0 1.9332 0C 3.10284 0 3.82162 0.848574 3.84439 1.8573C 3.84439 2.84401 3.10284 3.71384 1.91043 3.71384L 1.91043 3.71384ZM 0.0205078 15.099L 3.81556 15.099L 3.81556 5.23181L 0.0205078 5.23181L 0.0205078 15.099Z"/>
</defs>
</svg>
