<svg width="35" height="35" viewBox="0 0 35 35" version="1.1" xmlns="http://www.w3.org/2000/svg" xmlns:xlink="http://www.w3.org/1999/xlink">
<title>Group 2</title>
<desc>Created using Figma</desc>
<g id="Canvas" transform="translate(1885 -1425)">
<g id="Group 2">
<g id="Oval 13">
<use xlink:href="#path0_fill" transform="translate(-1884 1426)" fill="#FFFFFF"/>
</g>
<g id="pinterest-logo">
<g id="Shape">
<use xlink:href="#path1_fill" transform="translate(-1885 1425)" fill="#151515"/>
</g>
</g>
</g>
</g>
<defs>
<path id="path0_fill" fill-rule="evenodd" d="M 16.5 33C 25.6127 33 33 25.6127 33 16.5C 33 7.3873 25.6127 0 16.5 0C 7.3873 0 0 7.3873 0 16.5C 0 25.6127 7.3873 33 16.5 33Z"/>
<path id="path1_fill" d="M 0 17.4322C 0 24.5703 4.29233 30.7025 10.4345 33.3986C 10.3855 32.1813 10.4258 30.7201 10.7379 29.3956C 11.0731 27.9805 12.9809 19.8969 12.9809 19.8969C 12.9809 19.8969 12.424 18.7838 12.424 17.1388C 12.424 14.5555 13.9213 12.6261 15.786 12.6261C 17.3716 12.6261 18.1376 13.8171 18.1376 15.2432C 18.1376 16.8372 17.121 19.2214 16.5982 21.4297C 16.1614 23.2788 17.5253 24.7871 19.3496 24.7871C 22.6524 24.7871 24.8768 20.545 24.8768 15.5189C 24.8768 11.6983 22.3036 8.83866 17.6232 8.83866C 12.3354 8.83866 9.04117 12.7821 9.04117 17.1869C 9.04117 18.7057 9.48895 19.7766 10.1903 20.606C 10.5128 20.9869 10.5576 21.1401 10.4409 21.5776C 10.3573 21.8983 10.1653 22.6705 10.0857 22.9765C 9.96969 23.418 9.61193 23.5758 9.2129 23.4128C 6.77733 22.4185 5.64303 19.7513 5.64303 16.753C 5.64303 11.8011 9.81934 5.86339 18.1017 5.86339C 24.7571 5.86339 29.1376 10.6795 29.1376 15.8493C 29.1376 22.6876 25.3358 27.7964 19.7317 27.7964C 17.8497 27.7964 16.0794 26.7791 15.473 25.6235C 15.473 25.6235 14.461 29.64 14.2466 30.4155C 13.877 31.7596 13.1536 33.1029 12.4921 34.1499C 14.0599 34.6127 15.7161 34.8648 17.4326 34.8648C 27.0588 34.8648 34.8639 27.06 34.8639 17.4322C 34.8639 7.80473 27.0588 0 17.4326 0C 7.80541 0 0 7.80473 0 17.4322Z"/>
</defs>
</svg>
