<svg width="35" height="35" viewBox="0 0 35 35" version="1.1" xmlns="http://www.w3.org/2000/svg" xmlns:xlink="http://www.w3.org/1999/xlink">
<title>product-hunt</title>
<desc>Created using Figma</desc>
<g id="Canvas" transform="translate(1793 -1425)">
<g id="product-hunt">
<g id="Shape">
<use xlink:href="#path0_fill" transform="translate(-1793 1425)" fill="#151515"/>
</g>
<g id="Shape">
<use xlink:href="#path1_fill" transform="translate(-1779.88 1435.5)" fill="#FFFFFF"/>
</g>
</g>
</g>
<defs>
<path id="path0_fill" d="M 17.5 35C 27.1652 35 35 27.1652 35 17.5C 35 7.8348 27.1652 0 17.5 0C 7.8348 0 0 7.8348 0 17.5C 0 27.1652 7.8348 35 17.5 35Z"/>
<path id="path1_fill" fill-rule="evenodd" d="M 0 14L 0 0L 6.59753 0C 9.2356 0 11.375 2.1394 11.375 4.8125C 11.375 7.41565 9.2356 9.55505 6.59753 9.625L 2.625 9.625L 2.625 14L 0 14ZM 2.625 7L 6.62988 7C 7.80066 7 8.75 6.02002 8.75 4.8125C 8.75 3.60498 7.80066 2.625 6.62988 2.625L 2.625 2.625L 2.625 7Z"/>
</defs>
</svg>
