<?xml version="1.0" encoding="UTF-8"?><svg version="1.1" viewBox="0 0 78 81" xmlns="http://www.w3.org/2000/svg" xmlns:xlink="http://www.w3.org/1999/xlink"><!--Generated by IJSVG (https://github.com/curthard89/IJSVG)--><defs><path d="M7.12132,57.8787c1.17157,1.17157 1.17157,3.07107 0,4.24264c-1.17157,1.17157 -3.07107,1.17157 -4.24264,0c-1.17157,-1.17157 -1.17157,-3.07107 0,-4.24264c1.17157,-1.17157 3.07107,-1.17157 4.24264,0" id="i"></path><path d="M65.1213,28.8787c1.17157,1.17157 1.17157,3.07107 0,4.24264c-1.17157,1.17157 -3.07107,1.17157 -4.24264,0c-1.17157,-1.17157 -1.17157,-3.07107 0,-4.24264c1.17157,-1.17157 3.07107,-1.17157 4.24264,0" id="g"></path><path d="M40.1213,38.8787c1.17157,1.17157 1.17157,3.07107 0,4.24264c-1.17157,1.17157 -3.07107,1.17157 -4.24264,0c-1.17157,-1.17157 -1.17157,-3.07107 0,-4.24264c1.17157,-1.17157 3.07107,-1.17157 4.24264,0" id="j"></path><path d="M37.1213,0.87868c1.17157,1.17157 1.17157,3.07107 0,4.24264c-1.17157,1.17157 -3.07107,1.17157 -4.24264,8.88178e-16c-1.17157,-1.17157 -1.17157,-3.07107 0,-4.24264c1.17157,-1.17157 3.07107,-1.17157 4.24264,0" id="h"></path><path d="M19.1213,22.8787c1.17157,1.17157 1.17157,3.07107 0,4.24264c-1.17157,1.17157 -3.07107,1.17157 -4.24264,0c-1.17157,-1.17157 -1.17157,-3.07107 0,-4.24264c1.17157,-1.17157 3.07107,-1.17157 4.24264,0" id="e"></path><path d="M64.1213,14.8787c1.17157,1.17157 1.17157,3.07107 0,4.24264c-1.17157,1.17157 -3.07107,1.17157 -4.24264,0c-1.17157,-1.17157 -1.17157,-3.07107 0,-4.24264c1.17157,-1.17157 3.07107,-1.17157 4.24264,0" id="k"></path><path d="M65,41c0,14.9108 -12.0892,27 -27,27c-14.9108,0 -27,-12.0892 -27,-27c0,-14.9108 12.0892,-27 27,-27c14.9108,0 27,12.0892 27,27Z" id="b"></path><path d="M76,41c0,20.9892 -17.0108,38 -38,38c-20.9892,0 -38,-17.0108 -38,-38c0,-20.9892 17.0108,-38 38,-38c20.9892,0 38,17.0108 38,38Z" id="a"></path><path d="M38,41l23,-23" id="d"></path><path d="M53,41c0,8.28667 -6.71667,15 -15,15c-8.28333,0 -15,-6.71333 -15,-15c0,-8.28333 6.71667,-15 15,-15c8.28333,0 15,6.71667 15,15Z" id="c"></path><path d="M53.1213,44.8787c1.17157,1.17157 1.17157,3.07107 0,4.24264c-1.17157,1.17157 -3.07107,1.17157 -4.24264,0c-1.17157,-1.17157 -1.17157,-3.07107 0,-4.24264c1.17157,-1.17157 3.07107,-1.17157 4.24264,0" id="f"></path></defs><g transform="matrix(1,0,0,1,-399,-46)"><g transform="matrix(1,0,0,1,400,47)"><use fill="none" fill-rule="evenodd" stroke="#E5E5E5" stroke-linecap="round" stroke-linejoin="round" stroke-width="1" xlink:href="#a"></use><use fill="none" fill-rule="evenodd" stroke="#E5E5E5" stroke-linecap="round" stroke-linejoin="round" stroke-width="1" xlink:href="#b"></use><use fill="none" fill-rule="evenodd" stroke="#E5E5E5" stroke-linecap="round" stroke-linejoin="round" stroke-width="1" xlink:href="#c"></use><use fill="none" fill-rule="evenodd" stroke="#E5E5E5" stroke-linecap="round" stroke-linejoin="round" stroke-width="1" xlink:href="#d"></use><use fill="none" fill-rule="evenodd" stroke="#E5E5E5" stroke-linecap="round" stroke-linejoin="round" stroke-width="1" xlink:href="#a"></use><use fill="none" fill-rule="evenodd" stroke="#E5E5E5" stroke-linecap="round" stroke-linejoin="round" stroke-width="1" xlink:href="#b"></use><use fill="none" fill-rule="evenodd" stroke="#E5E5E5" stroke-linecap="round" stroke-linejoin="round" stroke-width="1" xlink:href="#c"></use><use fill="none" fill-rule="evenodd" stroke="#E5E5E5" stroke-linecap="round" stroke-linejoin="round" stroke-width="1" xlink:href="#d"></use><g transform="matrix(1,0,0,1,17,25)"><g transform="matrix(6.12323e-17,-1,1,6.12323e-17,0,0)"><g transform="matrix(1,0,0,1,-17,-25)"><use fill="#515151" fill-rule="evenodd" stroke="none" xlink:href="#e"></use><path fill="none" fill-rule="evenodd" stroke="#FFF" stroke-width="1.5" d="M18.591,23.409c0.87868,0.87868 0.87868,2.3033 0,3.18198c-0.87868,0.87868 -2.3033,0.87868 -3.18198,0c-0.87868,-0.87868 -0.87868,-2.3033 0,-3.18198c0.87868,-0.87868 2.3033,-0.87868 3.18198,0"></path><use fill="none" fill-rule="evenodd" stroke="#FFF" stroke-width="1" xlink:href="#e"></use></g></g></g><g transform="matrix(1,0,0,1,51,47)"><g transform="matrix(6.12323e-17,-1,1,6.12323e-17,0,0)"><g transform="matrix(1,0,0,1,-51,-47)"><use fill="#515151" fill-rule="evenodd" stroke="none" xlink:href="#f"></use><path fill="none" fill-rule="evenodd" stroke="#FFF" stroke-width="1.5" d="M52.591,45.409c0.87868,0.87868 0.87868,2.3033 0,3.18198c-0.87868,0.87868 -2.3033,0.87868 -3.18198,0c-0.87868,-0.87868 -0.87868,-2.3033 0,-3.18198c0.87868,-0.87868 2.3033,-0.87868 3.18198,0"></path><use fill="none" fill-rule="evenodd" stroke="#FFF" stroke-width="1" xlink:href="#f"></use></g></g></g><g transform="matrix(1,0,0,1,63,31)"><g transform="matrix(6.12323e-17,-1,1,6.12323e-17,0,0)"><g transform="matrix(1,0,0,1,-63,-31)"><use fill="#515151" fill-rule="evenodd" stroke="none" xlink:href="#g"></use><path fill="none" fill-rule="evenodd" stroke="#FFF" stroke-width="1.5" d="M64.591,29.409c0.87868,0.87868 0.87868,2.3033 0,3.18198c-0.87868,0.87868 -2.3033,0.87868 -3.18198,0c-0.87868,-0.87868 -0.87868,-2.3033 0,-3.18198c0.87868,-0.87868 2.3033,-0.87868 3.18198,0"></path><use fill="none" fill-rule="evenodd" stroke="#FFF" stroke-width="1" xlink:href="#g"></use></g></g></g><g transform="matrix(1,0,0,1,35,3)"><g transform="matrix(6.12323e-17,-1,1,6.12323e-17,0,0)"><g transform="matrix(1,0,0,1,-35,-3)"><use fill="#515151" fill-rule="evenodd" stroke="none" xlink:href="#h"></use><path fill="none" fill-rule="evenodd" stroke="#FFF" stroke-width="1.5" d="M36.591,1.40901c0.87868,0.87868 0.87868,2.3033 0,3.18198c-0.87868,0.87868 -2.3033,0.87868 -3.18198,0c-0.87868,-0.87868 -0.87868,-2.3033 0,-3.18198c0.87868,-0.87868 2.3033,-0.87868 3.18198,-4.44089e-16"></path><use fill="none" fill-rule="evenodd" stroke="#FFF" stroke-width="1" xlink:href="#h"></use></g></g></g><g transform="matrix(1,0,0,1,5,60)"><g transform="matrix(6.12323e-17,-1,1,6.12323e-17,0,0)"><g transform="matrix(1,0,0,1,-5,-60)"><use fill="#515151" fill-rule="evenodd" stroke="none" xlink:href="#i"></use><path fill="none" fill-rule="evenodd" stroke="#FFF" stroke-width="1.5" d="M6.59099,58.409c0.87868,0.87868 0.87868,2.3033 0,3.18198c-0.87868,0.87868 -2.3033,0.87868 -3.18198,0c-0.87868,-0.87868 -0.87868,-2.3033 -4.44089e-16,-3.18198c0.87868,-0.87868 2.3033,-0.87868 3.18198,0"></path><use fill="none" fill-rule="evenodd" stroke="#FFF" stroke-width="1" xlink:href="#i"></use></g></g></g><g transform="matrix(1,0,0,1,38,41)"><g transform="matrix(6.12323e-17,-1,1,6.12323e-17,0,0)"><g transform="matrix(1,0,0,1,-38,-41)"><use fill="#515151" fill-rule="evenodd" stroke="none" xlink:href="#j"></use><path fill="none" fill-rule="evenodd" stroke="#FFF" stroke-width="1.5" d="M39.591,39.409c0.87868,0.87868 0.87868,2.3033 0,3.18198c-0.87868,0.87868 -2.3033,0.87868 -3.18198,0c-0.87868,-0.87868 -0.87868,-2.3033 0,-3.18198c0.87868,-0.87868 2.3033,-0.87868 3.18198,0"></path><use fill="none" fill-rule="evenodd" stroke="#FFF" stroke-width="1" xlink:href="#j"></use></g></g></g><g transform="matrix(1,0,0,1,62,17)"><g transform="matrix(6.12323e-17,-1,1,6.12323e-17,0,0)"><g transform="matrix(1,0,0,1,-62,-17)"><use fill="#515151" fill-rule="evenodd" stroke="none" xlink:href="#k"></use><path fill="none" fill-rule="evenodd" stroke="#FFF" stroke-width="1.5" d="M63.591,15.409c0.87868,0.87868 0.87868,2.3033 0,3.18198c-0.87868,0.87868 -2.3033,0.87868 -3.18198,0c-0.87868,-0.87868 -0.87868,-2.3033 0,-3.18198c0.87868,-0.87868 2.3033,-0.87868 3.18198,0"></path><use fill="none" fill-rule="evenodd" stroke="#FFF" stroke-width="1" xlink:href="#k"></use></g></g></g></g></g></svg>