<?xml version="1.0" encoding="UTF-8"?>
<svg width="76px" height="86px" viewBox="0 0 76 86" version="1.1" xmlns="http://www.w3.org/2000/svg" xmlns:xlink="http://www.w3.org/1999/xlink">
    <!-- Generator: Sketch 49.3 (51167) - http://www.bohemiancoding.com/sketch -->
    <title>term1</title>
    <desc>Created with Sketch.</desc>
    <defs>
        <circle id="path-1" cx="39" cy="24" r="3"></circle>
        <circle id="path-2" cx="57" cy="25" r="3"></circle>
        <circle id="path-3" cx="50" cy="67" r="3"></circle>
        <circle id="path-4" cx="58" cy="51" r="3"></circle>
        <circle id="path-5" cx="17" cy="41" r="3"></circle>
    </defs>
    <g id="Page-2" stroke="none" stroke-width="1" fill="none" fill-rule="evenodd">
        <g id="Draft-3-Copy-11" transform="translate(-210.000000, -3543.000000)">
            <g id="term1" transform="translate(211.000000, 3544.000000)">
                <path d="M58,52.7231418 C57.2130185,42.6979706 56.8195278,33.5040917 56.8195278,25.1415052 C56.8195278,16.7789186 56.8195278,8.39841693 56.8195278,0 L0,0 L0,67 L51.0104612,67" id="Path-61" stroke="#3F3F3F" stroke-linecap="round" stroke-linejoin="round"></path>
                <path d="M53.8740509,70.7001385 C47.2762193,62.4330011 44.5264169,58.7929684 46.8972887,51.7460809 C49.2681605,44.6991933 50.214317,40.850522 51.415403,36.5763945 C52.6164889,32.302267 56.9185197,32.8149163 57.0788453,37.574845" id="Path-62" stroke="#3F3F3F" stroke-linecap="round" stroke-linejoin="round"></path>
                <path d="M57,24 C59.6906462,24.4689619 62.1890756,25.6892323 64.2848576,31.6015452 C66.3806397,37.5138582 69.8800686,42.0261523 70.7516318,46.2241893 C71.6231949,50.4222264 69.9304479,69.8314326 69.809925,71" id="Path-63" stroke="#3F3F3F" stroke-linecap="round" stroke-linejoin="round"></path>
                <polyline id="Path-64" stroke="#3F3F3F" stroke-linecap="round" stroke-linejoin="round" points="53 74.9953333 53 71 73 71 73 75"></polyline>
                <polygon id="Path-65" stroke="#3F3F3F" stroke-linecap="round" stroke-linejoin="round" points="51 75 51 84 74 84 74 75.0208953"></polygon>
                <path d="M28.5,12 L28.5,16" id="Path-57" stroke="#3F3F3F" stroke-linecap="round" stroke-linejoin="round"></path>
                <path d="M28.5,50 L28.5,54" id="Path-57-Copy" stroke="#3F3F3F" stroke-linecap="round" stroke-linejoin="round"></path>
                <path d="M39.405986,25.1927909 C39.1100529,19.8194779 35.9204917,15.6741465 27.5131055,16.0201862 C19.1057193,16.3662259 17.0256404,23.2068904 19.1057193,27.2777058 C21.1857982,31.3485213 25.5396749,32.008957 28.8813023,32.6765381 C32.2229298,33.3441192 39.424148,34.4659412 39.9471057,40.307786 C40.4700634,46.1496307 37.0427942,48.8536403 32.872487,49.6518794 C28.7021799,50.4501186 17.9070298,50.7568588 17,40.307786" id="Path-56" stroke="#3F3F3F" stroke-linecap="round" stroke-linejoin="round"></path>
                <g id="Oval-Copy-497" transform="translate(39.000000, 24.000000) rotate(-360.000000) translate(-39.000000, -24.000000) ">
                    <use fill="#C2C2C2" fill-rule="evenodd" xlink:href="#path-1"></use>
                    <circle stroke="#151515" stroke-width="1.5" cx="39" cy="24" r="2.25"></circle>
                    <use stroke="#151515" stroke-width="1" xlink:href="#path-1"></use>
                </g>
                <g id="Oval-Copy-498" transform="translate(57.000000, 25.000000) rotate(-360.000000) translate(-57.000000, -25.000000) ">
                    <use fill="#C2C2C2" fill-rule="evenodd" xlink:href="#path-2"></use>
                    <circle stroke="#151515" stroke-width="1.5" cx="57" cy="25" r="2.25"></circle>
                    <use stroke="#151515" stroke-width="1" xlink:href="#path-2"></use>
                </g>
                <g id="Oval-Copy-499" transform="translate(50.000000, 67.000000) rotate(-360.000000) translate(-50.000000, -67.000000) ">
                    <use fill="#C2C2C2" fill-rule="evenodd" xlink:href="#path-3"></use>
                    <circle stroke="#151515" stroke-width="1.5" cx="50" cy="67" r="2.25"></circle>
                    <use stroke="#151515" stroke-width="1" xlink:href="#path-3"></use>
                </g>
                <g id="Oval-Copy-500" transform="translate(58.000000, 51.000000) rotate(-360.000000) translate(-58.000000, -51.000000) ">
                    <use fill="#C2C2C2" fill-rule="evenodd" xlink:href="#path-4"></use>
                    <circle stroke="#151515" stroke-width="1.5" cx="58" cy="51" r="2.25"></circle>
                    <use stroke="#151515" stroke-width="1" xlink:href="#path-4"></use>
                </g>
                <g id="Oval-Copy-502" transform="translate(17.000000, 41.000000) rotate(-360.000000) translate(-17.000000, -41.000000) ">
                    <use fill="#C2C2C2" fill-rule="evenodd" xlink:href="#path-5"></use>
                    <circle stroke="#151515" stroke-width="1.5" cx="17" cy="41" r="2.25"></circle>
                    <use stroke="#151515" stroke-width="1" xlink:href="#path-5"></use>
                </g>
            </g>
        </g>
    </g>
</svg>