<svg width="35" height="35" viewBox="0 0 35 35" version="1.1" xmlns="http://www.w3.org/2000/svg" xmlns:xlink="http://www.w3.org/1999/xlink">
<title>Group 11</title>
<desc>Created using Figma</desc>
<g id="Canvas" transform="translate(1978 -1425)">
<g id="Group 11">
<g id="Group 9">
<g id="Oval 12 Copy 2">
<use xlink:href="#path0_fill" transform="translate(-1978 1425)" fill="#151515"/>
</g>
<g id="Fill 1">
<use xlink:href="#path1_fill" transform="translate(-1969.6 1435.5)" fill="#FFFFFF"/>
</g>
</g>
</g>
</g>
<defs>
<path id="path0_fill" fill-rule="evenodd" d="M 17.5 35C 27.165 35 35 27.165 35 17.5C 35 7.83502 27.165 0 17.5 0C 7.83502 0 0 7.83502 0 17.5C 0 27.165 7.83502 35 17.5 35Z"/>
<path id="path1_fill" fill-rule="evenodd" d="M 18.8966 1.9651C 18.2113 2.27072 17.6337 2.28083 17.0207 1.97857C 17.8113 1.5054 17.8475 1.17367 18.133 0.279526C 17.3937 0.718179 16.5745 1.03643 15.7031 1.20903C 15.006 0.465595 14.0108 0 12.9112 0C 10.7979 0 9.08542 1.7142 9.08542 3.8258C 9.08542 4.12637 9.1191 4.41852 9.18393 4.69805C 6.00391 4.53892 3.18508 3.01584 1.29828 0.700498C 0.969078 1.26544 0.779641 1.923 0.779641 2.62434C 0.779641 3.95209 1.45572 5.12239 2.48205 5.80857C 1.8548 5.78837 1.26544 5.61661 0.749331 5.33035C 0.748489 5.34635 0.748489 5.3615 0.748489 5.37834C 0.748489 7.2323 2.06782 8.77811 3.81822 9.13004C 3.25748 9.28244 2.66644 9.30601 2.08971 9.19572C 2.57719 10.7154 3.98997 11.8217 5.66376 11.8529C 4.02702 13.136 1.99709 13.6707 0 13.4366C 1.69315 14.5219 3.70371 15.155 5.86414 15.155C 12.902 15.155 16.7488 9.32538 16.7488 4.2695C 16.7488 4.10364 16.7463 3.93946 16.7387 3.77444C 17.4855 3.23559 18.3839 2.73295 18.8966 1.9651"/>
</defs>
</svg>
