<?xml version="1.0" encoding="UTF-8"?>
<svg width="74px" height="31px" viewBox="0 0 74 31" version="1.1" xmlns="http://www.w3.org/2000/svg" xmlns:xlink="http://www.w3.org/1999/xlink">
    <!-- Generator: Sketch 48.2 (47327) - http://www.bohemiancoding.com/sketch -->
    <title>SVG</title>
    <desc>Created with Sketch.</desc>
    <defs></defs>
    <g id="Draft-3-Copy-11" stroke="none" stroke-width="1" fill="none" fill-rule="evenodd" transform="translate(-206.000000, -3663.000000)" opacity="0.900000036">
        <path d="M209.84,3691.18 C207.893324,3689.51332 206.800001,3687.30668 206.56,3684.56 L210.4,3684 C210.693335,3685.92001 211.459994,3687.49333 212.7,3688.72 C213.940006,3689.94667 215.733322,3690.56 218.08,3690.56 C219.840009,3690.56 221.333327,3690.16 222.56,3689.36 C223.786673,3688.56 224.4,3687.33334 224.4,3685.68 C224.4,3684.10666 223.960004,3682.95334 223.08,3682.22 C222.199996,3681.48666 220.840009,3680.93334 219,3680.56 L214.88,3679.72 C210.13331,3678.73333 207.76,3676.12002 207.76,3671.88 C207.76,3670.30666 208.166663,3668.92001 208.98,3667.72 C209.793337,3666.51999 210.939993,3665.58667 212.42,3664.92 C213.900007,3664.25333 215.63999,3663.92 217.64,3663.92 C220.600015,3663.92 223.026657,3664.59999 224.92,3665.96 C226.813343,3667.32001 227.893332,3669.33332 228.16,3672 L224.36,3672.8 C223.853331,3668.87998 221.586687,3666.92 217.56,3666.92 C215.799991,3666.92 214.380005,3667.33333 213.3,3668.16 C212.219995,3668.98667 211.68,3670.10666 211.68,3671.52 C211.68,3672.88001 212.05333,3673.94666 212.8,3674.72 C213.54667,3675.49334 214.719992,3676.05333 216.32,3676.4 L220.48,3677.28 C222.960012,3677.78667 224.88666,3678.65333 226.26,3679.88 C227.63334,3681.10667 228.32,3682.91999 228.32,3685.32 C228.32,3686.84001 227.940004,3688.23333 227.18,3689.5 C226.419996,3690.76667 225.260008,3691.78 223.7,3692.54 C222.139992,3693.3 220.226678,3693.68 217.96,3693.68 C214.493316,3693.68 211.786676,3692.84667 209.84,3691.18 Z M230,3664.6 L234,3664.6 L240.8,3685.48 C241.280002,3686.89334 241.626666,3688.17333 241.84,3689.32 L242,3689.32 C242.213334,3688.17333 242.559998,3686.89334 243.04,3685.48 L249.84,3664.6 L253.84,3664.6 L244,3693 L239.84,3693 L230,3664.6 Z M261.14,3691.76 C259.259991,3690.47999 257.820005,3688.71334 256.82,3686.46 C255.819995,3684.20666 255.32,3681.65335 255.32,3678.8 C255.32,3675.89332 255.833328,3673.31334 256.86,3671.06 C257.886672,3668.80666 259.37999,3667.05334 261.34,3665.8 C263.30001,3664.54666 265.65332,3663.92 268.4,3663.92 C270.800012,3663.92 272.779992,3664.38666 274.34,3665.32 C275.900008,3666.25334 277.059996,3667.36666 277.82,3668.66 C278.580004,3669.95334 279.053332,3671.23999 279.24,3672.52 L275.48,3673.04 C275.213332,3671.49333 274.513339,3670.12001 273.38,3668.92 C272.246661,3667.71999 270.546678,3667.12 268.28,3667.12 C266.386657,3667.12 264.75334,3667.61333 263.38,3668.6 C262.00666,3669.58667 260.96667,3670.95999 260.26,3672.72 C259.55333,3674.48001 259.2,3676.51999 259.2,3678.84 C259.2,3682.25335 259.979992,3685.03999 261.54,3687.2 C263.100008,3689.36001 265.359985,3690.44 268.32,3690.44 C270.453344,3690.44 272.119994,3689.95334 273.32,3688.98 C274.520006,3688.00666 275.326665,3686.87334 275.74,3685.58 C276.153335,3684.28666 276.36,3683.04001 276.36,3681.84 L276.36,3681.36 L268.04,3681.36 L268.04,3678.16 L279.76,3678.16 L279.76,3693 L277,3693 L276.48,3688.44 C275.839997,3690.01334 274.746674,3691.28 273.2,3692.24 C271.653326,3693.2 269.84001,3693.68 267.76,3693.68 C265.226654,3693.68 263.020009,3693.04001 261.14,3691.76 Z" id="SVG" fill="#FFFFFF"></path>
    </g>
</svg>